<svg style="visibility: hidden; width: 0; height: 0;">

  <symbol id="logo-icon" viewBox="0 0 25 26" fill="none" xmlns="http://www.w3.org/2000/svg">
    <path
      d="M23.738 18.178a.875.875 0 0 0 0-1.75h-5.542V8.55h5.542a.875.875 0 0 0 0-1.75h-5.542V1.259a.875.875 0 0 0-1.75 0V6.8H8.568V1.258a.875.875 0 0 0-1.75 0v5.543H1.276a.875.875 0 0 0 0 1.75H6.82v7.876H1.276a.875.875 0 0 0 0 1.75H6.82v5.543a.875.875 0 1 0 1.75 0v-5.542h7.876v5.542a.875.875 0 0 0 1.75 0v-5.542h5.543Zm-15.169-1.75V8.55h7.876v7.876H8.57Z"
      fill="#fff"/>
    <path
      d="M1.494 5.852 2.88 4.465l1.387 1.387a.872.872 0 0 0 1.238 0 .875.875 0 0 0 0-1.237L4.118 3.227 5.505 1.84A.875.875 0 1 0 4.267.603L2.88 1.99 1.494.603A.875.875 0 1 0 .256 1.84l1.387 1.387L.256 4.614a.875.875 0 1 0 1.238 1.238Zm12.251 6.638 1.386-1.388a.875.875 0 1 0-1.237-1.237l-1.387 1.387-1.387-1.387a.875.875 0 1 0-1.237 1.237l1.387 1.387-1.387 1.387a.875.875 0 1 0 1.237 1.238l1.387-1.387 1.387 1.387a.873.873 0 0 0 1.237 0 .875.875 0 0 0 0-1.238l-1.386-1.387Zm-1.238-6.035a3.231 3.231 0 0 0 3.227-3.228A3.231 3.231 0 0 0 12.507 0a3.231 3.231 0 0 0-3.228 3.227 3.231 3.231 0 0 0 3.228 3.228Zm0-4.705a1.48 1.48 0 0 1 1.477 1.477 1.48 1.48 0 0 1-1.477 1.478 1.479 1.479 0 0 1-1.477-1.478c0-.814.662-1.477 1.477-1.477Zm9.266 16.846a3.231 3.231 0 0 0-3.228 3.228 3.23 3.23 0 0 0 3.228 3.227A3.23 3.23 0 0 0 25 21.824a3.23 3.23 0 0 0-3.227-3.228Zm0 4.705a1.479 1.479 0 0 1-1.478-1.477 1.479 1.479 0 0 1 2.955 0 1.48 1.48 0 0 1-1.477 1.477Z"
      fill="#fff"/>
  </symbol>

  <symbol id="x-icon" viewBox="0 0 117 116" fill="none" xmlns="http://www.w3.org/2000/svg">
    <path
      d="M7.19 6.8.96 13.03l22.52 22.52L46.03 58.1 23.48 80.64.96 103.17l6.23 6.25 6.24 6.23 22.53-22.52L58.5 70.58l22.54 22.55 22.53 22.52 6.25-6.23 6.22-6.25-22.52-22.52-22.55-22.54 22.55-22.55 22.52-22.52-6.23-6.25-6.24-6.22-22.53 22.52L58.5 45.63 35.96 23.1 13.43.57 7.2 6.79Z"
      fill="#fff"/>
  </symbol>

  <symbol id="0-icon" viewBox="0 0 148 148" fill="none" xmlns="http://www.w3.org/2000/svg">
    <circle cx="74" cy="74" r="68" stroke="#fff" stroke-width="12"/>
  </symbol>

</svg>





