<svg id="close" width="17" height="17" viewBox="0 0 17 17" fill="none" xmlns="http://www.w3.org/2000/svg">
<path d="M10.8704 8.99223L16.5982 3.27776C16.849 3.02693 16.99 2.68673 16.99 2.332C16.99 1.97728 16.849 1.63708 16.5982 1.38625C16.3474 1.13542 16.0072 0.994507 15.6525 0.994507C15.2977 0.994507 14.9575 1.13542 14.7067 1.38625L8.99223 7.11405L3.27776 1.38625C3.02693 1.13542 2.68673 0.994507 2.332 0.994507C1.97728 0.994507 1.63708 1.13542 1.38625 1.38625C1.13542 1.63708 0.994507 1.97728 0.994507 2.332C0.994507 2.68673 1.13542 3.02693 1.38625 3.27776L7.11405 8.99223L1.38625 14.7067C1.2614 14.8305 1.1623 14.9779 1.09468 15.1402C1.02705 15.3025 0.992233 15.4766 0.992233 15.6525C0.992233 15.8283 1.02705 16.0024 1.09468 16.1647C1.1623 16.3271 1.2614 16.4744 1.38625 16.5982C1.51008 16.7231 1.65741 16.8222 1.81973 16.8898C1.98205 16.9574 2.15616 16.9922 2.332 16.9922C2.50785 16.9922 2.68195 16.9574 2.84428 16.8898C3.0066 16.8222 3.15392 16.7231 3.27776 16.5982L8.99223 10.8704L14.7067 16.5982C14.8305 16.7231 14.9779 16.8222 15.1402 16.8898C15.3025 16.9574 15.4766 16.9922 15.6525 16.9922C15.8283 16.9922 16.0024 16.9574 16.1647 16.8898C16.3271 16.8222 16.4744 16.7231 16.5982 16.5982C16.7231 16.4744 16.8222 16.3271 16.8898 16.1647C16.9574 16.0024 16.9922 15.8283 16.9922 15.6525C16.9922 15.4766 16.9574 15.3025 16.8898 15.1402C16.8222 14.9779 16.7231 14.8305 16.5982 14.7067L10.8704 8.99223Z" fill="white" fill-opacity="0.8"/>
</svg>
