<svg id="logo" width="32" height="32" viewBox="0 0 32 32" fill="none" xmlns="http://www.w3.org/2000/svg">
<path d="M2.66665 24L9.33331 16L13.3333 20L18.6666 13.3333L25.3333 21.3333M1.33331 1.33334H25.3333V25.3333H1.33331V1.33334ZM6.66665 25.3333V30.6667H30.6666V7.96001H25.3333L6.66665 25.3333ZM7.99998 10.6667C8.3536 10.6667 8.69274 10.5262 8.94279 10.2762C9.19284 10.0261 9.33331 9.68697 9.33331 9.33334C9.33331 8.97972 9.19284 8.64058 8.94279 8.39053C8.69274 8.14049 8.3536 8.00001 7.99998 8.00001C7.64636 8.00001 7.30722 8.14049 7.05717 8.39053C6.80712 8.64058 6.66665 8.97972 6.66665 9.33334C6.66665 9.68697 6.80712 10.0261 7.05717 10.2762C7.30722 10.5262 7.64636 10.6667 7.99998 10.6667Z" stroke="white" stroke-width="2"/>
</svg>
