<svg id="logo" width="270" height="39" viewBox="0 0 270 39" fill="none" xmlns="http://www.w3.org/2000/svg">
<path d="M12.299 39C13.8193 39 15.0517 37.7555 15.0517 36.2204C15.0517 34.6853 13.8193 33.4408 12.299 33.4408C10.7788 33.4408 9.54639 34.6853 9.54639 36.2204C9.54639 37.7555 10.7788 39 12.299 39Z" fill="#EA0535"/>
<path d="M24.2141 39C25.7343 39 26.9667 37.7555 26.9667 36.2204C26.9667 34.6853 25.7343 33.4408 24.2141 33.4408C22.6938 33.4408 21.4614 34.6853 21.4614 36.2204C21.4614 37.7555 22.6938 39 24.2141 39Z" fill="#EA0535"/>
<path d="M26.7781 14.864C26.4722 14.4697 26.1338 14.082 25.7629 13.7206C23.8627 11.8544 21.5851 10.849 18.9757 10.7439C18.813 10.7373 18.6438 10.7307 18.4811 10.7307H12.2535V4.52753C12.2535 4.50125 12.247 4.48154 12.247 4.45525C12.2405 4.42897 12.2405 4.39611 12.2405 4.36983L12.234 4.2384H12.2535V0.131409H0.130127C0.162664 1.2288 0.572632 2.19476 1.36654 2.98988C2.18648 3.81785 3.18211 4.2384 4.32742 4.2384H8.19284V20.9686C8.19284 22.3815 8.44663 23.7088 8.9477 24.9179C9.44877 26.127 10.2167 27.2441 11.2253 28.2495C13.2426 30.2537 15.6829 31.2657 18.4811 31.2657C18.878 31.2657 19.2815 31.246 19.698 31.2C21.9886 30.9503 24.0254 29.958 25.7564 28.2495C26.238 27.7698 26.674 27.2573 27.0514 26.725C28.2162 25.0559 28.8084 23.124 28.8084 20.9752C28.8019 18.6622 28.1186 16.6119 26.7781 14.864ZM24.4419 22.2303C24.2207 23.4197 23.6675 24.4777 22.789 25.3976C21.9821 26.2519 21.0385 26.8039 19.9843 27.0667C19.5028 27.185 19.0017 27.2573 18.4681 27.2573C16.7631 27.2573 15.325 26.6396 14.1471 25.3976C13.4118 24.6222 12.9042 23.7548 12.6244 22.7889C12.4617 22.2172 12.3771 21.6061 12.3771 20.9686V19.0367V14.7852V14.7326H18.4616C19.7175 14.7326 20.8238 15.0677 21.7934 15.7314C22.1383 15.968 22.4702 16.244 22.776 16.5659C23.9538 17.7882 24.546 19.2536 24.546 20.9686C24.5525 21.4089 24.5135 21.8295 24.4419 22.2303Z" fill="url(#paint0_linear_24_452)"/>
<path d="M12.3837 0.0131424V0H0C0 1.19596 0.422983 2.22106 1.27546 3.08189C2.12793 3.93614 3.14309 4.36984 4.32744 4.36984H8.06271V4.4027C8.90868 2.58905 10.2883 1.21567 12.3837 0.0131424Z" fill="url(#paint1_linear_24_452)"/>
<path d="M18.468 14.7326C19.7239 14.7326 20.8302 15.0677 21.7998 15.7314C21.2662 13.6549 20.3682 11.8873 18.9821 10.6124C18.8194 10.6059 18.6502 10.5993 18.481 10.5993H12.3835V14.7326H18.468Z" fill="url(#paint2_linear_24_452)"/>
<path d="M21.8064 15.7314C22.1513 15.968 22.4832 16.244 22.789 16.566C23.9669 17.7882 24.5591 19.2536 24.5591 20.9687C24.5591 21.4024 24.52 21.8229 24.4419 22.2304C26.9408 19.9896 27.2336 17.072 26.8822 14.7852C26.5764 14.3844 26.2315 13.9967 25.854 13.6287C23.9213 11.7296 21.6307 10.7242 18.9822 10.6125C20.3683 11.8873 21.2728 13.6484 21.8064 15.7314Z" fill="url(#paint3_linear_24_452)"/>
<path d="M19.9844 27.0733C19.5029 27.1916 19.0018 27.2639 18.4682 27.2639C16.7632 27.2639 15.3251 26.6462 14.1473 25.4042C13.4119 24.6288 12.9043 23.7614 12.6245 22.7955C12.8848 27.3033 15.9823 30.2143 19.7046 31.3249C22.0343 31.0686 24.0776 30.0763 25.8346 28.3416C26.3292 27.8487 26.7652 27.3362 27.1426 26.7973C24.9171 27.7961 22.3922 28.0327 19.9844 27.0733Z" fill="url(#paint4_linear_24_452)"/>
<path d="M12.3837 6.97858V4.52753C12.3837 4.46839 12.3707 4.42239 12.3707 4.36325H12.3837V0.0131226C10.2883 1.21565 8.90871 2.58903 8.06274 4.40268V7.40571V11.6704C8.85014 9.83705 10.2362 8.37167 12.3837 6.97858Z" fill="url(#paint5_linear_24_452)"/>
<path d="M12.6309 22.7954C12.4682 22.2237 12.3836 21.6126 12.3836 20.9752V19.0433V14.7852C10.2232 17.7093 9.18197 21.3629 8.83057 24.9705C9.34465 26.1993 10.1125 27.323 11.1407 28.3415C13.1905 30.3786 15.6373 31.3971 18.4876 31.3971C18.9041 31.3971 19.314 31.3708 19.7175 31.3314C15.9887 30.2077 12.8912 27.3033 12.6309 22.7954Z" fill="url(#paint6_linear_24_452)"/>
<path d="M26.8823 14.7852C27.2337 17.0719 26.9408 19.9895 24.442 22.2303C24.2207 23.4197 23.6676 24.4777 22.7891 25.3976C21.9822 26.2519 21.0386 26.8039 19.9844 27.0667C22.3921 28.0261 24.917 27.7961 27.1491 26.7907C28.3334 25.0888 28.9321 23.1503 28.9321 20.9686C28.9321 18.6227 28.2488 16.5594 26.8823 14.7852Z" fill="url(#paint7_linear_24_452)"/>
<path d="M12.3837 14.7326V10.5993V8.82512V7.39917V6.97205C10.2362 8.36514 8.85014 9.83708 8.06274 11.6639V20.9687C8.06274 22.4078 8.31653 23.7352 8.83062 24.964C9.18202 21.3564 10.2297 17.7094 12.3837 14.7786V14.7326Z" fill="url(#paint8_linear_24_452)"/>
<path d="M40.7367 10.389C43.5544 10.389 45.9817 11.3944 48.012 13.4118C50.0423 15.4291 51.0575 17.8605 51.0575 20.7058C51.0575 23.5511 50.0423 25.9759 48.012 27.9735C45.9817 29.9712 43.5609 30.97 40.7367 30.97C37.9189 30.97 35.4982 29.9712 33.4744 27.9735C31.4505 25.9759 30.4419 23.5511 30.4419 20.7058C30.4419 17.8605 31.4505 15.4291 33.4744 13.4118C35.4982 11.3944 37.9189 10.389 40.7367 10.389ZM40.7367 14.4763C39.0577 14.4763 37.6326 15.0874 36.4678 16.3162C35.303 17.5451 34.7238 19.0039 34.7238 20.6992C34.7238 22.3946 35.303 23.8534 36.4678 25.0559C37.6326 26.265 39.0512 26.8696 40.7367 26.8696C42.4156 26.8696 43.8472 26.265 45.0186 25.0559C46.1899 23.8468 46.7756 22.3946 46.7756 20.6992C46.7756 19.0039 46.1899 17.5385 45.0186 16.3162C43.8472 15.094 42.4221 14.4763 40.7367 14.4763Z" fill="#444B51"/>
<path d="M69.0373 20.7058C69.0373 19.0236 68.4516 17.5648 67.2803 16.3294C66.1089 15.094 64.6903 14.4763 63.0244 14.4763C61.3455 14.4763 59.9139 15.0874 58.7425 16.3162C57.5712 17.5451 56.9855 19.0039 56.9855 20.6992V26.6396C56.9855 27.8224 56.5625 28.8409 55.7231 29.6886C54.8836 30.5363 53.875 30.9634 52.7036 30.9634V20.7058C52.7036 17.8605 53.7123 15.4291 55.7361 13.4118C57.7599 11.3944 60.1872 10.389 63.0244 10.389C65.8421 10.389 68.2629 11.3944 70.2867 13.4118C72.304 15.4291 73.3192 17.8605 73.3192 20.7058V30.97C72.1478 30.97 71.1392 30.5429 70.2997 29.6952C69.4603 28.8475 69.0373 27.829 69.0373 26.6462V20.7058V20.7058Z" fill="#444B51"/>
<path d="M79.5859 30.97C78.4145 30.97 77.4059 30.5429 76.5664 29.6952C75.7269 28.8475 75.304 27.829 75.304 26.6462V10.389C76.4753 10.389 77.4839 10.8162 78.3234 11.6638C79.1629 12.5115 79.5859 13.5301 79.5859 14.7129V30.97Z" fill="#444B51"/>
<path d="M85.9828 31.0752H81.7009V5.37524C82.8723 5.37524 83.8809 5.80237 84.7204 6.65005C85.5598 7.49774 85.9828 8.51627 85.9828 9.69909V18.9579H91.6378C93.3037 18.9579 94.7223 18.3402 95.8936 17.1048C97.065 15.8694 97.6506 14.4106 97.6506 12.735V10.803H101.933V12.735C101.933 14.3843 101.562 15.9286 100.826 17.3808C100.084 18.833 99.0628 20.0421 97.7548 21.0212C99.0628 22.0003 100.084 23.2094 100.826 24.6617C101.568 26.1139 101.933 27.6516 101.933 29.2812V31.0817H97.6506V29.2812C97.6506 27.599 97.065 26.1402 95.8936 24.9114C94.7223 23.676 93.3037 23.0583 91.6378 23.0583H85.9828V31.0752Z" fill="#444B51"/>
<path d="M159.393 25.0231C160.239 25.5948 161.163 25.8773 162.159 25.8773C162.927 25.8773 163.727 25.7131 164.553 25.3845C165.465 25.0099 166.115 24.5434 166.506 23.9848L169.551 26.1402C168.816 27.2113 167.723 28.0721 166.278 28.7227C164.911 29.3469 163.538 29.6623 162.159 29.6623C160.714 29.6623 159.335 29.3009 158.02 28.5781C156.673 27.8356 155.645 26.8433 154.929 25.6211C154.552 24.9771 154.265 24.3068 154.083 23.6169C153.901 22.9137 153.803 22.204 153.803 21.4812C153.803 19.2207 154.597 17.2954 156.178 15.692C157.76 14.0952 159.673 13.2935 161.911 13.2935C163.551 13.2935 165.055 13.7601 166.421 14.6932C168.107 15.8366 169.258 17.5451 169.89 19.8253L159.393 25.0231ZM165.172 18.5242C164.41 17.3874 163.324 16.8157 161.918 16.8157C160.506 16.8157 159.354 17.3545 158.463 18.4256C157.63 19.5427 157.343 20.8241 157.617 22.2698L165.172 18.5242Z" fill="#FF6A00"/>
<path d="M176.95 5.86804V20.7781C176.95 22.2369 177.25 23.3803 177.848 24.2148C178.174 24.6748 178.584 25.0428 179.072 25.3188C179.475 25.5487 179.97 25.667 180.568 25.667C180.731 25.667 180.894 25.6539 181.056 25.6342C181.59 25.5553 182.416 25.253 183.549 24.7142L185 28.3481C183.803 29.1169 182.605 29.5506 181.401 29.6492C180.933 29.6623 180.497 29.6623 180.08 29.6623C179.059 29.6623 178.115 29.4257 177.25 28.9526C176.15 28.3744 175.258 27.5792 174.562 26.587C173.456 25.0428 172.903 23.1043 172.903 20.7846V5.86804H176.95Z" fill="#FF6A00"/>
<path d="M191.338 5.86804V9.96189H187.284V5.86804H191.338ZM191.338 13.2803V29.6557H187.284V13.2803H191.338Z" fill="#FF6A00"/>
<path d="M198.62 13.2803L204.203 24.7076L209.787 13.2803H214.296L207.197 27.8158C206.917 28.3941 206.494 28.8541 205.928 29.1826C205.394 29.498 204.822 29.6623 204.203 29.6623C203.585 29.6623 203.006 29.5046 202.479 29.1826C201.913 28.8541 201.49 28.4006 201.21 27.8158L194.11 13.2803H198.62V13.2803Z" fill="#FF6A00"/>
<path d="M222.001 25.0231C222.847 25.5948 223.771 25.8773 224.767 25.8773C225.535 25.8773 226.335 25.7131 227.162 25.3845C228.073 25.0099 228.723 24.5434 229.114 23.9848L232.159 26.1402C231.424 27.2113 230.331 28.0721 228.886 28.7227C227.52 29.3469 226.147 29.6623 224.767 29.6623C223.322 29.6623 221.943 29.3009 220.628 28.5781C219.281 27.8356 218.253 26.8433 217.537 25.6211C217.16 24.9771 216.873 24.3068 216.691 23.6169C216.509 22.9137 216.411 22.204 216.411 21.4812C216.411 19.2207 217.205 17.2954 218.787 15.692C220.368 14.0952 222.281 13.2935 224.52 13.2935C226.16 13.2935 227.663 13.7601 229.029 14.6932C230.715 15.8366 231.867 17.5451 232.498 19.8253L222.001 25.0231ZM227.78 18.5242C227.019 17.3874 225.932 16.8157 224.526 16.8157C223.114 16.8157 221.962 17.3545 221.071 18.4256C220.238 19.5427 219.951 20.8241 220.225 22.2698L227.78 18.5242Z" fill="#FF6A00"/>
<path d="M244.276 17.3742C242.975 17.3742 241.862 17.8407 240.938 18.7738C240.007 19.7201 239.539 20.8438 239.539 22.158V29.6557H235.504V22.158C235.504 19.7004 236.363 17.6107 238.075 15.876C239.793 14.1412 241.855 13.2803 244.276 13.2803C247.022 13.4906 249.105 14.634 250.53 16.7171L247.439 18.7541C246.541 17.8342 245.487 17.3742 244.276 17.3742Z" fill="#FF6A00"/>
<path d="M261.078 33.0925C262.393 33.0925 263.532 32.6062 264.501 31.6271C265.464 30.6546 265.953 29.5046 265.953 28.1904V26.495C264.911 28.1378 263.33 28.9592 261.215 28.9592C258.794 28.9592 256.725 28.0918 255.014 26.3636C253.296 24.6288 252.443 22.5457 252.443 20.1012V13.2672H256.497V20.1078C256.497 21.4221 256.959 22.5457 257.883 23.4788C258.807 24.4119 259.92 24.8785 261.222 24.8785C262.536 24.8785 263.655 24.4119 264.573 23.4788C265.497 22.5457 265.959 21.4221 265.959 20.1078V13.2672H270.013V28.197C270.013 30.6283 269.135 32.7179 267.378 34.4593C265.621 36.1941 263.525 37.0549 261.091 37.0549C257.194 37.0549 254.285 35.4187 252.365 32.1397L255.703 30.1355C256.849 32.1068 258.645 33.0925 261.078 33.0925Z" fill="#FF6A00"/>
<path d="M142.832 15.9285C141.498 14.5814 139.884 13.9046 137.997 13.9046H135.647V18.0576V18.8593V20.8832V22.9071V23.7088V27.8618H137.997C139.884 27.8618 141.491 27.185 142.832 25.8379C144.166 24.4908 144.836 22.8546 144.836 20.9423C144.836 20.9226 144.836 20.9029 144.836 20.8898C144.836 20.8701 144.836 20.8503 144.836 20.8372C144.836 18.9118 144.166 17.2822 142.832 15.9285Z" fill="#E24329"/>
<path d="M151.825 18.8856C150.973 11.7624 145.025 5.94035 137.906 5.78264C131.886 5.65122 125.867 5.73664 119.841 5.73664C119.184 5.73664 118.318 5.59208 118.37 6.66975C118.422 7.70143 119.255 7.54372 119.919 7.54372C123.986 7.55029 128.053 7.55029 132.121 7.55029C133.227 7.55029 134.639 7.35972 134.626 8.95652C134.619 10.573 133.845 10.3168 132.095 10.3168C128.977 10.3168 125.86 10.3233 122.743 10.3168C122.014 10.3168 121.234 10.3825 121.247 11.309C121.26 12.2093 122.041 12.3078 122.769 12.3144C123.244 12.321 123.719 12.3078 124.194 12.321C125.275 12.3538 126.745 12.045 126.752 13.6549C126.758 15.3503 125.236 15.0743 124.103 15.0809C120.615 15.094 117.134 15.094 113.646 15.0809C112.911 15.0809 112.143 15.1334 112.149 16.0665C112.156 16.9799 112.956 17.0522 113.659 17.0917C113.978 17.1114 114.29 17.0982 114.609 17.0982C117.674 17.0982 120.739 17.0982 123.798 17.0982V17.1048C126.55 17.1048 129.303 17.1048 132.049 17.1048V13.2212C132.049 12.413 132.335 11.723 132.914 11.1382C133.481 10.5665 134.164 10.2773 134.964 10.2773H137.997C140.873 10.2773 143.333 11.309 145.37 13.3658C147.406 15.416 148.428 17.8999 148.428 20.8241C148.428 20.8438 148.428 20.8635 148.428 20.8767C148.428 20.8964 148.428 20.9161 148.428 20.9292C148.428 23.8534 147.406 26.3373 145.37 28.3875C143.333 30.4443 140.873 31.476 137.997 31.476H134.964C134.164 31.476 133.481 31.1869 132.914 30.6152C132.335 30.0303 132.049 29.3403 132.049 28.5321V24.6485C129.296 24.6485 126.544 24.6485 123.798 24.6485V24.6551C120.733 24.6551 117.668 24.6551 114.609 24.6551C114.29 24.6551 113.971 24.6419 113.659 24.6617C112.956 24.7011 112.156 24.7734 112.149 25.6868C112.143 26.6199 112.917 26.6724 113.646 26.6724C117.134 26.6659 120.615 26.6659 124.103 26.6724C125.236 26.679 126.758 26.403 126.752 28.0984C126.752 29.7083 125.275 29.3995 124.194 29.4323C123.719 29.4455 123.244 29.4323 122.769 29.4389C122.047 29.4455 121.266 29.5441 121.247 30.4443C121.234 31.3708 122.008 31.4366 122.743 31.4366C125.86 31.43 128.977 31.4366 132.095 31.4366C133.852 31.4366 134.619 31.1803 134.626 32.7968C134.632 34.3936 133.227 34.203 132.121 34.203C128.053 34.203 123.986 34.1965 119.919 34.2096C119.255 34.2096 118.416 34.0519 118.37 35.0836C118.318 36.1678 119.184 36.0167 119.841 36.0167C125.86 36.0232 131.886 36.1021 137.906 35.9707C145.025 35.813 150.973 29.9909 151.825 22.8677C151.903 22.1909 151.949 21.5272 151.955 20.8701C151.942 20.2261 151.903 19.5624 151.825 18.8856Z" fill="#E24329"/>
<path d="M121.377 21.8886C124.936 21.9346 128.496 21.9215 132.055 21.9149V20.8832V19.8516C128.496 19.845 124.936 19.8318 121.377 19.8778C120.498 19.891 118.963 19.3127 118.989 20.8372C118.989 20.857 118.995 20.8701 118.995 20.8832C118.995 20.903 118.989 20.9161 118.989 20.9292C118.956 22.4538 120.498 21.8755 121.377 21.8886Z" fill="#E24329"/>
<path d="M106.175 31.0751C107.617 31.0751 108.785 29.8954 108.785 28.4401C108.785 26.9848 107.617 25.8051 106.175 25.8051C104.734 25.8051 103.566 26.9848 103.566 28.4401C103.566 29.8954 104.734 31.0751 106.175 31.0751Z" fill="#444B51"/>
<defs>
<linearGradient id="paint0_linear_24_452" x1="14.4657" y1="-1.88956" x2="14.4657" y2="43.2435" gradientUnits="userSpaceOnUse">
<stop offset="5.43435e-07" stop-color="#E9043F"/>
<stop offset="0.2145" stop-color="#FF3366"/>
<stop offset="0.5101" stop-color="#E24329"/>
<stop offset="0.7587" stop-color="#FF6A00"/>
</linearGradient>
<linearGradient id="paint1_linear_24_452" x1="-0.851368" y1="-0.684324" x2="11.6044" y2="3.27213" gradientUnits="userSpaceOnUse">
<stop offset="8.15152e-07" stop-color="#FF3366"/>
<stop offset="1" stop-color="#E80042"/>
</linearGradient>
<linearGradient id="paint2_linear_24_452" x1="25.3168" y1="7.77284" x2="13.2051" y2="15.5612" gradientUnits="userSpaceOnUse">
<stop offset="6.76629e-07" stop-color="#3366FF"/>
<stop offset="1" stop-color="#2A9DF4"/>
</linearGradient>
<linearGradient id="paint3_linear_24_452" x1="33.2282" y1="22.0994" x2="21.7613" y2="15.9549" gradientUnits="userSpaceOnUse">
<stop offset="6.76629e-07" stop-color="#3366FF"/>
<stop offset="1" stop-color="#2A9DF4"/>
</linearGradient>
<linearGradient id="paint4_linear_24_452" x1="6.10269" y1="23.9256" x2="26.935" y2="29.9751" gradientUnits="userSpaceOnUse">
<stop offset="8.15152e-07" stop-color="#E24329"/>
<stop offset="1" stop-color="#FF6A00"/>
</linearGradient>
<linearGradient id="paint5_linear_24_452" x1="9.81097" y1="-2.97545" x2="10.4488" y2="10.4477" gradientUnits="userSpaceOnUse">
<stop offset="8.15152e-07" stop-color="#FF3366"/>
<stop offset="1" stop-color="#E80042"/>
</linearGradient>
<linearGradient id="paint6_linear_24_452" x1="7.23104" y1="14.3754" x2="16.3523" y2="29.2206" gradientUnits="userSpaceOnUse">
<stop offset="8.15152e-07" stop-color="#E24329"/>
<stop offset="1" stop-color="#FF6A00"/>
</linearGradient>
<linearGradient id="paint7_linear_24_452" x1="32.3637" y1="29.8609" x2="23.9948" y2="21.6514" gradientUnits="userSpaceOnUse">
<stop offset="6.76629e-07" stop-color="#3366FF"/>
<stop offset="1" stop-color="#2A9DF4"/>
</linearGradient>
<linearGradient id="paint8_linear_24_452" x1="9.17395" y1="4.31466" x2="11.0872" y2="22.1564" gradientUnits="userSpaceOnUse">
<stop stop-color="#E9043F"/>
<stop offset="0.4425" stop-color="#FF3366"/>
<stop offset="1" stop-color="#FF6A00"/>
</linearGradient>
</defs>
</svg>
