<svg>
    <symbol id="trash" width="26" height="26" viewBox="0 0 24 24" xmlns="http://www.w3.org/2000/svg" fill-rule="evenodd" clip-rule="evenodd"><path d="M19 24h-14c-1.104 0-2-.896-2-2v-16h18v16c0 1.104-.896 2-2 2m-9-14c0-.552-.448-1-1-1s-1 .448-1 1v9c0 .552.448 1 1 1s1-.448 1-1v-9zm6 0c0-.552-.448-1-1-1s-1 .448-1 1v9c0 .552.448 1 1 1s1-.448 1-1v-9zm6-5h-20v-2h6v-1.5c0-.827.673-1.5 1.5-1.5h5c.825 0 1.5.671 1.5 1.5v1.5h6v2zm-12-2h4v-1h-4v1z"></path>
    </symbol>
    <symbol id="pencil" xmlns="http://www.w3.org/2000/svg" width="26" height="26" viewBox="0 0 24 24"><path d="M14.078 4.232l-12.64 12.639-1.438 7.129 7.127-1.438 12.641-12.64-5.69-5.69zm-10.369 14.893l-.85-.85 11.141-11.125.849.849-11.14 11.126zm2.008 2.008l-.85-.85 11.141-11.125.85.85-11.141 11.125zm18.283-15.444l-2.816 2.818-5.691-5.691 2.816-2.816 5.691 5.689z"></path>
    </symbol>
    <symbol id="check" xmlns="http://www.w3.org/2000/svg" width="26" height="26" viewBox="0 0 24 24"><path d="M20.285 2l-11.285 11.567-5.286-5.011-3.714 3.716 9 8.728 15-15.285z"></path>
    </symbol>
    <symbol id="cancel" xmlns="http://www.w3.org/2000/svg" width="26" height="26" viewBox="0 0 24 24"><path d="M24 20.188l-8.315-8.209 8.2-8.282-3.697-3.697-8.212 8.318-8.31-8.203-3.666 3.666 8.321 8.24-8.206 8.313 3.666 3.666 8.237-8.318 8.285 8.203z"></path>
    </symbol>
    <symbol id="open" viewBox="0 0 28 28" xmlns="http://www.w3.org/2000/svg" fill-rule="evenodd" clip-rule="evenodd"><path d="M12.01 20c-5.065 0-9.586-4.211-12.01-8.424 2.418-4.103 6.943-7.576 12.01-7.576 5.135 0 9.635 3.453 11.999 7.564-2.241 4.43-6.726 8.436-11.999 8.436zm-10.842-8.416c.843 1.331 5.018 7.416 10.842 7.416 6.305 0 10.112-6.103 10.851-7.405-.772-1.198-4.606-6.595-10.851-6.595-6.116 0-10.025 5.355-10.842 6.584zm10.832-4.584c2.76 0 5 2.24 5 5s-2.24 5-5 5-5-2.24-5-5 2.24-5 5-5zm0 1c2.208 0 4 1.792 4 4s-1.792 4-4 4-4-1.792-4-4 1.792-4 4-4z"></path>
    </symbol>
    <symbol id="close" viewBox="0 0 28 28" xmlns="http://www.w3.org/2000/svg" fill-rule="evenodd" clip-rule="evenodd"><path d="M8.137 15.147c-.71-.857-1.146-1.947-1.146-3.147 0-2.76 2.241-5 5-5 1.201 0 2.291.435 3.148 1.145l1.897-1.897c-1.441-.738-3.122-1.248-5.035-1.248-6.115 0-10.025 5.355-10.842 6.584.529.834 2.379 3.527 5.113 5.428l1.865-1.865zm6.294-6.294c-.673-.53-1.515-.853-2.44-.853-2.207 0-4 1.792-4 4 0 .923.324 1.765.854 2.439l5.586-5.586zm7.56-6.146l-19.292 19.293-.708-.707 3.548-3.548c-2.298-1.612-4.234-3.885-5.548-6.169 2.418-4.103 6.943-7.576 12.01-7.576 2.065 0 4.021.566 5.782 1.501l3.501-3.501.707.707zm-2.465 3.879l-.734.734c2.236 1.619 3.628 3.604 4.061 4.274-.739 1.303-4.546 7.406-10.852 7.406-1.425 0-2.749-.368-3.951-.938l-.748.748c1.475.742 3.057 1.19 4.699 1.19 5.274 0 9.758-4.006 11.999-8.436-1.087-1.891-2.63-3.637-4.474-4.978zm-3.535 5.414c0-.554-.113-1.082-.317-1.562l.734-.734c.361.69.583 1.464.583 2.296 0 2.759-2.24 5-5 5-.832 0-1.604-.223-2.295-.583l.734-.735c.48.204 1.007.318 1.561.318 2.208 0 4-1.792 4-4z"></path>
    </symbol>
</svg>
