<svg xmlns="http://www.w3.org/2000/svg">
    <symbol id="flickr">
        <path d="M3.96682 14.2249H0V9.34085H4.07905V8.10128C4.07905 2.09318 6.81069 0 12.1996 0C13.6591 0 14.7817 0.232517 15.6421 0.38788L15.2308 5.19394C14.6696 5.00018 14.1082 4.88357 13.0978 4.88357C11.3765 4.88357 10.7028 6.12401 10.7028 8.10111V9.3412H15.4927V14.2251H10.7028V29.5346H3.96682V14.2249ZM19.01 0.46521H25.7458V29.5343H19.01V0.46521ZM31.5087 0.930245H38.2447V6.0465H31.5087V0.930245ZM31.5087 9.34103H38.2447V29.5341H31.5087V9.34103ZM58.49 15.1159C57.255 14.3412 56.0202 13.9921 54.411 13.9921C51.4921 13.9921 49.2469 16.0851 49.2469 19.5735C49.2469 22.7907 51.8665 24.8832 54.7852 24.8832C56.3197 24.8832 57.8542 24.5348 58.9766 23.9146L59.1262 29.1082C57.4421 29.69 55.4216 30 53.6254 30C47.1884 30 42.2864 26.124 42.2864 19.4575C42.2864 12.752 47.1884 8.87634 53.6252 8.87634C55.6462 8.87634 57.4421 9.22529 58.9766 10.0003L58.49 15.1159ZM68.6689 17.8295H68.7439L74.357 9.34085H81.729L74.9558 18.6042L82.2905 29.5343H74.1324L68.7438 19.5348H68.6689V29.5343H61.9333V0.46521H68.6689V17.8295Z" fill="#0063DB"/>
        <path d="M98.7181 14.9221C97.9697 14.69 97.2212 14.69 96.4356 14.69C93.2924 14.69 91.5332 17.0539 91.5332 21.0076V29.5343H84.7976V9.34101H90.9344V13.062H91.0095C92.1692 10.5036 93.8533 8.87598 96.7724 8.87598C97.5577 8.87598 98.3811 8.99224 99.0553 9.10832L98.7181 14.9221Z" fill="#FF0084"/>
    </symbol>
    <symbol id="google">
        <path d="M51.353 21.0502C51.353 26.805 46.9071 31.0457 41.4509 31.0457C35.9948 31.0457 31.5488 26.805 31.5488 21.0502C31.5488 15.2548 35.9948 11.0547 41.4509 11.0547C46.9071 11.0547 51.353 15.2548 51.353 21.0502ZM47.0183 21.0502C47.0183 17.454 44.4416 14.9934 41.4509 14.9934C38.4603 14.9934 35.8835 17.454 35.8835 21.0502C35.8835 24.6103 38.4603 27.107 41.4509 27.107C44.4416 27.107 47.0183 24.6058 47.0183 21.0502Z" fill="#EA4335"/>
        <path d="M72.7148 21.0502C72.7148 26.805 68.2689 31.0457 62.8127 31.0457C57.3566 31.0457 52.9106 26.805 52.9106 21.0502C52.9106 15.2593 57.3566 11.0547 62.8127 11.0547C68.2689 11.0547 72.7148 15.2548 72.7148 21.0502ZM68.3802 21.0502C68.3802 17.454 65.8034 14.9934 62.8127 14.9934C59.8221 14.9934 57.2453 17.454 57.2453 21.0502C57.2453 24.6103 59.8221 27.107 62.8127 27.107C65.8034 27.107 68.3802 24.6058 68.3802 21.0502Z" fill="#FBBC05"/>
        <path d="M93.1864 11.6586V29.6036C93.1864 36.9853 88.8874 40.0002 83.805 40.0002C79.0209 40.0002 76.1415 36.76 75.0556 34.1101L78.8295 32.5193C79.5015 34.1462 81.1482 36.066 83.8006 36.066C87.0538 36.066 89.0698 34.0335 89.0698 30.2075V28.7699H88.9185C87.9483 29.9821 86.0792 31.0412 83.7205 31.0412C78.785 31.0412 74.2634 26.6879 74.2634 21.0862C74.2634 15.4441 78.785 11.0547 83.7205 11.0547C86.0747 11.0547 87.9439 12.1137 88.9185 13.2899H89.0698V11.6631H93.1864V11.6586ZM89.3769 21.0862C89.3769 17.5666 87.0583 14.9934 84.1077 14.9934C81.117 14.9934 78.6114 17.5666 78.6114 21.0862C78.6114 24.5698 81.117 27.107 84.1077 27.107C87.0583 27.107 89.3769 24.5698 89.3769 21.0862Z" fill="#4285F4"/>
        <path d="M99.9732 1.14014V30.4326H95.7454V1.14014H99.9732Z" fill="#34A853"/>
        <path d="M116.449 24.3398L119.813 26.6111C118.727 28.238 116.11 31.041 111.589 31.041C105.981 31.041 101.793 26.6517 101.793 21.0455C101.793 15.1014 106.017 11.05 111.104 11.05C116.226 11.05 118.732 15.178 119.55 17.4088L120 18.5444L106.805 24.0784C107.815 26.0838 109.386 27.1068 111.589 27.1068C113.796 27.1068 115.327 26.0072 116.449 24.3398ZM106.093 20.7436L114.913 17.0347C114.428 15.7864 112.968 14.9167 111.251 14.9167C109.048 14.9167 105.981 16.886 106.093 20.7436Z" fill="#EA4335"/>
        <path d="M15.5452 18.4497V14.2091H29.6573C29.7953 14.9482 29.8665 15.8224 29.8665 16.7688C29.8665 19.9504 29.0076 23.8846 26.2394 26.6877C23.5469 29.5268 20.1068 31.041 15.5496 31.041C7.1028 31.041 0 24.0739 0 15.5205C0 6.9671 7.1028 0 15.5496 0C20.2225 0 23.5514 1.85669 26.0525 4.2767L23.0975 7.26904C21.304 5.56557 18.8741 4.24065 15.5452 4.24065C9.37695 4.24065 4.55274 9.27445 4.55274 15.5205C4.55274 21.7666 9.37695 26.8004 15.5452 26.8004C19.5461 26.8004 21.8247 25.1735 23.2844 23.6954C24.4682 22.4966 25.247 20.7841 25.5541 18.4452L15.5452 18.4497Z" fill="#4285F4"/>
    </symbol>
    <symbol id="microsoft">
        <path d="M49.5815 17.279L48.7442 19.6511H48.6745C48.5349 19.1162 48.2791 18.3022 47.8605 17.3255L43.3722 6.04641H38.9768V24.0232H41.8838V12.9301C41.8838 12.2325 41.8838 11.4418 41.8605 10.465C41.8373 9.97664 41.7908 9.60455 41.7675 9.32548H41.8373C41.9768 10.0232 42.1396 10.5348 42.2559 10.8604L47.6512 23.9766H49.6977L55.0466 10.7441C55.1629 10.4418 55.2791 9.83711 55.3954 9.32548H55.4652C55.3954 10.6511 55.3489 11.8371 55.3256 12.558V23.9534H58.4187V5.9999H54.1861L49.5815 17.279ZM61.3489 11.0697H64.3722V23.9534H61.3489V11.0697ZM62.8838 5.6278C62.3722 5.6278 61.9535 5.81385 61.6047 6.13943C61.2559 6.46501 61.0698 6.88362 61.0698 7.39525C61.0698 7.88362 61.2559 8.30222 61.6047 8.6278C61.9535 8.95339 62.3722 9.11618 62.8838 9.11618C63.3954 9.11618 63.8373 8.93013 64.1629 8.6278C64.5117 8.30222 64.6977 7.88362 64.6977 7.39525C64.6977 6.90687 64.5117 6.48827 64.1629 6.13943C63.8605 5.81385 63.4187 5.6278 62.8838 5.6278ZM75.0931 10.9534C74.5349 10.8371 73.9536 10.7673 73.3954 10.7673C72.0233 10.7673 70.7675 11.0697 69.721 11.6743C68.6745 12.279 67.8373 13.1162 67.3024 14.1627C66.7442 15.2325 66.4652 16.465 66.4652 17.8836C66.4652 19.1162 66.7442 20.2092 67.2791 21.2092C67.814 22.1859 68.5582 22.9766 69.5582 23.5115C70.5117 24.0464 71.628 24.3255 72.8838 24.3255C74.3256 24.3255 75.5582 24.0232 76.5349 23.465L76.5582 23.4418V20.6511L76.4419 20.7441C76.0001 21.0697 75.4884 21.3487 74.9768 21.5115C74.4419 21.6976 73.9536 21.7906 73.535 21.7906C72.3256 21.7906 71.3722 21.4418 70.6977 20.6743C70.0001 19.9301 69.6512 18.9069 69.6512 17.6278C69.6512 16.3022 70.0001 15.2557 70.721 14.4883C71.4419 13.7208 72.3954 13.3255 73.5582 13.3255C74.5349 13.3255 75.535 13.6511 76.4419 14.3022L76.5582 14.3952V11.4418L76.5349 11.4185C76.1396 11.2557 75.6977 11.0697 75.0931 10.9534ZM85.0698 10.8604C84.3256 10.8604 83.628 11.0929 83.0233 11.5813C82.5117 11.9999 82.1629 12.6045 81.8605 13.3255H81.8373V11.0697H78.814V23.9534H81.8373V17.372C81.8373 16.2557 82.0698 15.3255 82.5815 14.6511C83.0931 13.9534 83.7442 13.6045 84.5349 13.6045C84.814 13.6045 85.0931 13.6743 85.4419 13.7208C85.7675 13.8139 86.0001 13.9069 86.1629 14.0232L86.2791 14.1162V11.0929L86.2094 11.0697C86.0001 10.9301 85.5815 10.8604 85.0698 10.8604ZM93.3024 10.7906C91.1861 10.7906 89.4884 11.4185 88.3024 12.6511C87.0931 13.8836 86.5117 15.5813 86.5117 17.7208C86.5117 19.7208 87.1163 21.3487 88.2791 22.5348C89.4419 23.6976 91.0233 24.3022 93.0001 24.3022C95.0698 24.3022 96.721 23.6743 97.907 22.4185C99.1163 21.1627 99.6977 19.4883 99.6977 17.4185C99.6977 15.372 99.1396 13.7441 98.0001 12.558C96.907 11.372 95.3024 10.7906 93.3024 10.7906ZM95.721 20.6976C95.1629 21.4185 94.2791 21.7673 93.1861 21.7673C92.0931 21.7673 91.2094 21.4185 90.5815 20.6511C89.9536 19.9301 89.6512 18.8836 89.6512 17.558C89.6512 16.1859 89.9768 15.1394 90.5815 14.3952C91.2094 13.6511 92.0698 13.279 93.1629 13.279C94.2326 13.279 95.0698 13.6278 95.6745 14.3487C96.2791 15.0697 96.6047 16.1162 96.6047 17.4883C96.5582 18.8836 96.3024 19.9766 95.721 20.6976ZM106.442 16.4185C105.488 16.0232 104.884 15.7208 104.605 15.465C104.372 15.2325 104.256 14.9069 104.256 14.4883C104.256 14.1394 104.395 13.7906 104.744 13.558C105.093 13.3255 105.488 13.2092 106.07 13.2092C106.581 13.2092 107.116 13.3022 107.628 13.4418C108.14 13.5813 108.605 13.7906 108.977 14.0697L109.093 14.1627V11.3255L109.023 11.3022C108.674 11.1627 108.209 11.0232 107.651 10.9069C107.093 10.8139 106.581 10.7673 106.163 10.7673C104.721 10.7673 103.535 11.1162 102.605 11.8836C101.674 12.6045 101.233 13.5813 101.233 14.7208C101.233 15.3255 101.326 15.8604 101.535 16.3022C101.744 16.7441 102.047 17.1627 102.465 17.5115C102.884 17.8371 103.488 18.2092 104.326 18.558C105.023 18.8604 105.558 19.0929 105.884 19.279C106.209 19.465 106.419 19.6743 106.581 19.8371C106.698 20.0232 106.768 20.2557 106.768 20.558C106.768 21.4185 106.116 21.8371 104.791 21.8371C104.279 21.8371 103.744 21.7441 103.116 21.5348C102.488 21.3255 101.907 21.0232 101.419 20.6743L101.302 20.5813V23.5348L101.372 23.558C101.814 23.7673 102.349 23.9069 103 24.0697C103.651 24.1859 104.233 24.279 104.744 24.279C106.302 24.279 107.581 23.9301 108.488 23.1627C109.419 22.4185 109.907 21.465 109.907 20.2325C109.907 19.372 109.674 18.6045 109.163 18.0232C108.488 17.465 107.651 16.8836 106.442 16.4185ZM117.884 10.7906C115.768 10.7906 114.07 11.4185 112.884 12.6511C111.698 13.8836 111.093 15.5813 111.093 17.7208C111.093 19.7208 111.698 21.3487 112.861 22.5348C114.023 23.6976 115.605 24.3022 117.581 24.3022C119.651 24.3022 121.302 23.6743 122.488 22.4185C123.698 21.1627 124.279 19.4883 124.279 17.4185C124.279 15.372 123.721 13.7441 122.581 12.558C121.488 11.372 119.884 10.7906 117.884 10.7906ZM120.279 20.6976C119.721 21.4185 118.837 21.7673 117.744 21.7673C116.628 21.7673 115.768 21.4185 115.14 20.6511C114.512 19.9301 114.209 18.8836 114.209 17.558C114.209 16.1859 114.535 15.1394 115.14 14.3952C115.768 13.6511 116.628 13.279 117.721 13.279C118.768 13.279 119.628 13.6278 120.233 14.3487C120.837 15.0697 121.163 16.1162 121.163 17.4883C121.163 18.8836 120.861 19.9766 120.279 20.6976ZM140.442 13.558V11.0697H137.395V7.25571L137.302 7.27897L134.419 8.13943L134.349 8.16269V11.0697H129.791V9.44176C129.791 8.69757 129.977 8.11618 130.302 7.74408C130.628 7.37199 131.116 7.18594 131.721 7.18594C132.14 7.18594 132.581 7.27897 133.07 7.48827L133.186 7.55804V4.93013L133.116 4.90687C132.698 4.76734 132.14 4.67432 131.419 4.67432C130.512 4.67432 129.721 4.88362 129 5.23246C128.279 5.6278 127.744 6.16269 127.349 6.88362C126.954 7.58129 126.744 8.37199 126.744 9.27897V11.0697H124.628V13.5348H126.744V23.9534H129.791V13.558H134.349V20.1859C134.349 22.9069 135.628 24.279 138.186 24.279C138.605 24.279 139.047 24.2092 139.465 24.1394C139.907 24.0464 140.233 23.9301 140.419 23.8371L140.442 23.8139V21.3255L140.326 21.4185C140.14 21.5348 139.977 21.6278 139.698 21.6976C139.465 21.7673 139.256 21.7906 139.093 21.7906C138.488 21.7906 138.07 21.6511 137.768 21.3022C137.488 20.9766 137.349 20.4418 137.349 19.6511V13.558H140.442Z" fill="#737373"/>
        <path d="M0 0H14.2558V14.2558H0V0Z" fill="#F25022"/>
        <path d="M15.7441 0H30V14.2558H15.7441V0Z" fill="#7FBA00"/>
        <path d="M0 15.7441H14.2558V30H0V15.7441Z" fill="#00A4EF"/>
        <path d="M15.7441 15.7441H30V30H15.7441V15.7441Z" fill="#FFB900"/>
    </symbol>
    <symbol id="slack">
        <path d="M37.9299 23.6226L39.4108 20.1832C41.0111 21.3774 43.1369 21.9984 45.2388 21.9984C46.7914 21.9984 47.7707 21.4013 47.7707 20.4937C47.7468 17.9618 38.4793 19.9443 38.4076 13.5908C38.3838 10.3663 41.25 7.8822 45.3105 7.8822C47.7229 7.8822 50.1353 8.47934 51.8551 9.8408L50.4697 13.3519C48.8933 12.3488 46.9347 11.6322 45.0717 11.6322C43.8057 11.6322 42.9697 12.2293 42.9697 12.9937C42.9936 15.4777 52.3328 14.1163 52.4283 20.1832C52.4283 23.4793 49.6338 25.7962 45.621 25.7962C42.6831 25.7962 39.9841 25.1035 37.9299 23.6226ZM94.7532 18.9411C94.0127 20.2309 92.6274 21.1147 91.0271 21.1147C88.6624 21.1147 86.7516 19.2039 86.7516 16.8392C86.7516 14.4746 88.6624 12.5637 91.0271 12.5637C92.6274 12.5637 94.0127 13.4475 94.7532 14.7373L98.8376 12.4682C97.3089 9.74526 94.371 7.8822 91.0271 7.8822C86.0828 7.8822 82.0701 11.8949 82.0701 16.8392C82.0701 21.7835 86.0828 25.7962 91.0271 25.7962C94.3949 25.7962 97.3089 23.957 98.8376 21.2102L94.7532 18.9411ZM54.4825 0.453857H59.5939V25.4618H54.4825V0.453857ZM100.844 0.453857V25.4618H105.955V17.9618L112.022 25.4618H118.567L110.852 16.5526L117.994 8.24048H111.736L105.955 15.1433V0.453857H100.844ZM74.785 18.9889C74.0446 20.207 72.5159 21.1147 70.7962 21.1147C68.4315 21.1147 66.5207 19.2039 66.5207 16.8392C66.5207 14.4746 68.4315 12.5637 70.7962 12.5637C72.5159 12.5637 74.0446 13.5191 74.785 14.7612V18.9889ZM74.785 8.24048V10.2707C73.949 8.8615 71.871 7.8822 69.6974 7.8822C65.207 7.8822 61.672 11.8472 61.672 16.8153C61.672 21.7835 65.207 25.7962 69.6974 25.7962C71.871 25.7962 73.949 24.8169 74.785 23.4077V25.4379H79.8965V8.24048H74.785Z" fill="black"/>
        <path d="M6.32966 18.9649C6.32966 20.7085 4.92042 22.1177 3.17679 22.1177C1.43316 22.1177 0.0239258 20.7085 0.0239258 18.9649C0.0239258 17.2212 1.43316 15.812 3.17679 15.812H6.32966V18.9649ZM7.90609 18.9649C7.90609 17.2212 9.31533 15.812 11.059 15.812C12.8026 15.812 14.2118 17.2212 14.2118 18.9649V26.847C14.2118 28.5907 12.8026 29.9999 11.059 29.9999C9.31533 29.9999 7.90609 28.5907 7.90609 26.847V18.9649Z" fill="#E01E5A"/>
        <path d="M11.0589 6.30573C9.31529 6.30573 7.90605 4.8965 7.90605 3.15287C7.90605 1.40924 9.31529 0 11.0589 0C12.8025 0 14.2118 1.40924 14.2118 3.15287V6.30573H11.0589ZM11.0589 7.90605C12.8025 7.90605 14.2118 9.31529 14.2118 11.0589C14.2118 12.8025 12.8025 14.2118 11.0589 14.2118H3.15287C1.40924 14.2118 0 12.8025 0 11.0589C0 9.31529 1.40924 7.90605 3.15287 7.90605H11.0589Z" fill="#36C5F0"/>
        <path d="M23.6942 11.0589C23.6942 9.31529 25.1034 7.90605 26.847 7.90605C28.5907 7.90605 29.9999 9.31529 29.9999 11.0589C29.9999 12.8025 28.5907 14.2118 26.847 14.2118H23.6942V11.0589ZM22.1177 11.0589C22.1177 12.8025 20.7085 14.2118 18.9649 14.2118C17.2212 14.2118 15.812 12.8025 15.812 11.0589V3.15287C15.812 1.40924 17.2212 0 18.9649 0C20.7085 0 22.1177 1.40924 22.1177 3.15287V11.0589Z" fill="#2EB67D"/>
        <path d="M18.9649 23.6942C20.7085 23.6942 22.1177 25.1034 22.1177 26.847C22.1177 28.5907 20.7085 29.9999 18.9649 29.9999C17.2212 29.9999 15.812 28.5907 15.812 26.847V23.6942H18.9649ZM18.9649 22.1177C17.2212 22.1177 15.812 20.7085 15.812 18.9649C15.812 17.2212 17.2212 15.812 18.9649 15.812H26.8709C28.6146 15.812 30.0238 17.2212 30.0238 18.9649C30.0238 20.7085 28.6146 22.1177 26.8709 22.1177H18.9649Z" fill="#ECB22E"/>
    </symbol>
    <symbol id="syngenta">
        <path d="M103.926 30.8204H98.7506V20.1251C98.7506 18.5535 98.0893 17.6846 96.3087 17.6846C94.9675 17.6846 94.1029 18.3273 93.1353 19.1003V30.8204H87.9595V14.1692H92.9893V15.6335C94.6769 14.4998 96.6078 13.7784 98.7019 13.7784C102.003 13.7784 103.926 15.8296 103.926 18.9543V30.8204ZM117.854 17.4885H113.312V25.009C113.312 27.1489 114.44 27.5482 115.9 27.5482C116.408 27.5482 116.958 27.4752 117.513 27.4008L117.854 30.7717C116.664 30.9821 115.077 31.161 114.045 31.161C110.913 31.161 108.136 30.0689 108.136 26.2299V17.4885H105.5V14.1692H108.136V10.5063L113.312 9.04199V14.1692H117.854V17.4885Z" fill="#36398E"/>
        <path d="M77.5147 0C74.8967 4.43726 76.0332 8.4537 73.4725 11.0159C71.4156 13.0727 69.5076 13.0069 67.2646 13.0069C66.4845 13.0069 64.9687 13.0742 64.3331 13.5351C63.9653 12.3628 63.8064 11.0731 63.8064 9.84356C63.8064 7.73085 64.2802 5.85289 65.7989 4.33563C68.7074 1.42851 73.9763 0.503844 77.5147 0Z" fill="#009F3C"/>
        <path d="M32.495 14.1691L24.1945 34.3357C22.9177 37.4332 20.357 39.7062 16.8702 39.7062C15.1253 39.7062 14.2007 39.4786 13.0613 39.2181L13.7941 35.8988C14.7145 36.1035 15.4044 36.1908 16.04 36.1908C18.1212 36.1908 19.2291 34.4202 20.2411 31.9911L20.7292 30.8203L14.2837 14.1691H19.8503L22.8776 22.421C23.2426 23.4172 23.4459 24.4378 23.6105 25.1549C23.7995 24.432 24.1687 23.2325 24.538 22.2735L27.6627 14.1691H32.495ZM49.5313 30.8203H44.3554V20.125C44.3554 18.5534 43.6941 17.6845 41.9135 17.6845C40.5766 17.6845 39.7077 18.3287 38.7401 19.1002V30.8203H33.5643V14.1691H38.5941V15.6334C40.2817 14.4997 42.2141 13.7783 44.3068 13.7783C47.6075 13.7783 49.5313 15.8295 49.5313 18.9542V30.8203Z" fill="#36398E"/>
        <path d="M133.739 30.8202H128.855V29.5019C127.586 30.6241 125.945 31.1609 124.119 31.1609C121.02 31.1609 118.894 29.6623 118.894 26.5218C118.894 21.0024 124.405 20.1465 128.708 20.125V19.687C128.708 18.3143 128.19 17.3424 125.73 17.3424C124.072 17.3424 122.182 18.164 120.944 18.9055L119.674 15.828C121.874 14.6357 124.604 13.7783 127.193 13.7783C131.168 13.7783 133.738 15.6792 133.738 19.0028V30.8202H133.739ZM128.708 26.3758V23.2998C126.312 23.2612 124.072 23.5002 124.072 25.7904C124.072 27.206 125.265 27.6454 126.17 27.6454C127.243 27.6454 128.075 27.1087 128.708 26.3758ZM14.2107 25.497C14.2107 29.1212 10.8613 31.1122 6.88634 31.1122C4.29699 31.1122 2.20575 30.68 0 29.7939L1.41563 26.4245C2.7282 26.9555 4.61618 27.5481 6.15205 27.5481C7.35583 27.5481 9.03483 27.4007 9.03483 25.9364C9.03483 25.2536 8.60542 24.9001 7.81244 24.6668C6.82336 24.3748 5.30038 24.1128 4.29699 23.8366C2.18714 23.2554 0.439432 22.1475 0.439432 19.0515C0.439432 15.6176 3.36945 13.4849 7.37444 13.4849C10.0196 13.4849 11.6986 13.8341 13.1858 14.2664L11.8661 17.6358C11.2105 17.3381 9.36835 16.903 8.05721 16.903C6.63442 16.903 5.66395 17.4469 5.66395 18.3186C5.66395 18.7509 5.93305 19.2977 6.69024 19.5396C7.50326 19.8001 8.78721 20.0363 9.86503 20.2724C12.0693 20.7562 14.2107 22.023 14.2107 25.497ZM85.6892 21.8842C85.6892 22.4352 85.6721 23.0049 85.6406 23.5932H74.6047C74.6519 26.0151 75.86 27.4494 79.3897 27.4494C80.9542 27.4494 82.8336 26.7394 83.6409 26.1812L85.0079 29.2572C82.7263 30.4953 80.27 31.1609 77.5347 31.1609C72.3631 31.1609 69.1397 27.8301 69.1397 22.5183C69.1397 17.1191 73.3637 13.7783 77.9269 13.7783C83.6109 13.7783 85.6892 17.0991 85.6892 21.8842ZM80.3674 20.2724C80.4561 18.4374 79.5343 17.2938 77.7294 17.2938C75.9859 17.2938 74.9482 18.5734 74.6548 20.2724H80.3674ZM69.1497 32.8714C69.1497 37.7266 64.3088 39.9767 59.5294 39.9996C55.3255 40.0197 51.2776 38.8102 51.2776 34.7751C51.2776 32.8871 52.9494 31.6247 53.9628 30.9662C53.3988 30.6442 52.8893 30.3923 52.4484 29.8913C51.9846 29.3645 51.6182 28.5959 51.6182 27.3034C51.6182 25.6759 53.0539 24.1701 54.793 23.2025C53.8283 22.6943 52.5472 21.877 52.5472 19.1488C52.5472 15.6004 55.9138 13.7296 60.311 13.7296C64.0483 13.7296 67.6353 14.6228 67.6353 19.0028C67.6353 23.1867 63.7033 24.7154 59.7255 24.7154C58.9826 24.7154 58.3213 24.5981 57.6729 24.4721C57.2492 24.6983 56.4033 25.2594 56.4033 25.8877C56.4033 27.1674 58.1496 27.3535 58.9426 27.3535H63.0434C66.848 27.3535 69.1497 29.1985 69.1497 32.8714ZM62.6054 19.2461C62.6054 17.852 61.8354 16.7069 60.1149 16.7069C58.5432 16.7069 57.577 18.0366 57.577 19.2461C57.577 20.6432 58.4459 21.7854 60.0175 21.7854C61.7452 21.7854 62.6054 20.6389 62.6054 19.2461ZM63.9724 33.5542C63.9724 32.1958 62.886 31.6991 61.7753 31.6991H57.2335C56.5421 32.0942 55.4743 32.9601 55.4743 34.0909C55.4743 35.5538 57.4439 36.5329 59.7713 36.5329C62.1832 36.5329 63.9724 35.425 63.9724 33.5542Z" fill="#36398E"/>
    </symbol>
    <symbol id="merck">
        <path d="M65.0109 9.99982H71.2074V29.9986H66.6155V16.5495L60.7413 29.9981L54.5589 16.5326V29.9981H50.2747V9.99932H56.399L60.8148 20.3506L65.0109 9.99982ZM73.4908 9.99982V29.9986H85.0301V26.6082H77.9641V21.5199H84.7378V18.0978H77.9641V13.5096H85.0301V9.99982H73.4908ZM102.24 20.0027C102.24 27.4468 110.01 33.4041 118.196 29.4195V25.1349C111.897 29.5477 106.413 25.1248 106.503 20.1736C106.565 16.883 108.776 13.7534 113.054 13.5096C115.157 13.3902 116.582 13.913 118.196 15.4579V11.0023C112.281 7.49733 102.24 11.3552 102.24 20.0027ZM120.084 29.9983H124.337V10.1922H120.084V29.9983ZM129.674 19.2742L136.102 10.2359H131.134L124.766 19.2573L132.159 29.9983H137.037L129.674 19.2742Z" fill="#231F20"/>
        <path d="M87.0183 9.99927V29.998H91.5073V19.2539L98.9277 29.998H103.713L97.8384 21.6009C100.561 20.5714 101.444 18.2886 101.444 16.0067C101.444 13.7271 99.5303 9.99952 94.8939 9.99952L87.0183 9.99927ZM91.5073 13.3275H93.4668C96.7796 13.3275 96.9563 15.493 96.9563 16.3018C96.9563 17.8468 95.6454 19.1625 93.9535 19.1625H91.5073V13.3275Z" fill="#231F20"/>
        <path d="M9.99937 10.0001C9.99937 4.47687 14.4772 0 19.9995 0C25.5238 0 29.9999 4.47687 29.9999 10.0001H9.99937ZM9.99937 29.9999C9.99937 24.4774 14.4772 19.9995 19.9995 19.9995C14.4772 19.9995 9.99937 15.5236 9.99937 10.0001C4.47687 10.0001 0 14.4772 0 19.9995C0 25.5238 4.47687 29.9999 9.99937 29.9999ZM9.99937 29.9999C9.99937 35.5241 14.4772 40 19.9995 40C25.5238 40 29.9999 35.5241 29.9999 29.9999H9.99937ZM19.9995 19.9995C25.5238 19.9995 29.9999 24.4774 29.9999 29.9999C35.5231 29.9999 40.001 25.524 40.001 19.9995C40.001 14.4772 35.5231 10.0001 29.9999 10.0001C29.9999 15.5236 25.524 19.9995 19.9995 19.9995Z" fill="#007A73"/>
    </symbol>
</svg>
