<svg width="25" height="25" viewBox="0 0 25 25" fill="none" xmlns="http://www.w3.org/2000/svg">
<path d="M15.8056 12.9884L24.3973 4.41669C24.7735 4.04045 24.9849 3.53015 24.9849 2.99807C24.9849 2.46598 24.7735 1.95568 24.3973 1.57944C24.021 1.20319 23.5107 0.991821 22.9786 0.991821C22.4465 0.991821 21.9362 1.20319 21.56 1.57944L12.9883 10.1711L4.41656 1.57944C4.04032 1.20319 3.53003 0.991821 2.99794 0.991821C2.46585 0.991821 1.95555 1.20319 1.57931 1.57944C1.20306 1.95568 0.991691 2.46598 0.991691 2.99807C0.991691 3.53015 1.20306 4.04045 1.57931 4.41669L10.171 12.9884L1.57931 21.5601C1.39203 21.7459 1.24339 21.9669 1.14195 22.2103C1.04051 22.4538 0.988281 22.715 0.988281 22.9788C0.988281 23.2425 1.04051 23.5037 1.14195 23.7472C1.24339 23.9906 1.39203 24.2116 1.57931 24.3974C1.76505 24.5847 1.98604 24.7333 2.22952 24.8347C2.47301 24.9362 2.73417 24.9884 2.99794 24.9884C3.2617 24.9884 3.52286 24.9362 3.76635 24.8347C4.00983 24.7333 4.23082 24.5847 4.41656 24.3974L12.9883 15.8057L21.56 24.3974C21.7457 24.5847 21.9667 24.7333 22.2102 24.8347C22.4537 24.9362 22.7149 24.9884 22.9786 24.9884C23.2424 24.9884 23.5036 24.9362 23.747 24.8347C23.9905 24.7333 24.2115 24.5847 24.3973 24.3974C24.5845 24.2116 24.7332 23.9906 24.8346 23.7472C24.9361 23.5037 24.9883 23.2425 24.9883 22.9788C24.9883 22.715 24.9361 22.4538 24.8346 22.2103C24.7332 21.9669 24.5845 21.7459 24.3973 21.5601L15.8056 12.9884Z" fill="white"/>
</svg>
