<svg width="100" height="30" viewBox="0 0 100 30" fill="none" xmlns="http://www.w3.org/2000/svg">
<path d="M3.96682 14.2249H0V9.34085H4.07905V8.10128C4.07905 2.09318 6.81069 0 12.1996 0C13.6591 0 14.7817 0.232517 15.6421 0.38788L15.2308 5.19394C14.6696 5.00018 14.1082 4.88357 13.0978 4.88357C11.3765 4.88357 10.7028 6.12401 10.7028 8.10111V9.3412H15.4927V14.2251H10.7028V29.5346H3.96682V14.2249ZM19.01 0.46521H25.7458V29.5343H19.01V0.46521ZM31.5087 0.930245H38.2447V6.0465H31.5087V0.930245ZM31.5087 9.34103H38.2447V29.5341H31.5087V9.34103ZM58.49 15.1159C57.255 14.3412 56.0202 13.9921 54.411 13.9921C51.4921 13.9921 49.2469 16.0851 49.2469 19.5735C49.2469 22.7907 51.8665 24.8832 54.7852 24.8832C56.3197 24.8832 57.8542 24.5348 58.9766 23.9146L59.1262 29.1082C57.4421 29.69 55.4216 30 53.6254 30C47.1884 30 42.2864 26.124 42.2864 19.4575C42.2864 12.752 47.1884 8.87634 53.6252 8.87634C55.6462 8.87634 57.4421 9.22529 58.9766 10.0004L58.49 15.1159ZM68.6689 17.8295H68.744L74.357 9.34085H81.729L74.9558 18.6042L82.2905 29.5343H74.1324L68.7438 19.5348H68.6689V29.5343H61.9333V0.46521H68.6689V17.8295Z" fill="#0063DB"/>
<path d="M98.7181 14.9221C97.9697 14.69 97.2212 14.69 96.4356 14.69C93.2924 14.69 91.5332 17.0539 91.5332 21.0076V29.5343H84.7976V9.34101H90.9344V13.062H91.0095C92.1692 10.5036 93.8533 8.87598 96.7724 8.87598C97.5577 8.87598 98.3811 8.99224 99.0553 9.10832L98.7181 14.9221Z" fill="#FF0084"/>
</svg>
