<svg width="120" height="40" viewBox="0 0 120 40" fill="none" xmlns="http://www.w3.org/2000/svg">
<path d="M51.353 21.0502C51.353 26.805 46.9071 31.0457 41.4509 31.0457C35.9948 31.0457 31.5488 26.805 31.5488 21.0502C31.5488 15.2548 35.9948 11.0547 41.4509 11.0547C46.9071 11.0547 51.353 15.2548 51.353 21.0502ZM47.0183 21.0502C47.0183 17.454 44.4416 14.9934 41.4509 14.9934C38.4603 14.9934 35.8835 17.454 35.8835 21.0502C35.8835 24.6103 38.4603 27.107 41.4509 27.107C44.4416 27.107 47.0183 24.6058 47.0183 21.0502Z" fill="#EA4335"/>
<path d="M72.7148 21.0502C72.7148 26.805 68.2689 31.0457 62.8127 31.0457C57.3566 31.0457 52.9106 26.805 52.9106 21.0502C52.9106 15.2593 57.3566 11.0547 62.8127 11.0547C68.2689 11.0547 72.7148 15.2548 72.7148 21.0502ZM68.3802 21.0502C68.3802 17.454 65.8034 14.9934 62.8127 14.9934C59.8221 14.9934 57.2453 17.454 57.2453 21.0502C57.2453 24.6103 59.8221 27.107 62.8127 27.107C65.8034 27.107 68.3802 24.6058 68.3802 21.0502Z" fill="#FBBC05"/>
<path d="M93.1864 11.6586V29.6036C93.1864 36.9853 88.8874 40.0002 83.805 40.0002C79.0209 40.0002 76.1415 36.76 75.0556 34.1101L78.8295 32.5193C79.5015 34.1462 81.1482 36.066 83.8006 36.066C87.0538 36.066 89.0698 34.0335 89.0698 30.2075V28.7699H88.9185C87.9483 29.9821 86.0792 31.0412 83.7205 31.0412C78.785 31.0412 74.2634 26.6879 74.2634 21.0862C74.2634 15.4441 78.785 11.0547 83.7205 11.0547C86.0747 11.0547 87.9439 12.1137 88.9185 13.2899H89.0698V11.6631H93.1864V11.6586ZM89.3769 21.0862C89.3769 17.5666 87.0583 14.9934 84.1077 14.9934C81.117 14.9934 78.6114 17.5666 78.6114 21.0862C78.6114 24.5698 81.117 27.107 84.1077 27.107C87.0583 27.107 89.3769 24.5698 89.3769 21.0862Z" fill="#4285F4"/>
<path d="M99.9732 1.14014V30.4326H95.7454V1.14014H99.9732Z" fill="#34A853"/>
<path d="M116.449 24.3398L119.813 26.6111C118.727 28.238 116.11 31.041 111.589 31.041C105.981 31.041 101.793 26.6517 101.793 21.0455C101.793 15.1014 106.017 11.05 111.104 11.05C116.226 11.05 118.732 15.178 119.55 17.4088L120 18.5444L106.805 24.0784C107.815 26.0838 109.386 27.1068 111.589 27.1068C113.796 27.1068 115.327 26.0072 116.449 24.3398ZM106.093 20.7436L114.913 17.0347C114.428 15.7864 112.968 14.9167 111.251 14.9167C109.048 14.9167 105.981 16.886 106.093 20.7436V20.7436Z" fill="#EA4335"/>
<path d="M15.5452 18.4497V14.2091H29.6573C29.7953 14.9482 29.8665 15.8224 29.8665 16.7688C29.8665 19.9504 29.0076 23.8846 26.2394 26.6877C23.547 29.5268 20.1068 31.041 15.5496 31.041C7.1028 31.041 0 24.0739 0 15.5205C0 6.9671 7.1028 0 15.5496 0C20.2225 0 23.5514 1.85669 26.0525 4.2767L23.0975 7.26904C21.304 5.56557 18.8741 4.24065 15.5452 4.24065C9.37695 4.24065 4.55274 9.27445 4.55274 15.5205C4.55274 21.7666 9.37695 26.8004 15.5452 26.8004C19.5461 26.8004 21.8247 25.1735 23.2844 23.6954C24.4682 22.4966 25.247 20.7841 25.5541 18.4452L15.5452 18.4497Z" fill="#4285F4"/>
</svg>
