<svg width="141" height="30" viewBox="0 0 141 30" fill="none" xmlns="http://www.w3.org/2000/svg">
<path d="M49.5815 17.279L48.7442 19.6511H48.6745C48.5349 19.1162 48.2791 18.3022 47.8605 17.3255L43.3722 6.04641H38.9768V24.0232H41.8838V12.9301C41.8838 12.2325 41.8838 11.4418 41.8605 10.465C41.8373 9.97664 41.7908 9.60455 41.7675 9.32548H41.8373C41.9768 10.0232 42.1396 10.5348 42.2559 10.8604L47.6512 23.9766H49.6977L55.0466 10.7441C55.1629 10.4418 55.2791 9.83711 55.3954 9.32548H55.4652C55.3954 10.6511 55.3489 11.8371 55.3256 12.558V23.9534H58.4187V5.9999H54.1861L49.5815 17.279ZM61.3489 11.0697H64.3722V23.9534H61.3489V11.0697ZM62.8838 5.6278C62.3722 5.6278 61.9535 5.81385 61.6047 6.13943C61.2559 6.46501 61.0698 6.88362 61.0698 7.39525C61.0698 7.88362 61.2559 8.30222 61.6047 8.6278C61.9535 8.95339 62.3722 9.11618 62.8838 9.11618C63.3954 9.11618 63.8373 8.93013 64.1629 8.6278C64.5117 8.30222 64.6977 7.88362 64.6977 7.39525C64.6977 6.90687 64.5117 6.48827 64.1629 6.13943C63.8605 5.81385 63.4187 5.6278 62.8838 5.6278V5.6278ZM75.0931 10.9534C74.5349 10.8371 73.9536 10.7673 73.3954 10.7673C72.0233 10.7673 70.7675 11.0697 69.721 11.6743C68.6745 12.279 67.8373 13.1162 67.3024 14.1627C66.7442 15.2325 66.4652 16.465 66.4652 17.8836C66.4652 19.1162 66.7442 20.2092 67.2791 21.2092C67.814 22.1859 68.5582 22.9766 69.5582 23.5115C70.5117 24.0464 71.628 24.3255 72.8838 24.3255C74.3256 24.3255 75.5582 24.0232 76.5349 23.465L76.5582 23.4418V20.6511L76.4419 20.7441C76.0001 21.0697 75.4884 21.3487 74.9768 21.5115C74.4419 21.6976 73.9536 21.7906 73.5349 21.7906C72.3256 21.7906 71.3722 21.4418 70.6977 20.6743C70.0001 19.9301 69.6512 18.9069 69.6512 17.6278C69.6512 16.3022 70.0001 15.2557 70.721 14.4883C71.4419 13.7208 72.3954 13.3255 73.5582 13.3255C74.5349 13.3255 75.5349 13.6511 76.4419 14.3022L76.5582 14.3952V11.4418L76.5349 11.4185C76.1396 11.2557 75.6977 11.0697 75.0931 10.9534V10.9534ZM85.0698 10.8604C84.3256 10.8604 83.628 11.0929 83.0233 11.5813C82.5117 11.9999 82.1629 12.6045 81.8605 13.3255H81.8373V11.0697H78.814V23.9534H81.8373V17.372C81.8373 16.2557 82.0698 15.3255 82.5815 14.6511C83.0931 13.9534 83.7442 13.6045 84.5349 13.6045C84.814 13.6045 85.0931 13.6743 85.4419 13.7208C85.7675 13.8139 86.0001 13.9069 86.1629 14.0232L86.2791 14.1162V11.0929L86.2094 11.0697C86.0001 10.9301 85.5815 10.8604 85.0698 10.8604V10.8604ZM93.3024 10.7906C91.1861 10.7906 89.4884 11.4185 88.3024 12.6511C87.0931 13.8836 86.5117 15.5813 86.5117 17.7208C86.5117 19.7208 87.1163 21.3487 88.2791 22.5348C89.4419 23.6976 91.0233 24.3022 93.0001 24.3022C95.0698 24.3022 96.721 23.6743 97.907 22.4185C99.1163 21.1627 99.6977 19.4883 99.6977 17.4185C99.6977 15.372 99.1396 13.7441 98.0001 12.558C96.907 11.372 95.3024 10.7906 93.3024 10.7906V10.7906ZM95.721 20.6976C95.1629 21.4185 94.2791 21.7673 93.1861 21.7673C92.0931 21.7673 91.2094 21.4185 90.5815 20.6511C89.9536 19.9301 89.6512 18.8836 89.6512 17.558C89.6512 16.1859 89.9768 15.1394 90.5815 14.3952C91.2094 13.6511 92.0698 13.279 93.1629 13.279C94.2326 13.279 95.0698 13.6278 95.6745 14.3487C96.2791 15.0697 96.6047 16.1162 96.6047 17.4883C96.5582 18.8836 96.3024 19.9766 95.721 20.6976V20.6976ZM106.442 16.4185C105.488 16.0232 104.884 15.7208 104.605 15.465C104.372 15.2325 104.256 14.9069 104.256 14.4883C104.256 14.1394 104.395 13.7906 104.744 13.558C105.093 13.3255 105.488 13.2092 106.07 13.2092C106.581 13.2092 107.116 13.3022 107.628 13.4418C108.14 13.5813 108.605 13.7906 108.977 14.0697L109.093 14.1627V11.3255L109.023 11.3022C108.674 11.1627 108.209 11.0232 107.651 10.9069C107.093 10.8139 106.581 10.7673 106.163 10.7673C104.721 10.7673 103.535 11.1162 102.605 11.8836C101.674 12.6045 101.233 13.5813 101.233 14.7208C101.233 15.3255 101.326 15.8604 101.535 16.3022C101.744 16.7441 102.047 17.1627 102.465 17.5115C102.884 17.8371 103.488 18.2092 104.326 18.558C105.023 18.8604 105.558 19.0929 105.884 19.279C106.209 19.465 106.419 19.6743 106.581 19.8371C106.698 20.0232 106.768 20.2557 106.768 20.558C106.768 21.4185 106.116 21.8371 104.791 21.8371C104.279 21.8371 103.744 21.7441 103.116 21.5348C102.488 21.3255 101.907 21.0232 101.419 20.6743L101.302 20.5813V23.5348L101.372 23.558C101.814 23.7673 102.349 23.9069 103 24.0697C103.651 24.1859 104.233 24.279 104.744 24.279C106.302 24.279 107.581 23.9301 108.488 23.1627C109.419 22.4185 109.907 21.465 109.907 20.2325C109.907 19.372 109.674 18.6045 109.163 18.0232C108.488 17.465 107.651 16.8836 106.442 16.4185V16.4185ZM117.884 10.7906C115.768 10.7906 114.07 11.4185 112.884 12.6511C111.698 13.8836 111.093 15.5813 111.093 17.7208C111.093 19.7208 111.698 21.3487 112.861 22.5348C114.023 23.6976 115.605 24.3022 117.581 24.3022C119.651 24.3022 121.302 23.6743 122.488 22.4185C123.698 21.1627 124.279 19.4883 124.279 17.4185C124.279 15.372 123.721 13.7441 122.581 12.558C121.488 11.372 119.884 10.7906 117.884 10.7906V10.7906ZM120.279 20.6976C119.721 21.4185 118.837 21.7673 117.744 21.7673C116.628 21.7673 115.768 21.4185 115.14 20.6511C114.512 19.9301 114.209 18.8836 114.209 17.558C114.209 16.1859 114.535 15.1394 115.14 14.3952C115.768 13.6511 116.628 13.279 117.721 13.279C118.768 13.279 119.628 13.6278 120.233 14.3487C120.837 15.0697 121.163 16.1162 121.163 17.4883C121.163 18.8836 120.861 19.9766 120.279 20.6976V20.6976ZM140.442 13.558V11.0697H137.395V7.25571L137.302 7.27897L134.419 8.13943L134.349 8.16269V11.0697H129.791V9.44176C129.791 8.69757 129.977 8.11618 130.302 7.74408C130.628 7.37199 131.116 7.18594 131.721 7.18594C132.14 7.18594 132.581 7.27897 133.07 7.48827L133.186 7.55804V4.93013L133.116 4.90687C132.698 4.76734 132.14 4.67432 131.419 4.67432C130.512 4.67432 129.721 4.88362 129 5.23246C128.279 5.6278 127.744 6.16269 127.349 6.88362C126.954 7.58129 126.744 8.37199 126.744 9.27897V11.0697H124.628V13.5348H126.744V23.9534H129.791V13.558H134.349V20.1859C134.349 22.9069 135.628 24.279 138.186 24.279C138.605 24.279 139.047 24.2092 139.465 24.1394C139.907 24.0464 140.233 23.9301 140.419 23.8371L140.442 23.8139V21.3255L140.326 21.4185C140.14 21.5348 139.977 21.6278 139.698 21.6976C139.465 21.7673 139.256 21.7906 139.093 21.7906C138.488 21.7906 138.07 21.6511 137.768 21.3022C137.488 20.9766 137.349 20.4418 137.349 19.6511V13.558H140.442Z" fill="#737373"/>
<path d="M0 0H14.2558V14.2558H0V0Z" fill="#F25022"/>
<path d="M15.7441 0H30V14.2558H15.7441V0Z" fill="#7FBA00"/>
<path d="M0 15.7441H14.2558V30H0V15.7441Z" fill="#00A4EF"/>
<path d="M15.7441 15.7441H30V30H15.7441V15.7441Z" fill="#FFB900"/>
</svg>
