<svg width="134" height="40" viewBox="0 0 134 40" fill="none" xmlns="http://www.w3.org/2000/svg">
<path d="M103.926 30.8204H98.7506V20.1251C98.7506 18.5535 98.0893 17.6846 96.3087 17.6846C94.9675 17.6846 94.1029 18.3273 93.1353 19.1003V30.8204H87.9595V14.1692H92.9893V15.6335C94.6769 14.4998 96.6078 13.7784 98.7019 13.7784C102.003 13.7784 103.926 15.8296 103.926 18.9543V30.8204V30.8204ZM117.854 17.4885H113.312V25.009C113.312 27.1489 114.44 27.5482 115.9 27.5482C116.408 27.5482 116.958 27.4752 117.513 27.4008L117.854 30.7717C116.664 30.9821 115.077 31.161 114.045 31.161C110.913 31.161 108.136 30.0689 108.136 26.2299V17.4885H105.5V14.1692H108.136V10.5063L113.312 9.04199V14.1692H117.854V17.4885" fill="#36398E"/>
<path d="M77.5147 0C74.8967 4.43726 76.0332 8.4537 73.4725 11.0159C71.4156 13.0727 69.5076 13.0069 67.2646 13.0069C66.4845 13.0069 64.9687 13.0742 64.3331 13.5351C63.9653 12.3628 63.8064 11.0731 63.8064 9.84356C63.8064 7.73085 64.2802 5.85289 65.7989 4.33563C68.7074 1.42851 73.9763 0.503844 77.5147 0Z" fill="#009F3C"/>
<path d="M32.495 14.1691L24.1945 34.3357C22.9177 37.4332 20.357 39.7062 16.8702 39.7062C15.1253 39.7062 14.2007 39.4786 13.0613 39.2181L13.7941 35.8988C14.7145 36.1035 15.4044 36.1908 16.04 36.1908C18.1212 36.1908 19.2291 34.4202 20.2411 31.9911L20.7292 30.8203L14.2837 14.1691H19.8503L22.8776 22.421C23.2426 23.4172 23.4459 24.4378 23.6105 25.1549C23.7995 24.432 24.1687 23.2325 24.538 22.2735L27.6627 14.1691H32.495V14.1691ZM49.5313 30.8203H44.3554V20.125C44.3554 18.5534 43.6941 17.6845 41.9135 17.6845C40.5766 17.6845 39.7077 18.3287 38.7401 19.1002V30.8203H33.5643V14.1691H38.5941V15.6334C40.2817 14.4997 42.2141 13.7783 44.3068 13.7783C47.6075 13.7783 49.5313 15.8295 49.5313 18.9542V30.8203Z" fill="#36398E"/>
<path d="M133.739 30.8202H128.855V29.5019C127.586 30.6241 125.945 31.1609 124.119 31.1609C121.02 31.1609 118.894 29.6623 118.894 26.5218C118.894 21.0024 124.405 20.1465 128.708 20.125V19.687C128.708 18.3143 128.19 17.3424 125.73 17.3424C124.072 17.3424 122.182 18.164 120.944 18.9055L119.674 15.828C121.874 14.6357 124.604 13.7783 127.193 13.7783C131.168 13.7783 133.738 15.6792 133.738 19.0028V30.8202H133.739ZM128.708 26.3758V23.2998C126.312 23.2612 124.072 23.5002 124.072 25.7904C124.072 27.206 125.265 27.6455 126.17 27.6455C127.243 27.6455 128.075 27.1087 128.708 26.3758V26.3758ZM14.2107 25.497C14.2107 29.1212 10.8613 31.1122 6.88634 31.1122C4.29699 31.1122 2.20575 30.68 0 29.7939L1.41563 26.4245C2.7282 26.9555 4.61618 27.5481 6.15205 27.5481C7.35583 27.5481 9.03483 27.4007 9.03483 25.9364C9.03483 25.2536 8.60542 24.9001 7.81244 24.6668C6.82336 24.3748 5.30038 24.1128 4.29699 23.8366C2.18714 23.2554 0.439432 22.1475 0.439432 19.0515C0.439432 15.6176 3.36945 13.4849 7.37444 13.4849C10.0196 13.4849 11.6986 13.8341 13.1858 14.2664L11.8661 17.6358C11.2105 17.3381 9.36835 16.903 8.05721 16.903C6.63442 16.903 5.66395 17.4469 5.66395 18.3186C5.66395 18.7509 5.93305 19.2977 6.69024 19.5396C7.50326 19.8001 8.78721 20.0363 9.86503 20.2724C12.0693 20.7562 14.2107 22.023 14.2107 25.497V25.497ZM85.6892 21.8842C85.6892 22.4352 85.672 23.0049 85.6406 23.5932H74.6047C74.6519 26.0151 75.86 27.4494 79.3897 27.4494C80.9542 27.4494 82.8336 26.7394 83.6409 26.1812L85.0079 29.2572C82.7263 30.4953 80.27 31.1609 77.5347 31.1609C72.3631 31.1609 69.1397 27.8301 69.1397 22.5183C69.1397 17.1191 73.3637 13.7783 77.9269 13.7783C83.6109 13.7783 85.6892 17.0991 85.6892 21.8842V21.8842ZM80.3674 20.2724C80.4561 18.4374 79.5343 17.2938 77.7294 17.2938C75.9859 17.2938 74.9482 18.5734 74.6548 20.2724H80.3674ZM69.1497 32.8714C69.1497 37.7266 64.3088 39.9767 59.5294 39.9996C55.3255 40.0197 51.2776 38.8102 51.2776 34.7751C51.2776 32.8871 52.9494 31.6247 53.9628 30.9662C53.3989 30.6442 52.8893 30.3923 52.4484 29.8913C51.9846 29.3645 51.6182 28.5959 51.6182 27.3034C51.6182 25.6759 53.0539 24.1701 54.793 23.2025C53.8283 22.6943 52.5472 21.877 52.5472 19.1488C52.5472 15.6004 55.9138 13.7296 60.311 13.7296C64.0483 13.7296 67.6353 14.6228 67.6353 19.0028C67.6353 23.1867 63.7033 24.7154 59.7255 24.7154C58.9826 24.7154 58.3213 24.5981 57.6729 24.4721C57.2492 24.6983 56.4033 25.2594 56.4033 25.8877C56.4033 27.1674 58.1496 27.3535 58.9426 27.3535H63.0434C66.848 27.3535 69.1497 29.1985 69.1497 32.8714V32.8714ZM62.6054 19.2461C62.6054 17.852 61.8354 16.7069 60.1149 16.7069C58.5432 16.7069 57.577 18.0366 57.577 19.2461C57.577 20.6432 58.4459 21.7854 60.0175 21.7854C61.7452 21.7854 62.6054 20.6389 62.6054 19.2461V19.2461ZM63.9724 33.5542C63.9724 32.1958 62.886 31.6991 61.7753 31.6991H57.2335C56.5421 32.0942 55.4743 32.9601 55.4743 34.0909C55.4743 35.5538 57.4439 36.5329 59.7713 36.5329C62.1832 36.5329 63.9724 35.425 63.9724 33.5542V33.5542Z" fill="#36398E"/>
</svg>
