<svg xmlns="http://www.w3.org/2000/svg">
    <symbol id="facebook" fill="none">
        <path d="M32 16.4242C32 7.53327 24.8369 0.326172 16.002 0.326172C7.1631 0.328172 0 7.53327 0 16.4262C0 24.4592 5.85127 31.1183 13.4983 32.3262V21.0776H9.43882V16.4262H13.5023V12.8766C13.5023 8.84311 15.892 6.61539 19.5456 6.61539C21.2973 6.61539 23.1271 6.92935 23.1271 6.92935V10.8889H21.1094C19.1236 10.8889 18.5037 12.1307 18.5037 13.4045V16.4242H22.9391L22.2312 21.0756H18.5017V32.3242C26.1487 31.1163 32 24.4572 32 16.4242Z" fill="#444B51"/>
    </symbol>
    <symbol id="linkedIn" fill="none" xmlns="http://www.w3.org/2000/svg">
        <path d="M16.4285 0.326172C7.5918 0.326172 0.428467 7.48951 0.428467 16.3262C0.428467 25.1628 7.5918 32.3262 16.4285 32.3262C25.2651 32.3262 32.4285 25.1628 32.4285 16.3262C32.4285 7.48951 25.2651 0.326172 16.4285 0.326172ZM12.5118 22.9578H9.2718V12.5312H12.5118V22.9578ZM10.8718 11.2512C9.84847 11.2512 9.1868 10.5262 9.1868 9.6295C9.1868 8.7145 9.86847 8.01117 10.9135 8.01117C11.9585 8.01117 12.5985 8.7145 12.6185 9.6295C12.6185 10.5262 11.9585 11.2512 10.8718 11.2512ZM24.3451 22.9578H21.1051V17.1795C21.1051 15.8345 20.6351 14.9212 19.4635 14.9212C18.5685 14.9212 18.0368 15.5395 17.8018 16.1345C17.7151 16.3462 17.6935 16.6462 17.6935 16.9445V22.9562H14.4518V15.8562C14.4518 14.5545 14.4101 13.4662 14.3668 12.5295H17.1818L17.3301 13.9778H17.3951C17.8218 13.2978 18.8668 12.2945 20.6151 12.2945C22.7468 12.2945 24.3451 13.7228 24.3451 16.7928V22.9578Z" fill="#444B51"/>
    </symbol>
    <symbol id="twitter" fill="none" xmlns="http://www.w3.org/2000/svg">
        <path d="M16.8574 0.326172C8.02171 0.326172 0.857422 7.49046 0.857422 16.3262C0.857422 25.1619 8.02171 32.3262 16.8574 32.3262C25.6931 32.3262 32.8574 25.1619 32.8574 16.3262C32.8574 7.49046 25.6931 0.326172 16.8574 0.326172ZM24.5467 12.3869C24.5574 12.5547 24.5574 12.7297 24.5574 12.9012C24.5574 18.144 20.5646 24.1833 13.2681 24.1833C11.0181 24.1833 8.93242 23.5297 7.17528 22.4047C7.49671 22.4405 7.80385 22.4547 8.13242 22.4547C9.98957 22.4547 11.6967 21.8262 13.0574 20.7619C11.3146 20.7262 9.85028 19.5833 9.35028 18.0119C9.96099 18.1012 10.511 18.1012 11.1396 17.9405C10.2422 17.7581 9.43555 17.2708 8.85677 16.5611C8.27799 15.8515 7.96273 14.9633 7.96457 14.0476V13.9976C8.48956 14.294 9.10742 14.4762 9.75385 14.5012C9.21043 14.139 8.76477 13.6484 8.45639 13.0727C8.14801 12.4971 7.98643 11.8542 7.98599 11.2012C7.98599 10.4619 8.17885 9.78689 8.52528 9.20117C9.52136 10.4274 10.7643 11.4303 12.1734 12.1446C13.5824 12.859 15.126 13.2689 16.7039 13.3476C16.1431 10.6512 18.1574 8.46903 20.5789 8.46903C21.7217 8.46903 22.7503 8.9476 23.4753 9.71903C24.3717 9.55117 25.2289 9.21546 25.9931 8.76546C25.6967 9.68331 25.0753 10.4583 24.2503 10.9476C25.0503 10.8619 25.8217 10.6405 26.536 10.3297C25.9967 11.1226 25.3217 11.8262 24.5467 12.3869Z" fill="#444B51"/>
    </symbol>
    <symbol id="pincerest" fill="none">
        <path d="M16.2859 0.326172C7.44922 0.326172 0.285889 7.48951 0.285889 16.3262C0.285889 25.1628 7.44922 32.3262 16.2859 32.3262C25.1226 32.3262 32.2859 25.1628 32.2859 16.3262C32.2859 7.48951 25.1226 0.326172 16.2859 0.326172ZM17.3809 20.1178C16.3542 20.0395 15.9242 19.5312 15.1209 19.0445C14.6792 21.3628 14.1392 23.5862 12.5392 24.7478C12.0442 21.2412 13.2626 18.6112 13.8292 15.8162C12.8642 14.1912 13.9442 10.9228 15.9809 11.7262C18.4859 12.7195 13.8109 17.7678 16.9492 18.3995C20.2259 19.0562 21.5642 12.7128 19.5326 10.6528C16.5959 7.67451 10.9876 10.5845 11.6776 14.8478C11.8442 15.8895 12.9226 16.2062 12.1076 17.6445C10.2292 17.2278 9.66755 15.7462 9.74089 13.7712C9.85589 10.5378 12.6459 8.27284 15.4426 7.96117C18.9809 7.56784 22.3009 9.2595 22.7609 12.5895C23.2759 16.3462 21.1626 20.4112 17.3809 20.1178Z" fill="#444B51"/>
    </symbol>
    <symbol id="instagram" fill="none">
        <path d="M21.7141 16.3262C21.7141 17.6523 21.1873 18.924 20.2496 19.8617C19.312 20.7994 18.0402 21.3262 16.7141 21.3262C15.388 21.3262 14.1163 20.7994 13.1786 19.8617C12.2409 18.924 11.7141 17.6523 11.7141 16.3262C11.7141 16.0412 11.7441 15.7628 11.7958 15.4928H10.0474V22.1545C10.0474 22.6178 10.4224 22.9928 10.8858 22.9928H22.5441C22.7662 22.9924 22.979 22.9039 23.1358 22.7467C23.2927 22.5895 23.3808 22.3766 23.3808 22.1545V15.4928H21.6324C21.6841 15.7628 21.7141 16.0412 21.7141 16.3262ZM16.7141 19.6595C17.152 19.6594 17.5855 19.573 17.99 19.4054C18.3945 19.2377 18.762 18.992 19.0715 18.6824C19.381 18.3727 19.6265 18.0051 19.794 17.6005C19.9614 17.1959 20.0476 16.7624 20.0474 16.3245C20.0473 15.8867 19.961 15.4531 19.7933 15.0486C19.6257 14.6442 19.38 14.2767 19.0703 13.9671C18.7606 13.6576 18.393 13.4121 17.9884 13.2447C17.5839 13.0772 17.1503 12.9911 16.7124 12.9912C15.8282 12.9914 14.9802 13.3429 14.3551 13.9683C13.73 14.5938 13.3789 15.4419 13.3791 16.3262C13.3793 17.2104 13.7308 18.0584 14.3563 18.6835C14.9817 19.3087 15.8298 19.6597 16.7141 19.6595ZM20.7141 12.8262H22.7124C22.8452 12.8262 22.9726 12.7735 23.0666 12.6798C23.1606 12.5861 23.2137 12.4589 23.2141 12.3262V10.3278C23.2141 10.1948 23.1613 10.0672 23.0672 9.97311C22.9731 9.87903 22.8455 9.82617 22.7124 9.82617H20.7141C20.5811 9.82617 20.4535 9.87903 20.3594 9.97311C20.2653 10.0672 20.2124 10.1948 20.2124 10.3278V12.3262C20.2141 12.6012 20.4391 12.8262 20.7141 12.8262ZM16.7141 0.326172C12.4706 0.326172 8.40098 2.01188 5.4004 5.01246C2.39982 8.01304 0.714111 12.0827 0.714111 16.3262C0.714111 20.5696 2.39982 24.6393 5.4004 27.6399C8.40098 30.6405 12.4706 32.3262 16.7141 32.3262C18.8153 32.3262 20.8958 31.9123 22.837 31.1082C24.7783 30.3042 26.5421 29.1256 28.0278 27.6399C29.5136 26.1541 30.6921 24.3903 31.4962 22.4491C32.3003 20.5079 32.7141 18.4273 32.7141 16.3262C32.7141 14.225 32.3003 12.1444 31.4962 10.2032C30.6921 8.26203 29.5136 6.4982 28.0278 5.01246C26.5421 3.52673 24.7783 2.34817 22.837 1.5441C20.8958 0.740024 18.8153 0.326172 16.7141 0.326172ZM25.0474 22.8078C25.0474 23.8262 24.2141 24.6595 23.1958 24.6595H10.2324C9.21411 24.6595 8.38078 23.8262 8.38078 22.8078V9.84451C8.38078 8.82617 9.21411 7.99284 10.2324 7.99284H23.1958C24.2141 7.99284 25.0474 8.82617 25.0474 9.84451V22.8078Z" fill="#444B51"/>
    </symbol>
</svg>
