<svg width="111" height="31" viewBox="0 0 111 31" fill="none" xmlns="http://www.w3.org/2000/svg">
<path d="M1.99 30C1.71 30 1.458 29.902 1.234 29.706C1.038 29.482 0.94 29.23 0.94 28.95V1.65C0.94 1.342 1.038 1.09 1.234 0.893999C1.458 0.697998 1.71 0.599998 1.99 0.599998H14.8C18.328 0.599998 20.946 1.328 22.654 2.784C24.39 4.212 25.258 6.256 25.258 8.916C25.258 10.316 24.894 11.506 24.166 12.486C23.466 13.438 22.668 14.138 21.772 14.586C22.92 15.118 23.886 15.972 24.67 17.148C25.454 18.324 25.846 19.64 25.846 21.096C25.846 23.896 24.922 26.08 23.074 27.648C21.226 29.216 18.594 30 15.178 30H1.99ZM13.96 12.276C15.08 12.276 15.934 11.996 16.522 11.436C17.11 10.848 17.404 10.078 17.404 9.126C17.404 8.202 17.11 7.46 16.522 6.9C15.934 6.34 15.08 6.06 13.96 6.06H8.5V12.276H13.96ZM14.338 24.54C15.486 24.54 16.382 24.204 17.026 23.532C17.67 22.86 17.992 22.048 17.992 21.096C17.992 20.088 17.67 19.262 17.026 18.618C16.382 17.946 15.486 17.61 14.338 17.61H8.5V24.54H14.338Z" fill="#FF726C"/>
<path d="M31.5623 30C31.2823 30 31.0303 29.902 30.8063 29.706C30.6103 29.482 30.5123 29.23 30.5123 28.95V1.65C30.5123 1.342 30.6103 1.09 30.8063 0.893999C31.0303 0.697998 31.2823 0.599998 31.5623 0.599998H37.1063C37.4143 0.599998 37.6663 0.697998 37.8623 0.893999C38.0583 1.09 38.1563 1.342 38.1563 1.65V23.658H50.8823C51.1903 23.658 51.4423 23.77 51.6383 23.994C51.8343 24.19 51.9323 24.442 51.9323 24.75V28.95C51.9323 29.23 51.8343 29.482 51.6383 29.706C51.4423 29.902 51.1903 30 50.8823 30H31.5623ZM67.2157 30.42C63.2677 30.42 60.1597 29.454 57.8917 27.522C55.6237 25.59 54.4197 22.748 54.2797 18.996C54.2517 18.184 54.2377 16.98 54.2377 15.384C54.2377 13.76 54.2517 12.542 54.2797 11.73C54.4197 8.034 55.6377 5.192 57.9337 3.204C60.2577 1.188 63.3517 0.179998 67.2157 0.179998C71.0797 0.179998 74.1737 1.188 76.4977 3.204C78.8217 5.192 80.0397 8.034 80.1517 11.73C80.2077 13.354 80.2357 14.572 80.2357 15.384C80.2357 16.168 80.2077 17.372 80.1517 18.996C80.0117 22.748 78.8077 25.59 76.5397 27.522C74.2717 29.454 71.1637 30.42 67.2157 30.42ZM67.2157 24.372C68.7557 24.372 69.9737 23.91 70.8697 22.986C71.7937 22.062 72.2837 20.648 72.3397 18.744C72.3957 17.12 72.4237 15.972 72.4237 15.3C72.4237 14.572 72.3957 13.424 72.3397 11.856C72.2837 9.952 71.7937 8.538 70.8697 7.614C69.9457 6.69 68.7277 6.228 67.2157 6.228C65.7037 6.228 64.4857 6.69 63.5617 7.614C62.6657 8.538 62.1757 9.952 62.0917 11.856C62.0637 12.64 62.0497 13.788 62.0497 15.3C62.0497 16.784 62.0637 17.932 62.0917 18.744C62.1757 20.648 62.6657 22.062 63.5617 22.986C64.4577 23.91 65.6757 24.372 67.2157 24.372ZM97.2421 30.42C93.2101 30.42 90.0601 29.44 87.7921 27.48C85.5241 25.492 84.3201 22.678 84.1801 19.038C84.1521 18.226 84.1381 16.938 84.1381 15.174C84.1381 13.41 84.1521 12.122 84.1801 11.31C84.3201 7.754 85.5381 5.01 87.8341 3.078C90.1581 1.146 93.2941 0.179998 97.2421 0.179998C99.9021 0.179998 102.212 0.613999 104.172 1.482C106.16 2.35 107.672 3.456 108.708 4.8C109.772 6.144 110.332 7.53 110.388 8.958C110.388 9.21 110.29 9.42 110.094 9.588C109.926 9.756 109.716 9.84 109.464 9.84H103.332C103.052 9.84 102.828 9.798 102.66 9.714C102.492 9.63 102.352 9.476 102.24 9.252C101.876 8.44 101.302 7.74 100.518 7.152C99.7341 6.536 98.6421 6.228 97.2421 6.228C93.9101 6.228 92.1601 7.992 91.9921 11.52C91.9641 12.304 91.9501 13.522 91.9501 15.174C91.9501 16.798 91.9641 18.016 91.9921 18.828C92.1601 22.524 93.9521 24.372 97.3681 24.372C99.0201 24.372 100.336 23.952 101.316 23.112C102.324 22.244 102.828 20.928 102.828 19.164V18.366H98.8801C98.5721 18.366 98.3201 18.268 98.1241 18.072C97.9281 17.848 97.8301 17.582 97.8301 17.274V14.166C97.8301 13.858 97.9281 13.606 98.1241 13.41C98.3201 13.186 98.5721 13.074 98.8801 13.074H109.464C109.772 13.074 110.024 13.186 110.22 13.41C110.416 13.606 110.514 13.858 110.514 14.166V18.954C110.514 21.334 109.968 23.392 108.876 25.128C107.784 26.836 106.23 28.152 104.214 29.076C102.226 29.972 99.9021 30.42 97.2421 30.42Z" fill="#25243D"/>
</svg>
