<svg xmlns="http://www.w3.org/2000/svg">
    <defs>
        <symbol id="logo" viewBox="0 0 26 25">
            <path d="M23.738 18.178a.875.875 0 0 0 0-1.75h-5.542V8.55h5.542a.875.875 0 0 0 0-1.75h-5.542V1.259a.875.875 0 0 0-1.75 0V6.8H8.568V1.258a.875.875 0 0 0-1.75 0v5.543H1.276a.875.875 0 0 0 0 1.75H6.82v7.876H1.276a.875.875 0 0 0 0 1.75H6.82v5.543a.875.875 0 1 0 1.75 0v-5.542h7.876v5.542a.875.875 0 0 0 1.75 0v-5.542h5.543zm-15.169-1.75V8.55h7.876v7.876H8.57z" fill="#fff"/><path d="M1.494 5.852 2.88 4.465l1.387 1.387a.872.872 0 0 0 1.238 0 .875.875 0 0 0 0-1.237L4.118 3.227 5.505 1.84A.875.875 0 1 0 4.267.603L2.88 1.99 1.494.603A.875.875 0 1 0 .256 1.84l1.387 1.387L.256 4.614a.875.875 0 1 0 1.238 1.238zM13.745 12.49l1.386-1.388a.875.875 0 1 0-1.237-1.237l-1.387 1.387-1.387-1.387a.875.875 0 1 0-1.237 1.237l1.387 1.387-1.387 1.387a.875.875 0 1 0 1.237 1.238l1.387-1.387 1.387 1.387a.873.873 0 0 0 1.237 0 .875.875 0 0 0 0-1.238l-1.386-1.387zM12.507 6.455a3.231 3.231 0 0 0 3.227-3.228A3.231 3.231 0 0 0 12.507 0a3.231 3.231 0 0 0-3.228 3.227 3.231 3.231 0 0 0 3.228 3.228zm0-4.705c.814 0 1.477.663 1.477 1.477 0 .815-.663 1.478-1.477 1.478a1.479 1.479 0 0 1-1.477-1.478c0-.814.662-1.477 1.477-1.477zM21.773 18.596a3.231 3.231 0 0 0-3.228 3.228 3.23 3.23 0 0 0 3.228 3.227A3.23 3.23 0 0 0 25 21.824a3.23 3.23 0 0 0-3.227-3.228zm0 4.705a1.479 1.479 0 0 1-1.478-1.477c0-.815.663-1.477 1.478-1.477.814 0 1.477.662 1.477 1.477 0 .814-.663 1.477-1.477 1.477z" fill="#fff"/>
        </symbol>
        <symbol id="circle" viewBox="0 0 148 148">
            <circle cx="74" cy="74" r="68" stroke="#fff" stroke-width="12"/>
        </symbol>
         <symbol id="cross" viewBox="0 0 36 36">
            <path d="M2.646 2.565.758 4.46l6.83 6.83 6.836 6.835-6.836 6.837-6.83 6.83 1.888 1.894 1.895 1.888 6.83-6.83 6.836-6.836 6.836 6.837 6.83 6.83 1.894-1.889 1.889-1.895-6.83-6.83-6.837-6.835 6.837-6.837 6.83-6.83-1.889-1.894L31.873.677l-6.83 6.83-6.836 6.836-6.837-6.837L4.54.676 2.647 2.566z" fill="#fff"/>
        </symbol>
    </defs>
</svg>
