<svg width="72" height="71" viewBox="0 0 72 71" fill="none" xmlns="http://www.w3.org/2000/svg">
<path d="M51.8882 64.6097C46.9788 67.356 41.387 68.8171 35.7291 68.8171C28.9044 68.8171 22.8282 67.0594 17.6546 63.6429L20.0322 60.7098C20.0763 60.7537 20.1203 60.8087 20.1864 60.8526C24.8536 63.7418 30.2253 65.2688 35.7401 65.2688C39.5157 65.2688 43.2032 64.5657 46.6816 63.1815C47.0999 63.0168 47.3091 62.5334 47.144 62.1159C46.9788 61.6985 46.4945 61.4898 46.0762 61.6546C42.785 62.9618 39.3176 63.621 35.7511 63.621C30.5445 63.621 25.47 62.1819 21.067 59.4575L22.9823 57.0846C23.4446 56.5133 23.5437 55.7444 23.2355 55.0742C22.9272 54.4041 22.2888 53.9757 21.5513 53.9537L10.9069 53.5802C10.3015 53.5473 9.72914 53.8219 9.34387 54.2943C8.9586 54.7667 8.82651 55.3818 8.98062 55.9751L11.5894 66.2795C11.7655 66.9935 12.3269 67.5318 13.0424 67.6856C13.1855 67.7186 13.3176 67.7295 13.4607 67.7295C14.0331 67.7295 14.5835 67.4769 14.9577 67.0155L16.6419 64.9392C22.1237 68.5974 28.5411 70.4759 35.7621 70.4759C41.7062 70.4759 47.5733 68.9489 52.7358 66.0597C53.1321 65.84 53.2752 65.3347 53.055 64.9392C52.8349 64.5437 52.2845 64.3899 51.8882 64.6097ZM13.6368 65.9719C13.5488 66.0817 13.4277 66.0817 13.3616 66.0707C13.2956 66.0597 13.1855 66.0158 13.1525 65.873L10.5437 55.5686C10.5107 55.4478 10.5657 55.3709 10.5987 55.3269C10.6318 55.283 10.6978 55.228 10.8079 55.228H10.8189L21.4632 55.6015C21.6063 55.6015 21.6724 55.7004 21.7054 55.7663C21.7274 55.8213 21.7604 55.9421 21.6724 56.052L13.6368 65.9719Z" fill="#E24329" stroke="#E24329" stroke-width="0.5"/>
<path d="M20.0765 5.95809C25.283 3.26664 31.1281 2.0143 37.0061 2.31091C43.8198 2.66244 49.797 4.7387 54.7834 8.41884L52.2517 11.2311C52.2076 11.1762 52.1636 11.1213 52.1086 11.0883C47.6065 7.95745 42.3118 6.15583 36.808 5.8702C33.0324 5.67247 29.3228 6.1778 25.7674 7.3862C25.3381 7.52901 25.1069 8.00139 25.25 8.42982C25.3931 8.85826 25.8664 9.08895 26.2957 8.94614C29.6421 7.81464 33.1535 7.33128 36.7199 7.51803C41.9155 7.79267 46.913 9.49542 51.1619 12.4395L49.1255 14.7025C48.6302 15.2518 48.4981 16.0098 48.7622 16.6909C49.0264 17.372 49.6539 17.8334 50.3914 17.8993L61.0027 18.8221C61.0577 18.8221 61.1128 18.8331 61.1788 18.8331C61.7292 18.8331 62.2355 18.6024 62.6098 18.1959C63.0171 17.7455 63.1822 17.1413 63.0611 16.5371L61.0027 6.11189C60.8596 5.39783 60.3312 4.82658 59.6267 4.62884C58.9223 4.43111 58.1737 4.65082 57.6784 5.20009L55.8952 7.18846C50.6115 3.24467 44.2932 1.03659 37.0942 0.663081C30.9299 0.344502 24.7877 1.66276 19.3279 4.48603C18.9207 4.69476 18.7666 5.1891 18.9757 5.59557C19.1738 6.00203 19.6692 6.16681 20.0765 5.95809ZM58.9002 6.30963C58.9993 6.19977 59.1204 6.21075 59.1754 6.23273C59.2415 6.2547 59.3406 6.29864 59.3736 6.44145L61.443 16.8667C61.465 16.9875 61.41 17.0644 61.377 17.1084C61.3439 17.1413 61.2559 17.2072 61.1458 17.1962L50.5345 16.2735C50.3914 16.2625 50.3253 16.1636 50.3033 16.0977C50.2813 16.0428 50.2593 15.9219 50.3584 15.8121L58.9002 6.30963Z" fill="#E24329" stroke="#E24329" stroke-width="0.5"/>
<path d="M9.38779 46.6484C9.80608 46.4836 10.0152 46.0002 9.85011 45.5828C8.5402 42.2981 7.87975 38.8377 7.87975 35.2784C7.87975 30.0822 9.32174 25.0179 12.0516 20.6237L14.4293 22.5352C14.7815 22.8208 15.2108 22.9636 15.6401 22.9636C15.9153 22.9636 16.1795 22.9087 16.4437 22.7879C17.1151 22.4803 17.5444 21.8431 17.5664 21.1071L17.9407 10.4841C17.9627 9.86894 17.6985 9.30868 17.2252 8.92418C16.7519 8.53969 16.1354 8.40787 15.541 8.56166L5.2049 11.1542C4.48941 11.33 3.95004 11.8903 3.79593 12.6043C3.64182 13.3184 3.895 14.0544 4.46739 14.5158L6.54783 16.1966C2.87129 21.6564 1 28.0719 1 35.2674C1 40.9359 2.40897 46.5605 5.0618 51.5369C5.21591 51.8116 5.4911 51.9763 5.78831 51.9763C5.9204 51.9763 6.05249 51.9434 6.17357 51.8775C6.58085 51.6687 6.72395 51.1634 6.51481 50.7679C3.98306 46.0222 2.64013 40.6613 2.64013 35.2674C2.64013 28.4564 4.40135 22.3924 7.82471 17.2292L10.7637 19.6021C10.7197 19.646 10.6647 19.69 10.6206 19.7559C7.72564 24.4137 6.19559 29.7746 6.19559 35.2784C6.19559 39.0464 6.90007 42.7265 8.28703 46.198C8.41912 46.5165 8.72733 46.7143 9.05756 46.7143C9.17864 46.7143 9.28872 46.6923 9.38779 46.6484ZM5.40304 12.9559C5.41405 12.8899 5.45808 12.7801 5.60118 12.7471L15.9263 10.1436C15.9483 10.1326 15.9703 10.1326 15.9923 10.1326C16.0694 10.1326 16.1354 10.1655 16.1575 10.1985C16.2015 10.2315 16.2675 10.2974 16.2565 10.4182L15.8823 21.0412C15.8823 21.184 15.7832 21.2499 15.7172 21.2829C15.6621 21.3048 15.541 21.3378 15.431 21.2499L5.48009 13.2305C5.39203 13.1426 5.39203 13.0218 5.40304 12.9559Z" fill="#E24329" stroke="#E24329" stroke-width="0.5"/>
<path d="M67.5302 19.7339C67.3321 19.3274 66.8367 19.1517 66.4295 19.3494C66.0222 19.5472 65.8461 20.0415 66.0442 20.448C68.4659 25.4244 69.5886 30.994 69.2914 36.5417C68.9392 43.3417 66.8588 49.3069 63.1602 54.2833L60.3423 51.7566C60.3973 51.7127 60.4523 51.6797 60.4964 51.6248C63.6335 47.1317 65.4388 41.8477 65.725 36.355C65.9231 32.5869 65.4168 28.8848 64.2059 25.3365C64.0628 24.9081 63.5895 24.6774 63.1602 24.8202C62.7309 24.963 62.4997 25.4354 62.6428 25.8638C63.7766 29.2034 64.261 32.7078 64.0738 36.2671C63.7986 41.4522 62.0925 46.4396 59.1424 50.68L56.8749 48.6477C56.3245 48.1534 55.565 48.0215 54.8825 48.2852C54.2 48.5598 53.7377 49.175 53.6716 49.9111L52.747 60.5011C52.692 61.1053 52.9231 61.6875 53.3744 62.094C53.7377 62.4125 54.189 62.5883 54.6513 62.5883C54.7724 62.5883 54.9045 62.5773 55.0256 62.5554L65.4718 60.5011C66.1873 60.3583 66.7597 59.831 66.9578 59.1279C67.156 58.4248 66.9358 57.6778 66.3854 57.1835L64.393 55.4038C68.3448 50.1308 70.5573 43.8251 70.9316 36.6406C71.2508 30.8073 70.062 24.963 67.5302 19.7339ZM65.3727 58.6775C65.3507 58.7434 65.3067 58.8423 65.1636 58.8752L54.7064 60.9405C54.5853 60.9625 54.5082 60.9075 54.4642 60.8746C54.4312 60.8416 54.3651 60.7647 54.3761 60.6439L55.3008 50.0539C55.3118 49.9111 55.4108 49.8451 55.4769 49.8232C55.4989 49.8122 55.5429 49.8012 55.587 49.8012C55.642 49.8012 55.7081 49.8232 55.7631 49.8781L65.2847 58.4028C65.3947 58.5017 65.3837 58.6226 65.3727 58.6775Z" fill="#E24329" stroke="#E24329" stroke-width="0.5"/>
<path d="M55.9833 38.7388C56.8529 38.64 57.5133 37.9039 57.5133 37.0251V33.8942C57.5133 33.0154 56.8529 32.2793 55.9833 32.1805L52.692 31.7301C52.2737 29.8076 51.5142 27.984 50.4355 26.2154L52.4498 23.6777C52.9892 22.9856 52.9342 22.0079 52.3178 21.3817L50.1052 19.1627C49.4888 18.5475 48.4981 18.4816 47.8046 19.0308L45.1738 21.0192C43.4897 19.9426 41.6514 19.1846 39.648 18.7013L39.2737 15.5155C39.1747 14.6476 38.4372 13.9885 37.5566 13.9885H34.4304C33.5498 13.9885 32.8123 14.6476 32.7132 15.5155L32.2619 18.7672C30.3246 19.1846 28.4973 19.9426 26.7141 21.0192L24.1823 19.0308C23.4889 18.4926 22.5092 18.5475 21.8817 19.1627L19.6692 21.3817C19.0528 21.9969 18.9978 22.9856 19.5371 23.6777L21.5405 26.3032C20.4728 27.984 19.7243 29.8076 19.2399 31.807L16.0037 32.1915C15.1341 32.2903 14.4736 33.0264 14.4736 33.9052V37.0361C14.4736 37.9149 15.1341 38.6509 16.0037 38.7498L19.317 39.2002C19.7463 41.1227 20.5058 42.9353 21.5735 44.693L19.5481 47.2526C19.0088 47.9337 19.0638 48.9224 19.6802 49.5485L21.8928 51.7566C22.5092 52.3718 23.4999 52.4377 24.1933 51.8885L26.7801 49.8561C27.1434 49.5705 27.1984 49.0542 26.9122 48.7027C26.626 48.3401 26.1087 48.2852 25.7564 48.5708L23.0596 50.6032L20.836 48.2852L22.8614 45.7256C23.3127 45.1544 23.3568 44.3524 22.9495 43.7262C21.9918 42.2212 21.3093 40.5844 20.9131 38.8487C20.748 38.1236 20.1536 37.5853 19.4271 37.4975L16.1138 37.0361L16.1798 33.8283L19.416 33.4438C20.1425 33.3559 20.737 32.8067 20.9021 32.0816C21.2763 30.3459 21.9588 28.6981 22.9275 27.1821C23.3237 26.5559 23.2907 25.754 22.8284 25.1827L20.836 22.5462L23.1476 20.3271L25.6794 22.3155C26.2518 22.7659 27.0663 22.8099 27.6938 22.4034C29.2128 21.4367 30.8639 20.7556 32.6142 20.3711C33.3407 20.2063 33.891 19.6131 33.9791 18.888L34.4304 15.6363L37.6446 15.7022L38.0189 18.888C38.1069 19.6131 38.6573 20.2173 39.3838 20.3711C41.123 20.7446 42.7742 21.4367 44.3042 22.4034C44.9317 22.7989 45.7352 22.7659 46.3186 22.3155L48.9494 20.3271L51.162 22.6451L49.1476 25.1827C48.6963 25.754 48.6522 26.5669 49.0595 27.1821C50.0282 28.6981 50.7106 30.3349 51.0849 32.0706C51.239 32.7957 51.8444 33.3449 52.5709 33.4218L55.8622 33.8832L55.7962 37.102L52.5489 37.4865C51.8224 37.5744 51.228 38.1126 51.0629 38.8377C50.6776 40.5624 49.9951 42.1992 49.0375 43.6933C48.6302 44.3194 48.6742 45.1214 49.1255 45.7036L51.162 48.3841L48.8504 50.6032L46.2636 48.5708C45.9113 48.2852 45.383 48.3511 45.1078 48.7027C44.8216 49.0652 44.8876 49.5815 45.2399 49.8561L47.8267 51.8885C48.1459 52.1411 48.5201 52.262 48.8944 52.262C49.3457 52.262 49.786 52.0862 50.1162 51.7566L52.3288 49.5376C52.9452 48.9224 53.0002 47.9337 52.4608 47.2526L50.4244 44.5831C51.4922 42.9243 52.2517 41.1117 52.736 39.1233L55.9833 38.7388Z" fill="#E24329" stroke="#E24329" stroke-width="0.5"/>
<path d="M32.0303 58.4688C32.4816 58.4688 32.8559 58.0952 32.8559 57.6448V44.9346C32.8559 44.6929 32.7458 44.4513 32.5587 44.2975L28.4969 40.9579C28.64 40.6393 28.706 40.2768 28.706 39.9033C28.706 38.4202 27.4952 37.2008 25.9982 37.2008C24.5011 37.2008 23.2903 38.4092 23.2903 39.9033C23.2903 41.3973 24.5011 42.6057 25.9982 42.6057C26.5155 42.6057 26.9888 42.4519 27.4071 42.1992L31.1937 45.3191V57.6339C31.2047 58.0952 31.568 58.4688 32.0303 58.4688ZM24.9524 39.9143C24.9524 39.332 25.4258 38.8596 26.0092 38.8596C26.5926 38.8596 27.0659 39.332 27.0659 39.9143C27.0659 40.4965 26.5926 40.9689 26.0092 40.9689C25.4258 40.9689 24.9524 40.4965 24.9524 39.9143Z" fill="#E24329" stroke="#E24329" stroke-width="0.5"/>
<path d="M26.6695 28.6981C25.1835 28.6981 23.9617 29.9065 23.9617 31.4005C23.9617 32.8945 25.1725 34.1029 26.6695 34.1029C27.1759 34.1029 27.6382 33.9601 28.0455 33.7075L29.8507 35.3223L30.8965 40.3866C30.9735 40.7711 31.3258 41.0458 31.7 41.0458C31.755 41.0458 31.8101 41.0458 31.8651 41.0238C32.3164 40.9359 32.6026 40.4965 32.5036 40.0461L31.4028 34.7181C31.3698 34.5424 31.2817 34.3886 31.1496 34.2677L29.1352 32.4771C29.2783 32.1475 29.3664 31.785 29.3664 31.4005C29.3664 29.9065 28.1556 28.6981 26.6695 28.6981ZM25.6128 31.3895C25.6128 30.8073 26.0861 30.3349 26.6695 30.3349C27.2529 30.3349 27.7263 30.8073 27.7263 31.3895C27.7263 31.9718 27.2529 32.4441 26.6695 32.4441C26.0861 32.4441 25.6128 31.9718 25.6128 31.3895Z" fill="#E24329" stroke="#E24329" stroke-width="0.5"/>
<path d="M39.1304 44.9346V57.6448C39.1304 58.0952 39.5046 58.4688 39.9559 58.4688C40.4073 58.4688 40.7815 58.0952 40.7815 57.6448V45.3191L44.5681 42.1992C44.9754 42.4519 45.4597 42.6057 45.9771 42.6057C47.4631 42.6057 48.674 41.3973 48.674 39.9033C48.674 38.4202 47.4631 37.2008 45.9771 37.2008C44.4911 37.2008 43.2692 38.4092 43.2692 39.9033C43.2692 40.2768 43.3463 40.6283 43.4784 40.9579L39.4166 44.2975C39.2404 44.4513 39.1304 44.6929 39.1304 44.9346ZM45.9771 38.8596C46.5605 38.8596 47.0228 39.332 47.0228 39.9143C47.0228 40.4965 46.5495 40.9689 45.9771 40.9689C45.3937 40.9689 44.9204 40.4965 44.9204 39.9143C44.9314 39.332 45.4047 38.8596 45.9771 38.8596Z" fill="#E24329" stroke="#E24329" stroke-width="0.5"/>
<path d="M40.583 34.7181L39.4822 40.0461C39.3942 40.4965 39.6804 40.9249 40.1207 41.0238C40.1757 41.0348 40.2307 41.0458 40.2858 41.0458C40.6711 41.0458 41.0123 40.7821 41.0893 40.3866L42.1351 35.3223L43.9403 33.7075C44.3476 33.9491 44.8099 34.1029 45.3163 34.1029C46.8023 34.1029 48.0131 32.8945 48.0131 31.4005C48.0131 29.9175 46.8023 28.6981 45.3163 28.6981C43.8302 28.6981 42.6084 29.9065 42.6084 31.4005C42.6084 31.785 42.6964 32.1475 42.8395 32.4771L40.8252 34.2677C40.7041 34.3886 40.616 34.5424 40.583 34.7181ZM45.3163 30.3459C45.8997 30.3459 46.362 30.8183 46.362 31.4005C46.362 31.9827 45.8887 32.4551 45.3163 32.4551C44.7329 32.4551 44.2595 31.9827 44.2595 31.4005C44.2705 30.8183 44.7439 30.3459 45.3163 30.3459Z" fill="#E24329" stroke="#E24329" stroke-width="0.5"/>
<path d="M35.993 56.8319C36.4443 56.8319 36.8186 56.4584 36.8186 56.008V28.6981C37.9083 28.3465 38.7009 27.3359 38.7009 26.1385C38.7009 24.6554 37.49 23.447 35.993 23.447C34.496 23.447 33.2961 24.6554 33.2961 26.1385C33.2961 27.3359 34.0887 28.3465 35.1674 28.6981V56.008C35.1674 56.4584 35.5417 56.8319 35.993 56.8319ZM35.993 25.0838C36.5764 25.0838 37.0497 25.5562 37.0497 26.1275C37.0497 26.7097 36.5764 27.1821 35.993 27.1821C35.4096 27.1821 34.9473 26.7097 34.9473 26.1275C34.9473 25.5562 35.4096 25.0838 35.993 25.0838Z" fill="#E24329" stroke="#E24329" stroke-width="0.5"/>
</svg>
