<svg width="270" height="40" viewBox="0 0 270 40" fill="none" xmlns="http://www.w3.org/2000/svg">
<path d="M12.2984 39.3261C13.8186 39.3261 15.0509 38.0937 15.0509 36.5736C15.0509 35.0534 13.8186 33.821 12.2984 33.821C10.7782 33.821 9.5459 35.0534 9.5459 36.5736C9.5459 38.0937 10.7782 39.3261 12.2984 39.3261Z" fill="#EA0535"/>
<path d="M24.213 39.3258C25.7331 39.3258 26.9655 38.0935 26.9655 36.5733C26.9655 35.0531 25.7331 33.8208 24.213 33.8208C22.6928 33.8208 21.4604 35.0531 21.4604 36.5733C21.4604 38.0935 22.6928 39.3258 24.213 39.3258Z" fill="#EA0535"/>
<path d="M26.777 15.4254C26.4712 15.035 26.1328 14.651 25.7619 14.2932C23.8618 12.4451 21.5844 11.4495 18.975 11.3454C18.8123 11.3389 18.6431 11.3324 18.4805 11.3324H12.2531V5.18969C12.2531 5.16366 12.2466 5.14414 12.2466 5.11811C12.2401 5.09208 12.2401 5.05955 12.2401 5.03352L12.2336 4.90338H12.2531V0.836426H0.130371C0.162907 1.92312 0.572855 2.87966 1.36672 3.66702C2.18662 4.48692 3.18221 4.90338 4.32747 4.90338H8.1927V21.4705C8.1927 22.8695 8.44647 24.184 8.94752 25.3813C9.44857 26.5786 10.2164 27.6848 11.225 28.6804C13.2422 30.6651 15.6824 31.6672 18.4805 31.6672C18.8774 31.6672 19.2808 31.6476 19.6973 31.6021C21.9878 31.3548 24.0245 30.3723 25.7554 28.6804C26.2369 28.2054 26.6729 27.6978 27.0503 27.1707C28.2151 25.5179 28.8073 23.6048 28.8073 21.477C28.8008 19.1865 28.1175 17.1563 26.777 15.4254ZM24.441 22.7199C24.2197 23.8977 23.6666 24.9453 22.7882 25.8563C21.9813 26.7022 21.0378 27.2488 19.9836 27.5091C19.5021 27.6262 19.001 27.6978 18.4674 27.6978C16.7626 27.6978 15.3245 27.0862 14.1467 25.8563C13.4114 25.0885 12.9039 24.2295 12.624 23.273C12.4614 22.7069 12.3768 22.1017 12.3768 21.4705V19.5574V15.3473V15.2952H18.4609C19.7168 15.2952 20.823 15.6271 21.7926 16.2843C22.1375 16.5186 22.4693 16.7919 22.7752 17.1107C23.9529 18.3211 24.5451 19.7722 24.5451 21.4705C24.5516 21.9065 24.5126 22.3229 24.441 22.7199Z" fill="url(#paint0_linear_30_505)"/>
<path d="M12.3831 0.719069V0.706055H0C0 1.89035 0.422963 2.90546 1.2754 3.75789C2.12783 4.60382 3.14294 5.03329 4.32724 5.03329H8.06232V5.06583C8.90825 3.26986 10.2878 1.90987 12.3831 0.719069Z" fill="url(#paint1_linear_30_505)"/>
<path d="M18.467 15.2949C19.7228 15.2949 20.8291 15.6267 21.7986 16.284C21.265 14.2277 20.3671 12.4773 18.981 11.2149C18.8184 11.2084 18.6492 11.2019 18.48 11.2019H12.3828V15.2949H18.467Z" fill="url(#paint2_linear_30_505)"/>
<path d="M21.8053 16.2841C22.1502 16.5184 22.482 16.7917 22.7879 17.1105C23.9657 18.3209 24.5578 19.772 24.5578 21.4703C24.5578 21.8998 24.5188 22.3162 24.4407 22.7197C26.9394 20.5008 27.2322 17.6116 26.8808 15.3471C26.575 14.9502 26.2301 14.5663 25.8527 14.2019C23.9201 12.3213 21.6296 11.3257 18.9812 11.2151C20.3672 12.4775 21.2717 14.2214 21.8053 16.2841Z" fill="url(#paint3_linear_30_505)"/>
<path d="M19.9833 27.5154C19.5018 27.6326 19.0008 27.7041 18.4672 27.7041C16.7623 27.7041 15.3242 27.0925 14.1464 25.8626C13.4111 25.0948 12.9036 24.2358 12.6238 23.2793C12.8841 27.7432 15.9815 30.6258 19.7035 31.7255C22.0331 31.4718 24.0763 30.4892 25.8332 28.7713C26.3278 28.2833 26.7638 27.7757 27.1412 27.2421C24.9157 28.2312 22.391 28.4655 19.9833 27.5154Z" fill="url(#paint4_linear_30_505)"/>
<path d="M12.3832 7.61654V5.18939C12.3832 5.13082 12.3702 5.08527 12.3702 5.02671H12.3832V0.718994C10.2879 1.9098 8.90843 3.26979 8.0625 5.06575V8.03951V12.2626C8.84986 10.4471 10.2359 8.99605 12.3832 7.61654Z" fill="url(#paint5_linear_30_505)"/>
<path d="M12.6302 23.2793C12.4676 22.7132 12.383 22.1081 12.383 21.4769V19.5638V15.3472C10.2226 18.2428 9.18146 21.8608 8.83008 25.4332C9.34414 26.65 10.112 27.7628 11.1401 28.7714C13.1899 30.7886 15.6365 31.7972 18.4866 31.7972C18.9031 31.7972 19.3131 31.7711 19.7165 31.7321C15.9879 30.6194 12.8905 27.7432 12.6302 23.2793Z" fill="url(#paint6_linear_30_505)"/>
<path d="M26.8809 15.3472C27.2323 17.6116 26.9395 20.5008 24.4408 22.7197C24.2195 23.8975 23.6664 24.9452 22.788 25.8562C21.9811 26.7021 21.0376 27.2487 19.9834 27.509C22.391 28.459 24.9158 28.2313 27.1477 27.2357C28.332 25.5503 28.9307 23.6307 28.9307 21.4704C28.9307 19.1473 28.2474 17.1041 26.8809 15.3472Z" fill="url(#paint7_linear_30_505)"/>
<path d="M12.3832 15.295V11.202V9.44512V8.03307V7.61011C10.2359 8.98962 8.84986 10.4472 8.0625 12.2562V21.4703C8.0625 22.8953 8.31628 24.2098 8.83034 25.4266C9.18172 21.8542 10.2294 18.2427 12.3832 15.3406V15.295Z" fill="url(#paint8_linear_30_505)"/>
<path d="M40.7345 10.9939C43.552 10.9939 45.9792 11.9895 48.0094 13.9872C50.0396 15.9849 51.0547 18.3925 51.0547 21.2101C51.0547 24.0277 50.0396 26.4288 48.0094 28.407C45.9792 30.3851 43.5585 31.3742 40.7345 31.3742C37.9169 31.3742 35.4962 30.3851 33.4725 28.407C31.4488 26.4288 30.4402 24.0277 30.4402 21.2101C30.4402 18.3925 31.4488 15.9849 33.4725 13.9872C35.4962 11.9895 37.9169 10.9939 40.7345 10.9939ZM40.7345 15.0413C39.0556 15.0413 37.6306 15.6465 36.4658 16.8633C35.301 18.0802 34.7219 19.5247 34.7219 21.2036C34.7219 22.8824 35.301 24.327 36.4658 25.5178C37.6306 26.7151 39.0491 27.3138 40.7345 27.3138C42.4133 27.3138 43.8449 26.7151 45.0161 25.5178C46.1874 24.3205 46.7731 22.8824 46.7731 21.2036C46.7731 19.5247 46.1874 18.0736 45.0161 16.8633C43.8449 15.653 42.4198 15.0413 40.7345 15.0413Z" fill="#444B51"/>
<path d="M69.0343 21.2101C69.0343 19.5443 68.4487 18.0997 67.2774 16.8763C66.1061 15.653 64.6875 15.0413 63.0217 15.0413C61.3429 15.0413 59.9113 15.6465 58.74 16.8633C57.5687 18.0802 56.9831 19.5247 56.9831 21.2036V27.086C56.9831 28.2573 56.5601 29.2659 55.7207 30.1053C54.8813 30.9447 53.8727 31.3677 52.7014 31.3677V21.2101C52.7014 18.3925 53.71 15.9849 55.7337 13.9872C57.7575 11.9895 60.1846 10.9939 63.0217 10.9939C65.8393 10.9939 68.2599 11.9895 70.2837 13.9872C72.3009 15.9849 73.316 18.3925 73.316 21.2101V31.3742C72.1447 31.3742 71.1361 30.9512 70.2967 30.1118C69.4573 29.2724 69.0343 28.2638 69.0343 27.0925V21.2101Z" fill="#444B51"/>
<path d="M79.5822 31.3742C78.4109 31.3742 77.4023 30.9512 76.5629 30.1118C75.7235 29.2724 75.3005 28.2638 75.3005 27.0925V10.9939C76.4718 10.9939 77.4804 11.4169 78.3198 12.2563C79.1593 13.0957 79.5822 14.1043 79.5822 15.2756V31.3742Z" fill="#444B51"/>
<path d="M85.9785 31.4784H81.6968V6.02905C82.8681 6.02905 83.8767 6.45202 84.7161 7.29143C85.5555 8.13085 85.9785 9.13946 85.9785 10.3107V19.4793H91.6332C93.299 19.4793 94.7175 18.8676 95.8888 17.6443C97.0601 16.4209 97.6457 14.9763 97.6457 13.317V11.4039H101.927V13.317C101.927 14.9503 101.557 16.4795 100.821 17.9176C100.079 19.3556 99.0578 20.5529 97.7498 21.5225C99.0578 22.4921 100.079 23.6894 100.821 25.1275C101.563 26.5655 101.927 28.0882 101.927 29.702V31.4849H97.6457V29.702C97.6457 28.0361 97.0601 26.5916 95.8888 25.3747C94.7175 24.1514 93.299 23.5397 91.6332 23.5397H85.9785V31.4784Z" fill="#444B51"/>
<path d="M159.386 25.4851C160.231 26.0512 161.155 26.331 162.151 26.331C162.919 26.331 163.719 26.1683 164.546 25.843C165.457 25.4721 166.107 25.0101 166.498 24.457L169.543 26.5913C168.808 27.652 167.715 28.5044 166.27 29.1486C164.904 29.7668 163.531 30.0791 162.151 30.0791C160.706 30.0791 159.327 29.7212 158.013 29.0054C156.666 28.2701 155.637 27.2876 154.922 26.0772C154.544 25.4395 154.258 24.7758 154.076 24.0926C153.894 23.3963 153.796 22.6935 153.796 21.9777C153.796 19.7393 154.59 17.8327 156.171 16.245C157.752 14.6637 159.665 13.8699 161.904 13.8699C163.544 13.8699 165.047 14.3319 166.413 15.2559C168.099 16.3881 169.25 18.08 169.882 20.338L159.386 25.4851ZM165.164 19.0495C164.403 17.9238 163.316 17.3577 161.91 17.3577C160.498 17.3577 159.346 17.8913 158.455 18.9519C157.622 20.0581 157.336 21.327 157.609 22.7586L165.164 19.0495Z" fill="#FF6A00"/>
<path d="M176.941 6.51709V21.2817C176.941 22.7263 177.241 23.8586 177.839 24.685C178.165 25.1405 178.575 25.5049 179.063 25.7782C179.466 26.0059 179.961 26.123 180.559 26.123C180.722 26.123 180.885 26.11 181.047 26.0905C181.581 26.0124 182.407 25.7131 183.54 25.1795L184.991 28.778C183.793 29.5393 182.596 29.9688 181.392 30.0664C180.924 30.0794 180.488 30.0794 180.071 30.0794C179.05 30.0794 178.106 29.8451 177.241 29.3766C176.141 28.804 175.25 28.0166 174.553 27.034C173.447 25.5049 172.894 23.5853 172.894 21.2883V6.51709H176.941Z" fill="#FF6A00"/>
<path d="M191.329 6.51709V10.571H187.275V6.51709H191.329ZM191.329 13.8571V30.0729H187.275V13.8571H191.329Z" fill="#FF6A00"/>
<path d="M198.611 13.8569L204.194 25.1728L209.777 13.8569H214.286L207.187 28.2507C206.907 28.8233 206.484 29.2788 205.918 29.6042C205.384 29.9165 204.812 30.0792 204.194 30.0792C203.575 30.0792 202.996 29.923 202.469 29.6042C201.903 29.2788 201.48 28.8298 201.2 28.2507L194.101 13.8569H198.611Z" fill="#FF6A00"/>
<path d="M221.99 25.4851C222.836 26.0512 223.76 26.331 224.756 26.331C225.524 26.331 226.324 26.1683 227.151 25.843C228.062 25.4721 228.712 25.0101 229.103 24.457L232.148 26.5913C231.413 27.652 230.32 28.5044 228.875 29.1486C227.509 29.7668 226.136 30.0791 224.756 30.0791C223.311 30.0791 221.932 29.7212 220.618 29.0054C219.271 28.2701 218.242 27.2876 217.527 26.0772C217.149 25.4395 216.863 24.7758 216.681 24.0926C216.498 23.3963 216.401 22.6935 216.401 21.9777C216.401 19.7393 217.195 17.8327 218.776 16.245C220.357 14.6637 222.27 13.8699 224.509 13.8699C226.149 13.8699 227.652 14.3319 229.018 15.2559C230.704 16.3881 231.855 18.08 232.486 20.338L221.99 25.4851ZM227.769 19.0495C227.007 17.9238 225.921 17.3577 224.515 17.3577C223.103 17.3577 221.951 17.8913 221.06 18.9519C220.227 20.0581 219.941 21.327 220.214 22.7586L227.769 19.0495Z" fill="#FF6A00"/>
<path d="M244.264 17.9109C242.963 17.9109 241.85 18.3729 240.926 19.2969C239.996 20.2339 239.527 21.3466 239.527 22.6481V30.0727H235.493V22.6481C235.493 20.2144 236.352 18.1451 238.063 16.4272C239.781 14.7094 241.844 13.8569 244.264 13.8569C247.01 14.0652 249.093 15.1974 250.518 17.2602L247.427 19.2774C246.529 18.3664 245.475 17.9109 244.264 17.9109Z" fill="#FF6A00"/>
<path d="M261.066 33.476C262.38 33.476 263.519 32.9945 264.489 32.0249C265.452 31.0618 265.94 29.9231 265.94 28.6217V26.9428C264.899 28.5696 263.317 29.383 261.202 29.383C258.782 29.383 256.713 28.5241 255.001 26.8127C253.283 25.0948 252.431 23.0321 252.431 20.6114V13.844H256.485V20.6179C256.485 21.9193 256.947 23.0321 257.871 23.9561C258.795 24.8801 259.908 25.3421 261.209 25.3421C262.523 25.3421 263.643 24.8801 264.56 23.9561C265.484 23.0321 265.946 21.9193 265.946 20.6179V13.844H270V28.6282C270 31.0358 269.122 33.1051 267.365 34.8295C265.608 36.5473 263.512 37.3998 261.079 37.3998C257.181 37.3998 254.272 35.7795 252.353 32.5324L255.691 30.5478C256.836 32.4999 258.632 33.476 261.066 33.476Z" fill="#FF6A00"/>
<path d="M142.825 16.4795C141.491 15.1456 139.877 14.4753 137.99 14.4753H135.641V18.5878V19.3817V21.3859V23.3901V24.184V28.2965H137.99C139.877 28.2965 141.484 27.6262 142.825 26.2923C144.159 24.9583 144.829 23.338 144.829 21.4445C144.829 21.4249 144.829 21.4054 144.829 21.3924C144.829 21.3729 144.829 21.3534 144.829 21.3404C144.829 19.4338 144.159 17.82 142.825 16.4795Z" fill="#E24329"/>
<path d="M151.818 19.4076C150.965 12.3539 145.018 6.58861 137.899 6.43244C131.88 6.3023 125.861 6.38689 119.835 6.38689C119.178 6.38689 118.312 6.24373 118.364 7.3109C118.416 8.33252 119.249 8.17635 119.913 8.17635C123.98 8.18285 128.047 8.18285 132.114 8.18285C133.22 8.18285 134.632 7.99415 134.619 9.57538C134.613 11.1761 133.838 10.9224 132.088 10.9224C128.971 10.9224 125.854 10.9289 122.737 10.9224C122.008 10.9224 121.228 10.9874 121.241 11.9049C121.254 12.7964 122.034 12.894 122.763 12.9005C123.238 12.907 123.713 12.894 124.188 12.907C125.268 12.9396 126.739 12.6337 126.746 14.228C126.752 15.9068 125.229 15.6335 124.097 15.64C120.609 15.653 117.128 15.653 113.64 15.64C112.905 15.64 112.137 15.6921 112.144 16.6161C112.15 17.5206 112.95 17.5922 113.653 17.6312C113.972 17.6507 114.284 17.6377 114.603 17.6377C117.668 17.6377 120.733 17.6377 123.791 17.6377V17.6442C126.544 17.6442 129.296 17.6442 132.042 17.6442V13.7985C132.042 12.9981 132.329 12.3149 132.908 11.7357C133.474 11.1696 134.157 10.8833 134.958 10.8833H137.99C140.866 10.8833 143.326 11.9049 145.362 13.9417C147.399 15.9719 148.421 18.4316 148.421 21.3272C148.421 21.3468 148.421 21.3663 148.421 21.3793C148.421 21.3988 148.421 21.4183 148.421 21.4314C148.421 24.327 147.399 26.7867 145.362 28.8169C143.326 30.8537 140.866 31.8753 137.99 31.8753H134.958C134.157 31.8753 133.474 31.589 132.908 31.0229C132.329 30.4437 132.042 29.7605 132.042 28.9601V25.1144C129.29 25.1144 126.537 25.1144 123.791 25.1144V25.1209C120.726 25.1209 117.662 25.1209 114.603 25.1209C114.284 25.1209 113.966 25.1079 113.653 25.1274C112.95 25.1664 112.15 25.238 112.144 26.1425C112.137 27.0665 112.911 27.1186 113.64 27.1186C117.128 27.1121 120.609 27.1121 124.097 27.1186C125.229 27.1251 126.752 26.8518 126.746 28.5306C126.746 30.1249 125.268 29.819 124.188 29.8516C123.713 29.8646 123.238 29.8516 122.763 29.8581C122.041 29.8646 121.26 29.9622 121.241 30.8537C121.228 31.7712 122.002 31.8362 122.737 31.8362C125.854 31.8297 128.971 31.8362 132.088 31.8362C133.845 31.8362 134.613 31.5825 134.619 33.1832C134.626 34.7644 133.22 34.5757 132.114 34.5757C128.047 34.5757 123.98 34.5692 119.913 34.5822C119.249 34.5822 118.41 34.4261 118.364 35.4477C118.312 36.5214 119.178 36.3717 119.835 36.3717C125.854 36.3782 131.88 36.4563 137.899 36.3262C145.018 36.17 150.965 30.4047 151.818 23.351C151.896 22.6807 151.941 22.0235 151.948 21.3728C151.935 20.7351 151.896 20.0779 151.818 19.4076Z" fill="#E24329"/>
<path d="M121.371 22.3813C124.93 22.4269 128.49 22.4139 132.049 22.4074V21.3857V20.3641C128.49 20.3576 124.93 20.3446 121.371 20.3901C120.492 20.4032 118.957 19.8305 118.983 21.3402C118.983 21.3597 118.989 21.3727 118.989 21.3857C118.989 21.4053 118.983 21.4183 118.983 21.4313C118.95 22.9409 120.492 22.3683 121.371 22.3813Z" fill="#E24329"/>
<path d="M106.17 31.4782C107.611 31.4782 108.78 30.31 108.78 28.8689C108.78 27.4278 107.611 26.2595 106.17 26.2595C104.729 26.2595 103.561 27.4278 103.561 28.8689C103.561 30.31 104.729 31.4782 106.17 31.4782Z" fill="#444B51"/>
<defs>
<linearGradient id="paint0_linear_30_505" x1="14.4652" y1="-1.16484" x2="14.4652" y2="43.5282" gradientUnits="userSpaceOnUse">
<stop offset="5.43435e-07" stop-color="#E9043F"/>
<stop offset="0.2145" stop-color="#FF3366"/>
<stop offset="0.5101" stop-color="#E24329"/>
<stop offset="0.7587" stop-color="#FF6A00"/>
</linearGradient>
<linearGradient id="paint1_linear_30_505" x1="-0.851327" y1="0.0284031" x2="11.5814" y2="4.01623" gradientUnits="userSpaceOnUse">
<stop offset="8.15152e-07" stop-color="#FF3366"/>
<stop offset="1" stop-color="#E80042"/>
</linearGradient>
<linearGradient id="paint2_linear_30_505" x1="25.3155" y1="8.403" x2="13.2737" y2="16.2223" gradientUnits="userSpaceOnUse">
<stop offset="6.76629e-07" stop-color="#3366FF"/>
<stop offset="1" stop-color="#2A9DF4"/>
</linearGradient>
<linearGradient id="paint3_linear_30_505" x1="33.2265" y1="22.59" x2="21.8103" y2="16.4127" gradientUnits="userSpaceOnUse">
<stop offset="6.76629e-07" stop-color="#3366FF"/>
<stop offset="1" stop-color="#2A9DF4"/>
</linearGradient>
<linearGradient id="paint4_linear_30_505" x1="6.10228" y1="24.3984" x2="26.9018" y2="30.4975" gradientUnits="userSpaceOnUse">
<stop offset="8.15152e-07" stop-color="#E24329"/>
<stop offset="1" stop-color="#FF6A00"/>
</linearGradient>
<linearGradient id="paint5_linear_30_505" x1="9.81064" y1="-2.24044" x2="10.4362" y2="11.0524" gradientUnits="userSpaceOnUse">
<stop offset="8.15152e-07" stop-color="#FF3366"/>
<stop offset="1" stop-color="#E80042"/>
</linearGradient>
<linearGradient id="paint6_linear_30_505" x1="7.23063" y1="14.9414" x2="16.2229" y2="29.72" gradientUnits="userSpaceOnUse">
<stop offset="8.15152e-07" stop-color="#E24329"/>
<stop offset="1" stop-color="#FF6A00"/>
</linearGradient>
<linearGradient id="paint7_linear_30_505" x1="32.3622" y1="30.2759" x2="24.0736" y2="22.0656" gradientUnits="userSpaceOnUse">
<stop offset="6.76629e-07" stop-color="#3366FF"/>
<stop offset="1" stop-color="#2A9DF4"/>
</linearGradient>
<linearGradient id="paint8_linear_30_505" x1="9.17366" y1="4.97863" x2="11.0503" y2="22.6503" gradientUnits="userSpaceOnUse">
<stop stop-color="#E9043F"/>
<stop offset="0.4425" stop-color="#FF3366"/>
<stop offset="1" stop-color="#FF6A00"/>
</linearGradient>
</defs>
</svg>
