<svg>
    <symbol id="dagger" viewBox="0 0 36 36" fill="none" xmlns="http://www.w3.org/2000/svg">
        <path d="M2.64596 2.56477L0.757935 4.45956L7.58753 11.2892L14.4239 18.1255L7.58753 24.9619L0.757935 31.7915L2.64596 33.6863L4.54076 35.5743L11.3704 28.7447L18.2067 21.9083L25.0431 28.7447L31.8727 35.5743L33.7675 33.6863L35.6555 31.7915L28.8259 24.9619L21.9895 18.1255L28.8259 11.2892L35.6555 4.45956L33.7675 2.56477L31.8727 0.676735L25.0431 7.50633L18.2067 14.3427L11.3704 7.50633L4.54076 0.676735L2.64596 2.56477Z" fill="white"></path>
    </symbol>

    <symbol id="logo" width="25" height="26" viewBox="0 0 25 26" fill="none" xmlns="http://www.w3.org/2000/svg">
        <path d="M23.7377 18.1776C24.221 18.1776 24.6129 17.7857 24.6129 17.3025C24.6129 16.8192 24.221 16.4273 23.7377 16.4273H18.1956V8.55121H23.7377C24.221 8.55121 24.6129 8.15931 24.6129 7.67608C24.6129 7.19286 24.221 6.80096 23.7377 6.80096H18.1956V1.25881C18.1956 0.775475 17.8037 0.383685 17.3205 0.383685C16.8371 0.383685 16.4453 0.775475 16.4453 1.25881V6.80096H8.56927V1.25843C8.56927 0.7752 8.17737 0.383301 7.69414 0.383301C7.21081 0.383301 6.81902 0.7752 6.81902 1.25843V6.80101H1.27643C0.793206 6.80101 0.401306 7.19291 0.401306 7.67614C0.401306 8.15936 0.793206 8.55126 1.27643 8.55126H6.81902V16.4273H1.27643C0.793206 16.4273 0.401306 16.8192 0.401306 17.3025C0.401306 17.7857 0.793206 18.1776 1.27643 18.1776H6.81902V23.7197C6.81902 24.2031 7.21081 24.5949 7.69414 24.5949C8.17737 24.5949 8.56927 24.2031 8.56927 23.7197V18.1776H16.4453V23.7202C16.4453 24.2034 16.8371 24.5953 17.3205 24.5953C17.8037 24.5953 18.1956 24.2034 18.1956 23.7202V18.1776H23.7377ZM8.56927 16.4273V8.55121H16.4453V16.4273H8.56927V16.4273Z" fill="white"></path>
        <path d="M1.49383 5.85193L2.88048 4.46495L4.26713 5.85193C4.43802 6.02282 4.66189 6.10833 4.88586 6.10833C5.10978 6.10833 5.33364 6.02282 5.50459 5.85193C5.84649 5.51053 5.84649 4.95631 5.50459 4.61452L4.11799 3.22743L5.50453 1.84035C5.84643 1.4985 5.84643 0.944339 5.50453 0.602938C5.16269 0.261097 4.60891 0.261097 4.26713 0.602938L2.88048 1.98992L1.49383 0.602938C1.15199 0.261097 0.598207 0.261097 0.256422 0.602938C-0.0854739 0.944339 -0.0854739 1.49856 0.256422 1.84035L1.64296 3.22743L0.256422 4.61447C-0.0854739 4.95631 -0.0854739 5.51053 0.256422 5.85188C0.427314 6.02277 0.651179 6.10827 0.875153 6.10827C1.09907 6.10833 1.32294 6.02282 1.49383 5.85193Z" fill="white"></path>
        <path d="M13.7445 12.4893L15.1311 11.1022C15.473 10.7603 15.473 10.2061 15.1311 9.86476C14.7892 9.52286 14.2355 9.52286 13.8936 9.86476L12.507 11.2517L11.1203 9.86476C10.7785 9.52286 10.2247 9.52286 9.88291 9.86476C9.54107 10.2062 9.54107 10.7604 9.88291 11.1022L11.2696 12.4893L9.88291 13.8763C9.54107 14.2182 9.54107 14.7724 9.88291 15.1138C10.0538 15.2846 10.2778 15.3701 10.5016 15.3701C10.7256 15.3701 10.9494 15.2846 11.1204 15.1138L12.507 13.7268L13.8937 15.1138C14.0646 15.2846 14.2885 15.3701 14.5124 15.3701C14.7364 15.3701 14.9602 15.2846 15.1312 15.1138C15.473 14.7724 15.473 14.2181 15.1312 13.8763L13.7445 12.4893Z" fill="white"></path>
        <path d="M12.5068 6.45492C14.2866 6.45492 15.7343 5.00722 15.7343 3.22746C15.7343 1.4477 14.2866 0 12.5068 0C10.7271 0 9.27936 1.4477 9.27936 3.22746C9.27936 5.00716 10.7271 6.45492 12.5068 6.45492ZM12.5068 1.75025C13.3213 1.75025 13.984 2.413 13.984 3.22746C13.984 4.04192 13.3213 4.70467 12.5068 4.70467C11.6924 4.70467 11.0296 4.04192 11.0296 3.22746C11.0296 2.413 11.6924 1.75025 12.5068 1.75025Z" fill="white"></path>
        <path d="M21.7726 18.5963C19.9928 18.5963 18.5451 20.044 18.5451 21.8238C18.5451 23.6035 19.9928 25.0512 21.7726 25.0512C23.5523 25.0512 25 23.6035 25 21.8238C25 20.044 23.5523 18.5963 21.7726 18.5963ZM21.7726 23.301C20.9581 23.301 20.2954 22.6382 20.2954 21.8238C20.2954 21.0093 20.9581 20.3466 21.7726 20.3466C22.587 20.3466 23.2498 21.0093 23.2498 21.8238C23.2498 22.6382 22.587 23.301 21.7726 23.301Z" fill="white"></path>
    </symbol>

    <symbol id="circle" viewBox="0 0 41 42" fill="none" xmlns="http://www.w3.org/2000/svg">
        <path d="M39 21C39 31.5391 30.6721 40 20.5 40C10.3279 40 2 31.5391 2 21C2 10.4609 10.3279 2 20.5 2C30.6721 2 39 10.4609 39 21Z" stroke="white" stroke-width="4"></path>
    </symbol>
</svg>
