<svg width="33" height="33" viewBox="0 0 33 33" fill="none" xmlns="http://www.w3.org/2000/svg">
<path d="M16.2859 0.326172C7.44922 0.326172 0.285889 7.48951 0.285889 16.3262C0.285889 25.1628 7.44922 32.3262 16.2859 32.3262C25.1226 32.3262 32.2859 25.1628 32.2859 16.3262C32.2859 7.48951 25.1226 0.326172 16.2859 0.326172ZM17.3809 20.1178C16.3542 20.0395 15.9242 19.5312 15.1209 19.0445C14.6792 21.3628 14.1392 23.5862 12.5392 24.7478C12.0442 21.2412 13.2626 18.6112 13.8292 15.8162C12.8642 14.1912 13.9442 10.9228 15.9809 11.7262C18.4859 12.7195 13.8109 17.7678 16.9492 18.3995C20.2259 19.0562 21.5642 12.7128 19.5326 10.6528C16.5959 7.67451 10.9876 10.5845 11.6776 14.8478C11.8442 15.8895 12.9226 16.2062 12.1076 17.6445C10.2292 17.2278 9.66755 15.7462 9.74089 13.7712C9.85589 10.5378 12.6459 8.27284 15.4426 7.96117C18.9809 7.56784 22.3009 9.2595 22.7609 12.5895C23.2759 16.3462 21.1626 20.4112 17.3809 20.1178Z" fill="#444B51"/>
</svg>
