<svg xmlns="http://www.w3.org/2000/svg">
    <symbol id="item1" fill="none">
        <path d="M51.8882 64.6097C46.9788 67.356 41.387 68.8171 35.7291 68.8171C28.9044 68.8171 22.8282 67.0594 17.6546 63.6429L20.0322 60.7098C20.0763 60.7537 20.1203 60.8087 20.1864 60.8526C24.8536 63.7418 30.2253 65.2688 35.7401 65.2688C39.5157 65.2688 43.2032 64.5657 46.6816 63.1815C47.0999 63.0168 47.3091 62.5334 47.144 62.1159C46.9788 61.6985 46.4945 61.4898 46.0762 61.6546C42.785 62.9618 39.3176 63.621 35.7511 63.621C30.5445 63.621 25.47 62.1819 21.067 59.4575L22.9823 57.0846C23.4446 56.5133 23.5437 55.7444 23.2355 55.0742C22.9272 54.4041 22.2888 53.9757 21.5513 53.9537L10.9069 53.5802C10.3015 53.5473 9.72914 53.8219 9.34387 54.2943C8.9586 54.7667 8.82651 55.3818 8.98062 55.9751L11.5894 66.2795C11.7655 66.9935 12.3269 67.5318 13.0424 67.6856C13.1855 67.7186 13.3176 67.7295 13.4607 67.7295C14.0331 67.7295 14.5835 67.4769 14.9577 67.0155L16.6419 64.9392C22.1237 68.5974 28.5411 70.4759 35.7621 70.4759C41.7062 70.4759 47.5733 68.9489 52.7358 66.0597C53.1321 65.84 53.2752 65.3347 53.055 64.9392C52.8349 64.5437 52.2845 64.3899 51.8882 64.6097ZM13.6368 65.9719C13.5488 66.0817 13.4277 66.0817 13.3616 66.0707C13.2956 66.0597 13.1855 66.0158 13.1525 65.873L10.5437 55.5686C10.5107 55.4478 10.5657 55.3709 10.5987 55.3269C10.6318 55.283 10.6978 55.228 10.8079 55.228H10.8189L21.4632 55.6015C21.6063 55.6015 21.6724 55.7004 21.7054 55.7663C21.7274 55.8213 21.7604 55.9421 21.6724 56.052L13.6368 65.9719Z" fill="#E24329" stroke="#E24329" stroke-width="0.5"/>
        <path d="M20.0765 5.95809C25.283 3.26664 31.1281 2.0143 37.0061 2.31091C43.8198 2.66244 49.797 4.7387 54.7834 8.41884L52.2517 11.2311C52.2076 11.1762 52.1636 11.1213 52.1086 11.0883C47.6065 7.95745 42.3118 6.15583 36.808 5.8702C33.0324 5.67247 29.3228 6.1778 25.7674 7.3862C25.3381 7.52901 25.1069 8.00139 25.25 8.42982C25.3931 8.85826 25.8664 9.08895 26.2957 8.94614C29.6421 7.81464 33.1535 7.33128 36.7199 7.51803C41.9155 7.79267 46.913 9.49542 51.1619 12.4395L49.1255 14.7025C48.6302 15.2518 48.4981 16.0098 48.7622 16.6909C49.0264 17.372 49.6539 17.8334 50.3914 17.8993L61.0027 18.8221C61.0577 18.8221 61.1128 18.8331 61.1788 18.8331C61.7292 18.8331 62.2355 18.6024 62.6098 18.1959C63.0171 17.7455 63.1822 17.1413 63.0611 16.5371L61.0027 6.11189C60.8596 5.39783 60.3312 4.82658 59.6267 4.62884C58.9223 4.43111 58.1737 4.65082 57.6784 5.20009L55.8952 7.18846C50.6115 3.24467 44.2932 1.03659 37.0942 0.663081C30.9299 0.344502 24.7877 1.66276 19.3279 4.48603C18.9207 4.69476 18.7666 5.1891 18.9757 5.59557C19.1738 6.00203 19.6692 6.16681 20.0765 5.95809ZM58.9002 6.30963C58.9993 6.19977 59.1204 6.21075 59.1754 6.23273C59.2415 6.2547 59.3406 6.29864 59.3736 6.44145L61.443 16.8667C61.465 16.9875 61.41 17.0644 61.377 17.1084C61.3439 17.1413 61.2559 17.2072 61.1458 17.1962L50.5345 16.2735C50.3914 16.2625 50.3253 16.1636 50.3033 16.0977C50.2813 16.0428 50.2593 15.9219 50.3584 15.8121L58.9002 6.30963Z" fill="#E24329" stroke="#E24329" stroke-width="0.5"/>
        <path d="M9.38779 46.6484C9.80608 46.4836 10.0152 46.0002 9.85011 45.5828C8.5402 42.2981 7.87975 38.8377 7.87975 35.2784C7.87975 30.0822 9.32174 25.0179 12.0516 20.6237L14.4293 22.5352C14.7815 22.8208 15.2108 22.9636 15.6401 22.9636C15.9153 22.9636 16.1795 22.9087 16.4437 22.7879C17.1151 22.4803 17.5444 21.8431 17.5664 21.1071L17.9407 10.4841C17.9627 9.86894 17.6985 9.30868 17.2252 8.92418C16.7519 8.53969 16.1354 8.40787 15.541 8.56166L5.2049 11.1542C4.48941 11.33 3.95004 11.8903 3.79593 12.6043C3.64182 13.3184 3.895 14.0544 4.46739 14.5158L6.54783 16.1966C2.87129 21.6564 1 28.0719 1 35.2674C1 40.9359 2.40897 46.5605 5.0618 51.5369C5.21591 51.8116 5.4911 51.9763 5.78831 51.9763C5.9204 51.9763 6.05249 51.9434 6.17357 51.8775C6.58085 51.6687 6.72395 51.1634 6.51481 50.7679C3.98306 46.0222 2.64013 40.6613 2.64013 35.2674C2.64013 28.4564 4.40135 22.3924 7.82471 17.2292L10.7637 19.6021C10.7197 19.646 10.6647 19.69 10.6206 19.7559C7.72564 24.4137 6.19559 29.7746 6.19559 35.2784C6.19559 39.0464 6.90007 42.7265 8.28703 46.198C8.41912 46.5165 8.72733 46.7143 9.05756 46.7143C9.17864 46.7143 9.28872 46.6923 9.38779 46.6484ZM5.40304 12.9559C5.41405 12.8899 5.45808 12.7801 5.60118 12.7471L15.9263 10.1436C15.9483 10.1326 15.9703 10.1326 15.9923 10.1326C16.0694 10.1326 16.1354 10.1655 16.1575 10.1985C16.2015 10.2315 16.2675 10.2974 16.2565 10.4182L15.8823 21.0412C15.8823 21.184 15.7832 21.2499 15.7172 21.2829C15.6621 21.3048 15.541 21.3378 15.431 21.2499L5.48009 13.2305C5.39203 13.1426 5.39203 13.0218 5.40304 12.9559Z" fill="#E24329" stroke="#E24329" stroke-width="0.5"/>
        <path d="M67.5302 19.7339C67.3321 19.3274 66.8367 19.1517 66.4295 19.3494C66.0222 19.5472 65.8461 20.0415 66.0442 20.448C68.4659 25.4244 69.5886 30.994 69.2914 36.5417C68.9392 43.3417 66.8588 49.3069 63.1602 54.2833L60.3423 51.7566C60.3973 51.7127 60.4523 51.6797 60.4964 51.6248C63.6335 47.1317 65.4388 41.8477 65.725 36.355C65.9231 32.5869 65.4168 28.8848 64.2059 25.3365C64.0628 24.9081 63.5895 24.6774 63.1602 24.8202C62.7309 24.963 62.4997 25.4354 62.6428 25.8638C63.7766 29.2034 64.261 32.7078 64.0738 36.2671C63.7986 41.4522 62.0925 46.4396 59.1424 50.68L56.8749 48.6477C56.3245 48.1534 55.565 48.0215 54.8825 48.2852C54.2 48.5598 53.7377 49.175 53.6716 49.9111L52.747 60.5011C52.692 61.1053 52.9231 61.6875 53.3744 62.094C53.7377 62.4125 54.189 62.5883 54.6513 62.5883C54.7724 62.5883 54.9045 62.5773 55.0256 62.5554L65.4718 60.5011C66.1873 60.3583 66.7597 59.831 66.9578 59.1279C67.156 58.4248 66.9358 57.6778 66.3854 57.1835L64.393 55.4038C68.3448 50.1308 70.5573 43.8251 70.9316 36.6406C71.2508 30.8073 70.062 24.963 67.5302 19.7339ZM65.3727 58.6775C65.3507 58.7434 65.3067 58.8423 65.1636 58.8752L54.7064 60.9405C54.5853 60.9625 54.5082 60.9075 54.4642 60.8746C54.4312 60.8416 54.3651 60.7647 54.3761 60.6439L55.3008 50.0539C55.3118 49.9111 55.4108 49.8451 55.4769 49.8232C55.4989 49.8122 55.5429 49.8012 55.587 49.8012C55.642 49.8012 55.7081 49.8232 55.7631 49.8781L65.2847 58.4028C65.3947 58.5017 65.3837 58.6226 65.3727 58.6775Z" fill="#E24329" stroke="#E24329" stroke-width="0.5"/>
        <path d="M55.9833 38.7388C56.8529 38.64 57.5133 37.9039 57.5133 37.0251V33.8942C57.5133 33.0154 56.8529 32.2793 55.9833 32.1805L52.692 31.7301C52.2737 29.8076 51.5142 27.984 50.4355 26.2154L52.4498 23.6777C52.9892 22.9856 52.9342 22.0079 52.3178 21.3817L50.1052 19.1627C49.4888 18.5475 48.4981 18.4816 47.8046 19.0308L45.1738 21.0192C43.4897 19.9426 41.6514 19.1846 39.648 18.7013L39.2737 15.5155C39.1747 14.6476 38.4372 13.9885 37.5566 13.9885H34.4304C33.5498 13.9885 32.8123 14.6476 32.7132 15.5155L32.2619 18.7672C30.3246 19.1846 28.4973 19.9426 26.7141 21.0192L24.1823 19.0308C23.4889 18.4926 22.5092 18.5475 21.8817 19.1627L19.6692 21.3817C19.0528 21.9969 18.9978 22.9856 19.5371 23.6777L21.5405 26.3032C20.4728 27.984 19.7243 29.8076 19.2399 31.807L16.0037 32.1915C15.1341 32.2903 14.4736 33.0264 14.4736 33.9052V37.0361C14.4736 37.9149 15.1341 38.6509 16.0037 38.7498L19.317 39.2002C19.7463 41.1227 20.5058 42.9353 21.5735 44.693L19.5481 47.2526C19.0088 47.9337 19.0638 48.9224 19.6802 49.5485L21.8928 51.7566C22.5092 52.3718 23.4999 52.4377 24.1933 51.8885L26.7801 49.8561C27.1434 49.5705 27.1984 49.0542 26.9122 48.7027C26.626 48.3401 26.1087 48.2852 25.7564 48.5708L23.0596 50.6032L20.836 48.2852L22.8614 45.7256C23.3127 45.1544 23.3568 44.3524 22.9495 43.7262C21.9918 42.2212 21.3093 40.5844 20.9131 38.8487C20.748 38.1236 20.1536 37.5853 19.4271 37.4975L16.1138 37.0361L16.1798 33.8283L19.416 33.4438C20.1425 33.3559 20.737 32.8067 20.9021 32.0816C21.2763 30.3459 21.9588 28.6981 22.9275 27.1821C23.3237 26.5559 23.2907 25.754 22.8284 25.1827L20.836 22.5462L23.1476 20.3271L25.6794 22.3155C26.2518 22.7659 27.0663 22.8099 27.6938 22.4034C29.2128 21.4367 30.8639 20.7556 32.6142 20.3711C33.3407 20.2063 33.891 19.6131 33.9791 18.888L34.4304 15.6363L37.6446 15.7022L38.0189 18.888C38.1069 19.6131 38.6573 20.2173 39.3838 20.3711C41.123 20.7446 42.7742 21.4367 44.3042 22.4034C44.9317 22.7989 45.7352 22.7659 46.3186 22.3155L48.9494 20.3271L51.162 22.6451L49.1476 25.1827C48.6963 25.754 48.6522 26.5669 49.0595 27.1821C50.0282 28.6981 50.7106 30.3349 51.0849 32.0706C51.239 32.7957 51.8444 33.3449 52.5709 33.4218L55.8622 33.8832L55.7962 37.102L52.5489 37.4865C51.8224 37.5744 51.228 38.1126 51.0629 38.8377C50.6776 40.5624 49.9951 42.1992 49.0375 43.6933C48.6302 44.3194 48.6742 45.1214 49.1255 45.7036L51.162 48.3841L48.8504 50.6032L46.2636 48.5708C45.9113 48.2852 45.383 48.3511 45.1078 48.7027C44.8216 49.0652 44.8876 49.5815 45.2399 49.8561L47.8267 51.8885C48.1459 52.1411 48.5201 52.262 48.8944 52.262C49.3457 52.262 49.786 52.0862 50.1162 51.7566L52.3288 49.5376C52.9452 48.9224 53.0002 47.9337 52.4608 47.2526L50.4244 44.5831C51.4922 42.9243 52.2517 41.1117 52.736 39.1233L55.9833 38.7388Z" fill="#E24329" stroke="#E24329" stroke-width="0.5"/>
        <path d="M32.0303 58.4688C32.4816 58.4688 32.8559 58.0952 32.8559 57.6448V44.9346C32.8559 44.6929 32.7458 44.4513 32.5587 44.2975L28.4969 40.9579C28.64 40.6393 28.706 40.2768 28.706 39.9033C28.706 38.4202 27.4952 37.2008 25.9982 37.2008C24.5011 37.2008 23.2903 38.4092 23.2903 39.9033C23.2903 41.3973 24.5011 42.6057 25.9982 42.6057C26.5155 42.6057 26.9888 42.4519 27.4071 42.1992L31.1937 45.3191V57.6339C31.2047 58.0952 31.568 58.4688 32.0303 58.4688ZM24.9524 39.9143C24.9524 39.332 25.4258 38.8596 26.0092 38.8596C26.5926 38.8596 27.0659 39.332 27.0659 39.9143C27.0659 40.4965 26.5926 40.9689 26.0092 40.9689C25.4258 40.9689 24.9524 40.4965 24.9524 39.9143Z" fill="#E24329" stroke="#E24329" stroke-width="0.5"/>
        <path d="M26.6695 28.6981C25.1835 28.6981 23.9617 29.9065 23.9617 31.4005C23.9617 32.8945 25.1725 34.1029 26.6695 34.1029C27.1759 34.1029 27.6382 33.9601 28.0455 33.7075L29.8507 35.3223L30.8965 40.3866C30.9735 40.7711 31.3258 41.0458 31.7 41.0458C31.755 41.0458 31.8101 41.0458 31.8651 41.0238C32.3164 40.9359 32.6026 40.4965 32.5036 40.0461L31.4028 34.7181C31.3698 34.5424 31.2817 34.3886 31.1496 34.2677L29.1352 32.4771C29.2783 32.1475 29.3664 31.785 29.3664 31.4005C29.3664 29.9065 28.1556 28.6981 26.6695 28.6981ZM25.6128 31.3895C25.6128 30.8073 26.0861 30.3349 26.6695 30.3349C27.2529 30.3349 27.7263 30.8073 27.7263 31.3895C27.7263 31.9718 27.2529 32.4441 26.6695 32.4441C26.0861 32.4441 25.6128 31.9718 25.6128 31.3895Z" fill="#E24329" stroke="#E24329" stroke-width="0.5"/>
        <path d="M39.1304 44.9346V57.6448C39.1304 58.0952 39.5046 58.4688 39.9559 58.4688C40.4073 58.4688 40.7815 58.0952 40.7815 57.6448V45.3191L44.5681 42.1992C44.9754 42.4519 45.4597 42.6057 45.9771 42.6057C47.4631 42.6057 48.674 41.3973 48.674 39.9033C48.674 38.4202 47.4631 37.2008 45.9771 37.2008C44.4911 37.2008 43.2692 38.4092 43.2692 39.9033C43.2692 40.2768 43.3463 40.6283 43.4784 40.9579L39.4166 44.2975C39.2404 44.4513 39.1304 44.6929 39.1304 44.9346ZM45.9771 38.8596C46.5605 38.8596 47.0228 39.332 47.0228 39.9143C47.0228 40.4965 46.5495 40.9689 45.9771 40.9689C45.3937 40.9689 44.9204 40.4965 44.9204 39.9143C44.9314 39.332 45.4047 38.8596 45.9771 38.8596Z" fill="#E24329" stroke="#E24329" stroke-width="0.5"/>
        <path d="M40.583 34.7181L39.4822 40.0461C39.3942 40.4965 39.6804 40.9249 40.1207 41.0238C40.1757 41.0348 40.2307 41.0458 40.2858 41.0458C40.6711 41.0458 41.0123 40.7821 41.0893 40.3866L42.1351 35.3223L43.9403 33.7075C44.3476 33.9491 44.8099 34.1029 45.3163 34.1029C46.8023 34.1029 48.0131 32.8945 48.0131 31.4005C48.0131 29.9175 46.8023 28.6981 45.3163 28.6981C43.8302 28.6981 42.6084 29.9065 42.6084 31.4005C42.6084 31.785 42.6964 32.1475 42.8395 32.4771L40.8252 34.2677C40.7041 34.3886 40.616 34.5424 40.583 34.7181ZM45.3163 30.3459C45.8997 30.3459 46.362 30.8183 46.362 31.4005C46.362 31.9827 45.8887 32.4551 45.3163 32.4551C44.7329 32.4551 44.2595 31.9827 44.2595 31.4005C44.2705 30.8183 44.7439 30.3459 45.3163 30.3459Z" fill="#E24329" stroke="#E24329" stroke-width="0.5"/>
        <path d="M35.993 56.8319C36.4443 56.8319 36.8186 56.4584 36.8186 56.008V28.6981C37.9083 28.3465 38.7009 27.3359 38.7009 26.1385C38.7009 24.6554 37.49 23.447 35.993 23.447C34.496 23.447 33.2961 24.6554 33.2961 26.1385C33.2961 27.3359 34.0887 28.3465 35.1674 28.6981V56.008C35.1674 56.4584 35.5417 56.8319 35.993 56.8319ZM35.993 25.0838C36.5764 25.0838 37.0497 25.5562 37.0497 26.1275C37.0497 26.7097 36.5764 27.1821 35.993 27.1821C35.4096 27.1821 34.9473 26.7097 34.9473 26.1275C34.9473 25.5562 35.4096 25.0838 35.993 25.0838Z" fill="#E24329" stroke="#E24329" stroke-width="0.5"/>
    </symbol>
    <symbol id="item2" fill="none">
        <path d="M91.1365 50.9644L91.108 50.9047C91.0368 50.2537 90.8545 49.5061 90.638 48.9831L90.4443 48.6448L90.4529 48.6391L90.0655 47.9853L90.0541 47.9626L85.6307 40.4838H85.6278L84.1724 37.9738C83.4603 36.5411 82.4548 36.1744 82.4548 36.1744H69.8682V34.1704C69.8682 32.4165 68.4184 30.9895 66.6382 30.9895H36.8477C35.0675 30.9895 33.6206 32.4165 33.6206 34.1704V53.1816V55.9361V61.3825C33.6206 63.0823 35.002 64.4638 36.7025 64.4638H41.2826C41.6585 67.8408 44.4983 70.4759 47.9732 70.4759C51.4539 70.4759 54.2936 67.838 54.6696 64.4638H70.5831C70.9591 67.8408 73.8017 70.4759 77.2823 70.4759C80.7629 70.4759 83.6056 67.838 83.9815 64.4638H88.0632C89.7664 64.4638 91.1507 63.0823 91.1507 61.3825L91.1365 50.9644ZM83.654 42.5588L86.8498 47.9598H81.1987L79.9255 42.5588H83.654ZM36.3806 34.1704C36.3806 33.9373 36.5942 33.744 36.8477 33.744H66.6353C66.8888 33.744 67.1053 33.9373 67.1053 34.1704V39.4945V53.1788H36.3806V34.1704ZM47.9704 67.7186C45.7629 67.7186 43.9657 65.9192 43.9657 63.7162C43.9657 61.5075 45.7629 59.7082 47.9704 59.7082C50.1807 59.7082 51.9808 61.5075 51.9808 63.7162C51.9808 65.9221 50.1835 67.7186 47.9704 67.7186ZM77.2795 67.7186C75.0692 67.7186 73.2691 65.9192 73.2691 63.7162C73.2691 61.5075 75.0692 59.7082 77.2795 59.7082C79.4926 59.7082 81.2899 61.5075 81.2899 63.7162C81.2899 65.9221 79.4926 67.7186 77.2795 67.7186ZM88.0575 61.7008H83.7109C82.8479 58.9577 80.3072 56.9537 77.2795 56.9537C74.2517 56.9537 71.711 58.9577 70.848 61.7008H54.4047C53.5388 58.9577 51.001 56.9537 47.9732 56.9537C44.9483 56.9537 42.4105 58.9577 41.5503 61.7008H36.7025C36.5287 61.7008 36.3835 61.5559 36.3835 61.3796V55.9332H69.8682V39.2501C69.8682 39.071 70.0134 38.9346 70.19 38.9346H81.4095L82.0333 39.8015H73.9555C72.6595 39.8015 71.6056 40.8561 71.6056 42.1552V48.3748C71.6056 49.6682 72.6595 50.7171 73.9555 50.7171H88.2853C88.3338 50.9502 88.3708 51.1833 88.3822 51.3709L88.3879 61.3796C88.3822 61.5559 88.2369 61.7008 88.0575 61.7008ZM78.6865 47.9598H74.3628V42.5588H77.4133L78.6865 47.9598Z" fill="#2F80ED"/>
        <path d="M34.9943 67.6191C29.8787 67.6191 25.2645 61.8458 22.533 53.2555C25.2075 52.9059 28.053 52.7069 30.9554 52.5846V49.8359C27.7909 49.9638 24.6834 50.1855 21.7668 50.5863C20.71 46.456 20.0834 41.8084 19.978 36.9277H30.9554V34.1675H19.9809C20.0863 29.2811 20.7129 24.6335 21.7696 20.5032C25.9224 21.0746 30.3829 21.3929 34.9943 21.3929C39.6086 21.3929 44.0719 21.0774 48.2247 20.5089C48.8542 22.9677 49.3099 25.6227 49.6147 28.3914H52.4032C52.1012 25.4664 51.6427 22.6721 50.999 20.0853C54.9496 19.4088 58.5099 18.4707 61.5206 17.3081C63.8021 20.6112 65.4513 24.3577 66.3656 28.3885H69.2424C65.9241 12.5496 51.8307 0.616455 34.9943 0.616455C15.697 0.624983 0 16.2933 0 35.5462C0 54.8047 15.697 70.473 34.9943 70.473C37.0764 70.473 39.1073 70.257 41.0954 69.9074C40.1725 68.8926 39.4918 67.6703 39.093 66.32C37.7828 67.1358 36.4099 67.6191 34.9943 67.6191ZM59.7888 15.0198C57.026 16.0148 53.8102 16.8306 50.2612 17.4247C48.5579 11.8731 46.0913 7.37613 43.1148 4.45395C49.7343 6.18224 55.542 9.92309 59.7888 15.0198ZM34.9943 3.47326C40.1099 3.47326 44.7241 9.24655 47.4585 17.8369C43.5478 18.3542 39.3437 18.6356 34.9943 18.6356C30.6449 18.6356 26.4465 18.3514 22.533 17.8369C25.2673 9.24655 29.8816 3.47326 34.9943 3.47326ZM26.8766 4.45679C23.8973 7.37613 21.4307 11.8731 19.7302 17.4247C16.1812 16.8306 12.9655 16.0148 10.2026 15.0198C14.4495 9.9174 20.2572 6.17656 26.8766 4.45679ZM8.46802 17.3138C11.4844 18.4736 15.0448 19.4116 18.9925 20.091C17.9386 24.3435 17.3149 29.0963 17.218 34.1704H2.83122C3.09896 27.9337 5.12411 22.1434 8.46802 17.3138ZM2.83122 36.9277H17.218C17.3149 41.996 17.9386 46.7488 18.9925 51.0013C15.0419 51.6835 11.4815 52.6216 8.46517 53.7785C5.1241 48.949 3.09896 43.1643 2.83122 36.9277ZM10.1998 56.0725C12.9655 55.0776 16.1812 54.2618 19.7331 53.6677C21.4364 59.2249 23.903 63.7219 26.8852 66.6469C20.26 64.9215 14.4466 61.1806 10.1998 56.0725Z" fill="#2F80ED"/>
    </symbol>
    <symbol id="item3" fill="none">
        <path d="M109.65 43.5853L97.3757 29.057C97.0201 28.6275 96.4962 28.4034 95.9536 28.4034H79.188V22.297C79.188 21.2699 78.346 20.4296 77.3169 20.4296H71.5724C70.6181 9.33721 61.281 0.616455 49.9418 0.616455C38.6026 0.616455 29.2468 9.33721 28.2925 20.4296H20.2278C19.1987 20.4296 18.3567 21.2699 18.3567 22.297V28.3473C18.3567 29.3744 19.1987 30.2147 20.2278 30.2147C21.257 30.2147 22.099 29.3744 22.099 28.3473V24.1644H28.2925C29.2468 35.2567 38.5839 43.9775 49.9231 43.9775C61.2623 43.9775 70.5994 35.2381 71.5537 24.1644H75.427V30.2521V30.2708V52.941H53.1602C52.1311 52.941 51.2891 53.7813 51.2891 54.8084C51.2891 55.8355 52.1311 56.6758 53.1602 56.6758H75.4457V59.813H49.1185C49.0062 59.2902 48.8378 58.786 48.632 58.3004C48.6133 58.2631 48.5946 58.2444 48.5946 58.2257C48.3888 57.7589 48.1455 57.3294 47.8836 56.8999C47.8087 56.7878 47.7339 56.6945 47.659 56.5824C47.4158 56.2463 47.1725 55.9475 46.8918 55.6487C46.7796 55.5367 46.6673 55.4433 46.555 55.3313C46.2744 55.0698 45.975 54.8271 45.6569 54.603C45.5259 54.5096 45.3949 54.4163 45.2639 54.3416C44.9271 54.1361 44.5903 53.9494 44.2161 53.7813C44.0851 53.7253 43.9541 53.6506 43.8231 53.5946C43.4115 53.4265 42.9811 53.2958 42.532 53.1838C42.4385 53.1651 42.3636 53.1277 42.2701 53.1091C41.7087 52.997 41.1474 52.9223 40.5673 52.9223C39.9873 52.9223 39.4072 52.997 38.8646 53.1091C38.771 53.1277 38.6962 53.1651 38.6026 53.1838C38.1535 53.2958 37.7232 53.4265 37.3115 53.5946C37.1805 53.6506 37.0496 53.7066 36.9186 53.7813C36.5631 53.9494 36.2075 54.1361 35.8707 54.3416C35.7397 54.4163 35.6088 54.5096 35.4965 54.603C35.1784 54.8271 34.879 55.0698 34.5983 55.3499C34.4861 55.4433 34.3738 55.5554 34.2802 55.6674C33.9996 55.9662 33.7376 56.2836 33.4944 56.6198C33.4195 56.7132 33.3447 56.8065 33.2698 56.9186C32.9891 57.3481 32.7459 57.7962 32.5401 58.2631C32.5401 58.2818 32.5213 58.3004 32.5213 58.3191C32.3155 58.8046 32.1471 59.3088 32.0349 59.8504H22.1364V56.377C22.1364 55.3499 21.2944 54.5096 20.2653 54.5096C19.2361 54.5096 18.3941 55.3499 18.3941 56.377V61.7178C18.3941 62.7449 19.2361 63.5852 20.2653 63.5852H32.0536C32.9143 67.5254 36.4134 70.4759 40.6048 70.4759C44.7961 70.4759 48.2952 67.5254 49.1559 63.5852H77.3356H84.2401C85.1009 67.5254 88.5999 70.4759 92.7913 70.4759C96.9827 70.4759 100.482 67.5254 101.343 63.5852H108.247C109.276 63.5852 110.118 62.7449 110.118 61.7178V44.8365C110.1 44.351 109.931 43.9215 109.65 43.5853ZM49.9231 40.2427C40.006 40.2427 31.9413 32.1942 31.9413 22.297C31.9413 12.3997 40.006 4.35126 49.9231 4.35126C59.8403 4.35126 67.9049 12.3997 67.9049 22.297C67.9049 32.1942 59.8403 40.2427 49.9231 40.2427ZM40.5673 66.7037C37.798 66.7037 35.5526 64.4442 35.5526 61.6804C35.5526 58.9167 37.798 56.6758 40.5673 56.6758C43.3366 56.6758 45.582 58.9167 45.582 61.6804C45.582 64.4442 43.3179 66.7037 40.5673 66.7037ZM92.7539 66.7037C89.9846 66.7037 87.7392 64.4442 87.7392 61.6804C87.7392 58.9167 89.9846 56.6758 92.7539 56.6758C95.5232 56.6758 97.7686 58.9167 97.7686 61.6804C97.7686 64.4442 95.5232 66.7037 92.7539 66.7037ZM106.357 59.813H101.324C101.212 59.3088 101.043 58.8046 100.856 58.3378C100.8 58.2071 100.725 58.095 100.669 57.983C100.501 57.6282 100.313 57.2734 100.108 56.9372C99.9953 56.7692 99.883 56.6198 99.7708 56.4704C99.5649 56.209 99.3591 55.9475 99.1346 55.7048C98.9849 55.5554 98.8352 55.406 98.6855 55.2753C98.4422 55.0512 98.199 54.8457 97.937 54.659C97.7686 54.5283 97.6002 54.4163 97.4131 54.3042C97.1324 54.1361 96.8517 53.9867 96.5524 53.8374C96.3652 53.744 96.1781 53.6506 95.991 53.5759C95.6542 53.4452 95.2987 53.3518 94.9432 53.2585C94.7748 53.2211 94.6064 53.1464 94.4192 53.1277C93.8766 53.0157 93.334 52.9597 92.7539 52.9597C92.1926 52.9597 91.6312 53.0157 91.0886 53.1277C90.9202 53.1651 90.7518 53.2211 90.5834 53.2585C90.2279 53.3518 89.8723 53.4452 89.5355 53.5759C89.3484 53.6506 89.1613 53.744 88.9742 53.8374C88.6748 53.9867 88.3941 54.1361 88.1134 54.3042C87.9263 54.4163 87.7579 54.5283 87.5895 54.659C87.3276 54.8457 87.0843 55.0512 86.8411 55.2753C86.6914 55.4246 86.5417 55.5554 86.392 55.7048C86.1674 55.9475 85.9616 56.209 85.7558 56.4704C85.6435 56.6198 85.5125 56.7692 85.419 56.9372C85.1944 57.2734 85.026 57.6282 84.8576 57.983C84.8015 58.1137 84.7267 58.2257 84.6705 58.3378C84.4647 58.8046 84.315 59.3088 84.2027 59.813H79.1693V32.1382H95.0554L106.339 45.4714V59.813H106.357Z" fill="#FF3366"/>
        <path d="M92.4535 34.4537H84.8753C83.8462 34.4537 83.0042 35.294 83.0042 36.3211V43.7347C83.0042 44.7617 83.8462 45.6021 84.8753 45.6021H98.7219C99.4516 45.6021 100.107 45.1726 100.425 44.519C100.724 43.8654 100.63 43.0811 100.163 42.5209L93.8943 35.1073C93.5388 34.6965 93.0148 34.4537 92.4535 34.4537ZM86.7652 41.8673V38.1885H91.5928L94.6989 41.8673H86.7652Z" fill="#FF3366"/>
        <path d="M6.64215 35.5743H23.7445C24.7737 35.5743 25.6157 34.7339 25.6157 33.7069C25.6157 32.6798 24.7737 31.8395 23.7445 31.8395H6.64215C5.61302 31.8395 4.771 32.6798 4.771 33.7069C4.771 34.7339 5.59431 35.5743 6.64215 35.5743Z" fill="#FF3366"/>
        <path d="M6.64261 40.9523H1.87116C0.842021 40.9523 0 41.7927 0 42.8197C0 43.8468 0.842021 44.6871 1.87116 44.6871H6.6239C7.65303 44.6871 8.49506 43.8468 8.49506 42.8197C8.49506 41.7927 7.67175 40.9523 6.64261 40.9523Z" fill="#FF3366"/>
        <path d="M11.0959 42.8197C11.0959 43.8468 11.938 44.6871 12.9671 44.6871H32.0342C33.0633 44.6871 33.9054 43.8468 33.9054 42.8197C33.9054 41.7927 33.0633 40.9523 32.0342 40.9523H12.9671C11.938 40.9523 11.0959 41.774 11.0959 42.8197Z" fill="#FF3366"/>
        <path d="M31.9406 51.0176C31.9406 49.9905 31.0986 49.1502 30.0695 49.1502H12.9671C11.938 49.1502 11.0959 49.9905 11.0959 51.0176C11.0959 52.0447 11.938 52.885 12.9671 52.885H30.0695C31.0986 52.885 31.9406 52.0447 31.9406 51.0176Z" fill="#FF3366"/>
        <path d="M56.6022 20.4296H51.7933V10.9992C51.7933 9.97214 50.9513 9.13181 49.9222 9.13181C48.893 9.13181 48.051 9.97214 48.051 10.9992V22.297C48.051 23.324 48.893 24.1644 49.9222 24.1644H56.6022C57.6314 24.1644 58.4734 23.324 58.4734 22.297C58.4734 21.2699 57.6501 20.4296 56.6022 20.4296Z" fill="#FF3366"/>
    </symbol>
    <symbol id="item4" fill="none">
        <path d="M31.9962 33.4349C31.8855 32.9816 31.8883 32.508 32.0043 32.056C32.1203 31.604 32.346 31.1874 32.6614 30.843C32.9883 30.4422 33.4228 30.1427 33.914 29.9794V29.5044C33.914 29.2149 34.0293 28.9372 34.2344 28.7324C34.4396 28.5276 34.7179 28.4126 35.008 28.4126C35.2981 28.4126 35.5764 28.5276 35.7816 28.7324C35.9867 28.9372 36.102 29.2149 36.102 29.5044V30.0962C36.599 30.2742 37.0657 30.5271 37.4859 30.8463C37.715 31.024 37.8639 31.2854 37.8999 31.5727C37.9359 31.8601 37.8561 32.15 37.6779 32.3786C37.4998 32.6072 37.2379 32.7558 36.95 32.7918C36.662 32.8277 36.3715 32.748 36.1425 32.5702C36.1337 32.5637 34.8625 31.6258 34.3352 32.2503C34.0387 32.5997 34.0923 32.806 34.1164 32.8836C34.241 33.1415 34.42 33.3696 34.6411 33.5522C34.8622 33.7348 35.1202 33.8676 35.3975 33.9415C36.0052 34.1306 36.5598 34.4601 37.016 34.9033C37.4722 35.3464 37.8172 35.8907 38.0231 36.492C38.1337 36.9453 38.131 37.4189 38.015 37.8709C37.899 38.3229 37.6733 38.7395 37.3579 39.0839C37.0293 39.4809 36.5934 39.7753 36.102 39.9322V40.4225C36.102 40.712 35.9867 40.9897 35.7816 41.1945C35.5764 41.3992 35.2981 41.5143 35.008 41.5143C34.7179 41.5143 34.4396 41.3992 34.2344 41.1945C34.0293 40.9897 33.914 40.712 33.914 40.4225V39.8198C33.418 39.6445 32.9514 39.3953 32.5301 39.0806C32.3006 38.9034 32.151 38.6425 32.1143 38.3552C32.0776 38.0679 32.1567 37.7779 32.3343 37.5488C32.5118 37.3198 32.7733 37.1705 33.0611 37.1339C33.349 37.0972 33.6396 37.1762 33.8691 37.3534C33.8921 37.372 35.1579 38.2989 35.6808 37.6809C35.9773 37.3316 35.9237 37.1252 35.8996 37.0477C35.775 36.7897 35.596 36.5616 35.3749 36.379C35.1538 36.1964 34.8958 36.0636 34.6185 35.9897C34.0109 35.7997 33.4567 35.4694 33.0011 35.0255C32.5454 34.5815 32.2011 34.0366 31.9962 33.4349ZM24.068 34.9634C24.068 32.8041 24.7096 30.6932 25.9117 28.8977C27.1138 27.1022 28.8224 25.7029 30.8214 24.8765C32.8205 24.0501 35.0201 23.8339 37.1423 24.2552C39.2644 24.6765 41.2138 25.7163 42.7437 27.2432C44.2737 28.7701 45.3157 30.7155 45.7378 32.8334C46.1599 34.9513 45.9433 37.1466 45.1152 39.1416C44.2872 41.1366 42.885 42.8418 41.0859 44.0415C39.2869 45.2411 37.1717 45.8815 35.008 45.8815C32.1075 45.8783 29.3267 44.727 27.2758 42.6801C25.2248 40.6333 24.0712 37.8581 24.068 34.9634ZM26.256 34.9634C26.256 36.6909 26.7693 38.3797 27.731 39.816C28.6927 41.2524 30.0595 42.3719 31.6588 43.033C33.258 43.6941 35.0177 43.8671 36.7154 43.53C38.4132 43.193 39.9726 42.3611 41.1966 41.1396C42.4206 39.9181 43.2541 38.3618 43.5918 36.6674C43.9295 34.9731 43.7562 33.2169 43.0938 31.6209C42.4314 30.0249 41.3096 28.6608 39.8703 27.701C38.4311 26.7413 36.739 26.229 35.008 26.229C32.6876 26.2316 30.463 27.1527 28.8223 28.7901C27.1815 30.4276 26.2586 32.6477 26.256 34.9634ZM21.333 43.6105C21.4645 43.6665 21.6058 43.6961 21.7487 43.6979C21.8928 43.6993 22.0357 43.6721 22.1691 43.6177C22.3025 43.5634 22.4237 43.483 22.5256 43.3813C22.6274 43.2797 22.708 43.1587 22.7624 43.0256C22.8169 42.8925 22.8442 42.7498 22.8427 42.6061C22.841 42.4634 22.8113 42.3224 22.7552 42.1912C22.7023 42.0576 22.6244 41.9353 22.5255 41.8309C22.3716 41.6794 22.1763 41.5768 21.964 41.5359C21.7518 41.4951 21.5322 41.518 21.333 41.6016C21.1978 41.6517 21.0747 41.7299 20.972 41.8309C20.8754 41.9371 20.7977 42.0589 20.7422 42.1912C20.6862 42.3224 20.6564 42.4634 20.6547 42.6061C20.659 42.8951 20.7723 43.1719 20.972 43.3812C21.0766 43.4799 21.1991 43.5578 21.333 43.6105ZM19.2763 30.2796C19.2342 30.4172 19.2198 30.5618 19.2339 30.705C19.248 30.8482 19.2903 30.9873 19.3584 31.1141C19.4265 31.2409 19.5191 31.3531 19.6308 31.4441C19.7425 31.5351 19.8711 31.6031 20.0093 31.6444C20.1122 31.6749 20.2192 31.6896 20.3265 31.688C20.5618 31.6887 20.7911 31.6137 20.9803 31.474C21.1695 31.3344 21.3085 31.1376 21.3768 30.9129C21.4562 30.6335 21.4229 30.3341 21.2838 30.079C21.1447 29.8239 20.911 29.6333 20.6328 29.5481C20.3558 29.4666 20.0576 29.4978 19.8035 29.6348C19.5493 29.7718 19.3598 30.0036 19.2763 30.2796ZM21.2345 38.5118C21.162 38.2309 20.9806 37.9903 20.7303 37.8429C20.48 37.6955 20.1813 37.6533 19.8999 37.7257C19.6184 37.7981 19.3773 37.9791 19.2296 38.2289C19.0819 38.4787 19.0396 38.7768 19.1122 39.0577C19.1749 39.2913 19.3127 39.4979 19.5044 39.6458C19.696 39.7937 19.9311 39.8748 20.1734 39.8766C20.2655 39.8764 20.3573 39.8654 20.4469 39.8438C20.5863 39.8082 20.7174 39.7454 20.8325 39.6591C20.9477 39.5729 21.0446 39.4647 21.1178 39.341C21.191 39.2172 21.2389 39.0803 21.259 38.938C21.279 38.7957 21.2707 38.6509 21.2345 38.5118ZM18.598 34.6577C18.5951 34.8011 18.6205 34.9437 18.6728 35.0772C18.7252 35.2108 18.8033 35.3328 18.9029 35.4362C19.0025 35.5396 19.1215 35.6225 19.2531 35.68C19.3847 35.7375 19.5264 35.7685 19.6701 35.7714H19.692C19.9074 35.7713 20.1181 35.7078 20.2975 35.5888C20.4769 35.4697 20.6171 35.3005 20.7005 35.1023C20.7839 34.904 20.8068 34.6856 20.7663 34.4745C20.7258 34.2633 20.6238 34.0688 20.473 33.9152C20.3222 33.7617 20.1293 33.656 19.9185 33.6115C19.7078 33.5669 19.4885 33.5854 19.2883 33.6647C19.088 33.744 18.9157 33.8806 18.7929 34.0572C18.6701 34.2339 18.6023 34.4428 18.598 34.6577ZM28.1049 22.4077C28.2765 22.4096 28.4458 22.3683 28.5972 22.2876C28.8357 22.1656 29.0211 21.9605 29.1181 21.7111C29.2151 21.4617 29.2171 21.1855 29.1235 20.9348C29.0299 20.6841 28.8473 20.4764 28.6105 20.3512C28.3736 20.2259 28.0989 20.1918 27.8385 20.2553C27.5781 20.3189 27.3502 20.4756 27.1979 20.6958C27.0457 20.9159 26.9797 21.1842 27.0125 21.4497C27.0454 21.7152 27.1748 21.9595 27.3761 22.136C27.5775 22.3126 27.8368 22.4093 28.1049 22.4077ZM22.613 25.9124C22.3687 25.7827 22.0843 25.7502 21.817 25.8214C21.5497 25.8926 21.3194 26.0623 21.1724 26.2962C21.0254 26.5301 20.9727 26.8109 21.0248 27.082C21.0769 27.3532 21.23 27.5945 21.4533 27.7575C21.6284 27.8631 21.8286 27.9197 22.0332 27.9213C22.271 27.9241 22.5032 27.849 22.6942 27.7073C22.8851 27.5657 23.0241 27.3654 23.09 27.1373C23.1558 26.9092 23.1448 26.6658 23.0586 26.4445C22.9725 26.2232 22.8159 26.0363 22.613 25.9124ZM23.9586 22.8553C23.7434 23.0514 23.6146 23.3244 23.6002 23.6148C23.5859 23.9052 23.6872 24.1895 23.882 24.4057C23.9862 24.5156 24.1117 24.6032 24.2509 24.6632C24.3901 24.7233 24.54 24.7545 24.6916 24.7551C24.9655 24.7517 25.2292 24.6511 25.4355 24.4712C25.6502 24.2758 25.7783 24.0032 25.7917 23.7135C25.805 23.4237 25.7025 23.1406 25.5066 22.9263C25.3108 22.712 25.0376 22.5842 24.7473 22.5709C24.457 22.5576 24.1733 22.6599 23.9586 22.8553ZM32.4371 20.9665C32.571 20.9138 32.6935 20.8359 32.7981 20.7372C33.0015 20.5303 33.1154 20.252 33.1154 19.9621C33.1154 19.6722 33.0015 19.3939 32.7981 19.1869C32.6935 19.0882 32.571 19.0104 32.4371 18.9576C32.2379 18.874 32.0183 18.8512 31.8061 18.892C31.5938 18.9328 31.3985 19.0354 31.2446 19.1869C31.0413 19.3939 30.9273 19.6722 30.9273 19.9621C30.9273 20.252 31.0413 20.5303 31.2446 20.7372C31.4532 20.9384 31.7313 21.0517 32.0214 21.0539C32.1643 21.0521 32.3056 21.0225 32.4371 20.9665ZM49.044 26.5456C48.8325 26.3508 48.5551 26.2426 48.2673 26.2426C47.9794 26.2426 47.7021 26.3508 47.4905 26.5456C47.394 26.6518 47.3163 26.7737 47.2608 26.9059C47.2047 27.0372 47.175 27.1781 47.1733 27.3208C47.1733 27.6104 47.2885 27.8881 47.4937 28.0928C47.6989 28.2976 47.9771 28.4126 48.2673 28.4126C48.5574 28.4126 48.8357 28.2976 49.0409 28.0928C49.246 27.8881 49.3613 27.6104 49.3613 27.3208C49.3596 27.1781 49.3298 27.0372 49.2738 26.9059C49.2183 26.7737 49.1406 26.6518 49.044 26.5456ZM48.6392 39.014C48.5773 39.2207 48.5781 39.441 48.6416 39.6471C48.705 39.8533 48.8282 40.0361 48.9956 40.1725C49.163 40.3089 49.3671 40.3928 49.5822 40.4135C49.7973 40.4343 50.0138 40.3909 50.2042 40.2891C50.3947 40.1872 50.5507 40.0313 50.6525 39.841C50.7542 39.6508 50.7973 39.4347 50.7762 39.22C50.755 39.0054 50.6707 38.8018 50.5337 38.635C50.3968 38.4681 50.2134 38.3455 50.0067 38.2825C49.7282 38.201 49.4287 38.232 49.1729 38.3688C48.9171 38.5057 48.7254 38.7374 48.6392 39.014ZM49.5691 30.0831C49.3096 30.148 49.0828 30.3056 48.9318 30.5261C48.7808 30.7466 48.716 31.0147 48.7497 31.2796C48.7834 31.5446 48.9132 31.788 49.1146 31.9639C49.316 32.1397 49.575 32.2358 49.8426 32.2339C49.9348 32.2338 50.0266 32.2228 50.1161 32.2012C50.2555 32.1653 50.3864 32.1024 50.5014 32.0161C50.6164 31.9298 50.7133 31.8217 50.7864 31.698C50.8595 31.5743 50.9076 31.4374 50.9277 31.2952C50.9479 31.153 50.9397 31.0083 50.9038 30.8692C50.8679 30.7301 50.8049 30.5994 50.7184 30.4847C50.6319 30.3699 50.5236 30.2733 50.3996 30.2003C50.2757 30.1273 50.1385 30.0793 49.9961 30.0592C49.8536 30.0391 49.7085 30.0472 49.5691 30.0831ZM47.403 44.0145C47.5743 44.1295 47.7764 44.1904 47.9828 44.1892C48.221 44.1899 48.453 44.1131 48.6434 43.9703C48.8339 43.8275 48.9725 43.6266 49.0381 43.3981C49.1037 43.1695 49.0927 42.9259 49.0069 42.7041C48.9211 42.4823 48.7651 42.2946 48.5627 42.1693C48.4414 42.0808 48.3032 42.0182 48.1566 41.9853C48.01 41.9525 47.8582 41.9501 47.7107 41.9783C47.5631 42.0066 47.423 42.0649 47.299 42.1495C47.175 42.2342 47.0699 42.3434 46.99 42.4705C46.9102 42.5975 46.8574 42.7395 46.835 42.8878C46.8126 43.036 46.8211 43.1873 46.8598 43.3322C46.8986 43.477 46.9668 43.6124 47.0603 43.7298C47.1537 43.8471 47.2704 43.9441 47.403 44.0145ZM41.4188 47.6393C41.2 47.7512 41.0253 47.9334 40.9229 48.1565C40.8206 48.3797 40.7965 48.6307 40.8547 48.8692C40.9128 49.1076 41.0498 49.3196 41.2434 49.4708C41.4371 49.6221 41.6762 49.7038 41.9221 49.7028C42.093 49.6993 42.2611 49.6583 42.4144 49.5827C42.5466 49.5201 42.665 49.4316 42.7623 49.3225C42.8597 49.2134 42.9341 49.0859 42.9812 48.9476C43.0283 48.8093 43.0472 48.6629 43.0365 48.5172C43.0259 48.3715 42.9861 48.2294 42.9195 48.0993C42.8529 47.9692 42.7608 47.8538 42.6486 47.7599C42.5365 47.666 42.4066 47.5955 42.2666 47.5526C42.1267 47.5097 41.9796 47.4953 41.8339 47.5102C41.6883 47.525 41.5472 47.569 41.4188 47.6393ZM44.5149 46.9951C44.6171 47.1082 44.742 47.1987 44.8814 47.2607C45.0209 47.3228 45.1718 47.355 45.3244 47.3554C45.5954 47.3539 45.8563 47.2528 46.0574 47.0715C46.2182 46.9268 46.3323 46.7377 46.3853 46.5281C46.4383 46.3186 46.4278 46.0981 46.3551 45.8945C46.2825 45.6909 46.1509 45.5135 45.9771 45.3846C45.8033 45.2557 45.5951 45.1812 45.3788 45.1704C45.1625 45.1597 44.9479 45.2133 44.7622 45.3244C44.5765 45.4355 44.4279 45.5991 44.3354 45.7944C44.2429 45.9898 44.2106 46.2082 44.2425 46.422C44.2745 46.6357 44.3692 46.8352 44.5149 46.9951ZM51.418 35.2691C51.4223 35.0533 51.3623 34.841 51.2457 34.6591C51.1291 34.4772 50.9611 34.3339 50.7629 34.2473C50.5647 34.1608 50.3452 34.1348 50.1322 34.1727C49.9192 34.2106 49.7223 34.3106 49.5663 34.4602C49.4102 34.6098 49.3022 34.8022 49.2557 35.0131C49.2093 35.224 49.2265 35.4439 49.3053 35.645C49.384 35.8461 49.5208 36.0194 49.6982 36.1429C49.8756 36.2665 50.0858 36.3347 50.3021 36.3391H50.324C50.6104 36.3392 50.8854 36.2271 51.0899 36.0271C51.2945 35.827 51.4123 35.5549 51.418 35.2691ZM37.2179 49.1896C37.0658 49.3427 36.9625 49.5372 36.921 49.7488C36.8795 49.9603 36.9017 50.1794 36.9848 50.3784C37.0678 50.5773 37.208 50.7473 37.3878 50.8669C37.5675 50.9865 37.7786 51.0503 37.9946 51.0503C38.2106 51.0503 38.4218 50.9865 38.6015 50.8669C38.7812 50.7473 38.9214 50.5773 39.0045 50.3784C39.0875 50.1794 39.1097 49.9603 39.0682 49.7488C39.0268 49.5372 38.9235 49.3427 38.7714 49.1896C38.5592 48.996 38.2821 48.8886 37.9946 48.8886C37.7071 48.8886 37.43 48.996 37.2179 49.1896ZM59.076 53.9717C59.0776 54.7442 58.8651 55.502 58.4622 56.1615C58.0593 56.821 57.4816 57.3566 56.7928 57.709L35.1174 68.8552C33.6703 69.5933 32.0577 69.9484 30.4338 69.8867C28.8099 69.8249 27.229 69.3484 25.8425 68.5025L21.7947 66.0198C21.2796 65.7027 20.6866 65.5346 20.0815 65.5339H15.316V67.7175C15.316 68.0071 15.2007 68.2848 14.9956 68.4896C14.7904 68.6943 14.5121 68.8093 14.222 68.8093H7.658C7.36785 68.8093 7.08959 68.6943 6.88443 68.4896C6.67926 68.2848 6.564 68.0071 6.564 67.7175V66.6257H1.094C0.803853 66.6257 0.52559 66.5107 0.320425 66.3059C0.11526 66.1012 0 65.8235 0 65.5339C0 65.2444 0.11526 64.9667 0.320425 64.7619C0.52559 64.5572 0.803853 64.4421 1.094 64.4421H6.564V46.9733H1.094C0.803853 46.9733 0.52559 46.8582 0.320425 46.6535C0.11526 46.4487 0 46.171 0 45.8815C0 45.5919 0.11526 45.3142 0.320425 45.1094C0.52559 44.9047 0.803853 44.7897 1.094 44.7897H6.564V43.6979C6.564 43.4083 6.67926 43.1306 6.88443 42.9258C7.08959 42.7211 7.36785 42.6061 7.658 42.6061H14.222C14.5121 42.6061 14.7904 42.7211 14.9956 42.9258C15.2007 43.1306 15.316 43.4083 15.316 43.6979V45.8815H23.7934C25.9231 45.8857 27.9947 46.5748 29.701 47.8467L37.7496 53.8713C38.5233 54.4485 39.0797 55.2688 39.3293 56.2001L53.1684 50.1231C53.8096 49.842 54.5109 49.7248 55.2089 49.7822C55.9068 49.8396 56.5795 50.0697 57.1659 50.4517C57.7524 50.8338 58.2341 51.3557 58.5676 51.9703C58.9011 52.5849 59.0759 53.2728 59.076 53.9717ZM13.128 44.7897H8.752V66.6257H13.128V44.7897ZM56.888 53.9717C56.8885 53.6351 56.8047 53.3036 56.6442 53.0075C56.4837 52.7114 56.2516 52.4601 55.9689 52.2763C55.6863 52.0925 55.3621 51.9822 55.0259 51.9552C54.6896 51.9283 54.352 51.9857 54.0436 52.1222L39.2505 58.6206C39.209 58.7484 39.1772 58.8772 39.1236 59.0028C38.877 59.5769 38.508 60.0905 38.0423 60.5078C37.5765 60.9251 37.0252 61.2361 36.4268 61.4191C35.8283 61.6021 35.1971 61.6528 34.577 61.5675C33.957 61.4822 33.363 61.2631 32.8364 60.9254L24.4126 55.5177C24.288 55.442 24.1799 55.3421 24.0945 55.2241C24.0092 55.106 23.9484 54.9721 23.9156 54.8302C23.8829 54.6883 23.879 54.5413 23.904 54.3979C23.9291 54.2545 23.9826 54.1175 24.0615 53.995C24.1403 53.8725 24.2429 53.7671 24.3633 53.6847C24.4836 53.6024 24.6192 53.545 24.7621 53.5157C24.905 53.4865 25.0524 53.4861 25.1954 53.5145C25.3385 53.543 25.4744 53.5997 25.5952 53.6813L34.0234 59.0923C34.485 59.3896 35.0443 59.4964 35.5833 59.3901C36.1223 59.2838 36.5988 58.9727 36.9124 58.5225C37.226 58.0723 37.3521 57.5182 37.2642 56.9769C37.1763 56.4357 36.8812 55.9497 36.4411 55.6214L28.3882 49.5936C27.061 48.6046 25.4498 48.0686 23.7934 48.0651H15.316V63.3503H20.0815C21.0915 63.3505 22.0816 63.631 22.9412 64.1604L26.989 66.6432C28.0544 67.293 29.2691 67.659 30.5169 67.7062C31.7646 67.7534 33.0036 67.4803 34.1153 66.9129L55.794 55.7677C56.1245 55.5981 56.4016 55.3406 56.5946 55.0236C56.7877 54.7067 56.8892 54.3426 56.888 53.9717ZM70.016 24.0454C70.016 24.335 69.9007 24.6127 69.6956 24.8174C69.4904 25.0222 69.2121 25.1372 68.922 25.1372H63.452V26.229C63.452 26.5186 63.3367 26.7963 63.1316 27.001C62.9264 27.2058 62.6481 27.3208 62.358 27.3208H55.794C55.5039 27.3208 55.2256 27.2058 55.0204 27.001C54.8153 26.7963 54.7 26.5186 54.7 26.229V24.0454H46.2226C44.0929 24.0412 42.0213 23.352 40.315 22.0802L32.2664 16.0556C31.4927 15.4784 30.9363 14.6581 30.6867 13.7268L16.8476 19.8038C15.8458 20.2411 14.7128 20.2725 13.6881 19.8915C12.6635 19.5104 11.8274 18.7467 11.3567 17.7617C10.8859 16.7767 10.8173 15.6476 11.1654 14.6131C11.5135 13.5786 12.251 12.7197 13.2221 12.2179L34.8986 1.07169C36.3458 0.334121 37.9583 -0.0207456 39.5821 0.0409949C41.2059 0.102735 42.7868 0.579021 44.1735 1.42434L48.2213 3.9071C48.7364 4.22413 49.3294 4.39232 49.9345 4.39295H54.7V2.20935C54.7 1.91978 54.8153 1.64208 55.0204 1.43733C55.2256 1.23257 55.5039 1.11754 55.794 1.11754H62.358C62.6481 1.11754 62.9264 1.23257 63.1316 1.43733C63.3367 1.64208 63.452 1.91978 63.452 2.20935V3.30115H68.922C69.2121 3.30115 69.4904 3.41618 69.6956 3.62093C69.9007 3.82568 70.016 4.10339 70.016 4.39295C70.016 4.68252 69.9007 4.96022 69.6956 5.16497C69.4904 5.36973 69.2121 5.48476 68.922 5.48476H63.452V22.9536H68.922C69.2121 22.9536 69.4904 23.0686 69.6956 23.2734C69.9007 23.4781 70.016 23.7558 70.016 24.0454ZM54.7 21.8618V6.57656H49.9345C48.9245 6.57635 47.9344 6.29587 47.0748 5.76644L43.027 3.28368C41.9617 2.63361 40.7469 2.26742 39.4991 2.2202C38.2513 2.17298 37.0123 2.44631 35.9007 3.01401L14.222 14.1591C13.8915 14.3288 13.6144 14.5863 13.4214 14.9033C13.2283 15.2202 13.1268 15.5842 13.128 15.9551C13.1275 16.2918 13.2113 16.6232 13.3718 16.9193C13.5323 17.2154 13.7644 17.4668 14.0471 17.6506C14.3297 17.8344 14.6539 17.9447 14.9901 17.9716C15.3264 17.9985 15.664 17.9411 15.9724 17.8047L30.7698 11.3062C30.8114 11.1785 30.8431 11.0497 30.8967 10.9241C31.1433 10.35 31.5124 9.83638 31.9781 9.41907C32.4439 9.00176 32.9952 8.69078 33.5936 8.50777C34.1921 8.32476 34.8233 8.27412 35.4434 8.35938C36.0634 8.44464 36.6574 8.66375 37.184 9.00145L45.6078 14.4092C45.7323 14.4849 45.8405 14.5847 45.9258 14.7028C46.0112 14.8209 46.072 14.9548 46.1047 15.0967C46.1374 15.2386 46.1414 15.3855 46.1164 15.529C46.0913 15.6724 46.0378 15.8094 45.9589 15.9319C45.8801 16.0543 45.7774 16.1598 45.6571 16.2421C45.5368 16.3244 45.4012 16.3819 45.2582 16.4111C45.1153 16.4404 44.968 16.4408 44.8249 16.4123C44.6819 16.3839 44.5459 16.3272 44.4252 16.2456L35.9926 10.8346C35.531 10.5373 34.9717 10.4305 34.4327 10.5368C33.8937 10.6431 33.4172 10.9542 33.1036 11.4044C32.79 11.8546 32.6639 12.4087 32.7518 12.9499C32.8397 13.4912 33.1348 13.9772 33.5749 14.3054L41.6278 20.3333C42.955 21.3223 44.5662 21.8583 46.2226 21.8618H54.7ZM61.264 3.30115H56.888V25.1372H61.264V3.30115Z" fill="#2A9DF4"/>
    </symbol>
    <symbol id="item5" fill="none">
        <path d="M1.52174 45.5949H10.815C12.8053 51.8271 16.5108 57.3756 21.5087 61.6074C26.5065 65.8391 32.5956 68.5837 39.0812 69.528C45.5669 70.4724 52.1879 69.5784 58.1889 66.9482C64.1899 64.3179 69.3294 60.0573 73.0209 54.6524L73.6966 57.8158L76.6731 57.1825L75.2229 50.3924C75.1504 50.0522 74.963 49.747 74.6921 49.5281C74.4212 49.3092 74.0832 49.1897 73.7346 49.1896H66.9568V52.227H70.9955C67.7623 57.2422 63.1843 61.2517 57.7817 63.7999C52.3791 66.348 46.3686 67.3327 40.4333 66.6418C34.498 65.951 28.8759 63.6124 24.2059 59.8919C19.5359 56.1714 16.0052 51.218 14.0153 45.5949H19.7827C20.1863 45.5949 20.5733 45.4349 20.8587 45.1501C21.1441 44.8653 21.3044 44.479 21.3044 44.0762V25.8519C21.3044 25.4492 21.1441 25.0629 20.8587 24.7781C20.5733 24.4933 20.1863 24.3333 19.7827 24.3333H1.52174C1.11815 24.3333 0.731091 24.4933 0.445709 24.7781C0.160326 25.0629 0 25.4492 0 25.8519V44.0762C0 44.479 0.160326 44.8653 0.445709 45.1501C0.731091 45.4349 1.11815 45.5949 1.52174 45.5949ZM12.174 27.3706V32.5068L11.3324 32.0862C11.1212 31.9808 10.8883 31.926 10.6522 31.926C10.4161 31.926 10.1832 31.9808 9.97199 32.0862L9.13047 32.5068V27.3706H12.174ZM3.04349 27.3706H6.08698V34.9641C6.08556 35.2236 6.15081 35.4792 6.2765 35.7064C6.4022 35.9336 6.58415 36.1249 6.80499 36.262C7.02583 36.3991 7.27818 36.4774 7.53797 36.4894C7.79776 36.5015 8.05631 36.4469 8.28894 36.3309L10.6522 35.1433L13.0155 36.3233C13.2475 36.439 13.5054 36.4936 13.7646 36.4819C14.0237 36.4702 14.2756 36.3926 14.4962 36.2564C14.7168 36.1202 14.8989 35.93 15.0251 35.7038C15.1514 35.4776 15.2176 35.223 15.2174 34.9641V27.3706H18.2609V42.5575H3.04349V27.3706Z" fill="#36398E"/>
        <path d="M91.1526 34.2852L88.1091 28.2104C87.9822 27.9568 87.7866 27.7437 87.5445 27.5953C87.3025 27.4469 87.0237 27.369 86.7396 27.3706H79.1308V25.8519C79.1308 25.4491 78.9705 25.0628 78.6851 24.778C78.3998 24.4932 78.0127 24.3332 77.6091 24.3332H77.4463C75.4537 18.0996 71.7458 12.5504 66.7454 8.31856C61.7451 4.08667 55.6537 1.34248 49.166 0.398975C42.6782 -0.544528 36.0554 0.350647 30.0529 2.9824C24.0504 5.61415 18.9098 9.87652 15.2176 15.2833V12.9506H12.1741V19.7771C12.1741 19.9936 12.2205 20.2076 12.3102 20.4047C12.3998 20.6018 12.5307 20.7776 12.694 20.9201C12.8572 21.0626 13.0491 21.1686 13.2568 21.2311C13.4645 21.2935 13.6832 21.311 13.8982 21.2822L20.7674 20.371L20.3626 17.3609L17.2263 17.7801C20.4485 12.7497 25.0217 8.72382 30.4248 6.16098C35.828 3.59815 41.8438 2.60147 47.7869 3.28449C53.73 3.96751 59.3613 6.30278 64.0393 10.0242C68.7173 13.7457 72.2539 18.7036 74.246 24.3332H62.3917C61.9881 24.3332 61.601 24.4932 61.3156 24.778C61.0302 25.0628 60.8699 25.4491 60.8699 25.8519V41.0388C60.8699 41.4416 61.0302 41.8279 61.3156 42.1127C61.601 42.3975 61.9881 42.5575 62.3917 42.5575H65.7151C66.025 43.4452 66.6041 44.2147 67.3719 44.7592C68.1398 45.3037 69.0584 45.5963 70.0004 45.5963C70.9423 45.5963 71.861 45.3037 72.6288 44.7592C73.3967 44.2147 73.9757 43.4452 74.2856 42.5575H79.4108C79.7207 43.4452 80.2998 44.2147 81.0676 44.7592C81.8355 45.3037 82.7541 45.5963 83.6961 45.5963C84.638 45.5963 85.5567 45.3037 86.3245 44.7592C87.0924 44.2147 87.6714 43.4452 87.9813 42.5575H89.7831C90.1867 42.5575 90.5737 42.3975 90.8591 42.1127C91.1445 41.8279 91.3048 41.4416 91.3048 41.0388V34.964C91.3048 34.9473 91.2942 34.9337 91.2942 34.917C91.2925 34.6987 91.2443 34.4833 91.1526 34.2852ZM85.7991 30.408L87.3209 33.4453H79.1308V30.408H85.7991ZM63.9134 27.3706H76.0874V33.4453H63.9134V27.3706ZM63.9134 36.4827H76.0874V39.5201H74.2856C73.9757 38.6324 73.3967 37.8629 72.6288 37.3183C71.861 36.7738 70.9423 36.4813 70.0004 36.4813C69.0584 36.4813 68.1398 36.7738 67.3719 37.3183C66.6041 37.8629 66.025 38.6324 65.7151 39.5201H63.9134V36.4827ZM70.0004 42.5575C69.6994 42.5575 69.4052 42.4684 69.1549 42.3015C68.9047 42.1347 68.7096 41.8975 68.5945 41.62C68.4793 41.3425 68.4492 41.0371 68.5079 40.7425C68.5666 40.4479 68.7115 40.1773 68.9243 39.9649C69.1372 39.7525 69.4083 39.6079 69.7035 39.5493C69.9987 39.4907 70.3047 39.5208 70.5827 39.6357C70.8608 39.7506 71.0984 39.9453 71.2657 40.195C71.4329 40.4448 71.5221 40.7384 71.5221 41.0388C71.5221 41.4416 71.3618 41.8279 71.0764 42.1127C70.791 42.3975 70.404 42.5575 70.0004 42.5575ZM83.6961 42.5575C83.3951 42.5575 83.1009 42.4684 82.8506 42.3015C82.6004 42.1347 82.4053 41.8975 82.2902 41.62C82.175 41.3425 82.1449 41.0371 82.2036 40.7425C82.2623 40.4479 82.4072 40.1773 82.62 39.9649C82.8329 39.7525 83.104 39.6079 83.3992 39.5493C83.6944 39.4907 84.0004 39.5208 84.2784 39.6357C84.5565 39.7506 84.7942 39.9453 84.9614 40.195C85.1286 40.4448 85.2178 40.7384 85.2178 41.0388C85.2178 41.4416 85.0575 41.8279 84.7721 42.1127C84.4867 42.3975 84.0997 42.5575 83.6961 42.5575ZM87.9813 39.5201C87.6714 38.6324 87.0924 37.8629 86.3245 37.3183C85.5567 36.7738 84.638 36.4813 83.6961 36.4813C82.7541 36.4813 81.8355 36.7738 81.0676 37.3183C80.2998 37.8629 79.7207 38.6324 79.4108 39.5201H79.1308V36.4827H88.2613V39.5201H87.9813Z" fill="#36398E"/>
        <path d="M56.3045 34.9641C56.3045 32.5611 55.5905 30.2121 54.2528 28.2142C52.9151 26.2162 51.0138 24.6589 48.7893 23.7394C46.5648 22.8198 44.117 22.5792 41.7555 23.048C39.394 23.5168 37.2248 24.6739 35.5222 26.3731C33.8197 28.0722 32.6602 30.237 32.1905 32.5938C31.7207 34.9506 31.9618 37.3934 32.8832 39.6135C33.8047 41.8335 35.365 43.731 37.367 45.066C39.369 46.401 41.7227 47.1136 44.1305 47.1136C47.3581 47.11 50.4525 45.8288 52.7348 43.5511C55.0171 41.2734 56.3008 38.1852 56.3045 34.9641ZM53.261 34.9641C53.257 37.1154 52.4912 39.196 51.0989 40.8384C49.7066 42.4808 47.7774 43.5792 45.6523 43.9395V41.8604C45.9404 41.7833 46.2215 41.6817 46.4923 41.5567C47.1543 41.2266 47.7112 40.719 48.1004 40.0908C48.4896 39.4625 48.6957 38.7385 48.6957 37.9999C48.6957 37.2613 48.4896 36.5373 48.1004 35.9091C47.7112 35.2809 47.1543 34.7732 46.4923 34.4432L43.1262 32.765C42.9697 32.6871 42.8382 32.5673 42.7462 32.4189C42.6543 32.2706 42.6056 32.0996 42.6056 31.9252C42.6056 31.7507 42.6543 31.5797 42.7462 31.4314C42.8382 31.283 42.9697 31.1632 43.1262 31.0853C43.4372 30.9306 43.7799 30.8501 44.1275 30.8501C44.475 30.8501 44.8178 30.9306 45.1288 31.0853L46.4907 31.7657C46.6696 31.8549 46.8643 31.908 47.0637 31.922C47.2631 31.9361 47.4634 31.9108 47.653 31.8476C47.8427 31.7844 48.018 31.6846 48.1689 31.5538C48.3199 31.423 48.4436 31.2638 48.5329 31.0853C48.6222 30.9068 48.6755 30.7125 48.6896 30.5135C48.7036 30.3145 48.6783 30.1146 48.615 29.9254C48.5517 29.7361 48.4517 29.5612 48.3206 29.4105C48.1895 29.2598 48.03 29.1364 47.8512 29.0473L46.4907 28.3684C46.2194 28.2434 45.9379 28.1418 45.6492 28.0647V25.9886C47.7749 26.3483 49.7048 27.4464 51.0977 29.0889C52.4906 30.7313 53.2569 32.8123 53.261 34.9641ZM35 34.9641C35.004 32.8128 35.7698 30.7321 37.1621 29.0897C38.5544 27.4473 40.4836 26.3489 42.6088 25.9886V28.0677C42.3206 28.1448 42.0396 28.2464 41.7688 28.3714C41.1067 28.7015 40.5498 29.2091 40.1607 29.8374C39.7715 30.4656 39.5653 31.1896 39.5653 31.9282C39.5653 32.6668 39.7715 33.3908 40.1607 34.019C40.5498 34.6473 41.1067 35.1549 41.7688 35.485L45.1349 37.1631C45.2913 37.241 45.4228 37.3608 45.5148 37.5092C45.6068 37.6575 45.6555 37.8285 45.6555 38.003C45.6555 38.1774 45.6068 38.3484 45.5148 38.4967C45.4228 38.6451 45.2913 38.7649 45.1349 38.8428C44.8238 38.9975 44.4811 39.078 44.1336 39.078C43.786 39.078 43.4433 38.9975 43.1322 38.8428L41.7703 38.1624C41.4091 37.9824 40.991 37.9529 40.608 38.0805C40.225 38.2081 39.9085 38.4823 39.7281 38.8428C39.5477 39.2033 39.5182 39.6205 39.646 40.0027C39.7739 40.385 40.0486 40.7008 40.4098 40.8809L41.7703 41.5597C42.0416 41.6847 42.3231 41.7864 42.6118 41.8635V43.9395C40.4861 43.5798 38.5562 42.4817 37.1633 40.8393C35.7704 39.1968 35.0042 37.1158 35 34.9641Z" fill="#36398E"/>
    </symbol>
    <symbol id="item6" fill="none">
        <path d="M33.3124 1.18787L62.9307 15.8861C63.663 16.2109 63.9885 16.9418 63.9885 17.6726C63.1748 30.8279 59.7573 41.547 54.4683 50.236C49.1793 58.925 41.9375 65.5839 33.3937 70.6187C32.8241 71.0247 32.0918 70.9435 31.4409 70.6187C22.9785 65.5027 15.818 58.8438 10.529 50.236C5.24006 41.547 1.82256 30.8279 1.00887 17.6726C0.927503 16.8606 1.41572 16.2109 2.06667 15.8861L31.685 1.18787C32.1732 0.944256 32.8241 1.02546 33.3124 1.18787ZM32.4987 24.3315C34.6956 24.3315 36.5671 25.2247 38.0318 26.6052C39.415 27.9857 40.3101 29.9346 40.3101 32.1272C40.3101 33.6701 39.8219 35.1318 39.0896 36.3499C38.6013 37.1619 37.9504 37.8116 37.2181 38.38L39.415 44.7953C39.7405 45.7697 39.2523 46.7442 38.2759 47.1502C38.0318 47.2314 37.869 47.2314 37.6249 47.2314H27.3724C26.3146 47.2314 25.5009 46.4194 25.5009 45.3637C25.5009 45.1201 25.5823 44.7953 25.6637 44.6329L27.8606 38.38C27.1283 37.8116 26.4774 37.1619 25.9891 36.3499C25.1755 35.1318 24.7686 33.6701 24.7686 32.1272C24.7686 29.9346 25.6637 28.0669 27.0469 26.6052C28.4302 25.2247 30.3017 24.3315 32.4987 24.3315ZM35.428 29.2038C34.6956 28.473 33.6378 27.9857 32.4987 27.9857C31.3595 27.9857 30.3831 28.473 29.6508 29.2038C28.9184 29.9347 28.4302 30.9903 28.4302 32.1272C28.4302 32.9393 28.6743 33.7513 29.0812 34.3198C29.488 34.9694 30.139 35.5378 30.8713 35.8627C31.7663 36.2687 32.1732 37.2432 31.8477 38.1364L29.9762 43.496H35.1025L33.231 38.1364C32.9055 37.2432 33.3124 36.2687 34.2074 35.8627C34.9397 35.5378 35.5093 35.0506 35.9975 34.3198C36.4044 33.6701 36.6485 32.9393 36.6485 32.1272C36.5671 30.9903 36.1603 29.9347 35.428 29.2038ZM60.2455 18.6471L32.4987 4.92333L4.75185 18.6471C5.6469 30.6655 8.82029 40.4102 13.6211 48.2871C18.4218 56.0829 24.85 62.1733 32.4987 66.8832C40.1474 62.1733 46.5755 56.1641 51.3763 48.2871C56.177 40.4102 59.3504 30.6655 60.2455 18.6471Z" stroke="#FF6A00" stroke-width="2"/>
    </symbol>
    <symbol id="item7" fill="none">
        <path d="M24.5 13.7769C24.3642 13.8785 24.2539 14.0104 24.178 14.162C24.102 14.3135 24.0625 14.4807 24.0625 14.6501C24.1815 18.7541 24.8901 22.8197 26.1669 26.7227C28.9537 35.2521 34.137 41.2404 41.1513 44.0446C41.4126 44.1479 41.7036 44.1479 41.965 44.0446C48.9836 41.2415 54.1669 35.2521 56.9494 26.7227C58.2291 22.8202 58.9407 18.7545 59.0625 14.6501C59.0625 14.4801 59.0226 14.3124 58.9462 14.1605C58.8697 14.0086 58.7588 13.8766 58.6222 13.775C58.4855 13.6734 58.327 13.6051 58.1593 13.5755C57.9915 13.5459 57.8192 13.5558 57.6559 13.6044C57.5531 13.6339 47.3922 16.5516 42.4528 9.6497C42.3465 9.51565 42.2112 9.40733 42.057 9.33287C41.9029 9.25841 41.7338 9.21973 41.5625 9.21973C41.3912 9.21973 41.2221 9.25841 41.068 9.33287C40.9138 9.40733 40.7785 9.51565 40.6722 9.6497C35.7317 16.5505 25.5719 13.635 25.4691 13.6044C25.3053 13.5556 25.1323 13.5457 24.964 13.5757C24.7957 13.6056 24.6368 13.6745 24.5 13.7769ZM41.5625 12.0304C46.3203 17.3572 53.6813 16.6466 56.8105 16.0418C56.4736 20.8054 54.3911 36.4222 41.5625 41.8505C28.7536 36.431 26.658 20.8076 26.3167 16.0429C29.4459 16.652 36.8058 17.3572 41.5625 12.0304Z" fill="#FF0084"/>
        <path d="M41.056 39.1991C41.2122 39.2804 41.3857 39.3228 41.5619 39.3228C41.738 39.3228 41.9116 39.2804 42.0678 39.1991C50.4043 34.8514 53.2065 25.2381 54.134 19.896C54.1618 19.7371 54.1539 19.574 54.111 19.4185C54.0681 19.263 53.9911 19.1189 53.8857 18.9966C53.6735 18.751 52.5918 18.6222 52.5918 18.6222C48.8893 18.7413 45.2472 17.664 42.2078 15.5506C42.0204 15.414 41.7944 15.3403 41.5624 15.3403C41.3304 15.3403 41.1044 15.414 40.9171 15.5506C37.8778 17.6642 34.2356 18.7416 30.5331 18.6222C30.5331 18.6222 29.4328 18.7499 29.2206 18.9966C29.1154 19.1184 29.0386 19.2619 28.9954 19.4168C28.9523 19.5718 28.9441 19.7343 28.9712 19.8928C29.8801 25.2294 32.6615 34.835 41.056 39.1991ZM33.5945 27.7487H40.4687V36.3075C37.4288 34.1434 35.0493 31.1808 33.5945 27.7487ZM42.6562 36.3021V27.7487H49.4965C48.0468 31.1726 45.6801 34.132 42.6562 36.3021ZM50.3857 25.5656H42.6562V18.4257C45.4475 19.9317 48.5616 20.7431 51.7343 20.7911C51.3963 22.4119 50.9457 24.0072 50.3857 25.5656ZM40.4687 18.4268V25.5656H32.7031C32.1437 24.008 31.6956 22.4129 31.3621 20.7922C34.5443 20.7477 37.6685 19.9362 40.4687 18.4268Z" fill="#FF0084"/>
        <path d="M57.9972 51.3382C57.1015 50.4489 55.9257 49.8955 54.6685 49.7714C53.4112 49.6473 52.1496 49.9601 51.0967 50.6571L41.2902 57.1813C36.3486 56.5744 33.5431 55.1073 32.0403 53.9459H39.9219C40.9372 53.9459 41.9109 53.5434 42.6288 52.8269C43.3467 52.1105 43.75 51.1387 43.75 50.1255C43.75 49.1122 43.3467 48.1405 42.6288 47.424C41.9109 46.7076 40.9372 46.3051 39.9219 46.3051H25.1563C24.8825 46.305 24.6187 46.4075 24.4169 46.5921L14.3467 55.8016L11.7108 53.1709C11.5057 52.9663 11.2275 52.8513 10.9375 52.8513C10.6475 52.8513 10.3693 52.9663 10.1642 53.1709L0.320473 62.9949C0.21851 63.0966 0.137706 63.2175 0.082708 63.3505C0.0277099 63.4835 -0.000396942 63.626 4.23472e-06 63.7699V69.2277C4.23472e-06 69.5172 0.115238 69.7948 0.320356 69.9995C0.525474 70.2042 0.803674 70.3192 1.09375 70.3192H21.875C22.1651 70.3192 22.4432 70.2041 22.6483 69.9994L24.8358 67.8163C25.0408 67.6116 25.156 67.334 25.156 67.0446C25.156 66.7551 25.0408 66.4775 24.8358 66.2728L15.8955 57.3494L25.5817 48.4882H39.9219C40.357 48.4882 40.7743 48.6607 41.082 48.9677C41.3897 49.2748 41.5625 49.6912 41.5625 50.1255C41.5625 50.5597 41.3897 50.9762 41.082 51.2833C40.7743 51.5903 40.357 51.7628 39.9219 51.7628H29.5313C29.3448 51.7627 29.1614 51.8102 28.9985 51.9008C28.8356 51.9913 28.6986 52.1219 28.6005 52.2802C28.5025 52.4384 28.4466 52.6191 28.4381 52.805C28.4297 52.9909 28.469 53.1758 28.5523 53.3423C28.653 53.5431 31.1259 58.2543 41.4422 59.3971C41.6979 59.4248 41.9552 59.3622 42.1695 59.2203L52.3097 52.4734C52.93 52.0629 53.6713 51.8743 54.4128 51.9384C55.1544 52.0024 55.8522 52.3153 56.3927 52.826L42.2898 65.8941L26.3944 63.7797C26.2504 63.7573 26.1035 63.7639 25.9621 63.7989C25.8207 63.834 25.6878 63.8969 25.5711 63.9839C25.4544 64.071 25.3563 64.1804 25.2826 64.3058C25.2088 64.4312 25.1609 64.57 25.1417 64.7141C25.1225 64.8583 25.1323 65.0048 25.1706 65.145C25.2088 65.2853 25.2748 65.4166 25.3646 65.531C25.4544 65.6455 25.5662 65.741 25.6934 65.8117C25.8207 65.8825 25.9608 65.9272 26.1056 65.9432L42.5119 68.1263C42.5597 68.1328 42.608 68.1361 42.6563 68.1361C42.9327 68.136 43.1988 68.0315 43.4011 67.8436L58.7136 53.6534C58.8212 53.5536 58.9076 53.4331 58.9676 53.2993C59.0275 53.1654 59.0598 53.0209 59.0626 52.8743C59.0654 52.7277 59.0385 52.582 58.9836 52.446C58.9287 52.31 58.8469 52.1864 58.7431 52.0826L57.9972 51.3382ZM21.4222 68.1361H2.1875V64.2218L10.9375 55.4894L22.5159 67.0446L21.4222 68.1361Z" fill="#FF0084"/>
        <path d="M41.5625 7.00916C41.8526 7.00916 42.1308 6.89416 42.3359 6.68945C42.541 6.48475 42.6562 6.20711 42.6562 5.91761V1.55139C42.6562 1.26189 42.541 0.984254 42.3359 0.779548C42.1308 0.574842 41.8526 0.459839 41.5625 0.459839C41.2724 0.459839 40.9942 0.574842 40.7891 0.779548C40.584 0.984254 40.4688 1.26189 40.4688 1.55139V5.91761C40.4688 6.20711 40.584 6.48475 40.7891 6.68945C40.9942 6.89416 41.2724 7.00916 41.5625 7.00916Z" fill="#FF0084"/>
        <path d="M68.9062 25.5656H64.5312C64.2412 25.5656 63.963 25.6806 63.7579 25.8853C63.5527 26.09 63.4375 26.3676 63.4375 26.6571C63.4375 26.9466 63.5527 27.2242 63.7579 27.429C63.963 27.6337 64.2412 27.7487 64.5312 27.7487H68.9062C69.1963 27.7487 69.4745 27.6337 69.6796 27.429C69.8848 27.2242 70 26.9466 70 26.6571C70 26.3676 69.8848 26.09 69.6796 25.8853C69.4745 25.6806 69.1963 25.5656 68.9062 25.5656Z" fill="#FF0084"/>
        <path d="M14.2188 27.7487H18.5938C18.8838 27.7487 19.162 27.6337 19.3671 27.429C19.5723 27.2242 19.6875 26.9466 19.6875 26.6571C19.6875 26.3676 19.5723 26.09 19.3671 25.8853C19.162 25.6806 18.8838 25.5656 18.5938 25.5656H14.2188C13.9287 25.5656 13.6505 25.6806 13.4454 25.8853C13.2402 26.09 13.125 26.3676 13.125 26.6571C13.125 26.9466 13.2402 27.2242 13.4454 27.429C13.6505 27.6337 13.9287 27.7487 14.2188 27.7487Z" fill="#FF0084"/>
        <path d="M60.1247 4.40575L57.0304 7.49266C56.926 7.59335 56.8427 7.7138 56.7853 7.84698C56.728 7.98015 56.6978 8.12338 56.6966 8.26832C56.6953 8.41325 56.723 8.55699 56.778 8.69114C56.833 8.82529 56.9142 8.94716 57.0169 9.04965C57.1196 9.15214 57.2417 9.23319 57.3761 9.28807C57.5105 9.34296 57.6546 9.37058 57.7998 9.36932C57.945 9.36806 58.0885 9.33795 58.222 9.28074C58.3554 9.22353 58.4761 9.14037 58.577 9.03612L61.6712 5.94921C61.7757 5.84851 61.859 5.72807 61.9163 5.59489C61.9737 5.46172 62.0038 5.31848 62.0051 5.17355C62.0064 5.02861 61.9787 4.88488 61.9237 4.75073C61.8687 4.61658 61.7875 4.49471 61.6848 4.39222C61.5821 4.28973 61.46 4.20868 61.3255 4.15379C61.1911 4.09891 61.0471 4.07129 60.9019 4.07255C60.7567 4.07381 60.6131 4.10392 60.4797 4.16113C60.3462 4.21834 60.2256 4.30149 60.1247 4.40575Z" fill="#FF0084"/>
        <path d="M22.2273 42.679C22.5174 42.6789 22.7955 42.5639 23.0006 42.3591L26.0948 39.2722C26.294 39.0664 26.4043 38.7906 26.4018 38.5044C26.3993 38.2182 26.2843 37.9445 26.0815 37.7421C25.8787 37.5397 25.6044 37.4249 25.3176 37.4224C25.0308 37.4199 24.7545 37.5299 24.5482 37.7288L21.454 40.8157C21.3011 40.9683 21.197 41.1628 21.1548 41.3745C21.1126 41.5862 21.1343 41.8057 21.217 42.0051C21.2998 42.2045 21.44 42.375 21.6198 42.4949C21.7996 42.6149 22.011 42.6789 22.2273 42.679Z" fill="#FF0084"/>
        <path d="M58.577 37.7288C58.3707 37.5299 58.0944 37.4199 57.8076 37.4224C57.5209 37.4249 57.2465 37.5397 57.0437 37.7421C56.841 37.9445 56.7259 38.2182 56.7234 38.5044C56.7209 38.7906 56.8312 39.0664 57.0304 39.2722L60.1246 42.3591C60.3309 42.558 60.6072 42.668 60.894 42.6655C61.1808 42.663 61.4551 42.5482 61.6579 42.3458C61.8607 42.1435 61.9757 41.8697 61.9782 41.5835C61.9807 41.2973 61.8704 41.0216 61.6712 40.8157L58.577 37.7288Z" fill="#FF0084"/>
        <path d="M24.5482 9.03615C24.6491 9.1404 24.7698 9.22356 24.9032 9.28077C25.0367 9.33797 25.1802 9.36809 25.3254 9.36934C25.4707 9.3706 25.6147 9.34299 25.7491 9.2881C25.8835 9.23322 26.0056 9.15217 26.1083 9.04968C26.211 8.94719 26.2922 8.82531 26.3472 8.69117C26.4022 8.55702 26.4299 8.41328 26.4286 8.26835C26.4274 8.12341 26.3972 7.98018 26.3399 7.847C26.2826 7.71383 26.1992 7.59338 26.0948 7.49269L23.0006 4.40578C22.7943 4.20694 22.518 4.09692 22.2312 4.09941C21.9444 4.10189 21.6701 4.21669 21.4673 4.41907C21.2645 4.62146 21.1495 4.89523 21.147 5.18143C21.1445 5.46764 21.2548 5.74336 21.454 5.94923L24.5482 9.03615Z" fill="#FF0084"/>
    </symbol>
    <symbol id="item8" fill="none">
        <path d="M34.4216 68.2899L28.5191 70.6705C24.021 72.4847 18.8959 70.3661 17.0007 65.909L14.5138 60.0603C14.0872 59.0571 13.2869 58.2584 12.2816 57.8327L6.42112 55.3507C1.95506 53.4593 -0.167799 48.3445 1.65005 43.8554L4.03549 37.9648C4.44466 36.9543 4.44466 35.8248 4.03549 34.8144L1.65005 28.9237C-0.167799 24.4346 1.95506 19.3198 6.42112 17.4284L12.2816 14.9465C13.2869 14.5207 14.0872 13.722 14.5138 12.7188L17.0007 6.87007C18.8959 2.41298 24.021 0.294384 28.5191 2.10859L34.4216 4.48923C35.4341 4.89759 36.5659 4.89759 37.5784 4.48923L43.4809 2.10859C47.979 0.294384 53.1041 2.41298 54.9993 6.87007L57.4862 12.7188C57.9128 13.722 58.7131 14.5207 59.7184 14.9465L65.5789 17.4284C70.0449 19.3198 72.1678 24.4346 70.3499 28.9237L67.9645 34.8144C67.5553 35.8248 67.5553 36.9543 67.9645 37.9648L70.3499 43.8554C72.1678 48.3445 70.0449 53.4593 65.5789 55.3507L59.7184 57.8327C58.7131 58.2584 57.9128 59.0571 57.4862 60.0603L54.9993 65.909C53.1041 70.3661 47.979 72.4847 43.4809 70.6705L37.5784 68.2899C36.5659 67.8815 35.4341 67.8815 34.4216 68.2899ZM39.3321 63.9591L45.2347 66.3398C47.3653 67.1991 49.793 66.1956 50.6907 64.0843L53.1777 58.2356C54.0783 56.1177 55.7678 54.4315 57.89 53.5328L63.7505 51.0508C65.866 50.1548 66.8716 47.7321 66.0105 45.6057L63.625 39.715C62.7612 37.5818 62.7612 35.1973 63.625 33.0641L66.0105 27.1734C66.8716 25.047 65.866 22.6243 63.7505 21.7283L57.89 19.2464C55.7678 18.3476 54.0783 16.6614 53.1777 14.5435L50.6907 8.69479C49.793 6.58354 47.3653 5.57999 45.2347 6.43935L39.3321 8.82C37.1947 9.68208 34.8053 9.68208 32.6679 8.82L26.7653 6.43935C24.6347 5.57999 22.207 6.58354 21.3093 8.69479L18.8223 14.5435C17.9217 16.6614 16.2322 18.3476 14.11 19.2464L8.24951 21.7283C6.13401 22.6243 5.12844 25.047 5.98953 27.1734L8.37497 33.0641C9.23878 35.1973 9.23878 37.5818 8.37497 39.715L5.98953 45.6057C5.12844 47.7321 6.13401 50.1548 8.24951 51.0508L14.11 53.5328C16.2322 54.4315 17.9217 56.1177 18.8223 58.2356L21.3093 64.0843C22.207 66.1956 24.6347 67.1991 26.7653 66.3398L32.6679 63.9591C34.8053 63.097 37.1947 63.097 39.3321 63.9591ZM31.5037 42.2312L48.0516 25.7165C49.1483 24.622 50.9264 24.622 52.0231 25.7165C53.1198 26.811 53.1198 28.5856 52.0231 29.6801L33.4894 48.1765C32.3927 49.271 30.6146 49.271 29.5179 48.1765L20.913 39.5889C19.8163 38.4944 19.8163 36.7198 20.913 35.6254C22.0097 34.5309 23.7878 34.5309 24.8845 35.6254L31.5037 42.2312Z" stroke="#E9043F" stroke-width="2"/>
    </symbol>
</svg>
