<svg width="39" height="48" viewBox="0 0 39 48" fill="none" xmlns="http://www.w3.org/2000/svg">
<path d="M2 2H37V46H2V2Z" stroke="black" stroke-width="4"/>
<path d="M19.2542 32V30.7661C22.3077 30.5017 24 28.9153 24 26.3301C24 24.1267 22.7676 22.7656 20.3487 22.2661L19.2542 22.0507V19.0052C20.0452 19.1423 20.6246 19.818 20.6522 20.5916H23.7425C23.7149 18.2609 21.9858 16.6158 19.2542 16.3416V15H17.9298V16.3318C14.959 16.5668 13.2483 18.1532 13.2483 20.6895C13.2483 22.8341 14.4808 24.2442 16.8353 24.7926L17.9298 25.0472V28.2005C16.9457 28.0927 16.2375 27.4171 16.1915 26.5553H13C13.0092 29.0622 14.8211 30.6192 17.9298 30.7857V32H19.2542ZM20.8545 26.7316C20.8545 27.5639 20.2567 28.1221 19.2542 28.2005V25.2823C20.3303 25.4977 20.8545 25.9775 20.8545 26.7316ZM16.4766 20.3566C16.4766 19.6025 17.0744 19.0444 17.9298 18.9856V21.7667C16.9824 21.5611 16.4766 21.0714 16.4766 20.3566Z" fill="#FD665E"/>
</svg>
