<svg width="62" height="28" viewBox="0 0 62 28" fill="none" xmlns="http://www.w3.org/2000/svg">
<path d="M33.8761 0.555779L38.4458 0L38.4252 6.94723C38.9604 5.78422 40.2263 4.99172 41.9657 4.99172C44.055 4.99172 45.4651 6.05181 45.4651 8.27493V13.7813C45.4651 14.5223 45.64 14.7384 46.659 14.9134V15.4177H41.06V14.9134C41.9349 14.759 42.0892 14.5635 42.0892 13.843V8.47048C42.0892 7.09132 41.41 6.40175 40.2469 6.40175C39.403 6.40175 38.7546 6.79285 38.4458 7.36921V13.843C38.4458 14.5635 38.5796 14.7487 39.475 14.9134V15.4177H33.8761V14.9134C34.8744 14.7384 35.0597 14.5223 35.0597 13.7813V2.21282C35.0597 1.54383 34.9773 1.39974 34.401 1.20419L33.8761 1.02922V0.555779Z" fill="#FD665E"/>
<path fill-rule="evenodd" clip-rule="evenodd" d="M9.68692 0.524902L13.9994 12.68C14.5373 14.1899 14.8848 14.6442 15.7402 14.86C16.5025 14.6968 16.635 14.448 16.635 13.8018V7.256C16.635 6.58701 16.5424 6.44292 15.9763 6.24736L15.4514 6.08269V5.60925L20.0005 5.05347L19.9902 7.95587C20.9783 5.90772 21.8428 5.03289 22.8823 5.03289C23.8086 5.03289 24.2512 5.77392 24.2512 6.70022C24.2512 7.14279 24.138 7.57506 24.0145 7.82207C23.716 7.70886 23.1191 7.61623 22.5324 7.61623C21.5135 7.61623 20.474 7.88382 20.0211 8.3058V13.6989C20.0211 14.512 20.2064 14.7281 21.3385 14.9134V15.4177H9.06939V14.9134C10.3765 14.7178 10.6338 14.2753 10.078 12.5874L9.3164 10.3231H4.7055L4.03651 12.3506C3.42927 14.2444 3.63511 14.6973 5.04514 14.9134V15.4177H0.917969V14.9134C1.98836 14.7178 2.328 14.3473 3.04845 12.3095L7.27855 0.524902H9.68692ZM6.98007 3.32438L4.93193 9.60262H9.07968L6.98007 3.32438Z" fill="#FD665E"/>
<path d="M29.5628 15.6236C31.4154 15.6236 32.9592 14.9134 33.7209 13.8224V13.3181C33.2062 13.8224 32.3108 14.1621 31.3125 14.1621C29.2643 14.1621 27.6073 12.5462 27.6073 9.71584C27.6073 7.35892 28.8424 5.85626 30.7052 5.85626C31.261 5.85626 31.755 5.99006 32.1462 6.23707C32.1256 6.22678 32.1153 6.22678 32.0947 6.22678C31.3022 6.22678 30.6538 6.88548 30.6538 7.71915C30.6538 8.55282 31.3228 9.21152 32.1667 9.21152C32.9901 9.21152 33.6797 8.56311 33.6797 7.6574C33.6797 6.17532 32.2697 4.99172 29.7892 4.99172C26.5163 4.99172 24.1079 7.17366 24.1079 10.3231C24.1079 13.5857 26.5266 15.6236 29.5628 15.6236Z" fill="#FD665E"/>
<path d="M10.6308 17.9857L15.1799 17.4299V19.3443C15.6739 18.1915 16.9296 17.3682 18.6793 17.3682C20.2951 17.3682 21.5096 18.068 21.8801 19.3546C22.3845 18.1915 23.7121 17.3682 25.4309 17.3682C27.4791 17.3682 28.8274 18.4591 28.8274 20.6308V26.1577C28.8274 26.8987 29.0023 27.1149 30.011 27.2898V27.7942H24.412V27.2898C25.3074 27.1252 25.4412 26.9399 25.4412 26.2194V20.8263C25.4412 19.4575 24.8031 18.7782 23.7121 18.7782C22.8785 18.7782 22.2609 19.1384 21.9419 19.6942C21.9933 19.9412 22.0139 20.1882 22.0139 20.4764V26.2194C22.0139 26.9399 22.1477 27.1355 23.0432 27.2898V27.7942H17.6089V27.2898C18.5043 27.1355 18.6278 26.9399 18.6278 26.2194V20.8263C18.6278 19.4575 18.0103 18.7782 16.9296 18.7782C16.0959 18.7782 15.5093 19.1796 15.2005 19.7457V26.2194C15.2005 26.9399 15.3343 27.1355 16.2297 27.2898V27.7942H10.6308V27.2898C11.6291 27.1149 11.8144 26.8987 11.8144 26.1577V19.6324C11.8144 18.9634 11.732 18.8194 11.1557 18.6238L10.6308 18.4591V17.9857Z" fill="#FD665E"/>
<path fill-rule="evenodd" clip-rule="evenodd" d="M41.7964 22.6378C41.7964 25.7975 39.3159 28 36.0019 28C32.7186 28 30.2588 25.9519 30.2588 22.7201C30.2588 19.5604 32.7392 17.3682 36.043 17.3682C39.3365 17.3682 41.7964 19.4163 41.7964 22.6378ZM33.8405 22.6069C33.8405 25.5505 34.6947 27.3207 36.0739 27.3207C37.4633 27.3207 38.2044 25.5916 38.2044 22.751C38.2044 19.8074 37.3501 18.0474 35.9813 18.0474C34.5815 18.0474 33.8405 19.7662 33.8405 22.6069Z" fill="#FD665E"/>
<path d="M42.7544 19.7662L45.842 27.8147H47.6946L50.6382 20.1882C51.2763 18.5312 51.5645 18.243 52.3879 18.0783V17.5637H48.9503V18.0783C50.1133 18.243 50.2471 18.5723 49.7633 20.1059L48.1372 24.9844L46.511 20.0853C46.0376 18.5723 46.1714 18.2327 47.3653 18.0783V17.5637H41.1797V18.0783C41.9927 18.2533 42.2706 18.5415 42.7544 19.7662Z" fill="#FD665E"/>
<path fill-rule="evenodd" clip-rule="evenodd" d="M57.0716 28C54.0046 28 51.5859 25.9724 51.5859 22.6995C51.5859 19.5707 53.7164 17.3682 56.9275 17.3682C59.7785 17.3682 61.487 19.1281 61.487 21.6806C61.487 21.9482 61.4561 22.2158 61.4355 22.3907H55.0235C55.2911 25.0667 56.8246 26.5797 58.9036 26.5797C59.9123 26.5797 60.7768 26.1989 61.2914 25.674L61.3017 26.1783C60.5504 27.3104 58.986 28 57.0716 28ZM56.9275 18.0474C55.6822 18.0474 54.972 19.2928 54.972 21.5056C54.972 21.6085 54.972 21.7012 54.9823 21.8041L58.5023 21.7629C58.5125 21.5674 58.5125 21.3512 58.5125 21.0528C58.5125 19.2208 58.0185 18.0474 56.9275 18.0474Z" fill="#FD665E"/>
</svg>
