<svg width="22" height="22" viewBox="0 0 22 22" fill="none" xmlns="http://www.w3.org/2000/svg">
<path d="M19.0618 17.6975C20.1388 16.4016 20.888 14.8653 21.2458 13.2186C21.6035 11.572 21.5595 9.86336 21.1173 8.23733C20.6751 6.61129 19.8477 5.11568 18.7052 3.87702C17.5628 2.63836 16.1388 1.69308 14.5537 1.12115C12.9686 0.549225 11.2691 0.367474 9.59897 0.591274C7.92881 0.815074 6.33711 1.43784 4.95854 2.40689C3.57996 3.37594 2.45506 4.66277 1.67899 6.15852C0.902928 7.65426 0.498528 9.31492 0.500004 11C0.50057 13.4497 1.36381 15.8208 2.93825 17.6975L2.92325 17.7103C2.97575 17.7733 3.03575 17.8273 3.08975 17.8895C3.15725 17.9668 3.23 18.0395 3.29975 18.1145C3.50975 18.3425 3.72575 18.5615 3.95225 18.767C4.02125 18.83 4.0925 18.8885 4.16225 18.9485C4.40225 19.1555 4.649 19.352 4.90475 19.535C4.93775 19.5575 4.96775 19.5868 5.00075 19.61V19.601C6.75733 20.8371 8.85283 21.5006 11.0008 21.5006C13.1487 21.5006 15.2442 20.8371 17.0008 19.601V19.61C17.0338 19.5868 17.063 19.5575 17.0968 19.535C17.3518 19.3513 17.5993 19.1555 17.8393 18.9485C17.909 18.8885 17.9803 18.8293 18.0493 18.767C18.2758 18.5608 18.4918 18.3425 18.7018 18.1145C18.7715 18.0395 18.8435 17.9668 18.9118 17.8895C18.965 17.8273 19.0258 17.7733 19.0783 17.7095L19.0618 17.6975ZM11 5.00001C11.6675 5.00001 12.32 5.19795 12.8751 5.5688C13.4301 5.93965 13.8627 6.46676 14.1181 7.08346C14.3735 7.70016 14.4404 8.37876 14.3102 9.03344C14.1799 9.68813 13.8585 10.2895 13.3865 10.7615C12.9145 11.2335 12.3131 11.5549 11.6584 11.6852C11.0037 11.8154 10.3251 11.7486 9.70845 11.4931C9.09175 11.2377 8.56464 10.8051 8.19379 10.2501C7.82294 9.69505 7.625 9.04253 7.625 8.37501C7.625 7.47991 7.98058 6.62146 8.61352 5.98853C9.24645 5.35559 10.1049 5.00001 11 5.00001ZM5.00525 17.6975C5.01826 16.7127 5.41846 15.7727 6.11927 15.0807C6.82008 14.3888 7.76514 14.0005 8.75 14H13.25C14.2349 14.0005 15.1799 14.3888 15.8807 15.0807C16.5815 15.7727 16.9817 16.7127 16.9948 17.6975C15.3499 19.1798 13.2142 20.0001 11 20.0001C8.78581 20.0001 6.65012 19.1798 5.00525 17.6975Z" fill="black" fill-opacity="0.6"/>
</svg>
