<svg width="76" height="70" viewBox="0 0 76 70" fill="none" xmlns="http://www.w3.org/2000/svg">
<path d="M57.5382 15.4593C57.5245 15.4442 57.5199 15.4245 57.5054 15.41C57.4894 15.394 57.468 15.389 57.4514 15.3742C52.4372 10.3858 45.5321 7.29651 37.917 7.29651C30.304 7.29651 23.4006 10.3844 18.3868 15.3704C18.3684 15.3866 18.3447 15.3924 18.3271 15.41C18.3106 15.4265 18.3053 15.4486 18.29 15.4657C13.2957 20.4808 10.2026 27.3905 10.2026 35.0109C10.2026 42.6332 13.3017 49.545 18.3055 54.5575C18.3147 54.5673 18.3175 54.5804 18.3271 54.5899C18.3372 54.6001 18.3509 54.6031 18.3614 54.6127C23.3771 59.609 30.2916 62.7034 37.917 62.7034C45.5445 62.7034 52.4607 59.6075 57.4769 54.6088C57.4854 54.6007 57.497 54.5983 57.5054 54.5899C57.5131 54.5822 57.5153 54.5717 57.5228 54.5638C62.5302 49.5509 65.6314 42.6363 65.6314 35.0109C65.6314 27.3875 62.536 20.4749 57.5382 15.4593ZM61.4749 36.1974H63.1765C62.8924 42.2739 60.4634 47.7856 56.6163 52.0071L55.4209 50.8107C54.9547 50.3445 54.197 50.3414 53.7277 50.8107C53.26 51.2784 53.26 52.0361 53.7277 52.5039L54.9223 53.6993C50.7003 57.538 45.1897 59.9622 39.1144 60.2481V58.5578C39.1144 57.8968 38.5781 57.3604 37.917 57.3604C37.256 57.3604 36.7196 57.8968 36.7196 58.5578V60.2481C30.644 59.9622 25.1331 57.5377 20.911 53.6985L22.1047 52.5039C22.5725 52.0361 22.5725 51.2784 22.1047 50.8107C21.6354 50.3414 20.8777 50.3445 20.4116 50.8107L19.2169 52.0062C15.3702 47.7848 12.9417 42.2735 12.6575 36.1974H14.3592C15.0202 36.1974 15.5566 35.661 15.5566 35C15.5566 34.3389 15.0202 33.8026 14.3592 33.8026H12.6586C12.9474 27.7274 15.3762 22.2173 19.2205 17.9966L20.4116 19.1877C20.6454 19.4215 20.951 19.5385 21.2581 19.5385C21.5653 19.5385 21.8709 19.4215 22.1047 19.1877C22.5725 18.72 22.5725 17.9622 22.1047 17.4945L20.9143 16.3041C25.136 12.4634 30.6455 10.0382 36.7196 9.75198V11.4421C36.7196 12.1032 37.256 12.6395 37.917 12.6395C38.5781 12.6395 39.1144 12.1032 39.1144 11.4421V9.75198C45.1881 10.0381 50.6973 12.463 54.919 16.3033L53.7277 17.4945C53.26 17.9622 53.26 18.72 53.7277 19.1877C53.9616 19.4215 54.2672 19.5385 54.5743 19.5385C54.8815 19.5385 55.187 19.4215 55.4209 19.1877L56.6127 17.9959C60.4575 22.2167 62.8866 27.7269 63.1754 33.8026H61.4749C60.8138 33.8026 60.2775 34.3389 60.2775 35C60.2775 35.661 60.8138 36.1974 61.4749 36.1974Z" fill="#3366FF"/>
<path d="M37.9172 67.6052C19.9331 67.6052 5.30101 52.9841 5.30101 35.0109C5.30101 34.3499 4.76468 33.8135 4.10363 33.8135C3.44258 33.8135 2.90625 34.3499 2.90625 35.0109C2.90625 54.3046 18.6125 70 37.9172 70C38.5782 70 39.1145 69.4637 39.1145 68.8026C39.1145 68.1416 38.5782 67.6052 37.9172 67.6052Z" fill="#3366FF"/>
<path d="M6.16308 31.5965C6.39694 31.8304 6.70253 31.9473 7.00967 31.9473C7.31681 31.9473 7.62239 31.8304 7.85625 31.5965C8.32398 31.1288 8.32398 30.3711 7.85625 29.9034L4.94699 26.9941C4.48082 26.5264 3.72311 26.5264 3.25382 26.9941L0.350795 29.8956C-0.116932 30.3633 -0.116932 31.121 0.350795 31.5887C0.818522 32.0549 1.57624 32.058 2.04397 31.5887L4.10041 29.5339L6.16308 31.5965Z" fill="#3366FF"/>
<path d="M37.9171 2.39476C55.9012 2.39476 70.5333 17.0268 70.5333 35.0109C70.5333 35.672 71.0696 36.2083 71.7306 36.2083C72.3917 36.2083 72.928 35.672 72.928 35.0109C72.928 15.7063 57.2218 0 37.9171 0C37.2561 0 36.7197 0.536327 36.7197 1.19738C36.7197 1.85843 37.2561 2.39476 37.9171 2.39476Z" fill="#3366FF"/>
<path d="M75.4832 38.2507C75.0155 37.7845 74.2578 37.7814 73.79 38.2507L71.7258 40.3134L69.6709 38.2585C69.2032 37.7908 68.4455 37.7908 67.9777 38.2585C67.51 38.7262 67.51 39.4839 67.9777 39.9517L70.8792 42.8531C71.1131 43.087 71.4187 43.2039 71.7258 43.2039C72.0314 43.2039 72.3385 43.087 72.5724 42.8531L75.4832 39.9439C75.9509 39.4761 75.9509 38.7184 75.4832 38.2507Z" fill="#3366FF"/>
<path d="M46.7274 23.5032L39.432 31.3109C38.9641 31.1184 38.4536 31.0087 37.9169 31.0087C35.7124 31.0087 33.9194 32.8016 33.9194 35.0062C33.9194 36.7845 35.1024 38.2773 36.7196 38.7882V46.5216C36.7196 47.1827 37.2559 47.719 37.9169 47.719C38.578 47.719 39.1143 47.1827 39.1143 46.5216V38.7882C40.7316 38.2773 41.9144 36.7846 41.9144 35.0062C41.9144 34.2101 41.6743 33.4716 41.2718 32.8479L48.4767 25.1371C48.9288 24.6538 48.9023 23.8961 48.419 23.4455C47.9356 22.9934 47.1795 23.0199 46.7274 23.5032ZM37.9169 36.5964C37.0329 36.5964 36.3142 35.8824 36.3142 35.0062C36.3142 34.1222 37.0329 33.4034 37.9169 33.4034C38.8009 33.4034 39.5197 34.1222 39.5197 35.0062C39.5197 35.8824 38.8009 36.5964 37.9169 36.5964Z" fill="#3366FF"/>
</svg>
