<svg width="92" height="70" viewBox="0 0 92 70" fill="none" xmlns="http://www.w3.org/2000/svg">
<path d="M1.52174 45.5949H10.815C12.8053 51.8271 16.5108 57.3756 21.5087 61.6074C26.5065 65.8391 32.5956 68.5837 39.0812 69.528C45.5669 70.4724 52.1878 69.5784 58.1889 66.9482C64.1899 64.3179 69.3294 60.0573 73.0209 54.6524L73.6966 57.8158L76.6731 57.1825L75.2229 50.3924C75.1504 50.0522 74.963 49.747 74.6921 49.5281C74.4212 49.3092 74.0832 49.1897 73.7346 49.1896H66.9568V52.227H70.9955C67.7623 57.2422 63.1843 61.2517 57.7817 63.7999C52.3791 66.348 46.3686 67.3327 40.4333 66.6418C34.498 65.951 28.8759 63.6124 24.2059 59.8919C19.5359 56.1714 16.0052 51.218 14.0153 45.5949H19.7827C20.1863 45.5949 20.5733 45.4349 20.8587 45.1501C21.1441 44.8653 21.3044 44.479 21.3044 44.0762V25.8519C21.3044 25.4492 21.1441 25.0629 20.8587 24.7781C20.5733 24.4933 20.1863 24.3333 19.7827 24.3333H1.52174C1.11815 24.3333 0.731091 24.4933 0.445709 24.7781C0.160326 25.0629 0 25.4492 0 25.8519V44.0762C0 44.479 0.160326 44.8653 0.445709 45.1501C0.731091 45.4349 1.11815 45.5949 1.52174 45.5949ZM12.174 27.3706V32.5068L11.3324 32.0862C11.1212 31.9808 10.8883 31.926 10.6522 31.926C10.4161 31.926 10.1832 31.9808 9.97199 32.0862L9.13047 32.5068V27.3706H12.174ZM3.04349 27.3706H6.08698V34.9641C6.08556 35.2236 6.15081 35.4792 6.2765 35.7064C6.4022 35.9336 6.58415 36.1249 6.80499 36.262C7.02583 36.3991 7.27818 36.4774 7.53797 36.4894C7.79776 36.5015 8.05631 36.4469 8.28894 36.3309L10.6522 35.1433L13.0155 36.3233C13.2475 36.439 13.5054 36.4936 13.7646 36.4819C14.0237 36.4702 14.2756 36.3926 14.4962 36.2564C14.7168 36.1202 14.8989 35.93 15.0251 35.7038C15.1514 35.4776 15.2176 35.223 15.2174 34.9641V27.3706H18.2609V42.5575H3.04349V27.3706Z" fill="#36398E"/>
<path d="M91.1526 34.2852L88.1091 28.2104C87.9822 27.9568 87.7866 27.7437 87.5445 27.5953C87.3025 27.4469 87.0236 27.369 86.7396 27.3706H79.1308V25.8519C79.1308 25.4491 78.9705 25.0628 78.6851 24.778C78.3998 24.4932 78.0127 24.3332 77.6091 24.3332H77.4463C75.4537 18.0996 71.7458 12.5504 66.7454 8.31856C61.7451 4.08667 55.6537 1.34248 49.166 0.398975C42.6782 -0.544528 36.0554 0.350647 30.0529 2.9824C24.0504 5.61415 18.9098 9.87652 15.2176 15.2833V12.9506H12.1741V19.7771C12.1741 19.9936 12.2205 20.2076 12.3102 20.4047C12.3998 20.6018 12.5307 20.7776 12.694 20.9201C12.8572 21.0626 13.0491 21.1686 13.2568 21.2311C13.4645 21.2935 13.6832 21.311 13.8982 21.2822L20.7674 20.3709L20.3626 17.3609L17.2263 17.7801C20.4485 12.7497 25.0217 8.72382 30.4248 6.16098C35.828 3.59815 41.8438 2.60147 47.7869 3.28449C53.73 3.96751 59.3613 6.30278 64.0393 10.0242C68.7173 13.7457 72.2539 18.7036 74.246 24.3332H62.3917C61.9881 24.3332 61.601 24.4932 61.3156 24.778C61.0302 25.0628 60.8699 25.4491 60.8699 25.8519V41.0388C60.8699 41.4416 61.0302 41.8279 61.3156 42.1127C61.601 42.3975 61.9881 42.5575 62.3917 42.5575H65.7151C66.025 43.4452 66.6041 44.2147 67.3719 44.7592C68.1398 45.3037 69.0584 45.5963 70.0004 45.5963C70.9423 45.5963 71.861 45.3037 72.6288 44.7592C73.3967 44.2147 73.9757 43.4452 74.2856 42.5575H79.4108C79.7207 43.4452 80.2998 44.2147 81.0676 44.7592C81.8355 45.3037 82.7541 45.5963 83.6961 45.5963C84.638 45.5963 85.5567 45.3037 86.3245 44.7592C87.0924 44.2147 87.6714 43.4452 87.9813 42.5575H89.7831C90.1867 42.5575 90.5737 42.3975 90.8591 42.1127C91.1445 41.8279 91.3048 41.4416 91.3048 41.0388V34.964C91.3048 34.9473 91.2942 34.9337 91.2942 34.917C91.2925 34.6987 91.2443 34.4833 91.1526 34.2852V34.2852ZM85.7991 30.408L87.3209 33.4453H79.1308V30.408H85.7991ZM63.9134 27.3706H76.0874V33.4453H63.9134V27.3706ZM63.9134 36.4827H76.0874V39.5201H74.2856C73.9757 38.6324 73.3967 37.8629 72.6288 37.3183C71.861 36.7738 70.9423 36.4813 70.0004 36.4813C69.0584 36.4813 68.1398 36.7738 67.3719 37.3183C66.6041 37.8629 66.025 38.6324 65.7151 39.5201H63.9134V36.4827ZM70.0004 42.5575C69.6994 42.5575 69.4052 42.4684 69.1549 42.3015C68.9047 42.1347 68.7096 41.8975 68.5945 41.62C68.4793 41.3425 68.4492 41.0371 68.5079 40.7425C68.5666 40.4479 68.7115 40.1773 68.9243 39.9649C69.1372 39.7525 69.4083 39.6079 69.7035 39.5493C69.9987 39.4907 70.3047 39.5208 70.5827 39.6357C70.8608 39.7506 71.0985 39.9453 71.2657 40.1951C71.4329 40.4448 71.5221 40.7384 71.5221 41.0388C71.5221 41.4416 71.3618 41.8279 71.0764 42.1127C70.791 42.3975 70.404 42.5575 70.0004 42.5575ZM83.6961 42.5575C83.3951 42.5575 83.1009 42.4684 82.8506 42.3015C82.6004 42.1347 82.4054 41.8975 82.2902 41.62C82.175 41.3425 82.1449 41.0371 82.2036 40.7425C82.2623 40.4479 82.4072 40.1773 82.62 39.9649C82.8329 39.7525 83.104 39.6079 83.3992 39.5493C83.6944 39.4907 84.0004 39.5208 84.2784 39.6357C84.5565 39.7506 84.7942 39.9453 84.9614 40.1951C85.1286 40.4448 85.2178 40.7384 85.2178 41.0388C85.2178 41.4416 85.0575 41.8279 84.7721 42.1127C84.4867 42.3975 84.0997 42.5575 83.6961 42.5575ZM87.9813 39.5201C87.6714 38.6324 87.0924 37.8629 86.3245 37.3183C85.5567 36.7738 84.638 36.4813 83.6961 36.4813C82.7541 36.4813 81.8355 36.7738 81.0676 37.3183C80.2998 37.8629 79.7207 38.6324 79.4108 39.5201H79.1308V36.4827H88.2613V39.5201H87.9813Z" fill="#36398E"/>
<path d="M56.3045 34.9641C56.3045 32.5611 55.5905 30.2121 54.2528 28.2142C52.9151 26.2162 51.0138 24.6589 48.7893 23.7394C46.5648 22.8198 44.117 22.5792 41.7555 23.048C39.394 23.5168 37.2248 24.6739 35.5222 26.3731C33.8197 28.0722 32.6602 30.237 32.1905 32.5938C31.7207 34.9506 31.9618 37.3934 32.8832 39.6135C33.8047 41.8335 35.365 43.731 37.367 45.066C39.369 46.401 41.7227 47.1136 44.1305 47.1136C47.3581 47.11 50.4525 45.8288 52.7348 43.5511C55.0171 41.2734 56.3008 38.1852 56.3045 34.9641ZM53.261 34.9641C53.257 37.1154 52.4912 39.196 51.0989 40.8384C49.7066 42.4808 47.7774 43.5792 45.6523 43.9395V41.8604C45.9404 41.7833 46.2215 41.6817 46.4923 41.5567C47.1543 41.2266 47.7112 40.719 48.1004 40.0908C48.4896 39.4625 48.6957 38.7385 48.6957 37.9999C48.6957 37.2613 48.4896 36.5373 48.1004 35.9091C47.7112 35.2809 47.1543 34.7732 46.4923 34.4432L43.1262 32.765C42.9697 32.6871 42.8382 32.5673 42.7462 32.4189C42.6543 32.2706 42.6056 32.0996 42.6056 31.9252C42.6056 31.7507 42.6543 31.5797 42.7462 31.4314C42.8382 31.283 42.9697 31.1632 43.1262 31.0853C43.4372 30.9306 43.7799 30.8501 44.1275 30.8501C44.475 30.8501 44.8178 30.9306 45.1288 31.0853L46.4907 31.7657C46.6696 31.8549 46.8643 31.908 47.0637 31.922C47.2631 31.9361 47.4634 31.9108 47.653 31.8476C47.8427 31.7844 48.018 31.6846 48.1689 31.5538C48.3199 31.423 48.4436 31.2638 48.5329 31.0853C48.6222 30.9068 48.6755 30.7125 48.6896 30.5135C48.7036 30.3145 48.6783 30.1146 48.615 29.9254C48.5517 29.7361 48.4517 29.5612 48.3206 29.4105C48.1895 29.2598 48.03 29.1364 47.8512 29.0473L46.4907 28.3684C46.2194 28.2434 45.9379 28.1418 45.6492 28.0647V25.9886C47.7749 26.3483 49.7048 27.4464 51.0977 29.0889C52.4906 30.7313 53.2569 32.8123 53.261 34.9641V34.9641ZM35 34.9641C35.004 32.8128 35.7698 30.7321 37.1621 29.0897C38.5544 27.4473 40.4836 26.3489 42.6088 25.9886V28.0677C42.3206 28.1448 42.0396 28.2464 41.7688 28.3714C41.1067 28.7015 40.5498 29.2091 40.1607 29.8374C39.7715 30.4656 39.5653 31.1896 39.5653 31.9282C39.5653 32.6668 39.7715 33.3908 40.1607 34.019C40.5498 34.6473 41.1067 35.1549 41.7688 35.485L45.1349 37.1631C45.2913 37.241 45.4228 37.3608 45.5148 37.5092C45.6068 37.6575 45.6555 37.8285 45.6555 38.003C45.6555 38.1774 45.6068 38.3484 45.5148 38.4967C45.4228 38.6451 45.2913 38.7649 45.1349 38.8428C44.8238 38.9975 44.4811 39.078 44.1336 39.078C43.786 39.078 43.4433 38.9975 43.1322 38.8428L41.7703 38.1624C41.4091 37.9824 40.991 37.9529 40.608 38.0805C40.225 38.2081 39.9085 38.4823 39.7281 38.8428C39.5477 39.2033 39.5182 39.6205 39.646 40.0027C39.7739 40.385 40.0486 40.7008 40.4098 40.8809L41.7703 41.5597C42.0416 41.6847 42.3231 41.7864 42.6118 41.8635V43.9395C40.4861 43.5798 38.5562 42.4817 37.1633 40.8393C35.7704 39.1968 35.0042 37.1158 35 34.9641V34.9641Z" fill="#36398E"/>
</svg>
