<svg width="111" height="71" viewBox="0 0 111 71" fill="none" xmlns="http://www.w3.org/2000/svg">
<path d="M109.65 43.5853L97.3757 29.057C97.0202 28.6275 96.4962 28.4034 95.9536 28.4034H79.188V22.297C79.188 21.2699 78.346 20.4296 77.3169 20.4296H71.5724C70.6181 9.33721 61.281 0.616455 49.9418 0.616455C38.6026 0.616455 29.2468 9.33721 28.2925 20.4296H20.2278C19.1987 20.4296 18.3567 21.2699 18.3567 22.297V28.3473C18.3567 29.3744 19.1987 30.2147 20.2278 30.2147C21.257 30.2147 22.099 29.3744 22.099 28.3473V24.1644H28.2925C29.2468 35.2567 38.5839 43.9775 49.9231 43.9775C61.2623 43.9775 70.5994 35.2381 71.5537 24.1644H75.427V30.2521V30.2708V52.941H53.1602C52.1311 52.941 51.2891 53.7813 51.2891 54.8084C51.2891 55.8355 52.1311 56.6758 53.1602 56.6758H75.4457V59.813H49.1185C49.0062 59.2902 48.8378 58.786 48.632 58.3004C48.6133 58.2631 48.5946 58.2444 48.5946 58.2257C48.3888 57.7589 48.1455 57.3294 47.8836 56.8999C47.8087 56.7878 47.7339 56.6945 47.659 56.5824C47.4158 56.2463 47.1725 55.9475 46.8918 55.6487C46.7796 55.5367 46.6673 55.4433 46.555 55.3313C46.2744 55.0698 45.975 54.8271 45.6569 54.603C45.5259 54.5096 45.3949 54.4163 45.2639 54.3416C44.9271 54.1361 44.5903 53.9494 44.2161 53.7813C44.0851 53.7253 43.9541 53.6506 43.8231 53.5946C43.4115 53.4265 42.9811 53.2958 42.532 53.1838C42.4385 53.1651 42.3636 53.1277 42.2701 53.1091C41.7087 52.997 41.1474 52.9223 40.5673 52.9223C39.9873 52.9223 39.4072 52.997 38.8646 53.1091C38.771 53.1277 38.6962 53.1651 38.6026 53.1838C38.1535 53.2958 37.7232 53.4265 37.3115 53.5946C37.1805 53.6506 37.0496 53.7066 36.9186 53.7813C36.5631 53.9494 36.2075 54.1361 35.8707 54.3416C35.7397 54.4163 35.6088 54.5096 35.4965 54.603C35.1784 54.8271 34.879 55.0698 34.5983 55.3499C34.4861 55.4433 34.3738 55.5554 34.2802 55.6674C33.9996 55.9662 33.7376 56.2836 33.4944 56.6198C33.4195 56.7131 33.3447 56.8065 33.2698 56.9186C32.9891 57.3481 32.7459 57.7962 32.5401 58.2631C32.5401 58.2818 32.5213 58.3004 32.5213 58.3191C32.3155 58.8046 32.1471 59.3088 32.0349 59.8504H22.1364V56.377C22.1364 55.3499 21.2944 54.5096 20.2653 54.5096C19.2361 54.5096 18.3941 55.3499 18.3941 56.377V61.7178C18.3941 62.7448 19.2361 63.5852 20.2653 63.5852H32.0536C32.9143 67.5254 36.4134 70.4759 40.6048 70.4759C44.7961 70.4759 48.2952 67.5254 49.1559 63.5852H77.3356H84.2401C85.1009 67.5254 88.5999 70.4759 92.7913 70.4759C96.9827 70.4759 100.482 67.5254 101.343 63.5852H108.247C109.276 63.5852 110.118 62.7448 110.118 61.7178V44.8365C110.1 44.351 109.931 43.9215 109.65 43.5853ZM49.9231 40.2427C40.006 40.2427 31.9413 32.1942 31.9413 22.297C31.9413 12.3997 40.006 4.35126 49.9231 4.35126C59.8403 4.35126 67.9049 12.3997 67.9049 22.297C67.9049 32.1942 59.8403 40.2427 49.9231 40.2427ZM40.5673 66.7037C37.798 66.7037 35.5526 64.4442 35.5526 61.6804C35.5526 58.9167 37.798 56.6758 40.5673 56.6758C43.3366 56.6758 45.582 58.9167 45.582 61.6804C45.582 64.4442 43.3179 66.7037 40.5673 66.7037ZM92.7539 66.7037C89.9846 66.7037 87.7392 64.4442 87.7392 61.6804C87.7392 58.9167 89.9846 56.6758 92.7539 56.6758C95.5232 56.6758 97.7686 58.9167 97.7686 61.6804C97.7686 64.4442 95.5232 66.7037 92.7539 66.7037ZM106.357 59.813H101.324C101.212 59.3088 101.043 58.8046 100.856 58.3378C100.8 58.2071 100.725 58.095 100.669 57.983C100.501 57.6282 100.313 57.2734 100.108 56.9372C99.9953 56.7692 99.883 56.6198 99.7708 56.4704C99.5649 56.209 99.3591 55.9475 99.1346 55.7048C98.9849 55.5554 98.8352 55.406 98.6855 55.2753C98.4422 55.0512 98.199 54.8457 97.937 54.659C97.7686 54.5283 97.6002 54.4163 97.4131 54.3042C97.1324 54.1361 96.8517 53.9867 96.5524 53.8374C96.3652 53.744 96.1781 53.6506 95.991 53.5759C95.6542 53.4452 95.2987 53.3518 94.9432 53.2585C94.7748 53.2211 94.6064 53.1464 94.4192 53.1277C93.8766 53.0157 93.334 52.9597 92.7539 52.9597C92.1926 52.9597 91.6312 53.0157 91.0886 53.1277C90.9202 53.1651 90.7518 53.2211 90.5834 53.2585C90.2279 53.3518 89.8723 53.4452 89.5355 53.5759C89.3484 53.6506 89.1613 53.744 88.9742 53.8374C88.6748 53.9867 88.3941 54.1361 88.1134 54.3042C87.9263 54.4163 87.7579 54.5283 87.5895 54.659C87.3276 54.8457 87.0843 55.0512 86.8411 55.2753C86.6914 55.4246 86.5417 55.5554 86.392 55.7048C86.1674 55.9475 85.9616 56.209 85.7558 56.4704C85.6435 56.6198 85.5125 56.7692 85.419 56.9372C85.1944 57.2734 85.026 57.6282 84.8576 57.983C84.8015 58.1137 84.7267 58.2257 84.6705 58.3378C84.4647 58.8046 84.315 59.3088 84.2027 59.813H79.1693V32.1382H95.0554L106.339 45.4714V59.813H106.357Z" fill="#FF3366"/>
<path d="M92.4535 34.4537H84.8753C83.8462 34.4537 83.0042 35.294 83.0042 36.3211V43.7347C83.0042 44.7617 83.8462 45.6021 84.8753 45.6021H98.7219C99.4516 45.6021 100.107 45.1726 100.425 44.519C100.724 43.8654 100.63 43.0811 100.163 42.5209L93.8943 35.1073C93.5388 34.6965 93.0148 34.4537 92.4535 34.4537ZM86.7652 41.8673V38.1885H91.5928L94.6989 41.8673H86.7652Z" fill="#FF3366"/>
<path d="M6.64215 35.5743H23.7445C24.7737 35.5743 25.6157 34.7339 25.6157 33.7069C25.6157 32.6798 24.7737 31.8395 23.7445 31.8395H6.64215C5.61302 31.8395 4.771 32.6798 4.771 33.7069C4.771 34.7339 5.59431 35.5743 6.64215 35.5743Z" fill="#FF3366"/>
<path d="M6.64261 40.9523H1.87116C0.842021 40.9523 0 41.7927 0 42.8197C0 43.8468 0.842021 44.6871 1.87116 44.6871H6.6239C7.65303 44.6871 8.49506 43.8468 8.49506 42.8197C8.49506 41.7927 7.67175 40.9523 6.64261 40.9523Z" fill="#FF3366"/>
<path d="M11.0959 42.8197C11.0959 43.8468 11.938 44.6871 12.9671 44.6871H32.0342C33.0633 44.6871 33.9054 43.8468 33.9054 42.8197C33.9054 41.7927 33.0633 40.9523 32.0342 40.9523H12.9671C11.938 40.9523 11.0959 41.774 11.0959 42.8197Z" fill="#FF3366"/>
<path d="M31.9406 51.0176C31.9406 49.9905 31.0986 49.1502 30.0695 49.1502H12.9671C11.938 49.1502 11.0959 49.9905 11.0959 51.0176C11.0959 52.0447 11.938 52.885 12.9671 52.885H30.0695C31.0986 52.885 31.9406 52.0447 31.9406 51.0176Z" fill="#FF3366"/>
<path d="M56.6022 20.4296H51.7933V10.9992C51.7933 9.97214 50.9513 9.13181 49.9222 9.13181C48.893 9.13181 48.051 9.97214 48.051 10.9992V22.297C48.051 23.324 48.893 24.1644 49.9222 24.1644H56.6022C57.6314 24.1644 58.4734 23.324 58.4734 22.297C58.4734 21.2699 57.6501 20.4296 56.6022 20.4296Z" fill="#FF3366"/>
</svg>
