<svg width="71" height="70" viewBox="0 0 71 70" fill="none" xmlns="http://www.w3.org/2000/svg">
<path d="M31.9962 33.4349C31.8855 32.9816 31.8883 32.508 32.0043 32.056C32.1203 31.604 32.346 31.1874 32.6614 30.843C32.9883 30.4422 33.4228 30.1427 33.914 29.9794V29.5044C33.914 29.2149 34.0293 28.9372 34.2344 28.7324C34.4396 28.5276 34.7179 28.4126 35.008 28.4126C35.2981 28.4126 35.5764 28.5276 35.7816 28.7324C35.9867 28.9372 36.102 29.2149 36.102 29.5044V30.0962C36.599 30.2742 37.0657 30.5271 37.4859 30.8463C37.715 31.024 37.8639 31.2854 37.8999 31.5727C37.9359 31.8601 37.8561 32.15 37.6779 32.3786C37.4998 32.6072 37.2379 32.7558 36.95 32.7918C36.662 32.8277 36.3715 32.748 36.1425 32.5702C36.1337 32.5637 34.8625 31.6258 34.3352 32.2503C34.0387 32.5997 34.0923 32.806 34.1164 32.8836C34.241 33.1415 34.42 33.3696 34.6411 33.5522C34.8622 33.7348 35.1202 33.8676 35.3975 33.9415C36.0052 34.1306 36.5598 34.4601 37.016 34.9033C37.4722 35.3464 37.8172 35.8907 38.0231 36.492C38.1337 36.9453 38.131 37.4189 38.015 37.8709C37.899 38.3229 37.6733 38.7395 37.3579 39.0839C37.0293 39.4809 36.5934 39.7753 36.102 39.9322V40.4225C36.102 40.712 35.9867 40.9897 35.7816 41.1945C35.5764 41.3992 35.2981 41.5143 35.008 41.5143C34.7179 41.5143 34.4396 41.3992 34.2344 41.1945C34.0293 40.9897 33.914 40.712 33.914 40.4225V39.8198C33.418 39.6445 32.9514 39.3953 32.5301 39.0806C32.3006 38.9034 32.151 38.6425 32.1143 38.3552C32.0776 38.0679 32.1567 37.7779 32.3343 37.5488C32.5118 37.3198 32.7733 37.1705 33.0611 37.1339C33.349 37.0972 33.6396 37.1762 33.8691 37.3534C33.8921 37.372 35.1579 38.2989 35.6808 37.6809C35.9773 37.3316 35.9237 37.1252 35.8996 37.0477C35.775 36.7897 35.596 36.5616 35.3749 36.379C35.1538 36.1964 34.8958 36.0636 34.6185 35.9897C34.0109 35.7997 33.4567 35.4694 33.0011 35.0255C32.5454 34.5815 32.2012 34.0366 31.9962 33.4349V33.4349ZM24.068 34.9634C24.068 32.8041 24.7096 30.6932 25.9117 28.8977C27.1138 27.1022 28.8224 25.7029 30.8214 24.8765C32.8205 24.0501 35.0201 23.8339 37.1423 24.2552C39.2644 24.6765 41.2138 25.7163 42.7437 27.2432C44.2737 28.7701 45.3157 30.7155 45.7378 32.8334C46.1599 34.9513 45.9433 37.1466 45.1152 39.1416C44.2872 41.1366 42.885 42.8418 41.0859 44.0414C39.2869 45.2411 37.1717 45.8815 35.008 45.8815C32.1075 45.8783 29.3267 44.727 27.2758 42.6801C25.2248 40.6333 24.0712 37.8581 24.068 34.9634V34.9634ZM26.256 34.9634C26.256 36.6909 26.7693 38.3797 27.731 39.816C28.6927 41.2524 30.0595 42.3719 31.6588 43.033C33.258 43.6941 35.0177 43.8671 36.7154 43.53C38.4132 43.193 39.9726 42.3611 41.1966 41.1396C42.4206 39.9181 43.2541 38.3618 43.5918 36.6674C43.9295 34.9731 43.7562 33.2169 43.0938 31.6209C42.4314 30.0249 41.3096 28.6608 39.8703 27.701C38.4311 26.7413 36.739 26.229 35.008 26.229C32.6876 26.2316 30.463 27.1527 28.8223 28.7901C27.1815 30.4276 26.2586 32.6477 26.256 34.9634V34.9634ZM21.333 43.6105C21.4645 43.6665 21.6058 43.6961 21.7487 43.6979C21.8928 43.6993 22.0357 43.6721 22.1691 43.6177C22.3025 43.5634 22.4237 43.483 22.5256 43.3813C22.6274 43.2797 22.708 43.1587 22.7624 43.0256C22.8169 42.8925 22.8442 42.7498 22.8427 42.6061C22.841 42.4634 22.8113 42.3224 22.7552 42.1912C22.7023 42.0576 22.6244 41.9353 22.5255 41.8309C22.3716 41.6794 22.1763 41.5768 21.964 41.536C21.7518 41.4951 21.5322 41.518 21.333 41.6016C21.1978 41.6517 21.0747 41.7299 20.972 41.8309C20.8754 41.9371 20.7977 42.0589 20.7422 42.1912C20.6862 42.3224 20.6564 42.4634 20.6547 42.6061C20.659 42.8951 20.7723 43.1719 20.972 43.3812C21.0766 43.4799 21.1991 43.5578 21.333 43.6105ZM19.2763 30.2796C19.2342 30.4172 19.2198 30.5618 19.2339 30.705C19.248 30.8482 19.2903 30.9873 19.3584 31.1141C19.4265 31.2409 19.5191 31.3531 19.6308 31.4441C19.7425 31.5351 19.8711 31.6031 20.0093 31.6444C20.1122 31.6749 20.2192 31.6896 20.3265 31.688C20.5618 31.6887 20.7911 31.6137 20.9803 31.474C21.1695 31.3344 21.3085 31.1376 21.3768 30.9129C21.4562 30.6335 21.4229 30.3341 21.2838 30.079C21.1447 29.8239 20.911 29.6333 20.6328 29.5481C20.3558 29.4666 20.0576 29.4978 19.8035 29.6348C19.5493 29.7718 19.3598 30.0036 19.2763 30.2796ZM21.2345 38.5118C21.162 38.2309 20.9806 37.9903 20.7303 37.8429C20.48 37.6955 20.1813 37.6533 19.8999 37.7257C19.6184 37.7981 19.3773 37.9791 19.2296 38.2289C19.0819 38.4787 19.0396 38.7768 19.1122 39.0577C19.1749 39.2913 19.3127 39.4979 19.5044 39.6458C19.696 39.7937 19.9311 39.8748 20.1734 39.8766C20.2655 39.8764 20.3573 39.8654 20.4469 39.8438C20.5863 39.8082 20.7174 39.7454 20.8325 39.6591C20.9477 39.5729 21.0446 39.4647 21.1178 39.341C21.191 39.2172 21.2389 39.0803 21.259 38.938C21.279 38.7957 21.2707 38.6509 21.2345 38.5118V38.5118ZM18.598 34.6577C18.5951 34.8011 18.6205 34.9437 18.6728 35.0772C18.7252 35.2108 18.8033 35.3328 18.9029 35.4362C19.0025 35.5396 19.1215 35.6225 19.2531 35.68C19.3847 35.7375 19.5264 35.7685 19.6701 35.7714H19.692C19.9074 35.7713 20.1181 35.7078 20.2975 35.5888C20.4769 35.4697 20.6171 35.3005 20.7005 35.1023C20.7839 34.904 20.8068 34.6856 20.7663 34.4745C20.7258 34.2633 20.6238 34.0688 20.473 33.9152C20.3222 33.7617 20.1293 33.656 19.9185 33.6115C19.7078 33.5669 19.4885 33.5854 19.2883 33.6647C19.088 33.744 18.9157 33.8806 18.7929 34.0572C18.6701 34.2339 18.6023 34.4428 18.598 34.6577V34.6577ZM28.1049 22.4077C28.2765 22.4096 28.4458 22.3683 28.5972 22.2876C28.8357 22.1656 29.0211 21.9605 29.1181 21.7111C29.2151 21.4617 29.217 21.1855 29.1235 20.9348C29.0299 20.6841 28.8473 20.4764 28.6105 20.3512C28.3736 20.2259 28.0989 20.1918 27.8385 20.2553C27.5781 20.3189 27.3502 20.4756 27.1979 20.6958C27.0457 20.9159 26.9797 21.1842 27.0125 21.4497C27.0454 21.7152 27.1748 21.9595 27.3761 22.136C27.5775 22.3126 27.8368 22.4093 28.1049 22.4077V22.4077ZM22.613 25.9124C22.3687 25.7827 22.0843 25.7502 21.817 25.8214C21.5497 25.8926 21.3194 26.0623 21.1724 26.2962C21.0254 26.5301 20.9726 26.8109 21.0248 27.082C21.0769 27.3532 21.23 27.5945 21.4533 27.7575C21.6284 27.8631 21.8286 27.9197 22.0332 27.9213C22.271 27.9241 22.5032 27.849 22.6942 27.7073C22.8851 27.5657 23.0241 27.3654 23.09 27.1373C23.1558 26.9092 23.1448 26.6658 23.0586 26.4445C22.9725 26.2232 22.8159 26.0363 22.613 25.9124V25.9124ZM23.9586 22.8553C23.7434 23.0514 23.6146 23.3244 23.6002 23.6148C23.5859 23.9052 23.6872 24.1895 23.882 24.4057C23.9862 24.5156 24.1117 24.6032 24.2509 24.6633C24.3901 24.7233 24.54 24.7545 24.6916 24.7551C24.9655 24.7517 25.2292 24.6511 25.4355 24.4712C25.6502 24.2758 25.7783 24.0032 25.7917 23.7135C25.805 23.4237 25.7025 23.1406 25.5066 22.9263C25.3108 22.712 25.0376 22.5842 24.7473 22.5709C24.457 22.5576 24.1733 22.6599 23.9586 22.8553V22.8553ZM32.4371 20.9665C32.571 20.9138 32.6935 20.8359 32.7981 20.7372C33.0015 20.5303 33.1154 20.252 33.1154 19.9621C33.1154 19.6722 33.0015 19.3939 32.7981 19.1869C32.6935 19.0882 32.571 19.0104 32.4371 18.9576C32.2379 18.874 32.0183 18.8512 31.8061 18.892C31.5938 18.9328 31.3985 19.0354 31.2446 19.1869C31.0413 19.3939 30.9273 19.6722 30.9273 19.9621C30.9273 20.252 31.0413 20.5303 31.2446 20.7372C31.4532 20.9384 31.7313 21.0517 32.0214 21.0539C32.1643 21.0521 32.3056 21.0225 32.4371 20.9665V20.9665ZM49.044 26.5456C48.8325 26.3508 48.5551 26.2426 48.2673 26.2426C47.9794 26.2426 47.7021 26.3508 47.4905 26.5456C47.394 26.6518 47.3163 26.7737 47.2608 26.9059C47.2047 27.0372 47.175 27.1781 47.1733 27.3208C47.1733 27.6104 47.2885 27.8881 47.4937 28.0928C47.6989 28.2976 47.9771 28.4126 48.2673 28.4126C48.5574 28.4126 48.8357 28.2976 49.0409 28.0928C49.246 27.8881 49.3613 27.6104 49.3613 27.3208C49.3595 27.1781 49.3298 27.0372 49.2738 26.9059C49.2183 26.7737 49.1406 26.6518 49.044 26.5456V26.5456ZM48.6392 39.014C48.5773 39.2207 48.5781 39.441 48.6416 39.6471C48.705 39.8533 48.8282 40.0361 48.9956 40.1725C49.163 40.3089 49.3671 40.3928 49.5822 40.4135C49.7973 40.4343 50.0138 40.3909 50.2042 40.2891C50.3947 40.1872 50.5507 40.0313 50.6524 39.841C50.7542 39.6508 50.7973 39.4347 50.7762 39.22C50.755 39.0054 50.6707 38.8018 50.5337 38.635C50.3968 38.4681 50.2134 38.3455 50.0067 38.2825C49.7282 38.201 49.4287 38.232 49.1729 38.3688C48.9171 38.5057 48.7254 38.7374 48.6392 39.014V39.014ZM49.5691 30.0831C49.3096 30.148 49.0828 30.3056 48.9318 30.5261C48.7808 30.7466 48.716 31.0147 48.7497 31.2796C48.7834 31.5446 48.9132 31.788 49.1146 31.9639C49.316 32.1397 49.575 32.2358 49.8426 32.2339C49.9348 32.2338 50.0266 32.2228 50.1161 32.2012C50.2555 32.1653 50.3864 32.1024 50.5014 32.0161C50.6164 31.9298 50.7133 31.8217 50.7864 31.698C50.8595 31.5743 50.9076 31.4374 50.9277 31.2952C50.9479 31.153 50.9397 31.0083 50.9038 30.8692C50.8679 30.7301 50.8049 30.5994 50.7184 30.4847C50.6319 30.3699 50.5236 30.2733 50.3996 30.2003C50.2757 30.1273 50.1385 30.0793 49.9961 30.0592C49.8536 30.0391 49.7085 30.0472 49.5691 30.0831V30.0831ZM47.403 44.0145C47.5743 44.1295 47.7764 44.1904 47.9828 44.1892C48.221 44.1899 48.453 44.1131 48.6434 43.9703C48.8339 43.8275 48.9725 43.6266 49.0381 43.3981C49.1037 43.1695 49.0927 42.9259 49.0069 42.7041C48.9211 42.4823 48.7651 42.2946 48.5627 42.1693C48.4414 42.0808 48.3032 42.0182 48.1566 41.9853C48.01 41.9525 47.8582 41.9501 47.7107 41.9783C47.5631 42.0066 47.423 42.0649 47.299 42.1495C47.175 42.2342 47.0699 42.3434 46.99 42.4705C46.9102 42.5975 46.8574 42.7395 46.835 42.8878C46.8126 43.036 46.8211 43.1873 46.8598 43.3322C46.8986 43.477 46.9668 43.6124 47.0603 43.7298C47.1537 43.8471 47.2704 43.9441 47.403 44.0145V44.0145ZM41.4188 47.6393C41.2 47.7512 41.0253 47.9334 40.9229 48.1565C40.8206 48.3797 40.7965 48.6307 40.8547 48.8692C40.9128 49.1076 41.0498 49.3196 41.2434 49.4708C41.4371 49.6221 41.6762 49.7038 41.9221 49.7028C42.093 49.6993 42.2611 49.6583 42.4144 49.5827C42.5466 49.5201 42.665 49.4316 42.7623 49.3225C42.8597 49.2134 42.9341 49.0859 42.9812 48.9476C43.0283 48.8093 43.0472 48.6629 43.0365 48.5172C43.0259 48.3715 42.9861 48.2294 42.9195 48.0993C42.8529 47.9692 42.7608 47.8538 42.6486 47.7599C42.5365 47.666 42.4066 47.5955 42.2666 47.5526C42.1267 47.5097 41.9796 47.4953 41.8339 47.5102C41.6883 47.525 41.5472 47.569 41.4188 47.6393V47.6393ZM44.5149 46.9951C44.6171 47.1082 44.742 47.1987 44.8814 47.2607C45.0209 47.3228 45.1718 47.355 45.3244 47.3554C45.5954 47.3539 45.8563 47.2528 46.0574 47.0715C46.2182 46.9268 46.3323 46.7377 46.3853 46.5281C46.4383 46.3186 46.4278 46.0981 46.3551 45.8945C46.2825 45.6909 46.1509 45.5135 45.9771 45.3846C45.8033 45.2557 45.5951 45.1812 45.3788 45.1704C45.1625 45.1597 44.9479 45.2133 44.7622 45.3244C44.5765 45.4355 44.4279 45.5991 44.3354 45.7944C44.2429 45.9898 44.2106 46.2082 44.2425 46.422C44.2745 46.6357 44.3692 46.8352 44.5149 46.9951V46.9951ZM51.418 35.2691C51.4223 35.0533 51.3623 34.841 51.2457 34.6591C51.1291 34.4772 50.9611 34.3339 50.7629 34.2473C50.5647 34.1608 50.3452 34.1348 50.1322 34.1727C49.9192 34.2106 49.7223 34.3106 49.5663 34.4602C49.4102 34.6098 49.3022 34.8022 49.2557 35.0131C49.2093 35.224 49.2265 35.4439 49.3053 35.645C49.384 35.8461 49.5208 36.0194 49.6982 36.1429C49.8756 36.2665 50.0858 36.3347 50.3021 36.3391H50.324C50.6104 36.3392 50.8854 36.2271 51.0899 36.0271C51.2945 35.827 51.4123 35.5549 51.418 35.2691ZM37.2179 49.1896C37.0658 49.3427 36.9625 49.5372 36.921 49.7488C36.8795 49.9603 36.9017 50.1794 36.9848 50.3784C37.0678 50.5773 37.208 50.7473 37.3878 50.8669C37.5675 50.9865 37.7786 51.0503 37.9946 51.0503C38.2106 51.0503 38.4218 50.9865 38.6015 50.8669C38.7812 50.7473 38.9214 50.5773 39.0045 50.3784C39.0875 50.1794 39.1097 49.9603 39.0682 49.7488C39.0268 49.5372 38.9235 49.3427 38.7714 49.1896C38.5592 48.996 38.2821 48.8886 37.9946 48.8886C37.7071 48.8886 37.43 48.996 37.2179 49.1896V49.1896ZM59.076 53.9717C59.0776 54.7442 58.8651 55.502 58.4622 56.1615C58.0593 56.821 57.4816 57.3566 56.7928 57.709L35.1174 68.8552C33.6703 69.5933 32.0577 69.9484 30.4338 69.8867C28.8099 69.8249 27.2291 69.3484 25.8425 68.5025L21.7947 66.0198C21.2796 65.7027 20.6866 65.5346 20.0815 65.5339H15.316V67.7175C15.316 68.0071 15.2007 68.2848 14.9956 68.4896C14.7904 68.6943 14.5121 68.8093 14.222 68.8093H7.658C7.36785 68.8093 7.08959 68.6943 6.88443 68.4896C6.67926 68.2848 6.564 68.0071 6.564 67.7175V66.6257H1.094C0.803853 66.6257 0.52559 66.5107 0.320425 66.3059C0.11526 66.1012 0 65.8235 0 65.5339C0 65.2444 0.11526 64.9667 0.320425 64.7619C0.52559 64.5571 0.803853 64.4421 1.094 64.4421H6.564V46.9733H1.094C0.803853 46.9733 0.52559 46.8582 0.320425 46.6535C0.11526 46.4487 0 46.171 0 45.8815C0 45.5919 0.11526 45.3142 0.320425 45.1094C0.52559 44.9047 0.803853 44.7897 1.094 44.7897H6.564V43.6979C6.564 43.4083 6.67926 43.1306 6.88443 42.9258C7.08959 42.7211 7.36785 42.6061 7.658 42.6061H14.222C14.5121 42.6061 14.7904 42.7211 14.9956 42.9258C15.2007 43.1306 15.316 43.4083 15.316 43.6979V45.8815H23.7934C25.9231 45.8857 27.9947 46.5748 29.701 47.8467L37.7496 53.8713C38.5233 54.4485 39.0797 55.2688 39.3293 56.2001L53.1684 50.1231C53.8096 49.842 54.5109 49.7248 55.2089 49.7822C55.9068 49.8396 56.5795 50.0697 57.1659 50.4517C57.7524 50.8338 58.2341 51.3557 58.5676 51.9703C58.9011 52.5849 59.0759 53.2728 59.076 53.9717V53.9717ZM13.128 44.7897H8.752V66.6257H13.128V44.7897ZM56.888 53.9717C56.8885 53.6351 56.8047 53.3036 56.6442 53.0075C56.4837 52.7114 56.2516 52.4601 55.9689 52.2763C55.6863 52.0925 55.3621 51.9822 55.0259 51.9552C54.6896 51.9283 54.352 51.9857 54.0436 52.1222L39.2505 58.6206C39.209 58.7484 39.1772 58.8772 39.1236 59.0028C38.877 59.5769 38.508 60.0905 38.0423 60.5078C37.5765 60.9251 37.0252 61.2361 36.4268 61.4191C35.8283 61.6021 35.1971 61.6528 34.577 61.5675C33.957 61.4822 33.363 61.2631 32.8364 60.9254L24.4126 55.5177C24.288 55.442 24.1799 55.3421 24.0945 55.2241C24.0092 55.106 23.9484 54.9721 23.9156 54.8302C23.8829 54.6883 23.879 54.5413 23.904 54.3979C23.9291 54.2545 23.9826 54.1175 24.0615 53.995C24.1403 53.8725 24.2429 53.7671 24.3633 53.6847C24.4836 53.6024 24.6192 53.545 24.7621 53.5157C24.905 53.4865 25.0524 53.4861 25.1954 53.5145C25.3385 53.543 25.4744 53.5997 25.5952 53.6813L34.0234 59.0923C34.485 59.3896 35.0443 59.4964 35.5833 59.3901C36.1223 59.2838 36.5988 58.9727 36.9124 58.5225C37.226 58.0723 37.3521 57.5182 37.2642 56.9769C37.1763 56.4357 36.8812 55.9497 36.4411 55.6214L28.3882 49.5936C27.061 48.6046 25.4498 48.0686 23.7934 48.0651H15.316V63.3503H20.0815C21.0915 63.3505 22.0816 63.631 22.9412 64.1604L26.989 66.6432C28.0544 67.293 29.2691 67.659 30.5169 67.7062C31.7646 67.7534 33.0036 67.4803 34.1153 66.9129L55.794 55.7677C56.1245 55.5981 56.4016 55.3406 56.5946 55.0236C56.7877 54.7067 56.8892 54.3426 56.888 53.9717V53.9717ZM70.016 24.0454C70.016 24.335 69.9007 24.6127 69.6956 24.8174C69.4904 25.0222 69.2121 25.1372 68.922 25.1372H63.452V26.229C63.452 26.5186 63.3367 26.7963 63.1316 27.001C62.9264 27.2058 62.6481 27.3208 62.358 27.3208H55.794C55.5039 27.3208 55.2256 27.2058 55.0204 27.001C54.8153 26.7963 54.7 26.5186 54.7 26.229V24.0454H46.2226C44.0929 24.0412 42.0213 23.352 40.315 22.0802L32.2664 16.0556C31.4927 15.4784 30.9363 14.6581 30.6867 13.7268L16.8476 19.8038C15.8458 20.2411 14.7128 20.2725 13.6881 19.8915C12.6635 19.5104 11.8274 18.7467 11.3567 17.7617C10.8859 16.7767 10.8173 15.6476 11.1654 14.6131C11.5135 13.5786 12.251 12.7197 13.2221 12.2179L34.8986 1.07169C36.3458 0.334121 37.9583 -0.0207456 39.5821 0.0409949C41.2059 0.102735 42.7868 0.57902 44.1735 1.42434L48.2213 3.9071C48.7364 4.22413 49.3294 4.39232 49.9345 4.39295H54.7V2.20935C54.7 1.91978 54.8153 1.64208 55.0204 1.43733C55.2256 1.23257 55.5039 1.11754 55.794 1.11754H62.358C62.6481 1.11754 62.9264 1.23257 63.1316 1.43733C63.3367 1.64208 63.452 1.91978 63.452 2.20935V3.30115H68.922C69.2121 3.30115 69.4904 3.41618 69.6956 3.62093C69.9007 3.82568 70.016 4.10339 70.016 4.39295C70.016 4.68252 69.9007 4.96022 69.6956 5.16497C69.4904 5.36973 69.2121 5.48476 68.922 5.48476H63.452V22.9536H68.922C69.2121 22.9536 69.4904 23.0686 69.6956 23.2734C69.9007 23.4781 70.016 23.7558 70.016 24.0454ZM54.7 21.8618V6.57656H49.9345C48.9245 6.57635 47.9344 6.29587 47.0748 5.76644L43.027 3.28368C41.9617 2.63361 40.7469 2.26742 39.4991 2.2202C38.2513 2.17298 37.0123 2.44631 35.9007 3.01401L14.222 14.1591C13.8915 14.3288 13.6144 14.5863 13.4214 14.9033C13.2283 15.2202 13.1268 15.5842 13.128 15.9551C13.1275 16.2918 13.2113 16.6232 13.3718 16.9193C13.5323 17.2154 13.7644 17.4668 14.0471 17.6506C14.3297 17.8344 14.6539 17.9447 14.9901 17.9716C15.3264 17.9985 15.664 17.9411 15.9724 17.8047L30.7698 11.3063C30.8114 11.1785 30.8431 11.0497 30.8967 10.9241C31.1433 10.35 31.5124 9.83638 31.9781 9.41907C32.4439 9.00176 32.9952 8.69078 33.5936 8.50777C34.1921 8.32476 34.8233 8.27412 35.4434 8.35938C36.0634 8.44464 36.6574 8.66375 37.184 9.00145L45.6078 14.4092C45.7323 14.4849 45.8405 14.5847 45.9258 14.7028C46.0112 14.8209 46.072 14.9548 46.1047 15.0967C46.1374 15.2386 46.1414 15.3855 46.1164 15.529C46.0913 15.6724 46.0378 15.8094 45.9589 15.9319C45.88 16.0543 45.7774 16.1598 45.6571 16.2421C45.5368 16.3244 45.4012 16.3819 45.2582 16.4111C45.1153 16.4404 44.968 16.4408 44.8249 16.4123C44.6819 16.3839 44.5459 16.3272 44.4252 16.2456L35.9926 10.8346C35.531 10.5373 34.9717 10.4305 34.4327 10.5368C33.8937 10.6431 33.4172 10.9542 33.1036 11.4044C32.79 11.8546 32.6639 12.4087 32.7518 12.9499C32.8397 13.4912 33.1348 13.9772 33.5749 14.3054L41.6278 20.3333C42.955 21.3223 44.5662 21.8583 46.2226 21.8618H54.7ZM61.264 3.30115H56.888V25.1372H61.264V3.30115Z" fill="#2A9DF4"/>
</svg>
