<svg width="92" height="71" viewBox="0 0 92 71" fill="none" xmlns="http://www.w3.org/2000/svg">
<path d="M91.1365 50.9644L91.108 50.9047C91.0368 50.2537 90.8545 49.5061 90.638 48.9831L90.4443 48.6448L90.4529 48.6391L90.0655 47.9853L90.0541 47.9626L85.6307 40.4838H85.6279L84.1724 37.9738C83.4603 36.5411 82.4548 36.1744 82.4548 36.1744H69.8682V34.1704C69.8682 32.4165 68.4184 30.9895 66.6382 30.9895H36.8477C35.0675 30.9895 33.6206 32.4165 33.6206 34.1704V53.1816V55.9361V61.3825C33.6206 63.0823 35.002 64.4638 36.7025 64.4638H41.2826C41.6585 67.8408 44.4983 70.4759 47.9732 70.4759C51.4539 70.4759 54.2936 67.838 54.6696 64.4638H70.5831C70.9591 67.8408 73.8017 70.4759 77.2823 70.4759C80.7629 70.4759 83.6056 67.838 83.9815 64.4638H88.0632C89.7664 64.4638 91.1507 63.0823 91.1507 61.3825L91.1365 50.9644ZM83.654 42.5588L86.8498 47.9598H81.1987L79.9255 42.5588H83.654ZM36.3806 34.1704C36.3806 33.9373 36.5942 33.744 36.8477 33.744H66.6353C66.8888 33.744 67.1053 33.9373 67.1053 34.1704V39.4945V53.1788H36.3806V34.1704ZM47.9704 67.7186C45.7629 67.7186 43.9657 65.9192 43.9657 63.7162C43.9657 61.5075 45.7629 59.7082 47.9704 59.7082C50.1807 59.7082 51.9808 61.5075 51.9808 63.7162C51.9808 65.9221 50.1835 67.7186 47.9704 67.7186ZM77.2795 67.7186C75.0692 67.7186 73.2691 65.9192 73.2691 63.7162C73.2691 61.5075 75.0692 59.7082 77.2795 59.7082C79.4926 59.7082 81.2899 61.5075 81.2899 63.7162C81.2899 65.9221 79.4926 67.7186 77.2795 67.7186ZM88.0575 61.7008H83.7109C82.8479 58.9577 80.3072 56.9537 77.2795 56.9537C74.2517 56.9537 71.711 58.9577 70.848 61.7008H54.4047C53.5388 58.9577 51.001 56.9537 47.9732 56.9537C44.9483 56.9537 42.4105 58.9577 41.5503 61.7008H36.7025C36.5287 61.7008 36.3835 61.5559 36.3835 61.3796V55.9332H69.8682V39.2501C69.8682 39.071 70.0134 38.9346 70.19 38.9346H81.4095L82.0333 39.8015H73.9555C72.6595 39.8015 71.6056 40.8561 71.6056 42.1552V48.3748C71.6056 49.6682 72.6595 50.7171 73.9555 50.7171H88.2853C88.3338 50.9502 88.3708 51.1833 88.3822 51.3709L88.3879 61.3796C88.3822 61.5559 88.2369 61.7008 88.0575 61.7008ZM78.6865 47.9598H74.3628V42.5588H77.4133L78.6865 47.9598Z" fill="#2F80ED"/>
<path d="M34.9943 67.6191C29.8787 67.6191 25.2645 61.8458 22.533 53.2555C25.2075 52.9059 28.053 52.7069 30.9554 52.5846V49.8359C27.7909 49.9638 24.6834 50.1855 21.7668 50.5863C20.71 46.456 20.0834 41.8084 19.978 36.9277H30.9554V34.1675H19.9809C20.0863 29.2811 20.7129 24.6335 21.7696 20.5032C25.9224 21.0746 30.3829 21.3929 34.9943 21.3929C39.6086 21.3929 44.0719 21.0774 48.2247 20.5089C48.8542 22.9677 49.3099 25.6227 49.6147 28.3914H52.4032C52.1012 25.4664 51.6427 22.6721 50.9989 20.0853C54.9496 19.4088 58.5099 18.4707 61.5206 17.3081C63.8021 20.6112 65.4513 24.3577 66.3656 28.3885H69.2424C65.9241 12.5496 51.8307 0.616455 34.9943 0.616455C15.697 0.624983 0 16.2933 0 35.5462C0 54.8047 15.697 70.473 34.9943 70.473C37.0764 70.473 39.1073 70.257 41.0954 69.9074C40.1725 68.8926 39.4918 67.6703 39.093 66.32C37.7828 67.1359 36.4099 67.6191 34.9943 67.6191ZM59.7888 15.0198C57.026 16.0148 53.8102 16.8306 50.2612 17.4247C48.5579 11.8731 46.0913 7.37613 43.1148 4.45395C49.7343 6.18224 55.542 9.92309 59.7888 15.0198ZM34.9943 3.47326C40.1099 3.47326 44.7241 9.24655 47.4585 17.8369C43.5478 18.3542 39.3437 18.6356 34.9943 18.6356C30.6449 18.6356 26.4465 18.3514 22.533 17.8369C25.2673 9.24655 29.8816 3.47326 34.9943 3.47326ZM26.8766 4.45679C23.8973 7.37613 21.4307 11.8731 19.7302 17.4247C16.1812 16.8306 12.9655 16.0148 10.2026 15.0198C14.4495 9.9174 20.2572 6.17656 26.8766 4.45679ZM8.46802 17.3138C11.4844 18.4736 15.0448 19.4116 18.9925 20.091C17.9386 24.3435 17.3149 29.0963 17.218 34.1704H2.83122C3.09896 27.9337 5.12411 22.1434 8.46802 17.3138ZM2.83122 36.9277H17.218C17.3149 41.996 17.9386 46.7488 18.9925 51.0013C15.0419 51.6835 11.4815 52.6216 8.46517 53.7785C5.12411 48.949 3.09896 43.1643 2.83122 36.9277ZM10.1998 56.0725C12.9655 55.0776 16.1812 54.2618 19.7331 53.6677C21.4364 59.2249 23.903 63.7219 26.8852 66.6469C20.26 64.9215 14.4466 61.1806 10.1998 56.0725Z" fill="#2F80ED"/>
</svg>
