<svg width="33" height="33" viewBox="0 0 33 33" fill="none" xmlns="http://www.w3.org/2000/svg">
<path d="M16.4285 0.326172C7.5918 0.326172 0.428467 7.48951 0.428467 16.3262C0.428467 25.1628 7.5918 32.3262 16.4285 32.3262C25.2651 32.3262 32.4285 25.1628 32.4285 16.3262C32.4285 7.48951 25.2651 0.326172 16.4285 0.326172ZM12.5118 22.9578H9.2718V12.5312H12.5118V22.9578ZM10.8718 11.2512C9.84847 11.2512 9.1868 10.5262 9.1868 9.6295C9.1868 8.7145 9.86847 8.01117 10.9135 8.01117C11.9585 8.01117 12.5985 8.7145 12.6185 9.6295C12.6185 10.5262 11.9585 11.2512 10.8718 11.2512ZM24.3451 22.9578H21.1051V17.1795C21.1051 15.8345 20.6351 14.9212 19.4635 14.9212C18.5685 14.9212 18.0368 15.5395 17.8018 16.1345C17.7151 16.3462 17.6935 16.6462 17.6935 16.9445V22.9562H14.4518V15.8562C14.4518 14.5545 14.4101 13.4662 14.3668 12.5295H17.1818L17.3301 13.9778H17.3951C17.8218 13.2978 18.8668 12.2945 20.6151 12.2945C22.7468 12.2945 24.3451 13.7228 24.3451 16.7928V22.9578V22.9578Z" fill="#444B51"/>
</svg>
