<svg width="12" height="16" viewBox="0 0 12 16" fill="none" xmlns="http://www.w3.org/2000/svg">
<path d="M1.86633 0.46705L3.1574 0.0777966C3.58349 -0.0504663 4.0417 -0.0193459 4.44654 0.165353C4.85138 0.350051 5.17521 0.675714 5.35761 1.08159L6.26276 3.09451C6.41986 3.44372 6.46365 3.83337 6.38798 4.20874C6.31231 4.5841 6.12098 4.92635 5.84085 5.18742L4.46313 6.47116C4.2785 6.64645 4.41847 7.32965 5.093 8.49874C5.7682 9.6685 6.29009 10.1311 6.53071 10.0591L8.33567 9.5072C8.70154 9.39529 9.09325 9.40068 9.45591 9.5226C9.81856 9.64452 10.134 9.87686 10.3579 10.1871L11.6443 11.97C11.9042 12.3301 12.0245 12.7722 11.9829 13.2142C11.9414 13.6563 11.7408 14.0682 11.4184 14.3735L10.4239 15.3153C10.1029 15.6194 9.70695 15.8328 9.27651 15.9338C8.84607 16.0349 8.39653 16.02 7.97375 15.8906C5.89017 15.2527 3.96057 13.3597 2.15893 10.2384C0.353304 7.11236 -0.328557 4.47556 0.14668 2.32134C0.24253 1.88726 0.45241 1.4866 0.754686 1.16066C1.05696 0.834718 1.44069 0.595288 1.86633 0.46705V0.46705Z" fill="#E24329"/>
</svg>
