<svg width="33" height="33" viewBox="0 0 33 33" fill="none" xmlns="http://www.w3.org/2000/svg">
<path d="M16.8574 0.326172C8.02171 0.326172 0.857422 7.49046 0.857422 16.3262C0.857422 25.1619 8.02171 32.3262 16.8574 32.3262C25.6931 32.3262 32.8574 25.1619 32.8574 16.3262C32.8574 7.49046 25.6931 0.326172 16.8574 0.326172ZM24.5467 12.3869C24.5574 12.5547 24.5574 12.7297 24.5574 12.9012C24.5574 18.144 20.5646 24.1833 13.2681 24.1833C11.0181 24.1833 8.93242 23.5297 7.17528 22.4047C7.49671 22.4405 7.80385 22.4547 8.13242 22.4547C9.98957 22.4547 11.6967 21.8262 13.0574 20.7619C11.3146 20.7262 9.85028 19.5833 9.35028 18.0119C9.96099 18.1012 10.511 18.1012 11.1396 17.9405C10.2422 17.7581 9.43555 17.2708 8.85677 16.5611C8.27798 15.8515 7.96273 14.9633 7.96457 14.0476V13.9976C8.48957 14.294 9.10742 14.4762 9.75385 14.5012C9.21043 14.139 8.76477 13.6484 8.45639 13.0727C8.14801 12.4971 7.98643 11.8542 7.98599 11.2012C7.98599 10.4619 8.17885 9.78689 8.52528 9.20117C9.52136 10.4274 10.7643 11.4303 12.1734 12.1446C13.5824 12.859 15.126 13.2689 16.7039 13.3476C16.1431 10.6512 18.1574 8.46903 20.5789 8.46903C21.7217 8.46903 22.7503 8.9476 23.4753 9.71903C24.3717 9.55117 25.2289 9.21546 25.9931 8.76546C25.6967 9.68331 25.0753 10.4583 24.2503 10.9476C25.0503 10.8619 25.8217 10.6405 26.536 10.3297C25.9967 11.1226 25.3217 11.8262 24.5467 12.3869V12.3869Z" fill="#444B51"/>
</svg>
