<svg width="370" height="194" viewBox="0 0 370 194" fill="none" xmlns="http://www.w3.org/2000/svg">
<path d="M12.2984 39.3261C13.8186 39.3261 15.0509 38.0937 15.0509 36.5736C15.0509 35.0534 13.8186 33.821 12.2984 33.821C10.7782 33.821 9.5459 35.0534 9.5459 36.5736C9.5459 38.0937 10.7782 39.3261 12.2984 39.3261Z" fill="#EA0535"/>
<path d="M24.213 39.3258C25.7331 39.3258 26.9655 38.0935 26.9655 36.5733C26.9655 35.0531 25.7331 33.8208 24.213 33.8208C22.6928 33.8208 21.4604 35.0531 21.4604 36.5733C21.4604 38.0935 22.6928 39.3258 24.213 39.3258Z" fill="#EA0535"/>
<path d="M26.777 15.4254C26.4712 15.035 26.1328 14.651 25.7619 14.2932C23.8618 12.4451 21.5844 11.4495 18.975 11.3454C18.8123 11.3389 18.6431 11.3324 18.4805 11.3324H12.2531V5.18969C12.2531 5.16366 12.2466 5.14414 12.2466 5.11811C12.2401 5.09208 12.2401 5.05955 12.2401 5.03352L12.2336 4.90338H12.2531V0.836426H0.130371C0.162907 1.92312 0.572855 2.87966 1.36672 3.66702C2.18662 4.48692 3.18221 4.90338 4.32747 4.90338H8.1927V21.4705C8.1927 22.8695 8.44647 24.184 8.94752 25.3813C9.44857 26.5786 10.2164 27.6848 11.225 28.6804C13.2422 30.6651 15.6824 31.6672 18.4805 31.6672C18.8774 31.6672 19.2808 31.6476 19.6973 31.6021C21.9878 31.3548 24.0245 30.3723 25.7554 28.6804C26.2369 28.2054 26.6729 27.6978 27.0503 27.1707C28.2151 25.5179 28.8073 23.6048 28.8073 21.477C28.8008 19.1865 28.1175 17.1563 26.777 15.4254ZM24.441 22.7199C24.2197 23.8977 23.6666 24.9453 22.7882 25.8563C21.9813 26.7022 21.0378 27.2488 19.9836 27.5091C19.5021 27.6262 19.001 27.6978 18.4674 27.6978C16.7626 27.6978 15.3245 27.0862 14.1467 25.8563C13.4114 25.0885 12.9039 24.2295 12.624 23.273C12.4614 22.7069 12.3768 22.1017 12.3768 21.4705V19.5574V15.3473V15.2952H18.4609C19.7168 15.2952 20.823 15.6271 21.7926 16.2843C22.1375 16.5186 22.4693 16.7919 22.7752 17.1107C23.9529 18.3211 24.5451 19.7722 24.5451 21.4705C24.5516 21.9065 24.5126 22.3229 24.441 22.7199Z" fill="url(#paint0_linear_30_515)"/>
<path d="M12.3831 0.719069V0.706055H0C0 1.89035 0.422963 2.90546 1.2754 3.75789C2.12783 4.60382 3.14294 5.03329 4.32724 5.03329H8.06232V5.06583C8.90825 3.26986 10.2878 1.90987 12.3831 0.719069Z" fill="url(#paint1_linear_30_515)"/>
<path d="M18.467 15.2949C19.7228 15.2949 20.8291 15.6267 21.7986 16.284C21.265 14.2277 20.3671 12.4773 18.981 11.2149C18.8184 11.2084 18.6492 11.2019 18.48 11.2019H12.3828V15.2949H18.467Z" fill="url(#paint2_linear_30_515)"/>
<path d="M21.8053 16.2841C22.1502 16.5184 22.482 16.7917 22.7879 17.1105C23.9657 18.3209 24.5578 19.772 24.5578 21.4703C24.5578 21.8998 24.5188 22.3162 24.4407 22.7197C26.9394 20.5008 27.2322 17.6116 26.8808 15.3471C26.575 14.9502 26.2301 14.5663 25.8527 14.2019C23.9201 12.3213 21.6296 11.3257 18.9812 11.2151C20.3672 12.4775 21.2717 14.2214 21.8053 16.2841Z" fill="url(#paint3_linear_30_515)"/>
<path d="M19.9833 27.5154C19.5018 27.6326 19.0008 27.7041 18.4672 27.7041C16.7623 27.7041 15.3242 27.0925 14.1464 25.8626C13.4111 25.0948 12.9036 24.2358 12.6238 23.2793C12.8841 27.7432 15.9815 30.6258 19.7035 31.7255C22.0331 31.4718 24.0763 30.4892 25.8332 28.7713C26.3278 28.2833 26.7638 27.7757 27.1412 27.2421C24.9157 28.2312 22.391 28.4655 19.9833 27.5154Z" fill="url(#paint4_linear_30_515)"/>
<path d="M12.3832 7.61654V5.18939C12.3832 5.13082 12.3702 5.08527 12.3702 5.02671H12.3832V0.718994C10.2879 1.9098 8.90843 3.26979 8.0625 5.06575V8.03951V12.2626C8.84986 10.4471 10.2359 8.99605 12.3832 7.61654Z" fill="url(#paint5_linear_30_515)"/>
<path d="M12.6302 23.2793C12.4676 22.7132 12.383 22.1081 12.383 21.4769V19.5638V15.3472C10.2226 18.2428 9.18146 21.8608 8.83008 25.4332C9.34414 26.65 10.112 27.7628 11.1401 28.7714C13.1899 30.7886 15.6365 31.7972 18.4866 31.7972C18.9031 31.7972 19.3131 31.7711 19.7165 31.7321C15.9879 30.6194 12.8905 27.7432 12.6302 23.2793Z" fill="url(#paint6_linear_30_515)"/>
<path d="M26.8809 15.3472C27.2323 17.6116 26.9395 20.5008 24.4408 22.7197C24.2195 23.8975 23.6664 24.9452 22.788 25.8562C21.9811 26.7021 21.0376 27.2487 19.9834 27.509C22.391 28.459 24.9158 28.2313 27.1477 27.2357C28.332 25.5503 28.9307 23.6307 28.9307 21.4704C28.9307 19.1473 28.2474 17.1041 26.8809 15.3472Z" fill="url(#paint7_linear_30_515)"/>
<path d="M12.3832 15.295V11.202V9.44512V8.03307V7.61011C10.2359 8.98962 8.84986 10.4472 8.0625 12.2562V21.4703C8.0625 22.8953 8.31628 24.2098 8.83034 25.4266C9.18172 21.8542 10.2294 18.2427 12.3832 15.3406V15.295Z" fill="url(#paint8_linear_30_515)"/>
<path d="M40.7345 10.9939C43.552 10.9939 45.9792 11.9895 48.0094 13.9872C50.0396 15.9849 51.0547 18.3925 51.0547 21.2101C51.0547 24.0277 50.0396 26.4288 48.0094 28.407C45.9792 30.3851 43.5585 31.3742 40.7345 31.3742C37.9169 31.3742 35.4962 30.3851 33.4725 28.407C31.4488 26.4288 30.4402 24.0277 30.4402 21.2101C30.4402 18.3925 31.4488 15.9849 33.4725 13.9872C35.4962 11.9895 37.9169 10.9939 40.7345 10.9939ZM40.7345 15.0413C39.0556 15.0413 37.6306 15.6465 36.4658 16.8633C35.301 18.0802 34.7219 19.5247 34.7219 21.2036C34.7219 22.8824 35.301 24.327 36.4658 25.5178C37.6306 26.7151 39.0491 27.3138 40.7345 27.3138C42.4133 27.3138 43.8449 26.7151 45.0161 25.5178C46.1874 24.3205 46.7731 22.8824 46.7731 21.2036C46.7731 19.5247 46.1874 18.0736 45.0161 16.8633C43.8449 15.653 42.4198 15.0413 40.7345 15.0413Z" fill="#444B51"/>
<path d="M69.0343 21.2101C69.0343 19.5443 68.4487 18.0997 67.2774 16.8763C66.1061 15.653 64.6875 15.0413 63.0217 15.0413C61.3429 15.0413 59.9113 15.6465 58.74 16.8633C57.5687 18.0802 56.9831 19.5247 56.9831 21.2036V27.086C56.9831 28.2573 56.5601 29.2659 55.7207 30.1053C54.8813 30.9447 53.8727 31.3677 52.7014 31.3677V21.2101C52.7014 18.3925 53.71 15.9849 55.7337 13.9872C57.7575 11.9895 60.1846 10.9939 63.0217 10.9939C65.8393 10.9939 68.2599 11.9895 70.2837 13.9872C72.3009 15.9849 73.316 18.3925 73.316 21.2101V31.3742C72.1447 31.3742 71.1361 30.9512 70.2967 30.1118C69.4573 29.2724 69.0343 28.2638 69.0343 27.0925V21.2101Z" fill="#444B51"/>
<path d="M79.5822 31.3742C78.4109 31.3742 77.4023 30.9512 76.5629 30.1118C75.7235 29.2724 75.3005 28.2638 75.3005 27.0925V10.9939C76.4718 10.9939 77.4804 11.4169 78.3198 12.2563C79.1593 13.0957 79.5822 14.1043 79.5822 15.2756V31.3742Z" fill="#444B51"/>
<path d="M85.9785 31.4784H81.6968V6.02905C82.8681 6.02905 83.8767 6.45202 84.7161 7.29143C85.5555 8.13085 85.9785 9.13946 85.9785 10.3107V19.4793H91.6332C93.299 19.4793 94.7175 18.8676 95.8888 17.6443C97.0601 16.4209 97.6457 14.9763 97.6457 13.317V11.4039H101.927V13.317C101.927 14.9503 101.557 16.4795 100.821 17.9176C100.079 19.3556 99.0578 20.5529 97.7498 21.5225C99.0578 22.4921 100.079 23.6894 100.821 25.1275C101.563 26.5655 101.927 28.0882 101.927 29.702V31.4849H97.6457V29.702C97.6457 28.0361 97.0601 26.5916 95.8888 25.3747C94.7175 24.1514 93.299 23.5397 91.6332 23.5397H85.9785V31.4784Z" fill="#444B51"/>
<path d="M159.386 25.4851C160.231 26.0512 161.155 26.331 162.151 26.331C162.919 26.331 163.719 26.1683 164.546 25.843C165.457 25.4721 166.107 25.0101 166.498 24.457L169.543 26.5913C168.808 27.652 167.715 28.5044 166.27 29.1486C164.904 29.7668 163.531 30.0791 162.151 30.0791C160.706 30.0791 159.327 29.7212 158.013 29.0054C156.666 28.2701 155.637 27.2876 154.922 26.0772C154.544 25.4395 154.258 24.7758 154.076 24.0926C153.894 23.3963 153.796 22.6935 153.796 21.9777C153.796 19.7393 154.59 17.8327 156.171 16.245C157.752 14.6637 159.665 13.8699 161.904 13.8699C163.544 13.8699 165.047 14.3319 166.413 15.2559C168.099 16.3881 169.25 18.08 169.882 20.338L159.386 25.4851ZM165.164 19.0495C164.403 17.9238 163.316 17.3577 161.91 17.3577C160.498 17.3577 159.346 17.8913 158.455 18.9519C157.622 20.0581 157.336 21.327 157.609 22.7586L165.164 19.0495Z" fill="#FF6A00"/>
<path d="M176.941 6.51709V21.2817C176.941 22.7263 177.241 23.8586 177.839 24.685C178.165 25.1405 178.575 25.5049 179.063 25.7782C179.466 26.0059 179.961 26.123 180.559 26.123C180.722 26.123 180.885 26.11 181.047 26.0905C181.581 26.0124 182.407 25.7131 183.54 25.1795L184.991 28.778C183.793 29.5393 182.596 29.9688 181.392 30.0664C180.924 30.0794 180.488 30.0794 180.071 30.0794C179.05 30.0794 178.106 29.8451 177.241 29.3766C176.141 28.804 175.25 28.0166 174.553 27.034C173.447 25.5049 172.894 23.5853 172.894 21.2883V6.51709H176.941Z" fill="#FF6A00"/>
<path d="M191.329 6.51709V10.571H187.275V6.51709H191.329ZM191.329 13.8571V30.0729H187.275V13.8571H191.329Z" fill="#FF6A00"/>
<path d="M198.611 13.8569L204.194 25.1728L209.777 13.8569H214.286L207.187 28.2507C206.907 28.8233 206.484 29.2788 205.918 29.6042C205.384 29.9165 204.812 30.0792 204.194 30.0792C203.575 30.0792 202.996 29.923 202.469 29.6042C201.903 29.2788 201.48 28.8298 201.2 28.2507L194.101 13.8569H198.611Z" fill="#FF6A00"/>
<path d="M221.99 25.4851C222.836 26.0512 223.76 26.331 224.756 26.331C225.524 26.331 226.324 26.1683 227.151 25.843C228.062 25.4721 228.712 25.0101 229.103 24.457L232.148 26.5913C231.413 27.652 230.32 28.5044 228.875 29.1486C227.509 29.7668 226.136 30.0791 224.756 30.0791C223.311 30.0791 221.932 29.7212 220.618 29.0054C219.271 28.2701 218.242 27.2876 217.527 26.0772C217.149 25.4395 216.863 24.7758 216.681 24.0926C216.498 23.3963 216.401 22.6935 216.401 21.9777C216.401 19.7393 217.195 17.8327 218.776 16.245C220.357 14.6637 222.27 13.8699 224.509 13.8699C226.149 13.8699 227.652 14.3319 229.018 15.2559C230.704 16.3881 231.855 18.08 232.486 20.338L221.99 25.4851ZM227.769 19.0495C227.007 17.9238 225.921 17.3577 224.515 17.3577C223.103 17.3577 221.951 17.8913 221.06 18.9519C220.227 20.0581 219.941 21.327 220.214 22.7586L227.769 19.0495Z" fill="#FF6A00"/>
<path d="M244.264 17.9109C242.963 17.9109 241.85 18.3729 240.926 19.2969C239.996 20.2339 239.527 21.3466 239.527 22.6481V30.0727H235.493V22.6481C235.493 20.2144 236.352 18.1451 238.063 16.4272C239.781 14.7094 241.844 13.8569 244.264 13.8569C247.01 14.0652 249.093 15.1974 250.518 17.2602L247.427 19.2774C246.529 18.3664 245.475 17.9109 244.264 17.9109Z" fill="#FF6A00"/>
<path d="M261.066 33.476C262.38 33.476 263.519 32.9945 264.489 32.0249C265.452 31.0618 265.94 29.9231 265.94 28.6217V26.9428C264.899 28.5696 263.317 29.383 261.202 29.383C258.782 29.383 256.713 28.5241 255.001 26.8127C253.283 25.0948 252.431 23.0321 252.431 20.6114V13.844H256.485V20.6179C256.485 21.9193 256.947 23.0321 257.871 23.9561C258.795 24.8801 259.908 25.3421 261.209 25.3421C262.523 25.3421 263.643 24.8801 264.56 23.9561C265.484 23.0321 265.946 21.9193 265.946 20.6179V13.844H270V28.6282C270 31.0358 269.122 33.1051 267.365 34.8295C265.608 36.5473 263.512 37.3998 261.079 37.3998C257.181 37.3998 254.272 35.7795 252.353 32.5324L255.691 30.5478C256.836 32.4999 258.632 33.476 261.066 33.476Z" fill="#FF6A00"/>
<path d="M142.825 16.4795C141.491 15.1456 139.877 14.4753 137.99 14.4753H135.641V18.5878V19.3817V21.3859V23.3901V24.184V28.2965H137.99C139.877 28.2965 141.484 27.6262 142.825 26.2923C144.159 24.9583 144.829 23.338 144.829 21.4445C144.829 21.4249 144.829 21.4054 144.829 21.3924C144.829 21.3729 144.829 21.3534 144.829 21.3404C144.829 19.4338 144.159 17.82 142.825 16.4795Z" fill="#E24329"/>
<path d="M151.818 19.4076C150.965 12.3539 145.018 6.58861 137.899 6.43244C131.88 6.3023 125.861 6.38689 119.835 6.38689C119.178 6.38689 118.312 6.24373 118.364 7.3109C118.416 8.33252 119.249 8.17635 119.913 8.17635C123.98 8.18285 128.047 8.18285 132.114 8.18285C133.22 8.18285 134.632 7.99415 134.619 9.57538C134.613 11.1761 133.838 10.9224 132.088 10.9224C128.971 10.9224 125.854 10.9289 122.737 10.9224C122.008 10.9224 121.228 10.9874 121.241 11.9049C121.254 12.7964 122.034 12.894 122.763 12.9005C123.238 12.907 123.713 12.894 124.188 12.907C125.268 12.9396 126.739 12.6337 126.746 14.228C126.752 15.9068 125.229 15.6335 124.097 15.64C120.609 15.653 117.128 15.653 113.64 15.64C112.905 15.64 112.137 15.6921 112.144 16.6161C112.15 17.5206 112.95 17.5922 113.653 17.6312C113.972 17.6507 114.284 17.6377 114.603 17.6377C117.668 17.6377 120.733 17.6377 123.791 17.6377V17.6442C126.544 17.6442 129.296 17.6442 132.042 17.6442V13.7985C132.042 12.9981 132.329 12.3149 132.908 11.7357C133.474 11.1696 134.157 10.8833 134.958 10.8833H137.99C140.866 10.8833 143.326 11.9049 145.362 13.9417C147.399 15.9719 148.421 18.4316 148.421 21.3272C148.421 21.3468 148.421 21.3663 148.421 21.3793C148.421 21.3988 148.421 21.4183 148.421 21.4314C148.421 24.327 147.399 26.7867 145.362 28.8169C143.326 30.8537 140.866 31.8753 137.99 31.8753H134.958C134.157 31.8753 133.474 31.589 132.908 31.0229C132.329 30.4437 132.042 29.7605 132.042 28.9601V25.1144C129.29 25.1144 126.537 25.1144 123.791 25.1144V25.1209C120.726 25.1209 117.662 25.1209 114.603 25.1209C114.284 25.1209 113.966 25.1079 113.653 25.1274C112.95 25.1664 112.15 25.238 112.144 26.1425C112.137 27.0665 112.911 27.1186 113.64 27.1186C117.128 27.1121 120.609 27.1121 124.097 27.1186C125.229 27.1251 126.752 26.8518 126.746 28.5306C126.746 30.1249 125.268 29.819 124.188 29.8516C123.713 29.8646 123.238 29.8516 122.763 29.8581C122.041 29.8646 121.26 29.9622 121.241 30.8537C121.228 31.7712 122.002 31.8362 122.737 31.8362C125.854 31.8297 128.971 31.8362 132.088 31.8362C133.845 31.8362 134.613 31.5825 134.619 33.1832C134.626 34.7644 133.22 34.5757 132.114 34.5757C128.047 34.5757 123.98 34.5692 119.913 34.5822C119.249 34.5822 118.41 34.4261 118.364 35.4477C118.312 36.5214 119.178 36.3717 119.835 36.3717C125.854 36.3782 131.88 36.4563 137.899 36.3262C145.018 36.17 150.965 30.4047 151.818 23.351C151.896 22.6807 151.941 22.0235 151.948 21.3728C151.935 20.7351 151.896 20.0779 151.818 19.4076Z" fill="#E24329"/>
<path d="M121.371 22.3813C124.93 22.4269 128.49 22.4139 132.049 22.4074V21.3857V20.3641C128.49 20.3576 124.93 20.3446 121.371 20.3901C120.492 20.4032 118.957 19.8305 118.983 21.3402C118.983 21.3597 118.989 21.3727 118.989 21.3857C118.989 21.4053 118.983 21.4183 118.983 21.4313C118.95 22.9409 120.492 22.3683 121.371 22.3813Z" fill="#E24329"/>
<path d="M106.17 31.4782C107.611 31.4782 108.78 30.31 108.78 28.8689C108.78 27.4278 107.611 26.2595 106.17 26.2595C104.729 26.2595 103.561 27.4278 103.561 28.8689C103.561 30.31 104.729 31.4782 106.17 31.4782Z" fill="#444B51"/>
<path d="M2.34 78.8582H5.22V88.3262H6.912V75.7262H5.724C5.526 77.0942 4.248 77.9762 2.718 77.9762H2.34V78.8582ZM14.4485 88.7042C15.3845 88.7042 18.8585 88.4882 18.8585 82.0262C18.8585 75.5642 15.3845 75.3482 14.4485 75.3482C13.5125 75.3482 10.0385 75.5642 10.0385 82.0262C10.0385 88.4882 13.5125 88.7042 14.4485 88.7042ZM14.4485 87.2822C12.4325 87.2822 11.7125 84.8882 11.7125 82.0262C11.7125 79.1642 12.4325 76.7702 14.4485 76.7702C16.4645 76.7702 17.1845 79.1642 17.1845 82.0262C17.1845 84.8882 16.4645 87.2822 14.4485 87.2822ZM19.6699 91.6562H20.8039L27.2299 75.7262H26.0959L19.6699 91.6562ZM28.7585 75.7262V88.3262H34.0865C37.6685 88.3262 38.5865 86.6162 38.5865 84.8162C38.5865 82.5662 36.9845 81.8642 35.9405 81.6842V81.6302C37.1285 81.4502 38.0465 80.2802 38.0465 78.9302C38.0465 77.4542 37.3445 75.7262 34.2845 75.7262H28.7585ZM30.4505 77.1482H33.9065C36.0125 77.1482 36.3185 78.3902 36.3185 79.1102C36.3185 80.1542 35.7065 81.0722 33.8525 81.0722H30.4505V77.1482ZM30.4505 82.4942H33.9605C35.7245 82.4942 36.8585 83.0522 36.8585 84.6722C36.8585 86.7242 35.1305 86.9042 33.9605 86.9042H30.4505V82.4942ZM41.5467 86.3642V88.3262H42.4467V88.8842C42.4467 89.4422 42.0507 89.9462 41.5467 90.0002V90.9902C42.2487 90.8462 43.3287 90.3242 43.3287 88.8842V86.3642H41.5467ZM52.6517 82.4042H58.9877V88.3262H60.6797V75.7262H58.9877V80.9822H52.6517V75.7262H50.9597V88.3262H52.6517V82.4042ZM62.983 83.7542C62.983 86.1842 64.153 88.6862 67.483 88.6862C70.813 88.6862 71.983 86.1842 71.983 83.7542C71.983 81.3242 70.813 78.8222 67.483 78.8222C64.153 78.8222 62.983 81.3242 62.983 83.7542ZM64.657 83.7362C64.657 80.0642 66.781 79.9022 67.483 79.9022C68.185 79.9022 70.309 80.0642 70.309 83.7362C70.309 87.4082 68.185 87.5702 67.483 87.5702C66.781 87.5702 64.657 87.4082 64.657 83.7362ZM81.7739 88.3262V79.1822H80.1899V84.1682C80.1899 84.8162 80.2259 87.5702 77.5619 87.5702C76.4279 87.5702 75.6359 87.0842 75.6359 84.7802V79.1822H74.0519V85.2482C74.0519 86.6162 74.3579 88.6862 77.0579 88.6862C77.3819 88.6862 79.2359 88.6142 80.1539 87.0302H80.1899V88.3262H81.7739ZM83.7222 85.6082C83.7762 87.2822 85.0542 88.6862 87.7722 88.6862C88.1862 88.6862 91.5342 88.6142 91.5342 85.7342C91.5342 83.8442 90.1482 83.5022 88.2762 83.0702C86.9622 82.7822 85.7562 82.6742 85.7562 81.3782C85.7562 79.9202 87.4482 79.9382 87.6462 79.9382C89.4642 79.9382 89.7342 81.0542 89.7882 81.5762H91.3002C91.2102 80.5682 90.7062 78.8222 87.5922 78.8222C85.9362 78.8222 84.1182 79.4162 84.1182 81.4502C84.1182 83.3762 85.4682 83.7722 86.9982 84.1142L87.9702 84.3302C89.7522 84.7622 89.8962 85.2482 89.8962 85.8422C89.8962 86.2202 89.9142 87.5702 87.7902 87.5702C86.5662 87.5702 85.3602 87.0662 85.3062 85.6082H83.7222ZM100.064 85.6802C99.8657 86.6882 99.0557 87.5702 97.5257 87.5702C95.4377 87.5702 94.6277 85.6802 94.6277 84.1142H101.666C101.666 83.9702 101.648 83.8082 101.648 83.6642C101.558 81.6842 101.072 78.8222 97.4177 78.8222C93.1877 78.8222 92.9537 82.5302 92.9537 83.7902C92.9537 84.6182 93.0437 88.6862 97.5797 88.6862C100.388 88.6862 101.342 86.9762 101.576 85.6802H100.064ZM94.6277 82.9982C94.6277 81.8462 95.1137 79.9382 97.4537 79.9382C99.5237 79.9382 99.9377 81.7742 99.9917 82.9982H94.6277ZM109.231 88.1462L109.699 85.1222H112.111L112.345 83.5922H109.933L110.437 80.3702H112.849L113.083 78.8402H110.671L111.139 75.8342H109.915L109.447 78.8402H106.873L107.341 75.8342H106.117L105.649 78.8402H103.237L103.003 80.3702H105.415L104.911 83.5922H102.499L102.265 85.1222H104.677L104.209 88.1462H105.433L105.901 85.1222H108.475L108.007 88.1462H109.231ZM108.709 83.5922H106.135L106.639 80.3702H109.213L108.709 83.5922ZM117.808 84.4922C117.862 86.1662 118.564 88.7042 122.218 88.7042C124.72 88.7042 126.556 87.2822 126.556 84.8162C126.556 82.9082 125.404 81.8102 124.126 81.6302V81.5942C125.35 81.2522 126.196 80.1902 126.196 78.8042C126.196 77.8142 125.71 75.3482 122.2 75.3482C118.33 75.3482 118.132 78.4622 118.132 79.5602H119.698C119.698 76.7702 121.552 76.6982 122.146 76.6982C124.126 76.6982 124.63 77.8682 124.63 78.8762C124.63 81.0362 122.416 81.0542 121.876 81.0542H121.372V82.4222H122.668C124.09 82.4222 124.972 83.3042 124.972 84.6902C124.972 85.4822 124.72 87.3542 122.11 87.3542C119.878 87.3542 119.572 85.5002 119.482 84.9062C119.464 84.7622 119.446 84.6362 119.428 84.4922H117.808ZM137.087 86.9042H130.427C130.661 85.9862 131.363 85.2302 133.073 84.1502C136.007 82.2782 137.123 81.5402 137.123 79.1642C137.123 76.7702 135.485 75.3482 132.911 75.3482C129.077 75.3482 128.591 78.2282 128.591 79.3622V79.7402H130.247V79.2722C130.247 77.7602 131.255 76.7702 132.857 76.7702C134.369 76.7702 135.395 77.5982 135.395 79.1822C135.395 81.1262 133.865 81.9182 132.821 82.5842C130.355 84.1322 128.555 85.2842 128.555 88.3262H137.087V86.9042ZM139.879 86.3642V88.3262H140.779V88.8842C140.779 89.4422 140.383 89.9462 139.879 90.0002V90.9902C140.581 90.8462 141.661 90.3242 141.661 88.8842V86.3642H139.879ZM149.292 75.7262V88.3262H153.288C155.43 88.3262 159.912 88.1822 159.912 81.9902C159.912 75.8702 155.214 75.7262 153.918 75.7262H149.292ZM150.984 77.1482H153.828C155.97 77.1482 158.112 78.2102 158.112 82.0262C158.112 85.3922 156.582 86.9042 153.342 86.9042H150.984V77.1482ZM161.995 75.7262V88.3262H163.579V83.3402C163.579 80.3162 165.343 79.9382 166.207 79.9382C168.169 79.9382 168.115 81.6662 168.115 82.7282V88.3262H169.699V82.2422C169.699 81.4862 169.753 78.8222 166.711 78.8222C165.415 78.8222 164.425 79.3082 163.579 80.4602V75.7262H161.995ZM173.502 81.8822C173.448 79.9742 175.302 79.9382 175.878 79.9382C177.894 79.9382 177.93 81.3422 177.93 81.7742C177.93 82.9622 177.498 82.9442 176.148 83.0342C172.476 83.3762 171.666 84.3482 171.666 85.9322C171.666 87.8582 172.962 88.6862 174.888 88.6862C176.13 88.6862 177.39 88.2182 178.02 87.0662C178.218 88.2542 178.758 88.3982 179.658 88.3982C180 88.3982 180.162 88.3802 180.378 88.3262V87.2102C179.406 87.2642 179.424 86.8322 179.424 86.1302L179.514 81.9002C179.568 79.2362 177.354 78.8222 175.878 78.8222C172.638 78.8222 171.99 80.6582 171.99 81.8822H173.502ZM177.894 84.4202C177.75 86.9582 176.31 87.5702 175.068 87.5702C174.042 87.5702 173.304 86.9582 173.304 85.8782C173.304 84.4022 174.51 84.3302 175.914 84.0962C176.922 83.9522 177.462 84.0242 177.93 83.6462L177.894 84.4202ZM183.829 83.5382V75.7262H182.245V88.3262H183.829V85.2122L185.377 83.6822L188.599 88.3262H190.435L186.475 82.7102L190.075 79.1822H188.185L183.829 83.5382ZM192.873 81.8822C192.819 79.9742 194.673 79.9382 195.249 79.9382C197.265 79.9382 197.301 81.3422 197.301 81.7742C197.301 82.9622 196.869 82.9442 195.519 83.0342C191.847 83.3762 191.037 84.3482 191.037 85.9322C191.037 87.8582 192.333 88.6862 194.259 88.6862C195.501 88.6862 196.761 88.2182 197.391 87.0662C197.589 88.2542 198.129 88.3982 199.029 88.3982C199.371 88.3982 199.533 88.3802 199.749 88.3262V87.2102C198.777 87.2642 198.795 86.8322 198.795 86.1302L198.885 81.9002C198.939 79.2362 196.725 78.8222 195.249 78.8222C192.009 78.8222 191.361 80.6582 191.361 81.8822H192.873ZM197.265 84.4202C197.121 86.9582 195.681 87.5702 194.439 87.5702C193.413 87.5702 192.675 86.9582 192.675 85.8782C192.675 84.4022 193.881 84.3302 195.285 84.0962C196.293 83.9522 196.833 84.0242 197.301 83.6462L197.265 84.4202ZM205.817 75.7262V83.4482C205.817 85.6082 206.177 88.7042 210.785 88.7042C212.153 88.7042 215.753 88.5782 215.753 83.4482V75.7262H214.061V83.2322C214.061 85.8782 213.287 87.2822 210.785 87.2822C207.617 87.2822 207.509 84.7802 207.509 83.2322V75.7262H205.817ZM224.957 75.7262V80.3702C224.219 79.1282 223.175 78.8222 221.951 78.8222C218.423 78.8222 217.829 81.8102 217.829 83.7362C217.829 86.6702 219.323 88.6862 221.987 88.6862C223.913 88.6862 224.705 87.6602 225.011 87.0662H225.065V88.3262H226.541V75.7262H224.957ZM219.503 83.7362C219.503 81.0542 220.727 79.9382 222.239 79.9382C223.751 79.9382 225.065 81.0542 225.065 83.7002C225.065 86.5262 223.715 87.5702 222.329 87.5702C221.411 87.5702 219.503 87.1922 219.503 83.7362ZM235.732 75.7262V80.3702C234.994 79.1282 233.95 78.8222 232.726 78.8222C229.198 78.8222 228.604 81.8102 228.604 83.7362C228.604 86.6702 230.098 88.6862 232.762 88.6862C234.688 88.6862 235.48 87.6602 235.786 87.0662H235.84V88.3262H237.316V75.7262H235.732ZM230.278 83.7362C230.278 81.0542 231.502 79.9382 233.014 79.9382C234.526 79.9382 235.84 81.0542 235.84 83.7002C235.84 86.5262 234.49 87.5702 233.104 87.5702C232.186 87.5702 230.278 87.1922 230.278 83.7362ZM241.107 81.8822C241.053 79.9742 242.907 79.9382 243.483 79.9382C245.499 79.9382 245.535 81.3422 245.535 81.7742C245.535 82.9622 245.103 82.9442 243.753 83.0342C240.081 83.3762 239.271 84.3482 239.271 85.9322C239.271 87.8582 240.567 88.6862 242.493 88.6862C243.735 88.6862 244.995 88.2182 245.625 87.0662C245.823 88.2542 246.363 88.3982 247.263 88.3982C247.605 88.3982 247.767 88.3802 247.983 88.3262V87.2102C247.011 87.2642 247.029 86.8322 247.029 86.1302L247.119 81.9002C247.173 79.2362 244.959 78.8222 243.483 78.8222C240.243 78.8222 239.595 80.6582 239.595 81.8822H241.107ZM245.499 84.4202C245.355 86.9582 243.915 87.5702 242.673 87.5702C241.647 87.5702 240.909 86.9582 240.909 85.8782C240.909 84.4022 242.115 84.3302 243.519 84.0962C244.527 83.9522 245.067 84.0242 245.535 83.6462L245.499 84.4202ZM249.851 79.1822V88.3262H251.435V83.3402C251.435 80.3162 253.199 79.9382 254.063 79.9382C256.025 79.9382 255.989 81.7562 255.989 82.7282V88.3262H257.573V82.2422C257.573 80.4242 256.961 78.8222 254.567 78.8222C253.127 78.8222 252.065 79.5422 251.435 80.4602V79.1822H249.851ZM7.326 114.326H8.694L12.78 103.742H12.834L12.798 104.228V114.326H14.49V101.726H11.952L8.01 112.094L4.068 101.726H1.53V114.326H3.222V104.228L3.186 103.742H3.222L7.326 114.326ZM16.7877 109.754C16.7877 112.184 17.9577 114.686 21.2877 114.686C24.6177 114.686 25.7877 112.184 25.7877 109.754C25.7877 107.324 24.6177 104.822 21.2877 104.822C17.9577 104.822 16.7877 107.324 16.7877 109.754ZM18.4617 109.736C18.4617 106.064 20.5857 105.902 21.2877 105.902C21.9897 105.902 24.1137 106.064 24.1137 109.736C24.1137 113.408 21.9897 113.57 21.2877 113.57C20.5857 113.57 18.4617 113.408 18.4617 109.736ZM27.8565 101.726V114.326H29.4405V109.34C29.4405 106.316 31.2045 105.938 32.0685 105.938C34.0305 105.938 33.9765 107.666 33.9765 108.728V114.326H35.5605V108.242C35.5605 107.486 35.6145 104.822 32.5725 104.822C31.2765 104.822 30.2865 105.308 29.4405 106.46V101.726H27.8565ZM39.3633 107.882C39.3093 105.974 41.1633 105.938 41.7393 105.938C43.7553 105.938 43.7913 107.342 43.7913 107.774C43.7913 108.962 43.3593 108.944 42.0093 109.034C38.3373 109.376 37.5273 110.348 37.5273 111.932C37.5273 113.858 38.8233 114.686 40.7493 114.686C41.9913 114.686 43.2513 114.218 43.8813 113.066C44.0793 114.254 44.6193 114.398 45.5193 114.398C45.8613 114.398 46.0233 114.38 46.2393 114.326V113.21C45.2673 113.264 45.2853 112.832 45.2853 112.13L45.3753 107.9C45.4293 105.236 43.2153 104.822 41.7393 104.822C38.4993 104.822 37.8513 106.658 37.8513 107.882H39.3633ZM43.7553 110.42C43.6113 112.958 42.1713 113.57 40.9293 113.57C39.9033 113.57 39.1653 112.958 39.1653 111.878C39.1653 110.402 40.3713 110.33 41.7753 110.096C42.7833 109.952 43.3233 110.024 43.7913 109.646L43.7553 110.42ZM48.1065 105.182V114.326H49.6905V108.872C49.6905 107.072 50.7885 105.938 52.1025 105.938C53.5425 105.938 53.8665 107.216 53.8665 108.548V114.326H55.4505V108.872C55.4505 106.514 56.7825 105.938 57.8625 105.938C59.5005 105.938 59.6265 107.576 59.6265 108.53V114.326H61.2105V108.422C61.2105 107.414 61.0845 104.822 58.2765 104.822C56.3865 104.822 55.4325 106.082 55.1085 106.784C54.8745 105.83 54.0825 104.822 52.4985 104.822C51.3645 104.822 50.1585 105.47 49.6725 106.532L49.6905 106.424V105.182H48.1065ZM63.8038 105.182V114.326H65.3878V108.872C65.3878 107.072 66.4858 105.938 67.7998 105.938C69.2398 105.938 69.5638 107.216 69.5638 108.548V114.326H71.1478V108.872C71.1478 106.514 72.4798 105.938 73.5598 105.938C75.1978 105.938 75.3238 107.576 75.3238 108.53V114.326H76.9078V108.422C76.9078 107.414 76.7818 104.822 73.9738 104.822C72.0838 104.822 71.1298 106.082 70.8058 106.784C70.5718 105.83 69.7798 104.822 68.1958 104.822C67.0618 104.822 65.8558 105.47 65.3698 106.532L65.3878 106.424V105.182H63.8038ZM80.7071 107.882C80.6531 105.974 82.5071 105.938 83.0831 105.938C85.0991 105.938 85.1351 107.342 85.1351 107.774C85.1351 108.962 84.7031 108.944 83.3531 109.034C79.6811 109.376 78.8711 110.348 78.8711 111.932C78.8711 113.858 80.1671 114.686 82.0931 114.686C83.3351 114.686 84.5951 114.218 85.2251 113.066C85.4231 114.254 85.9631 114.398 86.8631 114.398C87.2051 114.398 87.3671 114.38 87.5831 114.326V113.21C86.6111 113.264 86.6291 112.832 86.6291 112.13L86.7191 107.9C86.7731 105.236 84.5591 104.822 83.0831 104.822C79.8431 104.822 79.1951 106.658 79.1951 107.882H80.7071ZM85.0991 110.42C84.9551 112.958 83.5151 113.57 82.2731 113.57C81.2471 113.57 80.5091 112.958 80.5091 111.878C80.5091 110.402 81.7151 110.33 83.1191 110.096C84.1271 109.952 84.6671 110.024 85.1351 109.646L85.0991 110.42ZM96.0563 101.726V106.37C95.3183 105.128 94.2743 104.822 93.0503 104.822C89.5223 104.822 88.9283 107.81 88.9283 109.736C88.9283 112.67 90.4223 114.686 93.0863 114.686C95.0123 114.686 95.8043 113.66 96.1103 113.066H96.1643V114.326H97.6403V101.726H96.0563ZM90.6023 109.736C90.6023 107.054 91.8263 105.938 93.3383 105.938C94.8503 105.938 96.1643 107.054 96.1643 109.7C96.1643 112.526 94.8143 113.57 93.4283 113.57C92.5103 113.57 90.6023 113.192 90.6023 109.736ZM100.226 105.182V117.656H101.81V113.012C102.62 114.596 104.456 114.686 104.816 114.686C106.904 114.686 108.902 113.3 108.902 109.754C108.902 106.334 107.03 104.822 104.78 104.822C103.988 104.822 102.674 105.056 101.756 106.442H101.702V105.182H100.226ZM101.702 109.79C101.702 106.334 103.628 105.938 104.438 105.938C106.238 105.938 107.228 107.396 107.228 109.754C107.228 112.67 105.806 113.57 104.528 113.57C103.322 113.57 101.702 112.616 101.702 109.79ZM118.688 114.326V105.182H117.104V110.168C117.104 110.816 117.14 113.57 114.476 113.57C113.342 113.57 112.55 113.084 112.55 110.78V105.182H110.966V111.248C110.966 112.616 111.272 114.686 113.972 114.686C114.296 114.686 116.15 114.614 117.068 113.03H117.104V114.326H118.688ZM126.396 104.822L125.928 104.84C124.65 104.894 123.336 105.596 122.904 106.946H122.868V105.182H121.284V114.326H122.868V110.114V109.628C122.868 109.466 122.868 109.304 122.886 109.142C123.03 106.838 124.272 106.028 126.396 105.938V104.822ZM127.328 112.364V114.326H128.228V114.884C128.228 115.442 127.832 115.946 127.328 116V116.99C128.03 116.846 129.11 116.324 129.11 114.884V112.364H127.328ZM136.741 101.726V114.326H140.737C142.879 114.326 147.361 114.182 147.361 107.99C147.361 101.87 142.663 101.726 141.367 101.726H136.741ZM138.433 103.148H141.277C143.419 103.148 145.561 104.21 145.561 108.026C145.561 111.392 144.031 112.904 140.791 112.904H138.433V103.148ZM149.444 101.726V114.326H151.028V109.34C151.028 106.316 152.792 105.938 153.656 105.938C155.618 105.938 155.564 107.666 155.564 108.728V114.326H157.148V108.242C157.148 107.486 157.202 104.822 154.16 104.822C152.864 104.822 151.874 105.308 151.028 106.46V101.726H149.444ZM160.951 107.882C160.897 105.974 162.751 105.938 163.327 105.938C165.343 105.938 165.379 107.342 165.379 107.774C165.379 108.962 164.947 108.944 163.597 109.034C159.925 109.376 159.115 110.348 159.115 111.932C159.115 113.858 160.411 114.686 162.337 114.686C163.579 114.686 164.839 114.218 165.469 113.066C165.667 114.254 166.207 114.398 167.107 114.398C167.449 114.398 167.611 114.38 167.827 114.326V113.21C166.855 113.264 166.873 112.832 166.873 112.13L166.963 107.9C167.017 105.236 164.803 104.822 163.327 104.822C160.087 104.822 159.439 106.658 159.439 107.882H160.951ZM165.343 110.42C165.199 112.958 163.759 113.57 162.517 113.57C161.491 113.57 160.753 112.958 160.753 111.878C160.753 110.402 161.959 110.33 163.363 110.096C164.371 109.952 164.911 110.024 165.379 109.646L165.343 110.42ZM171.278 109.538V101.726H169.694V114.326H171.278V111.212L172.826 109.682L176.048 114.326H177.884L173.924 108.71L177.524 105.182H175.634L171.278 109.538ZM180.322 107.882C180.268 105.974 182.122 105.938 182.698 105.938C184.714 105.938 184.75 107.342 184.75 107.774C184.75 108.962 184.318 108.944 182.968 109.034C179.296 109.376 178.486 110.348 178.486 111.932C178.486 113.858 179.782 114.686 181.708 114.686C182.95 114.686 184.21 114.218 184.84 113.066C185.038 114.254 185.578 114.398 186.478 114.398C186.82 114.398 186.982 114.38 187.198 114.326V113.21C186.226 113.264 186.244 112.832 186.244 112.13L186.334 107.9C186.388 105.236 184.174 104.822 182.698 104.822C179.458 104.822 178.81 106.658 178.81 107.882H180.322ZM184.714 110.42C184.57 112.958 183.13 113.57 181.888 113.57C180.862 113.57 180.124 112.958 180.124 111.878C180.124 110.402 181.33 110.33 182.734 110.096C183.742 109.952 184.282 110.024 184.75 109.646L184.714 110.42ZM189.678 112.364V114.326H190.578V114.884C190.578 115.442 190.182 115.946 189.678 116V116.99C190.38 116.846 191.46 116.324 191.46 114.884V112.364H189.678ZM199.091 101.726V114.326H204.419C208.001 114.326 208.919 112.616 208.919 110.816C208.919 108.566 207.317 107.864 206.273 107.684V107.63C207.461 107.45 208.379 106.28 208.379 104.93C208.379 103.454 207.677 101.726 204.617 101.726H199.091ZM200.783 103.148H204.239C206.345 103.148 206.651 104.39 206.651 105.11C206.651 106.154 206.039 107.072 204.185 107.072H200.783V103.148ZM200.783 108.494H204.293C206.057 108.494 207.191 109.052 207.191 110.672C207.191 112.724 205.463 112.904 204.293 112.904H200.783V108.494ZM212.473 107.882C212.419 105.974 214.273 105.938 214.849 105.938C216.865 105.938 216.901 107.342 216.901 107.774C216.901 108.962 216.469 108.944 215.119 109.034C211.447 109.376 210.637 110.348 210.637 111.932C210.637 113.858 211.933 114.686 213.859 114.686C215.101 114.686 216.361 114.218 216.991 113.066C217.189 114.254 217.729 114.398 218.629 114.398C218.971 114.398 219.133 114.38 219.349 114.326V113.21C218.377 113.264 218.395 112.832 218.395 112.13L218.485 107.9C218.539 105.236 216.325 104.822 214.849 104.822C211.609 104.822 210.961 106.658 210.961 107.882H212.473ZM216.865 110.42C216.721 112.958 215.281 113.57 214.039 113.57C213.013 113.57 212.275 112.958 212.275 111.878C212.275 110.402 213.481 110.33 214.885 110.096C215.893 109.952 216.433 110.024 216.901 109.646L216.865 110.42ZM221.216 105.182V114.326H222.8V109.34C222.8 106.316 224.564 105.938 225.428 105.938C227.39 105.938 227.354 107.756 227.354 108.728V114.326H228.938V108.242C228.938 106.424 228.326 104.822 225.932 104.822C224.492 104.822 223.43 105.542 222.8 106.46V105.182H221.216ZM231.714 115.352C232.29 117.836 234.756 117.8 235.638 117.8C236.52 117.8 239.742 117.602 239.742 114.092V105.182H238.266V106.442H238.212C237.636 105.38 236.556 104.822 235.044 104.822C231.084 104.822 231.084 108.836 231.084 109.682C231.084 113.21 233.046 114.686 235.206 114.686C236.556 114.686 237.312 114.2 238.158 112.832V113.822C238.158 114.308 238.122 116.666 235.638 116.666C234.666 116.666 233.514 116.414 233.226 115.352H231.714ZM235.566 113.57C234.828 113.57 232.758 113.318 232.758 109.628C232.758 108.89 232.758 105.938 235.422 105.938C237.294 105.938 238.266 107.342 238.266 109.646C238.266 113.174 236.142 113.57 235.566 113.57ZM242.327 101.726V114.326H243.911V101.726H242.327ZM247.717 107.882C247.663 105.974 249.517 105.938 250.093 105.938C252.109 105.938 252.145 107.342 252.145 107.774C252.145 108.962 251.713 108.944 250.363 109.034C246.691 109.376 245.881 110.348 245.881 111.932C245.881 113.858 247.177 114.686 249.103 114.686C250.345 114.686 251.605 114.218 252.235 113.066C252.433 114.254 252.973 114.398 253.873 114.398C254.215 114.398 254.377 114.38 254.593 114.326V113.21C253.621 113.264 253.639 112.832 253.639 112.13L253.729 107.9C253.783 105.236 251.569 104.822 250.093 104.822C246.853 104.822 246.205 106.658 246.205 107.882H247.717ZM252.109 110.42C251.965 112.958 250.525 113.57 249.283 113.57C248.257 113.57 247.519 112.958 247.519 111.878C247.519 110.402 248.725 110.33 250.129 110.096C251.137 109.952 251.677 110.024 252.145 109.646L252.109 110.42ZM263.066 101.726V106.37C262.328 105.128 261.284 104.822 260.06 104.822C256.532 104.822 255.938 107.81 255.938 109.736C255.938 112.67 257.432 114.686 260.096 114.686C262.022 114.686 262.814 113.66 263.12 113.066H263.174V114.326H264.65V101.726H263.066ZM257.612 109.736C257.612 107.054 258.836 105.938 260.348 105.938C261.86 105.938 263.174 107.054 263.174 109.7C263.174 112.526 261.824 113.57 260.438 113.57C259.52 113.57 257.612 113.192 257.612 109.736ZM273.823 111.68C273.625 112.688 272.815 113.57 271.285 113.57C269.197 113.57 268.387 111.68 268.387 110.114H275.425C275.425 109.97 275.407 109.808 275.407 109.664C275.317 107.684 274.831 104.822 271.177 104.822C266.947 104.822 266.713 108.53 266.713 109.79C266.713 110.618 266.803 114.686 271.339 114.686C274.147 114.686 275.101 112.976 275.335 111.68H273.823ZM268.387 108.998C268.387 107.846 268.873 105.938 271.213 105.938C273.283 105.938 273.697 107.774 273.751 108.998H268.387ZM276.853 111.608C276.907 113.282 278.185 114.686 280.903 114.686C281.317 114.686 284.665 114.614 284.665 111.734C284.665 109.844 283.279 109.502 281.407 109.07C280.093 108.782 278.887 108.674 278.887 107.378C278.887 105.92 280.579 105.938 280.777 105.938C282.595 105.938 282.865 107.054 282.919 107.576H284.431C284.341 106.568 283.837 104.822 280.723 104.822C279.067 104.822 277.249 105.416 277.249 107.45C277.249 109.376 278.599 109.772 280.129 110.114L281.101 110.33C282.883 110.762 283.027 111.248 283.027 111.842C283.027 112.22 283.045 113.57 280.921 113.57C279.697 113.57 278.491 113.066 278.437 111.608H276.853ZM286.607 101.726V114.326H288.191V109.34C288.191 106.316 289.955 105.938 290.819 105.938C292.781 105.938 292.727 107.666 292.727 108.728V114.326H294.311V108.242C294.311 107.486 294.365 104.822 291.323 104.822C290.027 104.822 289.037 105.308 288.191 106.46V101.726H286.607Z" fill="#444B51"/>
<path d="M32 177.424C32 168.533 24.8369 161.326 16.002 161.326C7.1631 161.328 0 168.533 0 177.426C0 185.459 5.85127 192.118 13.4983 193.326V182.078H9.43882V177.426H13.5023V173.877C13.5023 169.843 15.892 167.615 19.5456 167.615C21.2973 167.615 23.1271 167.929 23.1271 167.929V171.889H21.1094C19.1236 171.889 18.5037 173.131 18.5037 174.405V177.424H22.9391L22.2312 182.076H18.5017V193.324C26.1487 192.116 32 185.457 32 177.424Z" fill="#444B51"/>
<path d="M134.857 161.326C126.022 161.326 118.857 168.49 118.857 177.326C118.857 186.162 126.022 193.326 134.857 193.326C143.693 193.326 150.857 186.162 150.857 177.326C150.857 168.49 143.693 161.326 134.857 161.326ZM142.547 173.387C142.557 173.555 142.557 173.73 142.557 173.901C142.557 179.144 138.565 185.183 131.268 185.183C129.018 185.183 126.932 184.53 125.175 183.405C125.497 183.44 125.804 183.455 126.132 183.455C127.99 183.455 129.697 182.826 131.057 181.762C129.315 181.726 127.85 180.583 127.35 179.012C127.961 179.101 128.511 179.101 129.14 178.94C128.242 178.758 127.436 178.271 126.857 177.561C126.278 176.851 125.963 175.963 125.965 175.048V174.998C126.49 175.294 127.107 175.476 127.754 175.501C127.21 175.139 126.765 174.648 126.456 174.073C126.148 173.497 125.986 172.854 125.986 172.201C125.986 171.462 126.179 170.787 126.525 170.201C127.521 171.427 128.764 172.43 130.173 173.145C131.582 173.859 133.126 174.269 134.704 174.348C134.143 171.651 136.157 169.469 138.579 169.469C139.722 169.469 140.75 169.948 141.475 170.719C142.372 170.551 143.229 170.215 143.993 169.765C143.697 170.683 143.075 171.458 142.25 171.948C143.05 171.862 143.822 171.64 144.536 171.33C143.997 172.123 143.322 172.826 142.547 173.387Z" fill="#444B51"/>
<path d="M75.4285 161.326C66.5918 161.326 59.4285 168.49 59.4285 177.326C59.4285 186.163 66.5918 193.326 75.4285 193.326C84.2651 193.326 91.4285 186.163 91.4285 177.326C91.4285 168.49 84.2651 161.326 75.4285 161.326ZM71.5118 183.958H68.2718V173.531H71.5118V183.958ZM69.8718 172.251C68.8485 172.251 68.1868 171.526 68.1868 170.63C68.1868 169.715 68.8685 169.011 69.9135 169.011C70.9585 169.011 71.5985 169.715 71.6185 170.63C71.6185 171.526 70.9585 172.251 69.8718 172.251ZM83.3451 183.958H80.1051V178.18C80.1051 176.835 79.6351 175.921 78.4635 175.921C77.5685 175.921 77.0368 176.54 76.8018 177.135C76.7151 177.346 76.6935 177.646 76.6935 177.945V183.956H73.4518V176.856C73.4518 175.555 73.4101 174.466 73.3668 173.53H76.1818L76.3301 174.978H76.3951C76.8218 174.298 77.8668 173.295 79.6151 173.295C81.7468 173.295 83.3451 174.723 83.3451 177.793V183.958Z" fill="#444B51"/>
<path d="M194.286 161.326C185.449 161.326 178.286 168.49 178.286 177.326C178.286 186.163 185.449 193.326 194.286 193.326C203.123 193.326 210.286 186.163 210.286 177.326C210.286 168.49 203.123 161.326 194.286 161.326ZM195.381 181.118C194.354 181.04 193.924 180.531 193.121 180.045C192.679 182.363 192.139 184.586 190.539 185.748C190.044 182.241 191.263 179.611 191.829 176.816C190.864 175.191 191.944 171.923 193.981 172.726C196.486 173.72 191.811 178.768 194.949 179.4C198.226 180.056 199.564 173.713 197.533 171.653C194.596 168.675 188.988 171.585 189.678 175.848C189.844 176.89 190.923 177.206 190.108 178.645C188.229 178.228 187.668 176.746 187.741 174.771C187.856 171.538 190.646 169.273 193.443 168.961C196.981 168.568 200.301 170.26 200.761 173.59C201.276 177.346 199.163 181.411 195.381 181.118Z" fill="#444B51"/>
<path d="M258.714 177.326C258.714 178.652 258.187 179.924 257.25 180.862C256.312 181.799 255.04 182.326 253.714 182.326C252.388 182.326 251.116 181.799 250.179 180.862C249.241 179.924 248.714 178.652 248.714 177.326C248.714 177.041 248.744 176.763 248.796 176.493H247.047V183.155C247.047 183.618 247.422 183.993 247.886 183.993H259.544C259.766 183.992 259.979 183.904 260.136 183.747C260.293 183.59 260.381 183.377 260.381 183.155V176.493H258.632C258.684 176.763 258.714 177.041 258.714 177.326ZM253.714 180.66C254.152 180.659 254.586 180.573 254.99 180.405C255.394 180.238 255.762 179.992 256.071 179.682C256.381 179.373 256.627 179.005 256.794 178.6C256.961 178.196 257.048 177.762 257.047 177.325C257.047 176.887 256.961 176.453 256.793 176.049C256.626 175.644 256.38 175.277 256.07 174.967C255.761 174.658 255.393 174.412 254.988 174.245C254.584 174.077 254.15 173.991 253.712 173.991C252.828 173.991 251.98 174.343 251.355 174.968C250.73 175.594 250.379 176.442 250.379 177.326C250.379 178.21 250.731 179.058 251.356 179.684C251.982 180.309 252.83 180.66 253.714 180.66ZM257.714 173.826H259.712C259.845 173.826 259.973 173.774 260.067 173.68C260.161 173.586 260.214 173.459 260.214 173.326V171.328C260.214 171.195 260.161 171.067 260.067 170.973C259.973 170.879 259.845 170.826 259.712 170.826H257.714C257.581 170.826 257.453 170.879 257.359 170.973C257.265 171.067 257.212 171.195 257.212 171.328V173.326C257.214 173.601 257.439 173.826 257.714 173.826ZM253.714 161.326C249.471 161.326 245.401 163.012 242.4 166.012C239.4 169.013 237.714 173.083 237.714 177.326C237.714 181.57 239.4 185.639 242.4 188.64C245.401 191.64 249.471 193.326 253.714 193.326C255.815 193.326 257.896 192.912 259.837 192.108C261.778 191.304 263.542 190.126 265.028 188.64C266.514 187.154 267.692 185.39 268.496 183.449C269.3 181.508 269.714 179.427 269.714 177.326C269.714 175.225 269.3 173.144 268.496 171.203C267.692 169.262 266.514 167.498 265.028 166.012C263.542 164.527 261.778 163.348 259.837 162.544C257.896 161.74 255.815 161.326 253.714 161.326ZM262.047 183.808C262.047 184.826 261.214 185.66 260.196 185.66H247.232C246.214 185.66 245.381 184.826 245.381 183.808V170.845C245.381 169.826 246.214 168.993 247.232 168.993H260.196C261.214 168.993 262.047 169.826 262.047 170.845V183.808Z" fill="#444B51"/>
<defs>
<linearGradient id="paint0_linear_30_515" x1="14.4652" y1="-1.16484" x2="14.4652" y2="43.5282" gradientUnits="userSpaceOnUse">
<stop offset="5.43435e-07" stop-color="#E9043F"/>
<stop offset="0.2145" stop-color="#FF3366"/>
<stop offset="0.5101" stop-color="#E24329"/>
<stop offset="0.7587" stop-color="#FF6A00"/>
</linearGradient>
<linearGradient id="paint1_linear_30_515" x1="-0.851327" y1="0.0284031" x2="11.5814" y2="4.01623" gradientUnits="userSpaceOnUse">
<stop offset="8.15152e-07" stop-color="#FF3366"/>
<stop offset="1" stop-color="#E80042"/>
</linearGradient>
<linearGradient id="paint2_linear_30_515" x1="25.3155" y1="8.403" x2="13.2737" y2="16.2223" gradientUnits="userSpaceOnUse">
<stop offset="6.76629e-07" stop-color="#3366FF"/>
<stop offset="1" stop-color="#2A9DF4"/>
</linearGradient>
<linearGradient id="paint3_linear_30_515" x1="33.2265" y1="22.59" x2="21.8103" y2="16.4127" gradientUnits="userSpaceOnUse">
<stop offset="6.76629e-07" stop-color="#3366FF"/>
<stop offset="1" stop-color="#2A9DF4"/>
</linearGradient>
<linearGradient id="paint4_linear_30_515" x1="6.10228" y1="24.3984" x2="26.9018" y2="30.4975" gradientUnits="userSpaceOnUse">
<stop offset="8.15152e-07" stop-color="#E24329"/>
<stop offset="1" stop-color="#FF6A00"/>
</linearGradient>
<linearGradient id="paint5_linear_30_515" x1="9.81064" y1="-2.24044" x2="10.4362" y2="11.0524" gradientUnits="userSpaceOnUse">
<stop offset="8.15152e-07" stop-color="#FF3366"/>
<stop offset="1" stop-color="#E80042"/>
</linearGradient>
<linearGradient id="paint6_linear_30_515" x1="7.23063" y1="14.9414" x2="16.2229" y2="29.72" gradientUnits="userSpaceOnUse">
<stop offset="8.15152e-07" stop-color="#E24329"/>
<stop offset="1" stop-color="#FF6A00"/>
</linearGradient>
<linearGradient id="paint7_linear_30_515" x1="32.3622" y1="30.2759" x2="24.0736" y2="22.0656" gradientUnits="userSpaceOnUse">
<stop offset="6.76629e-07" stop-color="#3366FF"/>
<stop offset="1" stop-color="#2A9DF4"/>
</linearGradient>
<linearGradient id="paint8_linear_30_515" x1="9.17366" y1="4.97863" x2="11.0503" y2="22.6503" gradientUnits="userSpaceOnUse">
<stop stop-color="#E9043F"/>
<stop offset="0.4425" stop-color="#FF3366"/>
<stop offset="1" stop-color="#FF6A00"/>
</linearGradient>
</defs>
</svg>
