<?xml version="1.0" standalone="no"?>
<!DOCTYPE svg PUBLIC "-//W3C//DTD SVG 20010904//EN"
 "http://www.w3.org/TR/2001/REC-SVG-20010904/DTD/svg10.dtd">
<svg version="1.0" xmlns="http://www.w3.org/2000/svg"
 width="124.000000pt" height="98.000000pt" viewBox="0 0 124.000000 98.000000"
 preserveAspectRatio="xMidYMid meet">

<g transform="translate(0.000000,98.000000) scale(0.100000,-0.100000)"
fill="#000000" stroke="none">
<path d="M610 822 c0 -5 22 -12 49 -15 57 -7 135 -44 185 -88 44 -38 94 -136
102 -200 4 -27 11 -49 16 -49 16 0 -3 93 -32 155 -54 116 -141 180 -272 199
-28 4 -48 3 -48 -2z"/>
<path d="M505 726 c-60 -28 -127 -99 -143 -154 -18 -61 -14 -151 9 -202 97
-214 401 -214 498 0 44 98 18 233 -60 307 -79 75 -206 95 -304 49z m115 -16
c5 0 10 6 12 14 2 11 11 11 51 1 59 -15 103 -46 99 -70 -2 -12 1 -16 11 -12
40 15 103 -139 65 -157 -10 -5 -10 -7 0 -12 38 -18 -25 -172 -65 -157 -10 4
-13 0 -11 -12 4 -24 -40 -55 -99 -70 -40 -10 -49 -10 -51 1 -5 19 -22 18 -22
-1 0 -20 -51 -10 -113 23 -38 20 -46 29 -41 45 5 15 2 18 -13 13 -16 -5 -25 3
-45 41 -33 62 -43 113 -23 113 8 0 15 5 15 10 0 6 -7 10 -15 10 -20 0 -10 51
23 113 20 38 29 46 45 41 15 -5 18 -2 13 13 -5 15 3 24 33 41 52 29 115 43
119 25 2 -7 7 -13 12 -13z"/>
<path d="M678 562 c-19 -21 -47 -42 -61 -46 -13 -3 -27 -13 -31 -21 -6 -18 2
-45 15 -45 5 0 9 -20 9 -45 0 -25 5 -45 10 -45 6 0 10 18 10 41 0 23 7 47 16
56 8 9 12 23 9 31 -3 10 8 29 31 53 20 20 34 43 32 49 -2 7 -19 -5 -40 -28z
m-42 -73 c10 -17 -13 -36 -27 -22 -12 12 -4 33 11 33 5 0 12 -5 16 -11z"/>
<path d="M256 541 c-16 -18 -15 -18 24 -18 39 0 40 0 24 18 -10 11 -20 19 -24
19 -4 0 -14 -8 -24 -19z"/>
<path d="M270 472 c0 -44 34 -141 65 -189 37 -55 101 -106 162 -127 53 -18
121 -28 127 -17 3 4 -16 11 -43 14 -144 17 -269 140 -287 285 -6 48 -24 74
-24 34z"/>
<path d="M920 442 c0 -5 9 -17 20 -27 16 -15 22 -15 35 -5 8 7 15 19 15 27 0
13 -3 13 -15 3 -12 -10 -19 -10 -27 -2 -14 14 -28 16 -28 4z"/>
</g>
</svg>
