<svg width="1128" height="138" viewBox="0 0 1128 138" fill="none" xmlns="http://www.w3.org/2000/svg">
<path d="M461.93 35.8398C459.312 35.8398 457.04 35.4199 455.113 34.5801C453.193 33.7337 451.63 32.5814 450.426 31.123C449.228 29.6582 448.346 27.9883 447.779 26.1133C447.213 24.2318 446.93 22.2461 446.93 20.1562C446.93 18.0664 447.213 16.084 447.779 14.209C448.346 12.3275 449.228 10.6576 450.426 9.19922C451.63 7.73438 453.189 6.58203 455.104 5.74219C457.018 4.90234 459.293 4.48242 461.93 4.48242C464.573 4.48242 466.855 4.90234 468.775 5.74219C470.696 6.57552 472.255 7.72135 473.453 9.17969C474.651 10.6315 475.53 12.2982 476.09 14.1797C476.65 16.0547 476.93 18.0469 476.93 20.1562C476.93 22.2656 476.65 24.2578 476.09 26.1328C475.53 28.0078 474.651 29.6745 473.453 31.1328C472.255 32.5911 470.689 33.7402 468.756 34.5801C466.822 35.4199 464.547 35.8398 461.93 35.8398ZM461.93 30.0781C465.094 30.0781 467.125 28.9909 468.023 26.8164C468.922 24.6419 469.371 22.4219 469.371 20.1562C469.371 16.1393 468.603 13.4831 467.066 12.1875C465.53 10.8919 463.818 10.2441 461.93 10.2441C460.061 10.2441 458.352 10.8919 456.803 12.1875C455.26 13.4831 454.488 16.1393 454.488 20.1562C454.488 22.7083 454.999 25 456.021 27.0312C457.05 29.0625 459.02 30.0781 461.93 30.0781ZM495.885 35V32.4023C493.984 34.5312 491.49 35.5957 488.404 35.5957C483.606 35.5957 481.207 32.7181 481.207 26.9629V13.4375H487.643V25.918C487.643 27.2982 487.867 28.4375 488.316 29.3359C488.766 30.2344 489.742 30.6836 491.246 30.6836C492.652 30.6836 493.73 30.2214 494.479 29.2969C495.234 28.3659 495.611 27.1191 495.611 25.5566V13.4375H502.047V35H495.885ZM522.066 13.0762V18.2031C521.37 18.0664 520.715 17.998 520.104 17.998C518.893 17.998 517.812 18.252 516.861 18.7598C515.917 19.2611 515.156 20.1237 514.576 21.3477C513.997 22.5716 513.707 24.1895 513.707 26.2012V35H507.262V13.4375H513.424V16.9629C514.264 15.5632 515.328 14.5671 516.617 13.9746C517.913 13.3757 519.475 13.0762 521.305 13.0762H522.066ZM559.537 24.5215H566.5C566.233 27.3665 565.126 29.9837 563.18 32.373C561.233 34.7624 557.844 35.957 553.014 35.957C551.132 35.957 549.345 35.7259 547.652 35.2637C545.966 34.8079 544.43 34.0169 543.043 32.8906C541.663 31.7643 540.559 30.1986 539.732 28.1934C538.906 26.1816 538.492 23.6914 538.492 20.7227C538.492 17.4935 539.007 14.6647 540.035 12.2363C541.07 9.80143 542.659 7.9069 544.801 6.55273C546.943 5.19857 549.602 4.52148 552.779 4.52148C556.171 4.52148 558.854 5.12695 560.826 6.33789C562.799 7.54883 564.16 8.97135 564.908 10.6055C565.663 12.2396 566.087 13.8379 566.178 15.4004H559.293C559.163 14.1764 558.655 13.0176 557.77 11.9238C556.884 10.8301 555.325 10.2832 553.092 10.2832C550.742 10.2832 548.98 11.1882 547.809 12.998C546.637 14.8079 546.051 17.2884 546.051 20.4395C546.051 21.5267 546.194 22.7832 546.48 24.209C546.773 25.6348 547.46 26.9824 548.541 28.252C549.622 29.5215 551.22 30.1562 553.336 30.1562C554.801 30.1562 555.982 29.847 556.881 29.2285C557.786 28.61 558.434 27.8809 558.824 27.041C559.215 26.1947 559.452 25.3548 559.537 24.5215ZM570.23 5.32227H576.676V35H570.23V5.32227ZM581.871 13.4375H588.316V35H581.871V13.4375ZM581.754 10.3613V5.32227H588.395V10.3613H581.754ZM608.6 28.7598H615.113C614.814 29.9186 614.286 31.0124 613.531 32.041C612.776 33.0697 611.604 33.9421 610.016 34.6582C608.434 35.3678 606.412 35.7227 603.951 35.7227C602.623 35.7227 601.119 35.5013 599.439 35.0586C597.76 34.6159 596.171 33.5384 594.674 31.8262C593.183 30.1074 592.438 27.5651 592.438 24.1992C592.438 22.4805 592.704 20.9245 593.238 19.5312C593.772 18.1315 594.553 16.9271 595.582 15.918C596.611 14.9089 597.87 14.1309 599.361 13.584C600.859 13.0371 602.551 12.7637 604.439 12.7637C606.855 12.7637 608.896 13.252 610.562 14.2285C612.229 15.2051 613.476 16.5885 614.303 18.3789C615.136 20.1693 615.553 22.2428 615.553 24.5996V25.5566H599.078C599.078 27.1452 599.498 28.5579 600.338 29.7949C601.178 31.0254 602.477 31.6406 604.234 31.6406C605.322 31.6406 606.272 31.3835 607.086 30.8691C607.906 30.3548 608.411 29.6517 608.6 28.7598ZM599.078 22.1973H608.912C608.893 20.6152 608.525 19.3262 607.809 18.3301C607.099 17.334 605.947 16.8359 604.352 16.8359C603.102 16.8359 602.092 17.1322 601.324 17.7246C600.556 18.3105 600.003 19.0137 599.664 19.834C599.332 20.6478 599.137 21.4355 599.078 22.1973ZM625.885 13.4375V16.0352C627.727 13.9062 630.221 12.8418 633.365 12.8418C635.273 12.8418 636.949 13.3952 638.395 14.502C639.84 15.6022 640.562 17.9297 640.562 21.4844V35H634.127V22.5195C634.127 21.2305 633.909 20.1172 633.473 19.1797C633.043 18.2357 632.047 17.7637 630.484 17.7637C629.02 17.7637 627.932 18.2357 627.223 19.1797C626.52 20.1172 626.168 21.3509 626.168 22.8809V35H619.723V13.4375H625.885ZM643.619 17.7637V13.4375H647.506V7.00195H653.941V13.4375H658.541V17.7637H653.941V28.1152C653.941 28.7793 653.984 29.3066 654.068 29.6973C654.153 30.0814 654.381 30.4004 654.752 30.6543C655.123 30.9082 655.706 31.0352 656.5 31.0352C657.203 31.0352 657.883 30.918 658.541 30.6836V35C656.783 35.3971 655.022 35.5957 653.258 35.5957C651.214 35.5957 649.742 35.1302 648.844 34.1992C647.952 33.2617 647.506 31.6341 647.506 29.3164V17.7637H643.619ZM660.67 28.2031H667.271C667.363 30.4948 668.801 31.6406 671.588 31.6406C672.577 31.6406 673.404 31.4323 674.068 31.0156C674.739 30.599 675.074 29.9935 675.074 29.1992C675.074 28.4701 674.872 27.9134 674.469 27.5293C674.065 27.1387 673.45 26.8359 672.623 26.6211C671.803 26.4062 670.579 26.1719 668.951 25.918C666.764 25.5534 664.964 24.9479 663.551 24.1016C662.138 23.2487 661.432 21.6406 661.432 19.2773C661.432 17.8776 661.796 16.6895 662.525 15.7129C663.255 14.7363 664.345 13.9941 665.797 13.4863C667.255 12.9785 669.026 12.7246 671.109 12.7246C673.629 12.7246 675.598 13.0859 677.018 13.8086C678.437 14.5312 679.404 15.3874 679.918 16.377C680.432 17.3665 680.709 18.3757 680.748 19.4043H674.908C674.817 17.5618 673.684 16.6406 671.51 16.6406C670.559 16.6406 669.687 16.7936 668.893 17.0996C668.105 17.4056 667.711 17.985 667.711 18.8379C667.711 19.6061 667.936 20.1855 668.385 20.5762C668.84 20.9603 669.371 21.2207 669.977 21.3574C670.589 21.4876 671.62 21.6634 673.072 21.8848C674.765 22.1387 676.161 22.4219 677.262 22.7344C678.362 23.0404 679.358 23.6523 680.25 24.5703C681.142 25.4818 681.588 26.7839 681.588 28.4766C681.588 29.6289 681.334 30.7454 680.826 31.8262C680.318 32.9004 679.306 33.8184 677.789 34.5801C676.279 35.3418 674.146 35.7227 671.393 35.7227C669.654 35.7227 668.111 35.5306 666.764 35.1465C665.423 34.7624 664.303 34.2253 663.404 33.5352C662.506 32.8451 661.829 32.0443 661.373 31.1328C660.924 30.2148 660.689 29.2383 660.67 28.2031Z" fill="#444B51"/>
<path d="M51.353 119.05C51.353 124.805 46.9071 129.046 41.4509 129.046C35.9948 129.046 31.5488 124.805 31.5488 119.05C31.5488 113.255 35.9948 109.055 41.4509 109.055C46.9071 109.055 51.353 113.255 51.353 119.05ZM47.0183 119.05C47.0183 115.454 44.4416 112.993 41.4509 112.993C38.4603 112.993 35.8835 115.454 35.8835 119.05C35.8835 122.61 38.4603 125.107 41.4509 125.107C44.4416 125.107 47.0183 122.606 47.0183 119.05Z" fill="#EA4335"/>
<path d="M72.7148 119.05C72.7148 124.805 68.2689 129.046 62.8127 129.046C57.3566 129.046 52.9106 124.805 52.9106 119.05C52.9106 113.259 57.3566 109.055 62.8127 109.055C68.2689 109.055 72.7148 113.255 72.7148 119.05ZM68.3802 119.05C68.3802 115.454 65.8034 112.993 62.8127 112.993C59.8221 112.993 57.2453 115.454 57.2453 119.05C57.2453 122.61 59.8221 125.107 62.8127 125.107C65.8034 125.107 68.3802 122.606 68.3802 119.05Z" fill="#FBBC05"/>
<path d="M93.1864 109.659V127.604C93.1864 134.985 88.8874 138 83.805 138C79.0209 138 76.1415 134.76 75.0556 132.11L78.8295 130.519C79.5015 132.146 81.1482 134.066 83.8006 134.066C87.0538 134.066 89.0698 132.034 89.0698 128.207V126.77H88.9185C87.9483 127.982 86.0792 129.041 83.7205 129.041C78.785 129.041 74.2634 124.688 74.2634 119.086C74.2634 113.444 78.785 109.055 83.7205 109.055C86.0747 109.055 87.9439 110.114 88.9185 111.29H89.0698V109.663H93.1864V109.659ZM89.3769 119.086C89.3769 115.567 87.0583 112.993 84.1077 112.993C81.117 112.993 78.6114 115.567 78.6114 119.086C78.6114 122.57 81.117 125.107 84.1077 125.107C87.0583 125.107 89.3769 122.57 89.3769 119.086Z" fill="#4285F4"/>
<path d="M99.9732 99.1401V128.433H95.7454V99.1401H99.9732Z" fill="#34A853"/>
<path d="M116.449 122.34L119.813 124.611C118.727 126.238 116.11 129.041 111.589 129.041C105.981 129.041 101.793 124.652 101.793 119.046C101.793 113.101 106.017 109.05 111.104 109.05C116.226 109.05 118.732 113.178 119.55 115.409L120 116.544L106.805 122.078C107.815 124.084 109.386 125.107 111.589 125.107C113.796 125.107 115.327 124.007 116.449 122.34ZM106.093 118.744L114.913 115.035C114.428 113.786 112.968 112.917 111.251 112.917C109.048 112.917 105.981 114.886 106.093 118.744Z" fill="#EA4335"/>
<path d="M15.5452 116.45V112.209H29.6573C29.7953 112.948 29.8665 113.822 29.8665 114.769C29.8665 117.95 29.0076 121.885 26.2394 124.688C23.5469 127.527 20.1068 129.041 15.5496 129.041C7.1028 129.041 0 122.074 0 113.521C0 104.967 7.1028 98 15.5496 98C20.2225 98 23.5514 99.8567 26.0525 102.277L23.0975 105.269C21.304 103.566 18.8741 102.241 15.5452 102.241C9.37695 102.241 4.55274 107.274 4.55274 113.521C4.55274 119.767 9.37695 124.8 15.5452 124.8C19.5461 124.8 21.8247 123.174 23.2844 121.695C24.4682 120.497 25.247 118.784 25.5541 116.445L15.5452 116.45Z" fill="#4285F4"/>
<path d="M242.581 120.279L241.744 122.651H241.674C241.535 122.116 241.279 121.302 240.861 120.325L236.372 109.046H231.977V127.023H234.884V115.93C234.884 115.232 234.884 114.442 234.861 113.465C234.837 112.977 234.791 112.605 234.768 112.325H234.837C234.977 113.023 235.14 113.535 235.256 113.86L240.651 126.977H242.698L248.047 113.744C248.163 113.442 248.279 112.837 248.395 112.325H248.465C248.395 113.651 248.349 114.837 248.326 115.558V126.953H251.419V109H247.186L242.581 120.279ZM254.349 114.07H257.372V126.953H254.349V114.07ZM255.884 108.628C255.372 108.628 254.954 108.814 254.605 109.139C254.256 109.465 254.07 109.884 254.07 110.395C254.07 110.884 254.256 111.302 254.605 111.628C254.954 111.953 255.372 112.116 255.884 112.116C256.395 112.116 256.837 111.93 257.163 111.628C257.512 111.302 257.698 110.884 257.698 110.395C257.698 109.907 257.512 109.488 257.163 109.139C256.861 108.814 256.419 108.628 255.884 108.628ZM268.093 113.953C267.535 113.837 266.954 113.767 266.395 113.767C265.023 113.767 263.768 114.07 262.721 114.674C261.674 115.279 260.837 116.116 260.302 117.163C259.744 118.232 259.465 119.465 259.465 120.884C259.465 122.116 259.744 123.209 260.279 124.209C260.814 125.186 261.558 125.977 262.558 126.512C263.512 127.046 264.628 127.325 265.884 127.325C267.326 127.325 268.558 127.023 269.535 126.465L269.558 126.442V123.651L269.442 123.744C269 124.07 268.488 124.349 267.977 124.512C267.442 124.698 266.954 124.791 266.535 124.791C265.326 124.791 264.372 124.442 263.698 123.674C263 122.93 262.651 121.907 262.651 120.628C262.651 119.302 263 118.256 263.721 117.488C264.442 116.721 265.395 116.325 266.558 116.325C267.535 116.325 268.535 116.651 269.442 117.302L269.558 117.395V114.442L269.535 114.419C269.14 114.256 268.698 114.07 268.093 113.953ZM278.07 113.86C277.326 113.86 276.628 114.093 276.023 114.581C275.512 115 275.163 115.605 274.861 116.325H274.837V114.07H271.814V126.953H274.837V120.372C274.837 119.256 275.07 118.325 275.581 117.651C276.093 116.953 276.744 116.605 277.535 116.605C277.814 116.605 278.093 116.674 278.442 116.721C278.768 116.814 279 116.907 279.163 117.023L279.279 117.116V114.093L279.209 114.07C279 113.93 278.581 113.86 278.07 113.86ZM286.302 113.791C284.186 113.791 282.488 114.419 281.302 115.651C280.093 116.884 279.512 118.581 279.512 120.721C279.512 122.721 280.116 124.349 281.279 125.535C282.442 126.698 284.023 127.302 286 127.302C288.07 127.302 289.721 126.674 290.907 125.419C292.116 124.163 292.698 122.488 292.698 120.419C292.698 118.372 292.14 116.744 291 115.558C289.907 114.372 288.302 113.791 286.302 113.791ZM288.721 123.698C288.163 124.419 287.279 124.767 286.186 124.767C285.093 124.767 284.209 124.419 283.581 123.651C282.954 122.93 282.651 121.884 282.651 120.558C282.651 119.186 282.977 118.139 283.581 117.395C284.209 116.651 285.07 116.279 286.163 116.279C287.233 116.279 288.07 116.628 288.674 117.349C289.279 118.07 289.605 119.116 289.605 120.488C289.558 121.884 289.302 122.977 288.721 123.698ZM299.442 119.419C298.488 119.023 297.884 118.721 297.605 118.465C297.372 118.232 297.256 117.907 297.256 117.488C297.256 117.139 297.395 116.791 297.744 116.558C298.093 116.325 298.488 116.209 299.07 116.209C299.581 116.209 300.116 116.302 300.628 116.442C301.14 116.581 301.605 116.791 301.977 117.07L302.093 117.163V114.325L302.023 114.302C301.674 114.163 301.209 114.023 300.651 113.907C300.093 113.814 299.581 113.767 299.163 113.767C297.721 113.767 296.535 114.116 295.605 114.884C294.674 115.605 294.233 116.581 294.233 117.721C294.233 118.325 294.326 118.86 294.535 119.302C294.744 119.744 295.047 120.163 295.465 120.512C295.884 120.837 296.488 121.209 297.326 121.558C298.023 121.86 298.558 122.093 298.884 122.279C299.209 122.465 299.419 122.674 299.581 122.837C299.698 123.023 299.768 123.256 299.768 123.558C299.768 124.419 299.116 124.837 297.791 124.837C297.279 124.837 296.744 124.744 296.116 124.535C295.488 124.325 294.907 124.023 294.419 123.674L294.302 123.581V126.535L294.372 126.558C294.814 126.767 295.349 126.907 296 127.07C296.651 127.186 297.233 127.279 297.744 127.279C299.302 127.279 300.581 126.93 301.488 126.163C302.419 125.419 302.907 124.465 302.907 123.232C302.907 122.372 302.674 121.605 302.163 121.023C301.488 120.465 300.651 119.884 299.442 119.419ZM310.884 113.791C308.768 113.791 307.07 114.419 305.884 115.651C304.698 116.884 304.093 118.581 304.093 120.721C304.093 122.721 304.698 124.349 305.861 125.535C307.023 126.698 308.605 127.302 310.581 127.302C312.651 127.302 314.302 126.674 315.488 125.419C316.698 124.163 317.279 122.488 317.279 120.419C317.279 118.372 316.721 116.744 315.581 115.558C314.488 114.372 312.884 113.791 310.884 113.791ZM313.279 123.698C312.721 124.419 311.837 124.767 310.744 124.767C309.628 124.767 308.768 124.419 308.14 123.651C307.512 122.93 307.209 121.884 307.209 120.558C307.209 119.186 307.535 118.139 308.14 117.395C308.768 116.651 309.628 116.279 310.721 116.279C311.768 116.279 312.628 116.628 313.233 117.349C313.837 118.07 314.163 119.116 314.163 120.488C314.163 121.884 313.861 122.977 313.279 123.698ZM333.442 116.558V114.07H330.395V110.256L330.302 110.279L327.419 111.139L327.349 111.163V114.07H322.791V112.442C322.791 111.698 322.977 111.116 323.302 110.744C323.628 110.372 324.116 110.186 324.721 110.186C325.14 110.186 325.581 110.279 326.07 110.488L326.186 110.558V107.93L326.116 107.907C325.698 107.767 325.14 107.674 324.419 107.674C323.512 107.674 322.721 107.884 322 108.232C321.279 108.628 320.744 109.163 320.349 109.884C319.954 110.581 319.744 111.372 319.744 112.279V114.07H317.628V116.535H319.744V126.953H322.791V116.558H327.349V123.186C327.349 125.907 328.628 127.279 331.186 127.279C331.605 127.279 332.047 127.209 332.465 127.139C332.907 127.046 333.233 126.93 333.419 126.837L333.442 126.814V124.325L333.326 124.419C333.14 124.535 332.977 124.628 332.698 124.698C332.465 124.767 332.256 124.791 332.093 124.791C331.488 124.791 331.07 124.651 330.768 124.302C330.488 123.977 330.349 123.442 330.349 122.651V116.558H333.442Z" fill="#737373"/>
<path d="M193 103H207.256V117.256H193V103Z" fill="#F25022"/>
<path d="M208.744 103H223V117.256H208.744V103Z" fill="#7FBA00"/>
<path d="M193 118.744H207.256V133H193V118.744Z" fill="#00A4EF"/>
<path d="M208.744 118.744H223V133H208.744V118.744Z" fill="#FFB900"/>
<path d="M413.967 117.225H410V112.341H414.079V111.101C414.079 105.093 416.811 103 422.2 103C423.659 103 424.782 103.233 425.642 103.388L425.231 108.194C424.67 108 424.108 107.884 423.098 107.884C421.377 107.884 420.703 109.124 420.703 111.101V112.341H425.493V117.225H420.703V132.535H413.967V117.225ZM429.01 103.465H435.746V132.534H429.01V103.465ZM441.509 103.93H448.245V109.047H441.509V103.93ZM441.509 112.341H448.245V132.534H441.509V112.341ZM468.49 118.116C467.255 117.341 466.02 116.992 464.411 116.992C461.492 116.992 459.247 119.085 459.247 122.574C459.247 125.791 461.866 127.883 464.785 127.883C466.32 127.883 467.854 127.535 468.977 126.915L469.126 132.108C467.442 132.69 465.422 133 463.625 133C457.188 133 452.286 129.124 452.286 122.457C452.286 115.752 457.188 111.876 463.625 111.876C465.646 111.876 467.442 112.225 468.977 113L468.49 118.116ZM478.669 120.829H478.744L484.357 112.341H491.729L484.956 121.604L492.29 132.534H484.132L478.744 122.535H478.669V132.534H471.933V103.465H478.669V120.829Z" fill="#0063DB"/>
<path d="M508.718 117.922C507.97 117.69 507.221 117.69 506.436 117.69C503.292 117.69 501.533 120.054 501.533 124.008V132.534H494.798V112.341H500.934V116.062H501.009C502.169 113.504 503.853 111.876 506.772 111.876C507.558 111.876 508.381 111.992 509.055 112.108L508.718 117.922Z" fill="#FF0084"/>
<path d="M636.93 126.623L638.411 123.183C640.011 124.377 642.137 124.998 644.239 124.998C645.791 124.998 646.771 124.401 646.771 123.494C646.747 120.962 637.479 122.944 637.408 116.591C637.384 113.366 640.25 110.882 644.311 110.882C646.723 110.882 649.135 111.479 650.855 112.841L649.47 116.352C647.893 115.349 645.935 114.632 644.072 114.632C642.806 114.632 641.97 115.229 641.97 115.994C641.994 118.478 651.333 117.116 651.428 123.183C651.428 126.479 648.634 128.796 644.621 128.796C641.683 128.796 638.984 128.104 636.93 126.623ZM693.753 121.941C693.013 123.231 691.627 124.115 690.027 124.115C687.662 124.115 685.752 122.204 685.752 119.839C685.752 117.475 687.662 115.564 690.027 115.564C691.627 115.564 693.013 116.447 693.753 117.737L697.838 115.468C696.309 112.745 693.371 110.882 690.027 110.882C685.083 110.882 681.07 114.895 681.07 119.839C681.07 124.783 685.083 128.796 690.027 128.796C693.395 128.796 696.309 126.957 697.838 124.21L693.753 121.941ZM653.482 103.454H658.594V128.462H653.482V103.454ZM699.844 103.454V128.462H704.955V120.962L711.022 128.462H717.567L709.852 119.553L716.994 111.24H710.736L704.955 118.143V103.454H699.844ZM673.785 121.989C673.045 123.207 671.516 124.115 669.796 124.115C667.432 124.115 665.521 122.204 665.521 119.839C665.521 117.475 667.432 115.564 669.796 115.564C671.516 115.564 673.045 116.519 673.785 117.761V121.989ZM673.785 111.24V113.271C672.949 111.862 670.871 110.882 668.697 110.882C664.207 110.882 660.672 114.847 660.672 119.815C660.672 124.783 664.207 128.796 668.697 128.796C670.871 128.796 672.949 127.817 673.785 126.408V128.438H678.896V111.24H673.785Z" fill="black"/>
<path d="M605.33 121.965C605.33 123.709 603.92 125.118 602.177 125.118C600.433 125.118 599.024 123.709 599.024 121.965C599.024 120.221 600.433 118.812 602.177 118.812H605.33V121.965ZM606.906 121.965C606.906 120.221 608.315 118.812 610.059 118.812C611.803 118.812 613.212 120.221 613.212 121.965V129.847C613.212 131.591 611.803 133 610.059 133C608.315 133 606.906 131.591 606.906 129.847V121.965Z" fill="#E01E5A"/>
<path d="M610.059 109.306C608.315 109.306 606.906 107.896 606.906 106.153C606.906 104.409 608.315 103 610.059 103C611.803 103 613.212 104.409 613.212 106.153V109.306H610.059ZM610.059 110.906C611.803 110.906 613.212 112.315 613.212 114.059C613.212 115.803 611.803 117.212 610.059 117.212H602.153C600.409 117.212 599 115.803 599 114.059C599 112.315 600.409 110.906 602.153 110.906H610.059Z" fill="#36C5F0"/>
<path d="M622.694 114.059C622.694 112.315 624.103 110.906 625.847 110.906C627.591 110.906 629 112.315 629 114.059C629 115.803 627.591 117.212 625.847 117.212H622.694V114.059ZM621.118 114.059C621.118 115.803 619.709 117.212 617.965 117.212C616.221 117.212 614.812 115.803 614.812 114.059V106.153C614.812 104.409 616.221 103 617.965 103C619.709 103 621.118 104.409 621.118 106.153V114.059Z" fill="#2EB67D"/>
<path d="M617.965 126.694C619.709 126.694 621.118 128.103 621.118 129.847C621.118 131.591 619.709 133 617.965 133C616.221 133 614.812 131.591 614.812 129.847V126.694H617.965ZM617.965 125.118C616.221 125.118 614.812 123.709 614.812 121.965C614.812 120.221 616.221 118.812 617.965 118.812H625.871C627.615 118.812 629.024 120.221 629.024 121.965C629.024 123.709 627.615 125.118 625.871 125.118H617.965Z" fill="#ECB22E"/>
<path d="M894.926 128.82H889.751V118.125C889.751 116.553 889.089 115.685 887.309 115.685C885.967 115.685 885.103 116.327 884.135 117.1V128.82H878.959V112.169H883.989V113.633C885.677 112.5 887.608 111.778 889.702 111.778C893.003 111.778 894.926 113.83 894.926 116.954V128.82ZM908.854 115.489H904.312V123.009C904.312 125.149 905.44 125.548 906.9 125.548C907.408 125.548 907.958 125.475 908.513 125.401L908.854 128.772C907.664 128.982 906.077 129.161 905.045 129.161C901.913 129.161 899.136 128.069 899.136 124.23V115.489H896.5V112.169H899.136V108.506L904.312 107.042V112.169H908.854V115.489Z" fill="#36398E"/>
<path d="M868.515 98C865.897 102.437 867.033 106.454 864.472 109.016C862.416 111.073 860.508 111.007 858.265 111.007C857.484 111.007 855.969 111.074 855.333 111.535C854.965 110.363 854.806 109.073 854.806 107.844C854.806 105.731 855.28 103.853 856.799 102.336C859.707 99.4285 864.976 98.5038 868.515 98Z" fill="#009F3C"/>
<path d="M823.495 112.169L815.195 132.336C813.918 135.433 811.357 137.706 807.87 137.706C806.125 137.706 805.201 137.479 804.061 137.218L804.794 133.899C805.715 134.103 806.404 134.191 807.04 134.191C809.121 134.191 810.229 132.42 811.241 129.991L811.729 128.82L805.284 112.169H810.85L813.878 120.421C814.243 121.417 814.446 122.438 814.611 123.155C814.799 122.432 815.169 121.233 815.538 120.274L818.663 112.169H823.495ZM840.531 128.82H835.355V118.125C835.355 116.553 834.694 115.685 832.913 115.685C831.577 115.685 830.708 116.329 829.74 117.1V128.82H824.564V112.169H829.594V113.633C831.282 112.5 833.214 111.778 835.307 111.778C838.608 111.778 840.531 113.829 840.531 116.954V128.82Z" fill="#36398E"/>
<path d="M924.739 128.82H919.855V127.502C918.586 128.624 916.945 129.161 915.119 129.161C912.02 129.161 909.894 127.662 909.894 124.522C909.894 119.002 915.405 118.146 919.708 118.125V117.687C919.708 116.314 919.19 115.342 916.73 115.342C915.072 115.342 913.182 116.164 911.944 116.905L910.674 113.828C912.874 112.636 915.604 111.778 918.193 111.778C922.168 111.778 924.738 113.679 924.738 117.003V128.82H924.739ZM919.708 124.376V121.3C917.312 121.261 915.072 121.5 915.072 123.79C915.072 125.206 916.265 125.645 917.17 125.645C918.243 125.645 919.075 125.109 919.708 124.376ZM805.211 123.497C805.211 127.121 801.861 129.112 797.886 129.112C795.297 129.112 793.206 128.68 791 127.794L792.416 124.424C793.728 124.956 795.616 125.548 797.152 125.548C798.356 125.548 800.035 125.401 800.035 123.936C800.035 123.254 799.605 122.9 798.812 122.667C797.823 122.375 796.3 122.113 795.297 121.837C793.187 121.255 791.439 120.148 791.439 117.051C791.439 113.618 794.369 111.485 798.374 111.485C801.02 111.485 802.699 111.834 804.186 112.266L802.866 115.636C802.211 115.338 800.368 114.903 799.057 114.903C797.634 114.903 796.664 115.447 796.664 116.319C796.664 116.751 796.933 117.298 797.69 117.54C798.503 117.8 799.787 118.036 800.865 118.272C803.069 118.756 805.211 120.023 805.211 123.497ZM876.689 119.884C876.689 120.435 876.672 121.005 876.641 121.593H865.605C865.652 124.015 866.86 125.449 870.39 125.449C871.954 125.449 873.834 124.739 874.641 124.181L876.008 127.257C873.726 128.495 871.27 129.161 868.535 129.161C863.363 129.161 860.14 125.83 860.14 120.518C860.14 115.119 864.364 111.778 868.927 111.778C874.611 111.778 876.689 115.099 876.689 119.884ZM871.367 118.272C871.456 116.437 870.534 115.294 868.729 115.294C866.986 115.294 865.948 116.573 865.655 118.272H871.367ZM860.15 130.871C860.15 135.727 855.309 137.977 850.529 138C846.325 138.02 842.278 136.81 842.278 132.775C842.278 130.887 843.949 129.625 844.963 128.966C844.399 128.644 843.889 128.392 843.448 127.891C842.985 127.365 842.618 126.596 842.618 125.303C842.618 123.676 844.054 122.17 845.793 121.202C844.828 120.694 843.547 119.877 843.547 117.149C843.547 113.6 846.914 111.73 851.311 111.73C855.048 111.73 858.635 112.623 858.635 117.003C858.635 121.187 854.703 122.715 850.726 122.715C849.983 122.715 849.321 122.598 848.673 122.472C848.249 122.698 847.403 123.259 847.403 123.888C847.403 125.167 849.15 125.353 849.943 125.353H854.043C857.848 125.353 860.15 127.198 860.15 130.871ZM853.605 117.246C853.605 115.852 852.835 114.707 851.115 114.707C849.543 114.707 848.577 116.037 848.577 117.246C848.577 118.643 849.446 119.785 851.018 119.785C852.745 119.785 853.605 118.639 853.605 117.246ZM854.972 131.554C854.972 130.196 853.886 129.699 852.775 129.699H848.234C847.542 130.094 846.474 130.96 846.474 132.091C846.474 133.554 848.444 134.533 850.771 134.533C853.183 134.533 854.972 133.425 854.972 131.554Z" fill="#36398E"/>
<path d="M1055.01 108H1061.21V127.999H1056.62V114.55L1050.74 127.998L1044.56 114.533V127.998H1040.27V107.999H1046.4L1050.81 118.351L1055.01 108ZM1063.49 108V127.999H1075.03V124.608H1067.96V119.52H1074.74V116.098H1067.96V111.51H1075.03V108H1063.49ZM1092.24 118.003C1092.24 125.447 1100.01 131.404 1108.2 127.419V123.135C1101.9 127.548 1096.41 123.125 1096.5 118.174C1096.56 114.883 1098.78 111.753 1103.05 111.51C1105.16 111.39 1106.58 111.913 1108.2 113.458V109.002C1102.28 105.497 1092.24 109.355 1092.24 118.003ZM1110.08 127.998H1114.34V108.192H1110.08V127.998ZM1119.67 117.274L1126.1 108.236H1121.13L1114.77 117.257L1122.16 127.998H1127.04L1119.67 117.274Z" fill="#231F20"/>
<path d="M1077.02 107.999V127.998H1081.51V117.254L1088.93 127.998H1093.71L1087.84 119.601C1090.56 118.571 1091.44 116.289 1091.44 114.007C1091.44 111.727 1089.53 108 1084.89 108L1077.02 107.999ZM1081.51 111.328H1083.47C1086.78 111.328 1086.96 113.493 1086.96 114.302C1086.96 115.847 1085.65 117.163 1083.95 117.163H1081.51V111.328Z" fill="#231F20"/>
<path d="M999.999 108C999.999 102.477 1004.48 98 1010 98C1015.52 98 1020 102.477 1020 108H999.999ZM999.999 128C999.999 122.477 1004.48 117.999 1010 117.999C1004.48 117.999 999.999 113.524 999.999 108C994.477 108 990 112.477 990 117.999C990 123.524 994.477 128 999.999 128ZM999.999 128C999.999 133.524 1004.48 138 1010 138C1015.52 138 1020 133.524 1020 128H999.999ZM1010 117.999C1015.52 117.999 1020 122.477 1020 128C1025.52 128 1030 123.524 1030 117.999C1030 112.477 1025.52 108 1020 108C1020 113.524 1015.52 117.999 1010 117.999Z" fill="#007A73"/>
</svg>
