<svg width="138" height="40" viewBox="0 0 138 40" fill="none" xmlns="http://www.w3.org/2000/svg">
<path d="M65.0109 9.99982H71.2074V29.9986H66.6155V16.5495L60.7413 29.9981L54.5589 16.5326V29.9981H50.2747V9.99932H56.399L60.8148 20.3506L65.0109 9.99982ZM73.4908 9.99982V29.9986H85.0301V26.6082H77.9641V21.5199H84.7378V18.0978H77.9641V13.5096H85.0301V9.99982H73.4908ZM102.24 20.0027C102.24 27.4468 110.01 33.4041 118.196 29.4195V25.1349C111.897 29.5477 106.413 25.1248 106.503 20.1736C106.565 16.883 108.776 13.7534 113.054 13.5096C115.157 13.3902 116.582 13.913 118.196 15.4579V11.0023C112.281 7.49733 102.24 11.3552 102.24 20.0027ZM120.084 29.9983H124.337V10.1922H120.084V29.9983ZM129.674 19.2742L136.102 10.2359H131.134L124.766 19.2573L132.159 29.9983H137.037L129.674 19.2742Z" fill="#231F20"/>
<path d="M87.0183 9.99927V29.998H91.5073V19.2539L98.9277 29.998H103.713L97.8384 21.6009C100.561 20.5714 101.444 18.2886 101.444 16.0067C101.444 13.7271 99.5303 9.99952 94.8939 9.99952L87.0183 9.99927ZM91.5073 13.3275H93.4668C96.7796 13.3275 96.9563 15.493 96.9563 16.3018C96.9563 17.8468 95.6454 19.1625 93.9535 19.1625H91.5073V13.3275Z" fill="#231F20"/>
<path d="M9.99937 10.0001C9.99937 4.47687 14.4772 0 19.9995 0C25.5238 0 29.9999 4.47687 29.9999 10.0001H9.99937ZM9.99937 29.9999C9.99937 24.4774 14.4772 19.9995 19.9995 19.9995C14.4772 19.9995 9.99937 15.5236 9.99937 10.0001C4.47687 10.0001 0 14.4772 0 19.9995C0 25.5238 4.47687 29.9999 9.99937 29.9999ZM9.99937 29.9999C9.99937 35.5241 14.4772 40 19.9995 40C25.5238 40 29.9999 35.5241 29.9999 29.9999H9.99937ZM19.9995 19.9995C25.5238 19.9995 29.9999 24.4774 29.9999 29.9999C35.5231 29.9999 40.001 25.524 40.001 19.9995C40.001 14.4772 35.5231 10.0001 29.9999 10.0001C29.9999 15.5236 25.524 19.9995 19.9995 19.9995Z" fill="#007A73"/>
</svg>
