<svg width="119" height="30" viewBox="0 0 119 30" fill="none" xmlns="http://www.w3.org/2000/svg">
<path d="M37.9299 23.6226L39.4108 20.1832C41.0111 21.3774 43.1369 21.9984 45.2388 21.9984C46.7914 21.9984 47.7707 21.4013 47.7707 20.4937C47.7468 17.9618 38.4793 19.9443 38.4076 13.5908C38.3838 10.3663 41.25 7.8822 45.3105 7.8822C47.7229 7.8822 50.1353 8.47934 51.8551 9.8408L50.4697 13.3519C48.8933 12.3488 46.9347 11.6322 45.0717 11.6322C43.8057 11.6322 42.9697 12.2293 42.9697 12.9937C42.9936 15.4777 52.3328 14.1163 52.4283 20.1832C52.4283 23.4793 49.6338 25.7962 45.621 25.7962C42.6831 25.7962 39.9841 25.1035 37.9299 23.6226ZM94.7532 18.9411C94.0127 20.2309 92.6274 21.1147 91.0271 21.1147C88.6624 21.1147 86.7516 19.2039 86.7516 16.8392C86.7516 14.4746 88.6624 12.5637 91.0271 12.5637C92.6274 12.5637 94.0127 13.4475 94.7532 14.7373L98.8376 12.4682C97.3089 9.74526 94.371 7.8822 91.0271 7.8822C86.0828 7.8822 82.0701 11.8949 82.0701 16.8392C82.0701 21.7835 86.0828 25.7962 91.0271 25.7962C94.3949 25.7962 97.3089 23.957 98.8376 21.2102L94.7532 18.9411ZM54.4825 0.453857H59.5939V25.4618H54.4825V0.453857ZM100.844 0.453857V25.4618H105.955V17.9618L112.022 25.4618H118.567L110.852 16.5526L117.994 8.24048H111.736L105.955 15.1433V0.453857H100.844ZM74.785 18.9889C74.0446 20.207 72.5159 21.1147 70.7962 21.1147C68.4315 21.1147 66.5207 19.2039 66.5207 16.8392C66.5207 14.4746 68.4315 12.5637 70.7962 12.5637C72.5159 12.5637 74.0446 13.5191 74.785 14.7612V18.9889ZM74.785 8.24048V10.2707C73.949 8.8615 71.871 7.8822 69.6974 7.8822C65.207 7.8822 61.672 11.8472 61.672 16.8153C61.672 21.7835 65.207 25.7962 69.6974 25.7962C71.871 25.7962 73.949 24.8169 74.785 23.4077V25.4379H79.8965V8.24048H74.785Z" fill="black"/>
<path d="M6.32966 18.9649C6.32966 20.7085 4.92042 22.1177 3.17679 22.1177C1.43316 22.1177 0.0239258 20.7085 0.0239258 18.9649C0.0239258 17.2212 1.43316 15.812 3.17679 15.812H6.32966V18.9649ZM7.90609 18.9649C7.90609 17.2212 9.31533 15.812 11.059 15.812C12.8026 15.812 14.2118 17.2212 14.2118 18.9649V26.847C14.2118 28.5907 12.8026 29.9999 11.059 29.9999C9.31533 29.9999 7.90609 28.5907 7.90609 26.847V18.9649Z" fill="#E01E5A"/>
<path d="M11.0589 6.30573C9.31529 6.30573 7.90605 4.8965 7.90605 3.15287C7.90605 1.40924 9.31529 0 11.0589 0C12.8025 0 14.2118 1.40924 14.2118 3.15287V6.30573H11.0589ZM11.0589 7.90605C12.8025 7.90605 14.2118 9.31529 14.2118 11.0589C14.2118 12.8025 12.8025 14.2118 11.0589 14.2118H3.15287C1.40924 14.2118 0 12.8025 0 11.0589C0 9.31529 1.40924 7.90605 3.15287 7.90605H11.0589Z" fill="#36C5F0"/>
<path d="M23.6942 11.0589C23.6942 9.31529 25.1034 7.90605 26.847 7.90605C28.5907 7.90605 29.9999 9.31529 29.9999 11.0589C29.9999 12.8025 28.5907 14.2118 26.847 14.2118H23.6942V11.0589ZM22.1177 11.0589C22.1177 12.8025 20.7085 14.2118 18.9649 14.2118C17.2212 14.2118 15.812 12.8025 15.812 11.0589V3.15287C15.812 1.40924 17.2212 0 18.9649 0C20.7085 0 22.1177 1.40924 22.1177 3.15287V11.0589Z" fill="#2EB67D"/>
<path d="M18.9649 23.6942C20.7085 23.6942 22.1177 25.1034 22.1177 26.847C22.1177 28.5907 20.7085 29.9999 18.9649 29.9999C17.2212 29.9999 15.812 28.5907 15.812 26.847V23.6942H18.9649ZM18.9649 22.1177C17.2212 22.1177 15.812 20.7085 15.812 18.9649C15.812 17.2212 17.2212 15.812 18.9649 15.812H26.8709C28.6146 15.812 30.0238 17.2212 30.0238 18.9649C30.0238 20.7085 28.6146 22.1177 26.8709 22.1177H18.9649Z" fill="#ECB22E"/>
</svg>
