<svg width="33" height="33" viewBox="0 0 33 33" fill="none" xmlns="http://www.w3.org/2000/svg">
<path d="M21.7141 16.3262C21.7141 17.6523 21.1873 18.924 20.2496 19.8617C19.312 20.7994 18.0402 21.3262 16.7141 21.3262C15.388 21.3262 14.1163 20.7994 13.1786 19.8617C12.2409 18.924 11.7141 17.6523 11.7141 16.3262C11.7141 16.0412 11.7441 15.7628 11.7958 15.4928H10.0474V22.1545C10.0474 22.6178 10.4224 22.9928 10.8858 22.9928H22.5441C22.7662 22.9924 22.979 22.9039 23.1358 22.7467C23.2927 22.5895 23.3808 22.3766 23.3808 22.1545V15.4928H21.6324C21.6841 15.7628 21.7141 16.0412 21.7141 16.3262ZM16.7141 19.6595C17.152 19.6594 17.5855 19.573 17.99 19.4054C18.3945 19.2377 18.762 18.992 19.0715 18.6824C19.381 18.3727 19.6265 18.0051 19.794 17.6005C19.9614 17.1959 20.0476 16.7624 20.0474 16.3245C20.0473 15.8867 19.961 15.4531 19.7933 15.0486C19.6257 14.6442 19.38 14.2767 19.0703 13.9671C18.7606 13.6576 18.393 13.4121 17.9884 13.2447C17.5839 13.0772 17.1503 12.9911 16.7124 12.9912C15.8282 12.9914 14.9802 13.3429 14.3551 13.9683C13.73 14.5938 13.3789 15.4419 13.3791 16.3262C13.3793 17.2104 13.7308 18.0584 14.3563 18.6835C14.9817 19.3087 15.8298 19.6597 16.7141 19.6595ZM20.7141 12.8262H22.7124C22.8452 12.8262 22.9726 12.7735 23.0666 12.6798C23.1606 12.5861 23.2137 12.4589 23.2141 12.3262V10.3278C23.2141 10.1948 23.1613 10.0672 23.0672 9.97311C22.9731 9.87903 22.8455 9.82617 22.7124 9.82617H20.7141C20.5811 9.82617 20.4535 9.87903 20.3594 9.97311C20.2653 10.0672 20.2124 10.1948 20.2124 10.3278V12.3262C20.2141 12.6012 20.4391 12.8262 20.7141 12.8262ZM16.7141 0.326172C12.4706 0.326172 8.40098 2.01188 5.4004 5.01246C2.39982 8.01304 0.714111 12.0827 0.714111 16.3262C0.714111 20.5696 2.39982 24.6393 5.4004 27.6399C8.40098 30.6405 12.4706 32.3262 16.7141 32.3262C18.8153 32.3262 20.8958 31.9123 22.837 31.1082C24.7783 30.3042 26.5421 29.1256 28.0278 27.6399C29.5136 26.1541 30.6921 24.3903 31.4962 22.4491C32.3003 20.5079 32.7141 18.4273 32.7141 16.3262C32.7141 14.225 32.3003 12.1444 31.4962 10.2032C30.6921 8.26203 29.5136 6.4982 28.0278 5.01246C26.5421 3.52673 24.7783 2.34817 22.837 1.5441C20.8958 0.740024 18.8153 0.326172 16.7141 0.326172ZM25.0474 22.8078C25.0474 23.8262 24.2141 24.6595 23.1958 24.6595H10.2324C9.21411 24.6595 8.38078 23.8262 8.38078 22.8078V9.84451C8.38078 8.82617 9.21411 7.99284 10.2324 7.99284H23.1958C24.2141 7.99284 25.0474 8.82617 25.0474 9.84451V22.8078Z" fill="#444B51"/>
</svg>
