<svg width="65" height="72" viewBox="0 0 65 72" fill="none" xmlns="http://www.w3.org/2000/svg">
<path d="M33.3124 1.18787L62.9307 15.8861C63.663 16.2109 63.9885 16.9418 63.9885 17.6726C63.1748 30.8279 59.7573 41.547 54.4683 50.236C49.1793 58.925 41.9375 65.5839 33.3937 70.6187C32.8241 71.0247 32.0918 70.9435 31.4409 70.6187C22.9785 65.5027 15.818 58.8438 10.529 50.236C5.24006 41.547 1.82256 30.8279 1.00887 17.6726C0.927503 16.8606 1.41572 16.2109 2.06667 15.8861L31.685 1.18787C32.1732 0.944256 32.8241 1.02546 33.3124 1.18787ZM32.4987 24.3315C34.6956 24.3315 36.5671 25.2247 38.0318 26.6052C39.415 27.9857 40.3101 29.9346 40.3101 32.1272C40.3101 33.6701 39.8219 35.1318 39.0896 36.3499C38.6013 37.1619 37.9504 37.8116 37.2181 38.38L39.415 44.7953C39.7405 45.7697 39.2523 46.7442 38.2759 47.1502C38.0318 47.2314 37.869 47.2314 37.6249 47.2314H27.3724C26.3146 47.2314 25.5009 46.4194 25.5009 45.3637C25.5009 45.1201 25.5823 44.7953 25.6637 44.6329L27.8606 38.38C27.1283 37.8116 26.4774 37.1619 25.9891 36.3499C25.1755 35.1318 24.7686 33.6701 24.7686 32.1272C24.7686 29.9346 25.6637 28.0669 27.0469 26.6052C28.4302 25.2247 30.3017 24.3315 32.4987 24.3315ZM35.428 29.2038C34.6956 28.473 33.6378 27.9857 32.4987 27.9857C31.3595 27.9857 30.3831 28.473 29.6508 29.2038C28.9184 29.9347 28.4302 30.9903 28.4302 32.1272C28.4302 32.9393 28.6743 33.7513 29.0812 34.3198C29.488 34.9694 30.139 35.5378 30.8713 35.8627C31.7663 36.2687 32.1732 37.2432 31.8477 38.1364L29.9762 43.496H35.1025L33.231 38.1364C32.9055 37.2432 33.3124 36.2687 34.2074 35.8627C34.9397 35.5378 35.5093 35.0506 35.9975 34.3198C36.4044 33.6701 36.6485 32.9393 36.6485 32.1272C36.5671 30.9903 36.1603 29.9347 35.428 29.2038ZM60.2455 18.6471L32.4987 4.92333L4.75185 18.6471C5.6469 30.6655 8.82029 40.4102 13.6211 48.2871C18.4218 56.0829 24.85 62.1733 32.4987 66.8832C40.1474 62.1733 46.5755 56.1641 51.3763 48.2871C56.177 40.4102 59.3504 30.6655 60.2455 18.6471Z" stroke="#FF6A00" stroke-width="2"/>
</svg>
