<svg style="visibility: hidden; width: 0; height: 0;">

  <symbol id="logo-icon" xmlns="http://www.w3.org/2000/svg" viewBox="0 0 358.4 447.2">
    <path fill="#000" d="m.1 112.2 268.6-72 89.7 334.6-268.6 72z"/>
    <path fill="#fff" d="m24.8 122.4 227.7-61 80.4 300-227.7 61z"/>
    <path
      d="M57.8 180.2 163.3 152m-98.6 53.8 105.5-28.2m-98.6 53.9L177 203.3m-98.6 53.8 70-18.7m-60.8 53L193.1 263m-98.6 54 105.4-28.3m-98.6 53.9 105.5-28.2m-98.6 53.9L213.7 340M115 394l74.4-20"
      stroke-width="13" stroke="#000" fill="none"/>
    <path d="M114.3 1.7a48.5 48.5 0 0 0-26 76.2L41.8 90.4l13 48.7 180-48.2-13-48.7L175 54.7a48.4 48.4 0 0 0-60.7-53.1z"
          fill="#333"/>
    <path stroke="#000" stroke-width="11.4" fill="none" d="m186.7 145.5 48.7-13 13 48.7-48.7 13z"/>
    <path
      d="m204.6 146 9.6 9.2 2.5 2.5c.9 1 1.5 2.3 2.3 3.4l3.3 4.5 6 8c3.5 3.4 13.5 1-8.3 7.6-1.2.4 1-2.4 1.2-3.6.4-1.9.5-3.8.8-5.8 1-9.9 1.2-19.8 3-29.6 1.3-6.2 2-8.4 3.8-14.5 2.8-9.6 6.5-18.8 10-28.2l11-6.7a352 352 0 0 0-10.2 28.1c-1.7 5.9-2.6 8.6-3.8 14.5-1.9 9.6-2.3 19.5-2.8 29.3l-.3 5.7c0 1.3.6 3-.3 3.9a49.5 49.5 0 0 1-13 9.2c-.7.4-1.3-1.2-1.8-1.8-2-2.6-3.6-5.6-5.9-8.2-2-2.4-3.9-5-6-7.4a74.9 74.9 0 0 0-12-11.3l11-8.7z"
      fill="#a00"/>
    <path stroke="#000" stroke-width="11.4" fill="none" d="m207.7 224 48.7-13 13 48.7-48.6 13z"/>
    <path
      d="m268.1 205.8-9.9 7.6c-6 10.8-3 5.2-9.2 17l-5.3 10.6c-7-3.6-14-6.6-21.5-8.7l-9.1 11c1.8.2 3.6.2 5.4.7 6.9 1.7 13.3 5 19.6 8.5-4.5 9.3-8.8 18.8-13 28.2l11.4-9c1.9-5.5 4-11 6.4-16.4l4.2 2.5c6.2 4 11.6 8.8 17.6 13l9.4-9.9-4-2.5c-4.6-3.3-8.9-7.3-13.8-10.2l-8-4.7a689 689 0 0 1 10-20.5c6.7-11.9 3.4-6.2 9.8-17.2z"
      fill="#a00"/>
    <path stroke="#000" stroke-width="11.4" fill="none" d="m228.8 302.6 48.7-13 13 48.6-48.7 13.1z"/>
    <path
      d="M246.2 300c2.6 3.6 5.4 6.9 8.1 10.4.8 1 1.5 1.8 2 2.7.8 1.3 1.4 2.6 2 3.8l2.5 4.9c.3.5 4.3 8 5 8.7 2.8 3.9 13 3-9.4 6.5-1.3.1 1.1-2.2 1.6-3.4l1.6-5.7c2.4-9.6 4-19.4 7.3-28.8 2-6 3.2-8 5.7-13.8 4.2-9.1 9.2-17.8 14-26.5l11.8-5c-4.9 8.6-10 17.2-14 26.3-2.6 5.6-3.8 8-5.8 13.8-3.4 9.2-5.2 19-7 28.6a168 168 0 0 1-1.2 5.5c-.2 1.3.2 3.1-.9 4-4.2 3-9 5.5-14 7.2-.8.3-1.2-1.4-1.6-2.1-1.7-2.9-2.8-6.1-4.7-9l-4.8-8.1a75 75 0 0 0-10.3-13l12.1-7z"
      fill="#a00"/>
  </symbol>

  <symbol id="basket-icon"  viewBox="0 0 512 512"
          xml:space="preserve"
          xmlns="http://www.w3.org/2000/svg">
     <style>
        .st2 {
          fill: #1805cb
        }
    </style>
    <circle cx="256" cy="256" r="250" style="fill:none"/>
    <path
      d="m506 258.3-.7-.8L385.8 138a10.6 10.6 0 0 0-8.1-3.3l-56.6.1c-1.5 0-2.5-.4-3.6-1.5l-21.7-21.8a16.2 16.2 0 0 0-12.2-5.1h-54c-3.7 0-7.1 1-10 3.4a13.5 13.5 0 0 0-4.9 10.5v14.3h-80.9c-3.4.3-6 2.5-6.7 5.6-.6 2.7.3 5 2.2 7 5.2 5.2 10.3 10.5 15.7 15.6 2 1.9 2.9 3.9 2.9 6.7l1.9 51.3 1.2 33.1 1.8 45.8 1.1 29.3 1.9 47.9c.1 2.8.2 5.6.7 8.4 1 6.1 4.3 10.9 8.6 15.2l64.2 64.1 40.2 40.2.9.8A250.1 250.1 0 0 0 506 258.3z"
      style="fill:none"/>
    <path class="st2"
          d="M378.7 134.3h-80.6V120a14 14 0 0 0-14-14H228a14 14 0 0 0-14 14v14.2h-80.6a7.1 7.1 0 0 0-7.1 7.1c0 3.9 3.2 7.1 7.1 7.1h13.1l8.9 232.3a26.3 26.3 0 0 0 26.3 25.4h148.7a26.2 26.2 0 0 0 26.3-25.4l8.9-232.3h13.1a7 7 0 1 0 0-14.1zM228 120.1h56v14.1h-56v-14.1zm114.6 260a12.2 12.2 0 0 1-12.2 11.8H181.6c-6.6 0-12-5.2-12.2-11.8l-8.9-231.7h191l-8.9 231.7z"/>
    <path class="st2"
          d="M206 205.5h-.1a7 7 0 0 0-6.9 7.2l2.2 115.2a7 7 0 0 0 7.1 6.9h.1a7 7 0 0 0 6.9-7.2L213 212.4a7 7 0 0 0-7-6.9zm50 0a7.1 7.1 0 0 0-7.1 7.1v115.2c0 3.9 3.2 7.1 7.1 7.1 3.9 0 7.1-3.2 7.1-7.1V212.5a7 7 0 0 0-7.1-7zm47.7 129.3h.1c3.8 0 7-3.1 7.1-6.9l2.2-115.2a7 7 0 1 0-14.1-.3l-2.2 115.2a7 7 0 0 0 6.9 7.2z"/>
  </symbol>

  <symbol id="ok-icon"  viewBox="0 0 612 792" xml:space="preserve"
          xmlns="http://www.w3.org/2000/svg" xmlns:xlink="http://www.w3.org/1999/xlink">
     <defs>
          <path id="a" d="M50 140h512v512H50z"/>
        </defs>
    <clipPath id="b">
        <use style="overflow:visible" xlink:href="#a"/>
          </clipPath>
    <path
      d="M306 629.5c128.8 0 233.5-104.7 233.5-233.5S434.8 162.5 306 162.5 72.5 267.2 72.5 396 177.2 629.5 306 629.5z"
      style="clip-path:url(#b);fill:none;stroke:#41ad49;stroke-width:45"/>
    <path style="clip-path:url(#b);fill:;stroke:;stroke-width:45" d="M421.4 271 241.9 450.5l-67-67-52.9 52.9 119.9 119.8 15.4-15.4h.1l216.9-216.9-52.9-52.9z"/>

  </symbol>

  <symbol id="out-icon" xmlns="http://www.w3.org/2000/svg" viewBox="0 0 320 320" style="enable-background:new 0 0 320.002 320.002" xml:space="preserve">

  <path d="M51.2 175H225a15 15 0 0 0 0-30H51.2l19.4-19.4a15 15 0 1 0-21.2-21.2l-45 45-1 1.1-.4.5-.5.7-.4.6-.3.6-.4.7-.3.7-.2.6c0 .3-.2.5-.3.7l-.1.7-.2.8-.1.8-.1.6L0 160v1.5l.2.6v.8l.3.8.1.7.3.7.2.6.3.7.4.7.3.6.4.6.5.7.4.5 1 1v.1l45 45a15 15 0 0 0 21.2 0 15 15 0 0 0 0-21.2L51.2 175z"/>
      <path d="M305 25H115a15 15 0 0 0-15 15v60a15 15 0 0 0 30 0V55h160v210H130v-45a15 15 0 0 0-30 0v60a15 15 0 0 0 15 15h190a15 15 0 0 0 15-15V40a15 15 0 0 0-15-15z"/>

  </symbol>

</svg>
