<svg width="70" height="71" viewBox="0 0 70 71" fill="none" xmlns="http://www.w3.org/2000/svg">
<path d="M24.5 13.7769C24.3642 13.8785 24.2539 14.0104 24.178 14.162C24.102 14.3135 24.0625 14.4807 24.0625 14.6501C24.1815 18.7541 24.8901 22.8197 26.1669 26.7227C28.9537 35.2521 34.137 41.2404 41.1513 44.0446C41.4126 44.1479 41.7036 44.1479 41.965 44.0446C48.9836 41.2415 54.1669 35.2521 56.9494 26.7227C58.2291 22.8202 58.9407 18.7545 59.0625 14.6501C59.0625 14.4801 59.0226 14.3124 58.9462 14.1605C58.8697 14.0086 58.7588 13.8766 58.6222 13.775C58.4855 13.6734 58.327 13.6051 58.1593 13.5755C57.9915 13.5459 57.8192 13.5558 57.6559 13.6044C57.5531 13.6339 47.3922 16.5516 42.4528 9.6497C42.3465 9.51565 42.2112 9.40733 42.057 9.33287C41.9029 9.25841 41.7338 9.21973 41.5625 9.21973C41.3912 9.21973 41.2221 9.25841 41.068 9.33287C40.9138 9.40733 40.7785 9.51565 40.6722 9.6497C35.7317 16.5505 25.5719 13.635 25.4691 13.6044C25.3053 13.5556 25.1323 13.5457 24.964 13.5757C24.7957 13.6056 24.6368 13.6745 24.5 13.7769ZM41.5625 12.0304C46.3203 17.3572 53.6813 16.6466 56.8105 16.0418C56.4736 20.8054 54.3911 36.4222 41.5625 41.8505C28.7536 36.431 26.658 20.8076 26.3167 16.0429C29.4459 16.652 36.8058 17.3572 41.5625 12.0304Z" fill="#FF0084"/>
<path d="M41.056 39.1991C41.2122 39.2804 41.3857 39.3228 41.5619 39.3228C41.738 39.3228 41.9116 39.2804 42.0678 39.1991C50.4043 34.8514 53.2065 25.2381 54.134 19.896C54.1618 19.7371 54.1539 19.574 54.111 19.4185C54.0681 19.263 53.9911 19.1189 53.8857 18.9966C53.6735 18.751 52.5918 18.6222 52.5918 18.6222C48.8893 18.7413 45.2472 17.664 42.2078 15.5506C42.0204 15.414 41.7944 15.3403 41.5624 15.3403C41.3304 15.3403 41.1044 15.414 40.9171 15.5506C37.8778 17.6642 34.2356 18.7416 30.5331 18.6222C30.5331 18.6222 29.4328 18.7499 29.2206 18.9966C29.1154 19.1184 29.0386 19.2619 28.9954 19.4168C28.9523 19.5718 28.9441 19.7343 28.9712 19.8928C29.8801 25.2294 32.6615 34.835 41.056 39.1991ZM33.5945 27.7487H40.4687V36.3075C37.4288 34.1434 35.0493 31.1808 33.5945 27.7487ZM42.6562 36.3021V27.7487H49.4965C48.0468 31.1726 45.6801 34.132 42.6562 36.3021ZM50.3857 25.5656H42.6562V18.4257C45.4475 19.9317 48.5616 20.7431 51.7343 20.7911C51.3963 22.4119 50.9457 24.0072 50.3857 25.5656ZM40.4687 18.4268V25.5656H32.7031C32.1437 24.008 31.6956 22.4129 31.3621 20.7922C34.5443 20.7477 37.6685 19.9362 40.4687 18.4268Z" fill="#FF0084"/>
<path d="M57.9972 51.3382C57.1015 50.4489 55.9257 49.8955 54.6685 49.7714C53.4112 49.6473 52.1496 49.9601 51.0967 50.6571L41.2902 57.1813C36.3486 56.5744 33.5431 55.1073 32.0403 53.9459H39.9219C40.9372 53.9459 41.9109 53.5434 42.6288 52.8269C43.3467 52.1105 43.75 51.1387 43.75 50.1255C43.75 49.1122 43.3467 48.1405 42.6288 47.424C41.9109 46.7076 40.9372 46.3051 39.9219 46.3051H25.1563C24.8825 46.305 24.6187 46.4075 24.4169 46.5921L14.3467 55.8016L11.7108 53.1709C11.5057 52.9663 11.2275 52.8513 10.9375 52.8513C10.6475 52.8513 10.3693 52.9663 10.1642 53.1709L0.320473 62.9949C0.21851 63.0966 0.137706 63.2175 0.082708 63.3505C0.0277099 63.4835 -0.000396942 63.626 4.23472e-06 63.7699V69.2277C4.23472e-06 69.5172 0.115238 69.7948 0.320356 69.9995C0.525474 70.2042 0.803674 70.3192 1.09375 70.3192H21.875C22.1651 70.3192 22.4432 70.2041 22.6483 69.9994L24.8358 67.8163C25.0408 67.6116 25.156 67.334 25.156 67.0446C25.156 66.7551 25.0408 66.4775 24.8358 66.2728L15.8955 57.3494L25.5817 48.4882H39.9219C40.357 48.4882 40.7743 48.6607 41.082 48.9677C41.3897 49.2748 41.5625 49.6912 41.5625 50.1255C41.5625 50.5597 41.3897 50.9762 41.082 51.2833C40.7743 51.5903 40.357 51.7628 39.9219 51.7628H29.5313C29.3448 51.7627 29.1614 51.8102 28.9985 51.9008C28.8356 51.9913 28.6986 52.1219 28.6005 52.2802C28.5025 52.4384 28.4466 52.6191 28.4381 52.805C28.4297 52.9909 28.469 53.1758 28.5523 53.3423C28.653 53.5431 31.1259 58.2543 41.4422 59.3971C41.6979 59.4248 41.9552 59.3622 42.1695 59.2203L52.3097 52.4734C52.93 52.0629 53.6713 51.8743 54.4128 51.9384C55.1544 52.0024 55.8522 52.3153 56.3927 52.826L42.2898 65.8941L26.3944 63.7797C26.2504 63.7573 26.1035 63.7639 25.9621 63.7989C25.8207 63.834 25.6878 63.8969 25.5711 63.9839C25.4544 64.071 25.3563 64.1804 25.2826 64.3058C25.2088 64.4312 25.1609 64.57 25.1417 64.7141C25.1225 64.8583 25.1323 65.0048 25.1706 65.145C25.2088 65.2853 25.2748 65.4166 25.3646 65.531C25.4544 65.6455 25.5662 65.741 25.6934 65.8117C25.8207 65.8825 25.9608 65.9272 26.1056 65.9432L42.5119 68.1263C42.5597 68.1328 42.608 68.1361 42.6563 68.1361C42.9327 68.136 43.1988 68.0315 43.4011 67.8436L58.7136 53.6534C58.8212 53.5536 58.9076 53.4331 58.9676 53.2993C59.0275 53.1654 59.0598 53.0209 59.0626 52.8743C59.0654 52.7277 59.0385 52.582 58.9836 52.446C58.9287 52.31 58.8469 52.1864 58.7431 52.0826L57.9972 51.3382ZM21.4222 68.1361H2.1875V64.2218L10.9375 55.4894L22.5159 67.0446L21.4222 68.1361Z" fill="#FF0084"/>
<path d="M41.5625 7.00916C41.8526 7.00916 42.1308 6.89416 42.3359 6.68945C42.541 6.48475 42.6562 6.20711 42.6562 5.91761V1.55139C42.6562 1.26189 42.541 0.984254 42.3359 0.779548C42.1308 0.574842 41.8526 0.459839 41.5625 0.459839C41.2724 0.459839 40.9942 0.574842 40.7891 0.779548C40.584 0.984254 40.4688 1.26189 40.4688 1.55139V5.91761C40.4688 6.20711 40.584 6.48475 40.7891 6.68945C40.9942 6.89416 41.2724 7.00916 41.5625 7.00916Z" fill="#FF0084"/>
<path d="M68.9062 25.5656H64.5312C64.2412 25.5656 63.963 25.6806 63.7579 25.8853C63.5527 26.09 63.4375 26.3676 63.4375 26.6571C63.4375 26.9466 63.5527 27.2242 63.7579 27.429C63.963 27.6337 64.2412 27.7487 64.5312 27.7487H68.9062C69.1963 27.7487 69.4745 27.6337 69.6796 27.429C69.8848 27.2242 70 26.9466 70 26.6571C70 26.3676 69.8848 26.09 69.6796 25.8853C69.4745 25.6806 69.1963 25.5656 68.9062 25.5656Z" fill="#FF0084"/>
<path d="M14.2188 27.7487H18.5938C18.8838 27.7487 19.162 27.6337 19.3671 27.429C19.5723 27.2242 19.6875 26.9466 19.6875 26.6571C19.6875 26.3676 19.5723 26.09 19.3671 25.8853C19.162 25.6806 18.8838 25.5656 18.5938 25.5656H14.2188C13.9287 25.5656 13.6505 25.6806 13.4454 25.8853C13.2402 26.09 13.125 26.3676 13.125 26.6571C13.125 26.9466 13.2402 27.2242 13.4454 27.429C13.6505 27.6337 13.9287 27.7487 14.2188 27.7487Z" fill="#FF0084"/>
<path d="M60.1247 4.40575L57.0304 7.49266C56.926 7.59335 56.8427 7.7138 56.7853 7.84698C56.728 7.98015 56.6978 8.12338 56.6966 8.26832C56.6953 8.41325 56.723 8.55699 56.778 8.69114C56.833 8.82529 56.9142 8.94716 57.0169 9.04965C57.1196 9.15214 57.2417 9.23319 57.3761 9.28807C57.5105 9.34296 57.6546 9.37058 57.7998 9.36932C57.945 9.36806 58.0885 9.33795 58.222 9.28074C58.3554 9.22353 58.4761 9.14037 58.577 9.03612L61.6712 5.94921C61.7757 5.84851 61.859 5.72807 61.9163 5.59489C61.9737 5.46172 62.0038 5.31848 62.0051 5.17355C62.0064 5.02861 61.9787 4.88488 61.9237 4.75073C61.8687 4.61658 61.7875 4.49471 61.6848 4.39222C61.5821 4.28973 61.46 4.20868 61.3255 4.15379C61.1911 4.09891 61.0471 4.07129 60.9019 4.07255C60.7567 4.07381 60.6131 4.10392 60.4797 4.16113C60.3462 4.21834 60.2256 4.30149 60.1247 4.40575Z" fill="#FF0084"/>
<path d="M22.2273 42.679C22.5174 42.6789 22.7955 42.5639 23.0006 42.3591L26.0948 39.2722C26.294 39.0664 26.4043 38.7906 26.4018 38.5044C26.3993 38.2182 26.2843 37.9445 26.0815 37.7421C25.8787 37.5397 25.6044 37.4249 25.3176 37.4224C25.0308 37.4199 24.7545 37.5299 24.5482 37.7288L21.454 40.8157C21.3011 40.9683 21.197 41.1628 21.1548 41.3745C21.1126 41.5862 21.1343 41.8057 21.217 42.0051C21.2998 42.2045 21.44 42.375 21.6198 42.4949C21.7996 42.6149 22.011 42.6789 22.2273 42.679Z" fill="#FF0084"/>
<path d="M58.577 37.7288C58.3707 37.5299 58.0944 37.4199 57.8076 37.4224C57.5209 37.4249 57.2465 37.5397 57.0437 37.7421C56.841 37.9445 56.7259 38.2182 56.7234 38.5044C56.7209 38.7906 56.8312 39.0664 57.0304 39.2722L60.1246 42.3591C60.3309 42.558 60.6072 42.668 60.894 42.6655C61.1808 42.663 61.4551 42.5482 61.6579 42.3458C61.8607 42.1435 61.9757 41.8697 61.9782 41.5835C61.9807 41.2973 61.8704 41.0216 61.6712 40.8157L58.577 37.7288Z" fill="#FF0084"/>
<path d="M24.5482 9.03615C24.6491 9.1404 24.7698 9.22356 24.9032 9.28077C25.0367 9.33797 25.1802 9.36809 25.3254 9.36934C25.4707 9.3706 25.6147 9.34299 25.7491 9.2881C25.8835 9.23322 26.0056 9.15217 26.1083 9.04968C26.211 8.94719 26.2922 8.82531 26.3472 8.69117C26.4022 8.55702 26.4299 8.41328 26.4286 8.26835C26.4274 8.12341 26.3972 7.98018 26.3399 7.847C26.2826 7.71383 26.1992 7.59338 26.0948 7.49269L23.0006 4.40578C22.7943 4.20694 22.518 4.09692 22.2312 4.09941C21.9444 4.10189 21.6701 4.21669 21.4673 4.41907C21.2645 4.62146 21.1495 4.89523 21.147 5.18143C21.1445 5.46764 21.2548 5.74336 21.454 5.94923L24.5482 9.03615Z" fill="#FF0084"/>
</svg>
