<svg width="72" height="73" viewBox="0 0 72 73" fill="none" xmlns="http://www.w3.org/2000/svg">
<path d="M34.4216 68.2899L28.5191 70.6705C24.021 72.4847 18.8959 70.3661 17.0007 65.909L14.5138 60.0603C14.0872 59.0571 13.2869 58.2584 12.2816 57.8327L6.42112 55.3507C1.95506 53.4593 -0.167799 48.3445 1.65005 43.8554L4.03549 37.9648C4.44466 36.9543 4.44466 35.8248 4.03549 34.8144L1.65005 28.9237C-0.167799 24.4346 1.95506 19.3198 6.42112 17.4284L12.2816 14.9465C13.2869 14.5207 14.0872 13.722 14.5138 12.7188L17.0007 6.87007C18.8959 2.41298 24.021 0.294384 28.5191 2.10859L34.4216 4.48923C35.4341 4.89759 36.5659 4.89759 37.5784 4.48923L43.4809 2.10859C47.979 0.294384 53.1041 2.41298 54.9993 6.87007L57.4862 12.7188C57.9128 13.722 58.7131 14.5207 59.7184 14.9465L65.5789 17.4284C70.0449 19.3198 72.1678 24.4346 70.3499 28.9237L67.9645 34.8144C67.5553 35.8248 67.5553 36.9543 67.9645 37.9648L70.3499 43.8554C72.1678 48.3445 70.0449 53.4593 65.5789 55.3507L59.7184 57.8327C58.7131 58.2584 57.9128 59.0571 57.4862 60.0603L54.9993 65.909C53.1041 70.3661 47.979 72.4847 43.4809 70.6705L37.5784 68.2899C36.5659 67.8815 35.4341 67.8815 34.4216 68.2899ZM39.3321 63.9591L45.2347 66.3398C47.3653 67.1991 49.793 66.1956 50.6907 64.0843L53.1777 58.2356C54.0783 56.1177 55.7678 54.4315 57.89 53.5328L63.7505 51.0508C65.866 50.1548 66.8716 47.7321 66.0105 45.6057L63.625 39.715C62.7612 37.5818 62.7612 35.1973 63.625 33.0641L66.0105 27.1734C66.8716 25.047 65.866 22.6243 63.7505 21.7283L57.89 19.2464C55.7678 18.3476 54.0783 16.6614 53.1777 14.5435L50.6907 8.69479C49.793 6.58354 47.3653 5.57999 45.2347 6.43935L39.3321 8.82C37.1947 9.68208 34.8053 9.68208 32.6679 8.82L26.7653 6.43935C24.6347 5.57999 22.207 6.58354 21.3093 8.69479L18.8223 14.5435C17.9217 16.6614 16.2322 18.3476 14.11 19.2464L8.24951 21.7283C6.13401 22.6243 5.12844 25.047 5.98953 27.1734L8.37497 33.0641C9.23878 35.1973 9.23878 37.5818 8.37497 39.715L5.98953 45.6057C5.12844 47.7321 6.13401 50.1548 8.24951 51.0508L14.11 53.5328C16.2322 54.4315 17.9217 56.1177 18.8223 58.2356L21.3093 64.0843C22.207 66.1956 24.6347 67.1991 26.7653 66.3398L32.6679 63.9591C34.8053 63.097 37.1947 63.097 39.3321 63.9591ZM31.5037 42.2312L48.0516 25.7165C49.1483 24.622 50.9264 24.622 52.0231 25.7165C53.1198 26.811 53.1198 28.5856 52.0231 29.6801L33.4894 48.1765C32.3927 49.271 30.6146 49.271 29.5179 48.1765L20.913 39.5889C19.8163 38.4944 19.8163 36.7198 20.913 35.6254C22.0097 34.5309 23.7878 34.5309 24.8845 35.6254L31.5037 42.2312Z" stroke="#E9043F" stroke-width="2"/>
</svg>
