<svg width="126" height="28" viewBox="0 0 126 28" fill="none" xmlns="http://www.w3.org/2000/svg">
<path d="M17.4062 19H11.5938V7.79688H12.9062V17.8125H17.4062V19ZM25.3828 15.3203H19.7344C19.7552 16.2109 19.9948 16.8984 20.4531 17.3828C20.9115 17.8672 21.5417 18.1094 22.3438 18.1094C23.2448 18.1094 24.0729 17.8125 24.8281 17.2188V18.4219C24.125 18.9323 23.1953 19.1875 22.0391 19.1875C20.9089 19.1875 20.0208 18.8255 19.375 18.1016C18.7292 17.3724 18.4062 16.349 18.4062 15.0312C18.4062 13.7865 18.7578 12.7734 19.4609 11.9922C20.1693 11.2057 21.0469 10.8125 22.0938 10.8125C23.1406 10.8125 23.9505 11.151 24.5234 11.8281C25.0964 12.5052 25.3828 13.4453 25.3828 14.6484V15.3203ZM24.0703 14.2344C24.0651 13.4948 23.8854 12.9193 23.5312 12.5078C23.1823 12.0964 22.6953 11.8906 22.0703 11.8906C21.4661 11.8906 20.9531 12.1068 20.5312 12.5391C20.1094 12.9714 19.849 13.5365 19.75 14.2344H24.0703ZM33.0547 19H31.7734V17.75H31.7422C31.1849 18.7083 30.3646 19.1875 29.2812 19.1875C28.4844 19.1875 27.8594 18.9766 27.4062 18.5547C26.9583 18.1328 26.7344 17.5729 26.7344 16.875C26.7344 15.3802 27.6146 14.5104 29.375 14.2656L31.7734 13.9297C31.7734 12.5703 31.224 11.8906 30.125 11.8906C29.1615 11.8906 28.2917 12.2188 27.5156 12.875V11.5625C28.3021 11.0625 29.2083 10.8125 30.2344 10.8125C32.1146 10.8125 33.0547 11.8073 33.0547 13.7969V19ZM31.7734 14.9531L29.8438 15.2188C29.25 15.3021 28.8021 15.4505 28.5 15.6641C28.1979 15.8724 28.0469 16.2448 28.0469 16.7812C28.0469 17.1719 28.1849 17.4922 28.4609 17.7422C28.7422 17.987 29.1146 18.1094 29.5781 18.1094C30.2135 18.1094 30.737 17.888 31.1484 17.4453C31.5651 16.9974 31.7734 16.4323 31.7734 15.75V14.9531ZM39.6406 12.2969C39.4167 12.125 39.0938 12.0391 38.6719 12.0391C38.125 12.0391 37.6667 12.2969 37.2969 12.8125C36.9323 13.3281 36.75 14.0312 36.75 14.9219V19H35.4688V11H36.75V12.6484H36.7812C36.9635 12.0859 37.2422 11.6484 37.6172 11.3359C37.9922 11.0182 38.4115 10.8594 38.875 10.8594C39.2083 10.8594 39.4635 10.8958 39.6406 10.9688V12.2969ZM47.6719 19H46.3906V14.4375C46.3906 12.7396 45.7708 11.8906 44.5312 11.8906C43.8906 11.8906 43.3594 12.1328 42.9375 12.6172C42.5208 13.0964 42.3125 13.7031 42.3125 14.4375V19H41.0312V11H42.3125V12.3281H42.3438C42.9479 11.3177 43.8229 10.8125 44.9688 10.8125C45.8438 10.8125 46.513 11.0964 46.9766 11.6641C47.4401 12.2266 47.6719 13.0417 47.6719 14.1094V19ZM66.0781 19H64.7734V11.4844C64.7734 10.8906 64.8099 10.1641 64.8828 9.30469H64.8516C64.7266 9.8099 64.6146 10.1719 64.5156 10.3906L60.6875 19H60.0469L56.2266 10.4531C56.1172 10.2031 56.0052 9.82031 55.8906 9.30469H55.8594C55.901 9.7526 55.9219 10.4844 55.9219 11.5V19H54.6562V7.79688H56.3906L59.8281 15.6094C60.0938 16.2083 60.2656 16.6562 60.3438 16.9531H60.3906C60.6146 16.3385 60.7943 15.8802 60.9297 15.5781L64.4375 7.79688H66.0781V19ZM72.2031 19.1875C71.0208 19.1875 70.0755 18.8151 69.3672 18.0703C68.6641 17.3203 68.3125 16.3281 68.3125 15.0938C68.3125 13.75 68.6797 12.7005 69.4141 11.9453C70.1484 11.1901 71.1406 10.8125 72.3906 10.8125C73.5833 10.8125 74.513 11.1797 75.1797 11.9141C75.8516 12.6484 76.1875 13.6667 76.1875 14.9688C76.1875 16.2448 75.8255 17.2682 75.1016 18.0391C74.3828 18.8047 73.4167 19.1875 72.2031 19.1875ZM72.2969 11.8906C71.474 11.8906 70.8229 12.1719 70.3438 12.7344C69.8646 13.2917 69.625 14.0625 69.625 15.0469C69.625 15.9948 69.8672 16.7422 70.3516 17.2891C70.8359 17.8359 71.4844 18.1094 72.2969 18.1094C73.125 18.1094 73.7604 17.8411 74.2031 17.3047C74.651 16.7682 74.875 16.0052 74.875 15.0156C74.875 14.0156 74.651 13.2448 74.2031 12.7031C73.7604 12.1615 73.125 11.8906 72.2969 11.8906ZM82.4062 12.2969C82.1823 12.125 81.8594 12.0391 81.4375 12.0391C80.8906 12.0391 80.4323 12.2969 80.0625 12.8125C79.6979 13.3281 79.5156 14.0312 79.5156 14.9219V19H78.2344V11H79.5156V12.6484H79.5469C79.7292 12.0859 80.0078 11.6484 80.3828 11.3359C80.7578 11.0182 81.1771 10.8594 81.6406 10.8594C81.974 10.8594 82.2292 10.8958 82.4062 10.9688V12.2969ZM90.2266 15.3203H84.5781C84.599 16.2109 84.8385 16.8984 85.2969 17.3828C85.7552 17.8672 86.3854 18.1094 87.1875 18.1094C88.0885 18.1094 88.9167 17.8125 89.6719 17.2188V18.4219C88.9688 18.9323 88.0391 19.1875 86.8828 19.1875C85.7526 19.1875 84.8646 18.8255 84.2188 18.1016C83.5729 17.3724 83.25 16.349 83.25 15.0312C83.25 13.7865 83.6016 12.7734 84.3047 11.9922C85.013 11.2057 85.8906 10.8125 86.9375 10.8125C87.9844 10.8125 88.7943 11.151 89.3672 11.8281C89.9401 12.5052 90.2266 13.4453 90.2266 14.6484V15.3203ZM88.9141 14.2344C88.9089 13.4948 88.7292 12.9193 88.375 12.5078C88.026 12.0964 87.5391 11.8906 86.9141 11.8906C86.3099 11.8906 85.7969 12.1068 85.375 12.5391C84.9531 12.9714 84.6927 13.5365 84.5938 14.2344H88.9141Z" fill="#29DBCC"/>
<path d="M109 14H125" stroke="#29DBCC" stroke-width="2" stroke-linecap="round" stroke-linejoin="round"/>
<path d="M118 7L125 14L118 21" stroke="#29DBCC" stroke-width="2" stroke-linecap="round" stroke-linejoin="round"/>
</svg>
