<svg width="270" height="33" viewBox="0 0 270 33" fill="none" xmlns="http://www.w3.org/2000/svg">
<path d="M32 16.4242C32 7.53327 24.8369 0.326172 16.002 0.326172C7.1631 0.328172 0 7.53327 0 16.4262C0 24.4592 5.85127 31.1183 13.4983 32.3262V21.0776H9.43882V16.4262H13.5023V12.8766C13.5023 8.84311 15.892 6.61539 19.5456 6.61539C21.2973 6.61539 23.1271 6.92935 23.1271 6.92935V10.8889H21.1094C19.1236 10.8889 18.5037 12.1307 18.5037 13.4045V16.4242H22.9391L22.2312 21.0756H18.5017V32.3242C26.1487 31.1163 32 24.4572 32 16.4242Z" fill="#444B51"/>
<path d="M134.857 0.326172C126.022 0.326172 118.857 7.49046 118.857 16.3262C118.857 25.1619 126.022 32.3262 134.857 32.3262C143.693 32.3262 150.857 25.1619 150.857 16.3262C150.857 7.49046 143.693 0.326172 134.857 0.326172ZM142.547 12.3869C142.557 12.5547 142.557 12.7297 142.557 12.9012C142.557 18.144 138.565 24.1833 131.268 24.1833C129.018 24.1833 126.932 23.5297 125.175 22.4047C125.497 22.4405 125.804 22.4547 126.132 22.4547C127.99 22.4547 129.697 21.8262 131.057 20.7619C129.315 20.7262 127.85 19.5833 127.35 18.0119C127.961 18.1012 128.511 18.1012 129.14 17.9405C128.242 17.7581 127.436 17.2708 126.857 16.5611C126.278 15.8515 125.963 14.9633 125.965 14.0476V13.9976C126.49 14.294 127.107 14.4762 127.754 14.5012C127.21 14.139 126.765 13.6484 126.456 13.0727C126.148 12.4971 125.986 11.8542 125.986 11.2012C125.986 10.4619 126.179 9.78689 126.525 9.20117C127.521 10.4274 128.764 11.4303 130.173 12.1446C131.582 12.859 133.126 13.2689 134.704 13.3476C134.143 10.6512 136.157 8.46903 138.579 8.46903C139.722 8.46903 140.75 8.9476 141.475 9.71903C142.372 9.55117 143.229 9.21546 143.993 8.76546C143.697 9.68331 143.075 10.4583 142.25 10.9476C143.05 10.8619 143.822 10.6405 144.536 10.3297C143.997 11.1226 143.322 11.8262 142.547 12.3869Z" fill="#444B51"/>
<path d="M75.4285 0.326172C66.5918 0.326172 59.4285 7.48951 59.4285 16.3262C59.4285 25.1628 66.5918 32.3262 75.4285 32.3262C84.2651 32.3262 91.4285 25.1628 91.4285 16.3262C91.4285 7.48951 84.2651 0.326172 75.4285 0.326172ZM71.5118 22.9578H68.2718V12.5312H71.5118V22.9578ZM69.8718 11.2512C68.8485 11.2512 68.1868 10.5262 68.1868 9.6295C68.1868 8.7145 68.8685 8.01117 69.9135 8.01117C70.9585 8.01117 71.5985 8.7145 71.6185 9.6295C71.6185 10.5262 70.9585 11.2512 69.8718 11.2512ZM83.3451 22.9578H80.1051V17.1795C80.1051 15.8345 79.6351 14.9212 78.4635 14.9212C77.5685 14.9212 77.0368 15.5395 76.8018 16.1345C76.7151 16.3462 76.6935 16.6462 76.6935 16.9445V22.9562H73.4518V15.8562C73.4518 14.5545 73.4101 13.4662 73.3668 12.5295H76.1818L76.3301 13.9778H76.3951C76.8218 13.2978 77.8668 12.2945 79.6151 12.2945C81.7468 12.2945 83.3451 13.7228 83.3451 16.7928V22.9578Z" fill="#444B51"/>
<path d="M194.286 0.326172C185.449 0.326172 178.286 7.48951 178.286 16.3262C178.286 25.1628 185.449 32.3262 194.286 32.3262C203.123 32.3262 210.286 25.1628 210.286 16.3262C210.286 7.48951 203.123 0.326172 194.286 0.326172ZM195.381 20.1178C194.354 20.0395 193.924 19.5312 193.121 19.0445C192.679 21.3628 192.139 23.5862 190.539 24.7478C190.044 21.2412 191.263 18.6112 191.829 15.8162C190.864 14.1912 191.944 10.9228 193.981 11.7262C196.486 12.7195 191.811 17.7678 194.949 18.3995C198.226 19.0562 199.564 12.7128 197.533 10.6528C194.596 7.67451 188.988 10.5845 189.678 14.8478C189.844 15.8895 190.923 16.2062 190.108 17.6445C188.229 17.2278 187.668 15.7462 187.741 13.7712C187.856 10.5378 190.646 8.27284 193.443 7.96117C196.981 7.56784 200.301 9.2595 200.761 12.5895C201.276 16.3462 199.163 20.4112 195.381 20.1178Z" fill="#444B51"/>
<path d="M258.714 16.3262C258.714 17.6523 258.187 18.924 257.25 19.8617C256.312 20.7994 255.04 21.3262 253.714 21.3262C252.388 21.3262 251.116 20.7994 250.179 19.8617C249.241 18.924 248.714 17.6523 248.714 16.3262C248.714 16.0412 248.744 15.7628 248.796 15.4928H247.047V22.1545C247.047 22.6178 247.422 22.9928 247.886 22.9928H259.544C259.766 22.9924 259.979 22.9039 260.136 22.7467C260.293 22.5895 260.381 22.3766 260.381 22.1545V15.4928H258.632C258.684 15.7628 258.714 16.0412 258.714 16.3262ZM253.714 19.6595C254.152 19.6594 254.586 19.573 254.99 19.4054C255.394 19.2377 255.762 18.992 256.071 18.6824C256.381 18.3727 256.627 18.0051 256.794 17.6005C256.961 17.1959 257.048 16.7624 257.047 16.3245C257.047 15.8867 256.961 15.4531 256.793 15.0486C256.626 14.6442 256.38 14.2767 256.07 13.9671C255.761 13.6576 255.393 13.4121 254.988 13.2447C254.584 13.0772 254.15 12.9911 253.712 12.9912C252.828 12.9914 251.98 13.3429 251.355 13.9683C250.73 14.5938 250.379 15.4419 250.379 16.3262C250.379 17.2104 250.731 18.0584 251.356 18.6835C251.982 19.3087 252.83 19.6597 253.714 19.6595ZM257.714 12.8262H259.712C259.845 12.8262 259.973 12.7735 260.067 12.6798C260.161 12.5861 260.214 12.4589 260.214 12.3262V10.3278C260.214 10.1948 260.161 10.0672 260.067 9.97311C259.973 9.87903 259.845 9.82617 259.712 9.82617H257.714C257.581 9.82617 257.453 9.87903 257.359 9.97311C257.265 10.0672 257.212 10.1948 257.212 10.3278V12.3262C257.214 12.6012 257.439 12.8262 257.714 12.8262ZM253.714 0.326172C249.471 0.326172 245.401 2.01188 242.4 5.01246C239.4 8.01304 237.714 12.0827 237.714 16.3262C237.714 20.5696 239.4 24.6393 242.4 27.6399C245.401 30.6405 249.471 32.3262 253.714 32.3262C255.815 32.3262 257.896 31.9123 259.837 31.1082C261.778 30.3042 263.542 29.1256 265.028 27.6399C266.514 26.1541 267.692 24.3903 268.496 22.4491C269.3 20.5079 269.714 18.4273 269.714 16.3262C269.714 14.225 269.3 12.1444 268.496 10.2032C267.692 8.26203 266.514 6.4982 265.028 5.01246C263.542 3.52673 261.778 2.34817 259.837 1.5441C257.896 0.740024 255.815 0.326172 253.714 0.326172ZM262.047 22.8078C262.047 23.8262 261.214 24.6595 260.196 24.6595H247.232C246.214 24.6595 245.381 23.8262 245.381 22.8078V9.84451C245.381 8.82617 246.214 7.99284 247.232 7.99284H260.196C261.214 7.99284 262.047 8.82617 262.047 9.84451V22.8078Z" fill="#444B51"/>
</svg>
