<svg style="visibility: hidden; width: 0; height: 0;"
     xmlns="http://www.w3.org/2000/svg">
    <symbol viewBox="0 0 270 39" id="logo">
        <path
            d="M12.299 39c1.5203 0 2.7527-1.2445 2.7527-2.7796s-1.2324-2.7796-2.7527-2.7796c-1.5202 0-2.75261 1.2445-2.75261 2.7796S10.7788 39 12.299 39Zm11.9151 0c1.5202 0 2.7526-1.2445 2.7526-2.7796s-1.2324-2.7796-2.7526-2.7796c-1.5203 0-2.7527 1.2445-2.7527 2.7796S22.6938 39 24.2141 39Z"
            fill="#EA0535"></path>
        <path
            d="M26.7781 14.864c-.3059-.3943-.6443-.782-1.0152-1.1434-1.9002-1.8662-4.1778-2.8716-6.7872-2.9767-.1627-.0066-.3319-.0132-.4946-.0132h-6.2276V4.52753c0-.02628-.0065-.04599-.0065-.07228-.0065-.02628-.0065-.05914-.0065-.08543l-.0065-.13142h.0195V.131409H.130127C.162664 1.2288.572632 2.19476 1.36654 2.98988c.81994.82797 1.81557 1.24852 2.96088 1.24852h3.86542v16.7302c0 1.4129.25379 2.7402.75486 3.9493.50107 1.2091 1.269 2.3262 2.2776 3.3316 2.0173 2.0042 4.4576 3.0162 7.2558 3.0162.3969 0 .8004-.0197 1.2169-.0657 2.2906-.2497 4.3274-1.242 6.0584-2.9505.4816-.4797.9176-.9922 1.295-1.5245 1.1648-1.6691 1.757-3.601 1.757-5.7498-.0065-2.313-.6898-4.3633-2.0303-6.1112Zm-2.3362 7.3663c-.2212 1.1894-.7744 2.2474-1.6529 3.1673-.8069.8543-1.7505 1.4063-2.8047 1.6691-.4815.1183-.9826.1906-1.5162.1906-1.705 0-3.1431-.6177-4.321-1.8597-.7353-.7754-1.2429-1.6428-1.5227-2.6087-.1627-.5717-.2473-1.1828-.2473-1.8203v-6.236h6.0845c1.2559 0 2.3622.3351 3.3318.9988.3449.2366.6768.5126.9826.8345 1.1778 1.2223 1.77 2.6877 1.77 4.4027.0065.4403-.0325.8609-.1041 1.2617Z"
            fill="url(#a)"></path>
        <path
            d="M12.3836.0131424V0H0c0 1.19596.422983 2.22106 1.27546 3.08189.85247.85425 1.86763 1.28795 3.05198 1.28795h3.73527v.03286C8.90868 2.58905 10.2883 1.21567 12.3836.0131424Z"
            fill="url(#b)"></path>
        <path
            d="M18.468 14.7326c1.2559 0 2.3622.3351 3.3318.9988-.5336-2.0765-1.4316-3.8441-2.8177-5.119-.1627-.0065-.3319-.0131-.5011-.0131h-6.0975v4.1333h6.0845Z"
            fill="url(#c)"></path>
        <path
            d="M21.8064 15.7314c.3449.2366.6768.5126.9826.8346 1.1779 1.2222 1.7701 2.6876 1.7701 4.4027 0 .4337-.0391.8542-.1172 1.2617 2.4989-2.2408 2.7917-5.1584 2.4403-7.4452-.3058-.4008-.6507-.7885-1.0282-1.1565-1.9327-1.8991-4.2233-2.9045-6.8718-3.0162 1.3861 1.2748 2.2906 3.0359 2.8242 5.1189Z"
            fill="url(#d)"></path>
        <path
            d="M19.9844 27.0733c-.4815.1183-.9826.1906-1.5162.1906-1.705 0-3.1431-.6177-4.3209-1.8597-.7354-.7754-1.243-1.6428-1.5228-2.6087.2603 4.5078 3.3578 7.4188 7.0801 8.5294 2.3297-.2563 4.373-1.2486 6.13-2.9833.4946-.4929.9306-1.0054 1.308-1.5443-2.2255.9988-4.7504 1.2354-7.1582.276Z"
            fill="url(#e)"></path>
        <path
            d="M12.3837 6.97858V4.52753c0-.05914-.013-.10514-.013-.16428h.013V.0131226C10.2883 1.21565 8.90871 2.58903 8.06274 4.40268v7.26772c.7874-1.83335 2.17346-3.29873 4.32096-4.69182Z"
            fill="url(#f)"></path>
        <path
            d="M12.6309 22.7954c-.1627-.5717-.2473-1.1828-.2473-1.8202v-6.19c-2.1604 2.9241-3.20163 6.5777-3.55303 10.1853.51408 1.2288 1.28193 2.3525 2.31013 3.371 2.0498 2.0371 4.4966 3.0556 7.3469 3.0556.4165 0 .8264-.0263 1.2299-.0657-3.7288-1.1237-6.8263-4.0281-7.0866-8.536Z"
            fill="url(#g)"></path>
        <path
            d="M26.8823 14.7852c.3514 2.2867.0585 5.2043-2.4403 7.4451-.2213 1.1894-.7744 2.2474-1.6529 3.1673-.8069.8543-1.7505 1.4063-2.8047 1.6691 2.4077.9594 4.9326.7294 7.1647-.276 1.1843-1.7019 1.783-3.6404 1.783-5.8221 0-2.3459-.6833-4.4092-2.0498-6.1834Z"
            fill="url(#h)"></path>
        <path
            d="M12.3837 14.7326V6.97205c-2.1475 1.39309-3.53356 2.86503-4.32096 4.69185v9.3048c0 1.4391.25379 2.7664.76788 3.9953.3514-3.6076 1.39908-7.2546 3.55308-10.1854v-.046Z"
            fill="url(#i)"></path>
        <path
            d="M40.7367 10.389c2.8177 0 5.245 1.0054 7.2753 3.0228 2.0303 2.0173 3.0454 4.4487 3.0454 7.294s-1.0151 5.2701-3.0454 7.2677c-2.0303 1.9977-4.4511 2.9965-7.2753 2.9965-2.8178 0-5.2385-.9988-7.2623-2.9965-2.0239-1.9976-3.0325-4.4224-3.0325-7.2677s1.0086-5.2767 3.0325-7.294c2.0238-2.0174 4.4445-3.0228 7.2623-3.0228Zm0 4.0873c-1.679 0-3.1041.6111-4.2689 1.8399-1.1648 1.2289-1.744 2.6877-1.744 4.383 0 1.6954.5792 3.1542 1.744 4.3567 1.1648 1.2091 2.5834 1.8137 4.2689 1.8137 1.6789 0 3.1105-.6046 4.2819-1.8137 1.1713-1.2091 1.757-2.6613 1.757-4.3567 0-1.6953-.5857-3.1607-1.757-4.383-1.1714-1.2222-2.5965-1.8399-4.2819-1.8399Zm28.3006 6.2295c0-1.6822-.5857-3.141-1.757-4.3764-1.1714-1.2354-2.59-1.8531-4.2559-1.8531-1.6789 0-3.1105.6111-4.2819 1.8399-1.1713 1.2289-1.757 2.6877-1.757 4.383v5.9404c0 1.1828-.423 2.2013-1.2624 3.049-.8395.8477-1.8481 1.2748-3.0195 1.2748V20.7058c0-2.8453 1.0087-5.2767 3.0325-7.294 2.0238-2.0174 4.4511-3.0228 7.2883-3.0228 2.8177 0 5.2385 1.0054 7.2623 3.0228 2.0173 2.0173 3.0325 4.4487 3.0325 7.294V30.97c-1.1714 0-2.18-.4271-3.0195-1.2748-.8394-.8477-1.2624-1.8662-1.2624-3.049v-5.9404ZM79.5859 30.97c-1.1714 0-2.18-.4271-3.0195-1.2748-.8395-.8477-1.2624-1.8662-1.2624-3.049V10.389c1.1713 0 2.1799.4272 3.0194 1.2748.8395.8477 1.2625 1.8663 1.2625 3.0491V30.97Zm6.3969.1052h-4.2819V5.37524c1.1714 0 2.18.42713 3.0195 1.27481.8394.84769 1.2624 1.86622 1.2624 3.04904v9.25881h5.655c1.6659 0 3.0845-.6177 4.2558-1.8531 1.1714-1.2354 1.757-2.6942 1.757-4.3698v-1.932h4.2824v1.932c0 1.6493-.371 3.1936-1.107 4.6458-.742 1.4522-1.7632 2.6613-3.0712 3.6404 1.308.9791 2.3292 2.1882 3.0712 3.6405.742 1.4522 1.107 2.9899 1.107 4.6195v1.8005h-4.2824v-1.8005c0-1.6822-.5856-3.141-1.757-4.3698-1.1713-1.2354-2.5899-1.8531-4.2558-1.8531h-5.655v8.0169Z"
            fill="#444B51"></path>
        <path
            d="M159.393 25.0231c.846.5717 1.77.8542 2.766.8542.768 0 1.568-.1642 2.394-.4928.912-.3746 1.562-.8411 1.953-1.3997l3.045 2.1554c-.735 1.0711-1.828 1.9319-3.273 2.5825-1.367.6242-2.74.9396-4.119.9396-1.445 0-2.824-.3614-4.139-1.0842-1.347-.7425-2.375-1.7348-3.091-2.957-.377-.644-.664-1.3143-.846-2.0042-.182-.7032-.28-1.4129-.28-2.1357 0-2.2605.794-4.1858 2.375-5.7892 1.582-1.5968 3.495-2.3985 5.733-2.3985 1.64 0 3.144.4666 4.51 1.3997 1.686 1.1434 2.837 2.8519 3.469 5.1321l-10.497 5.1978Zm5.779-6.4989c-.762-1.1368-1.848-1.7085-3.254-1.7085-1.412 0-2.564.5388-3.455 1.6099-.833 1.1171-1.12 2.3985-.846 3.8442l7.555-3.7456ZM176.95 5.86804V20.7781c0 1.4588.3 2.6022.898 3.4367.326.46.736.828 1.224 1.104.403.2299.898.3482 1.496.3482.163 0 .326-.0131.488-.0328.534-.0789 1.36-.3812 2.493-.92L185 28.3481c-1.197.7688-2.395 1.2025-3.599 1.3011-.468.0131-.904.0131-1.321.0131-1.021 0-1.965-.2366-2.83-.7097-1.1-.5782-1.992-1.3734-2.688-2.3656-1.106-1.5442-1.659-3.4827-1.659-5.8024V5.86804h4.047Zm14.388 0v4.09385h-4.054V5.86804h4.054Zm0 7.41226v16.3754h-4.054V13.2803h4.054Zm7.282 0 5.583 11.4273 5.584-11.4273h4.509l-7.099 14.5355c-.28.5783-.703 1.0383-1.269 1.3668-.534.3154-1.106.4797-1.725.4797-.618 0-1.197-.1577-1.724-.4797-.566-.3285-.989-.782-1.269-1.3668l-7.1-14.5355h4.51Zm23.381 11.7428c.846.5717 1.77.8542 2.766.8542.768 0 1.568-.1642 2.395-.4928.911-.3746 1.561-.8411 1.952-1.3997l3.045 2.1554c-.735 1.0711-1.828 1.9319-3.273 2.5825-1.366.6242-2.739.9396-4.119.9396-1.445 0-2.824-.3614-4.139-1.0842-1.347-.7425-2.375-1.7348-3.091-2.957-.377-.644-.664-1.3143-.846-2.0042-.182-.7032-.28-1.4129-.28-2.1357 0-2.2605.794-4.1858 2.376-5.7892 1.581-1.5968 3.494-2.3985 5.733-2.3985 1.64 0 3.143.4666 4.509 1.3997 1.686 1.1434 2.838 2.8519 3.469 5.1321l-10.497 5.1978Zm5.779-6.4989c-.761-1.1368-1.848-1.7085-3.254-1.7085-1.412 0-2.564.5388-3.455 1.6099-.833 1.1171-1.12 2.3985-.846 3.8442l7.555-3.7456Zm16.496-1.15c-1.301 0-2.414.4665-3.338 1.3996-.931.9463-1.399 2.07-1.399 3.3842v7.4977h-4.035V22.158c0-2.4576.859-4.5473 2.571-6.282 1.718-1.7348 3.78-2.5957 6.201-2.5957 2.746.2103 4.829 1.3537 6.254 3.4368l-3.091 2.037c-.898-.9199-1.952-1.3799-3.163-1.3799Zm16.802 15.7183c1.315 0 2.454-.4863 3.423-1.4654.963-.9725 1.452-2.1225 1.452-3.4367V26.495c-1.042 1.6428-2.623 2.4642-4.738 2.4642-2.421 0-4.49-.8674-6.201-2.5956-1.718-1.7348-2.571-3.8179-2.571-6.2624v-6.834h4.054v6.8406c0 1.3143.462 2.4379 1.386 3.371.924.9331 2.037 1.3997 3.339 1.3997 1.314 0 2.433-.4666 3.351-1.3997.924-.9331 1.386-2.0567 1.386-3.371v-6.8406h4.054V28.197c0 2.4313-.878 4.5209-2.635 6.2623-1.757 1.7348-3.853 2.5956-6.287 2.5956-3.897 0-6.806-1.6362-8.726-4.9152l3.338-2.0042c1.146 1.9713 2.942 2.957 5.375 2.957Z"
            fill="#FF6A00"></path>
        <path
            d="M142.832 15.9285c-1.334-1.3471-2.948-2.0239-4.835-2.0239h-2.35v13.9572h2.35c1.887 0 3.494-.6768 4.835-2.0239 1.334-1.3471 2.004-2.9833 2.004-4.8956v-.1051c0-1.9254-.67-3.555-2.004-4.9087Z"
            fill="#E24329"></path>
        <path
            d="M151.825 18.8856c-.852-7.1232-6.8-12.94525-13.919-13.10296-6.02-.13142-12.039-.046-18.065-.046-.657 0-1.523-.14456-1.471.93311.052 1.03168.885.87397 1.549.87397 4.067.00657 8.134.00657 12.202.00657 1.106 0 2.518-.19057 2.505 1.40623-.007 1.61648-.781 1.36028-2.531 1.36028-3.118 0-6.235.0065-9.352 0-.729 0-1.509.0657-1.496.9922.013.9003.794.9988 1.522 1.0054.475.0066.95-.0066 1.425.0066 1.081.0328 2.551-.276 2.558 1.3339.006 1.6954-1.516 1.4194-2.649 1.426-3.488.0131-6.969.0131-10.457 0-.735 0-1.503.0525-1.497.9856.007.9134.807.9857 1.51 1.0252.319.0197.631.0065.95.0065h9.189v.0066h8.251v-3.8836c0-.8082.286-1.4982.865-2.083.567-.5717 1.25-.8609 2.05-.8609h3.033c2.876 0 5.336 1.0317 7.373 3.0885 2.036 2.0502 3.058 4.5341 3.058 7.4583v.1051c0 2.9242-1.022 5.4081-3.058 7.4583-2.037 2.0568-4.497 3.0885-7.373 3.0885h-3.033c-.8 0-1.483-.2891-2.05-.8608-.579-.5849-.865-1.2749-.865-2.0831v-3.8836h-8.251v.0066h-9.189c-.319 0-.638-.0132-.95.0066-.703.0394-1.503.1117-1.51 1.0251-.006.9331.768.9856 1.497.9856 3.488-.0065 6.969-.0065 10.457 0 1.133.0066 2.655-.2694 2.649 1.426 0 1.6099-1.477 1.3011-2.558 1.3339-.475.0132-.95 0-1.425.0066-.722.0066-1.503.1052-1.522 1.0054-.013.9265.761.9923 1.496.9923 3.117-.0066 6.234 0 9.352 0 1.757 0 2.524-.2563 2.531 1.3602.006 1.5968-1.399 1.4062-2.505 1.4062-4.068 0-8.135-.0065-12.202.0066-.664 0-1.503-.1577-1.549.874-.052 1.0842.814.9331 1.471.9331 6.019.0065 12.045.0854 18.065-.046 7.119-.1577 13.067-5.9798 13.919-13.103.078-.6768.124-1.3405.13-1.9976-.013-.644-.052-1.3077-.13-1.9845Z"
            fill="#E24329"></path>
        <path
            d="M121.377 21.8886c3.559.046 7.119.0329 10.678.0263v-2.0633c-3.559-.0066-7.119-.0198-10.678.0262-.879.0132-2.414-.5651-2.388.9594 0 .0198.006.0329.006.046 0 .0198-.006.0329-.006.046-.033 1.5246 1.509.9463 2.388.9594Z"
            fill="#E24329"></path>
        <path
            d="M106.175 31.0751c1.442 0 2.61-1.1797 2.61-2.635 0-1.4553-1.168-2.635-2.61-2.635-1.441 0-2.609 1.1797-2.609 2.635 0 1.4553 1.168 2.635 2.609 2.635Z"
            fill="#444B51"></path>
        <defs>
            <linearGradient id="a" x1="14.4657" y1="-1.88956" x2="14.4657" y2="43.2435" gradientUnits="userSpaceOnUse">
                <stop offset="5e-7" stop-color="#E9043F"></stop>
                <stop offset=".2145" stop-color="#F36"></stop>
                <stop offset=".5101" stop-color="#E24329"></stop>
                <stop offset=".7587" stop-color="#FF6A00"></stop>
            </linearGradient>
            <linearGradient id="b" x1="-.851368" y1="-.684324" x2="11.6044" y2="3.27213" gradientUnits="userSpaceOnUse">
                <stop offset="8e-7" stop-color="#F36"></stop>
                <stop offset="1" stop-color="#E80042"></stop>
            </linearGradient>
            <linearGradient id="c" x1="25.3168" y1="7.77284" x2="13.2051" y2="15.5612" gradientUnits="userSpaceOnUse">
                <stop offset="7e-7" stop-color="#36F"></stop>
                <stop offset="1" stop-color="#2A9DF4"></stop>
            </linearGradient>
            <linearGradient id="d" x1="33.2282" y1="22.0994" x2="21.7613" y2="15.9549" gradientUnits="userSpaceOnUse">
                <stop offset="7e-7" stop-color="#36F"></stop>
                <stop offset="1" stop-color="#2A9DF4"></stop>
            </linearGradient>
            <linearGradient id="e" x1="6.10269" y1="23.9256" x2="26.935" y2="29.9751" gradientUnits="userSpaceOnUse">
                <stop offset="8e-7" stop-color="#E24329"></stop>
                <stop offset="1" stop-color="#FF6A00"></stop>
            </linearGradient>
            <linearGradient id="f" x1="9.81097" y1="-2.97545" x2="10.4488" y2="10.4477" gradientUnits="userSpaceOnUse">
                <stop offset="8e-7" stop-color="#F36"></stop>>
                <stop offset="1" stop-color="#E80042"></stop>
            </linearGradient>
            <linearGradient id="g" x1="7.23104" y1="14.3754" x2="16.3523" y2="29.2206" gradientUnits="userSpaceOnUse">
                <stop offset="8e-7" stop-color="#E24329"></stop>
                <stop offset="1" stop-color="#FF6A00"></stop>
            </linearGradient>
            <linearGradient id="h" x1="32.3637" y1="29.8609" x2="23.9948" y2="21.6514" gradientUnits="userSpaceOnUse">
                <stop offset="7e-7" stop-color="#36F"></stop>
                <stop offset="1" stop-color="#2A9DF4"></stop>
            </linearGradient>
            <linearGradient id="i" x1="9.17395" y1="4.31466" x2="11.0872" y2="22.1564" gradientUnits="userSpaceOnUse">
                <stop stop-color="#E9043F"></stop>
                <stop offset=".4425" stop-color="#F36"></stop>
                <stop offset="1" stop-color="#FF6A00"></stop>
            </linearGradient>
        </defs>
    </symbol>

    <symbol id="call-icon" viewBox="0 0 12 16" xmlns="http://www.w3.org/2000/svg">
        <path
            d="M1.86633 0.46705L3.1574 0.0777966C3.58349 -0.0504663 4.0417 -0.0193459 4.44654 0.165353C4.85138 0.350051 5.17521 0.675714 5.35761 1.08159L6.26276 3.09451C6.41986 3.44372 6.46365 3.83337 6.38798 4.20874C6.31231 4.5841 6.12098 4.92635 5.84085 5.18742L4.46313 6.47116C4.2785 6.64645 4.41847 7.32965 5.093 8.49874C5.7682 9.6685 6.29009 10.1311 6.53071 10.0591L8.33567 9.5072C8.70154 9.39529 9.09325 9.40068 9.45591 9.5226C9.81856 9.64452 10.134 9.87686 10.3579 10.1871L11.6443 11.97C11.9042 12.3301 12.0245 12.7722 11.9829 13.2142C11.9414 13.6563 11.7408 14.0682 11.4184 14.3735L10.4239 15.3153C10.1029 15.6194 9.70695 15.8328 9.27651 15.9338C8.84607 16.0349 8.39653 16.02 7.97375 15.8906C5.89017 15.2527 3.96057 13.3597 2.15893 10.2384C0.353304 7.11236 -0.328557 4.47556 0.14668 2.32134C0.24253 1.88726 0.45241 1.4866 0.754686 1.16066C1.05696 0.834718 1.44069 0.595288 1.86633 0.46705V0.46705Z"
            fill="#E24329"/>
    </symbol>


    <symbol id="earth-icon" viewBox="0 0 54 24" fill="none" xmlns="http://www.w3.org/2000/svg">
        <path
            d="M17.351 14C17.431 13.34 17.491 12.68 17.491 12C17.491 11.32 17.431 10.66 17.351 10H20.731C20.891 10.64 20.991 11.31 20.991 12C20.991 12.69 20.891 13.36 20.731 14H17.351ZM15.581 19.56C16.181 18.45 16.641 17.25 16.961 16H19.911C18.9421 17.6683 17.4051 18.932 15.581 19.56V19.56ZM15.331 14H10.651C10.551 13.34 10.491 12.68 10.491 12C10.491 11.32 10.551 10.65 10.651 10H15.331C15.421 10.65 15.491 11.32 15.491 12C15.491 12.68 15.421 13.34 15.331 14ZM12.991 19.96C12.161 18.76 11.491 17.43 11.081 16H14.901C14.491 17.43 13.821 18.76 12.991 19.96ZM8.99097 8H6.07097C7.02982 6.32721 8.56576 5.06149 10.391 4.44C9.79097 5.55 9.34097 6.75 8.99097 8ZM6.07097 16H8.99097C9.34097 17.25 9.79097 18.45 10.391 19.56C8.56959 18.9317 7.03581 17.6677 6.07097 16V16ZM5.25097 14C5.09097 13.36 4.99097 12.69 4.99097 12C4.99097 11.31 5.09097 10.64 5.25097 10H8.63097C8.55097 10.66 8.49097 11.32 8.49097 12C8.49097 12.68 8.55097 13.34 8.63097 14H5.25097ZM12.991 4.03C13.821 5.23 14.491 6.57 14.901 8H11.081C11.491 6.57 12.161 5.23 12.991 4.03V4.03ZM19.911 8H16.961C16.648 6.76146 16.1845 5.5659 15.581 4.44C17.421 5.07 18.951 6.34 19.911 8ZM12.991 2C7.46097 2 2.99097 6.5 2.99097 12C2.99097 14.6522 4.04454 17.1957 5.9199 19.0711C6.84848 19.9997 7.95088 20.7362 9.16413 21.2388C10.3774 21.7413 11.6777 22 12.991 22C15.6431 22 18.1867 20.9464 20.062 19.0711C21.9374 17.1957 22.991 14.6522 22.991 12C22.991 10.6868 22.7323 9.38642 22.2298 8.17317C21.7272 6.95991 20.9906 5.85752 20.062 4.92893C19.1334 4.00035 18.0311 3.26375 16.8178 2.7612C15.6045 2.25866 14.3042 2 12.991 2V2Z"
            fill="#828282"/>
    </symbol>

    <symbol id="feature-icon_1" xmlns="http://www.w3.org/2000/svg">
        <path
            d="M51.89 64.61a33.19 33.19 0 0 1-16.16 4.2c-6.83 0-12.9-1.75-18.08-5.17l2.38-2.93c.05.04.09.1.16.14a29.5 29.5 0 0 0 26.5 2.33.83.83 0 0 0 .45-1.06.83.83 0 0 0-1.06-.47 27.82 27.82 0 0 1-10.33 1.97 27.9 27.9 0 0 1-14.68-4.16l1.91-2.38a1.9 1.9 0 0 0 .26-2 1.9 1.9 0 0 0-1.69-1.13l-10.64-.37c-.6-.03-1.18.24-1.57.71a1.89 1.89 0 0 0-.36 1.69l2.6 10.3a1.9 1.9 0 0 0 1.88 1.45c.57 0 1.12-.25 1.5-.71l1.68-2.08c5.48 3.66 11.9 5.54 19.12 5.54 5.95 0 11.81-1.53 16.98-4.42.4-.22.54-.73.31-1.12a.89.89 0 0 0-1.16-.33Zm-38.25 1.36a.28.28 0 0 1-.28.1.25.25 0 0 1-.2-.2l-2.62-10.3a.26.26 0 0 1 .06-.24c.03-.05.1-.1.2-.1h.02l10.64.37c.15 0 .21.1.25.17.02.05.05.17-.04.28l-8.03 9.92Zm6.44-60.01A33.22 33.22 0 0 1 37 2.3c6.81.35 12.79 2.43 17.77 6.1l-2.53 2.82-.14-.14a29.45 29.45 0 0 0-15.3-5.22c-3.78-.2-7.49.3-11.04 1.52a.83.83 0 0 0-.52 1.04c.14.43.62.66 1.05.52a27.93 27.93 0 0 1 24.87 3.5l-2.04 2.25a1.91 1.91 0 0 0 1.26 3.2l10.61.92.18.01a1.9 1.9 0 0 0 1.88-2.3L61 6.12a1.93 1.93 0 0 0-3.32-.91L55.9 7.19C50.6 3.24 44.3 1.04 37.1.66A34.8 34.8 0 0 0 19.32 4.5c-.4.2-.56.7-.35 1.1a.8.8 0 0 0 1.1.37Zm38.82.35c.1-.11.22-.1.28-.08a.3.3 0 0 1 .2.21l2.06 10.43a.3.3 0 0 1-.06.24.3.3 0 0 1-.23.09l-10.62-.93a.26.26 0 0 1-.23-.17.27.27 0 0 1 .06-.29l8.54-9.5ZM9.39 46.65a.83.83 0 0 0 .46-1.07 27.73 27.73 0 0 1 2.2-24.96l2.38 1.92a1.92 1.92 0 0 0 2.01.25 1.9 1.9 0 0 0 1.13-1.68l.37-10.63a1.9 1.9 0 0 0-.71-1.56 1.9 1.9 0 0 0-1.69-.36L5.2 11.16a1.92 1.92 0 0 0-.74 3.36l2.09 1.68C2.87 21.66 1 28.07 1 35.27c0 5.67 1.4 11.29 4.06 16.27.16.27.43.44.73.44a.8.8 0 0 0 .38-.1.82.82 0 0 0 .34-1.11 33.05 33.05 0 0 1-3.87-15.5c0-6.81 1.76-12.88 5.18-18.04l2.94 2.37c-.04.05-.1.09-.14.16A29.36 29.36 0 0 0 8.3 46.2a.84.84 0 0 0 1.1.45ZM5.4 12.95a.25.25 0 0 1 .2-.2l10.33-2.6c.02-.02.04-.02.06-.02.08 0 .15.04.17.07.04.03.1.1.1.22l-.38 10.62c0 .14-.1.21-.16.24a.28.28 0 0 1-.29-.03l-9.95-8.02a.32.32 0 0 1-.08-.27Zm62.13 6.78a.83.83 0 0 0-1.49.71 32.86 32.86 0 0 1 3.25 16.1c-.35 6.8-2.43 12.77-6.13 17.74l-2.82-2.52c.06-.05.11-.08.16-.14a29.31 29.31 0 0 0 5.22-15.27c.2-3.76-.3-7.47-1.51-11.01a.83.83 0 0 0-1.05-.52.83.83 0 0 0-.52 1.04 27.8 27.8 0 0 1-3.5 24.82l-2.27-2.03a1.92 1.92 0 0 0-3.2 1.26l-.92 10.6c-.06.6.17 1.18.62 1.58a1.94 1.94 0 0 0 1.66.47l10.44-2.06a1.93 1.93 0 0 0 1.49-1.37 1.9 1.9 0 0 0-.57-1.95l-2-1.78c3.95-5.27 6.17-11.57 6.54-18.76a34.56 34.56 0 0 0-3.4-16.9Zm-2.16 38.95a.27.27 0 0 1-.2.2L54.7 60.94a.3.3 0 0 1-.25-.07.28.28 0 0 1-.08-.23l.92-10.59c.01-.14.11-.2.18-.23a.25.25 0 0 1 .29.05l9.51 8.53c.11.1.1.22.1.28Zm-9.39-19.94c.87-.1 1.53-.84 1.53-1.71v-3.14c0-.87-.66-1.61-1.53-1.7l-3.29-.46a17.8 17.8 0 0 0-2.25-5.51l2.01-2.54c.54-.7.48-1.67-.13-2.3l-2.21-2.22a1.74 1.74 0 0 0-2.3-.13l-2.64 1.99a17.97 17.97 0 0 0-5.52-2.32l-.38-3.18a1.73 1.73 0 0 0-1.71-1.53h-3.13c-.88 0-1.62.66-1.72 1.53l-.45 3.25a18 18 0 0 0-5.55 2.25l-2.53-1.99a1.75 1.75 0 0 0-2.3.13l-2.21 2.22c-.62.62-.67 1.6-.13 2.3l2 2.62a18.07 18.07 0 0 0-2.3 5.5l-3.24.4c-.87.09-1.53.83-1.53 1.7v3.14c0 .87.66 1.61 1.53 1.71l3.32.45a18.12 18.12 0 0 0 2.25 5.5l-2.02 2.55c-.54.68-.49 1.67.13 2.3l2.21 2.2c.62.62 1.61.69 2.3.14l2.59-2.03c.36-.29.42-.8.13-1.16a.81.81 0 0 0-1.15-.13l-2.7 2.03-2.22-2.31 2.02-2.56c.45-.58.5-1.38.09-2a15.45 15.45 0 0 1-2.04-4.88 1.74 1.74 0 0 0-1.48-1.35l-3.32-.46.07-3.21 3.24-.39a1.75 1.75 0 0 0 1.48-1.36 14.91 14.91 0 0 1 2.03-4.9c.4-.62.36-1.43-.1-2l-2-2.63 2.32-2.22 2.53 1.99c.57.45 1.39.49 2.01.08a15.2 15.2 0 0 1 4.92-2.03 1.75 1.75 0 0 0 1.37-1.48l.45-3.25 3.21.06.38 3.19c.09.72.64 1.33 1.36 1.48 1.74.37 3.4 1.07 4.92 2.03.63.4 1.44.37 2.02-.08l2.63-2 2.21 2.33-2.01 2.53c-.45.57-.5 1.39-.09 2a14.86 14.86 0 0 1 2.02 4.9c.16.72.76 1.26 1.5 1.34l3.28.46-.06 3.22-3.25.39c-.73.08-1.32.62-1.49 1.35a15.07 15.07 0 0 1-2.02 4.85c-.41.63-.37 1.43.09 2.01l2.03 2.68-2.31 2.22-2.59-2.03a.82.82 0 0 0-1.02 1.29l2.59 2.03a1.7 1.7 0 0 0 2.29-.13l2.2-2.22c.63-.62.68-1.6.14-2.29l-2.04-2.67a17.72 17.72 0 0 0 2.32-5.46l3.24-.38Z"
            fill="#E24329" stroke="#E24329" stroke-width=".5"/>
        <path
            d="M32.03 58.47c.45 0 .83-.37.83-.83v-12.7a.84.84 0 0 0-.3-.64l-4.06-3.34a2.71 2.71 0 1 0-5.2-1.05 2.7 2.7 0 0 0 4.1 2.29l3.8 3.12v12.31c0 .47.37.84.83.84ZM24.95 39.9a1.06 1.06 0 1 1 2.11 0 1.06 1.06 0 0 1-2.1 0Zm1.72-11.2a2.7 2.7 0 1 0 0 5.4c.5 0 .97-.14 1.38-.4l1.8 1.62 1.05 5.07c.07.38.43.66.8.66.05 0 .11 0 .17-.03a.81.81 0 0 0 .63-.97l-1.1-5.33a.8.8 0 0 0-.25-.45l-2.01-1.8a2.7 2.7 0 0 0-2.47-3.77Zm-1.06 2.69a1.06 1.06 0 1 1 2.11 0 1.06 1.06 0 0 1-2.1 0Zm13.52 13.54v12.71a.83.83 0 1 0 1.65 0V45.32l3.79-3.12a2.7 2.7 0 1 0-1.09-1.24l-4.06 3.34a.86.86 0 0 0-.29.63Zm6.85-6.07a1.05 1.05 0 1 1-1.06 1.05c.01-.58.48-1.05 1.06-1.05Zm-5.4-4.14-1.1 5.33c-.09.45.2.87.64.97.06.01.11.03.17.03.38 0 .72-.27.8-.66l1.05-5.07 1.8-1.61c.4.24.87.4 1.38.4a2.7 2.7 0 1 0-2.48-1.63l-2.01 1.79a.86.86 0 0 0-.25.45Zm4.74-4.37a1.05 1.05 0 1 1-1.06 1.05c.01-.58.48-1.05 1.06-1.05ZM36 56.83c.44 0 .82-.37.82-.82V28.7a2.7 2.7 0 0 0 1.88-2.56 2.7 2.7 0 0 0-5.4 0c0 1.2.79 2.2 1.87 2.56V56c0 .46.37.83.82.83Zm0-31.75a1.05 1.05 0 1 1-.01 0Z"
            fill="#E24329" stroke="#E24329" stroke-width=".5"/>
    </symbol>

    <symbol id="feature-icon_2" xmlns="http://www.w3.org/2000/svg">
        <path
            d="m91.136 50.964-.028-.06c-.071-.65-.254-1.398-.47-1.92l-.194-.34.009-.005-.388-.654-.01-.022-4.424-7.48h-.003l-1.456-2.51c-.712-1.432-1.717-1.799-1.717-1.799H69.868V34.17c0-1.754-1.45-3.18-3.23-3.18h-29.79c-1.78 0-3.227 1.427-3.227 3.18v27.213c0 1.7 1.381 3.08 3.081 3.08h4.58c.377 3.378 3.216 6.013 6.691 6.013 3.48 0 6.32-2.638 6.697-6.012h15.913c.376 3.377 3.219 6.012 6.7 6.012 3.48 0 6.323-2.638 6.698-6.012h4.082a3.087 3.087 0 0 0 3.088-3.081l-.014-10.419Zm-7.482-8.405 3.196 5.4h-5.651l-1.273-5.4h3.728ZM36.381 34.17c0-.233.213-.426.467-.426h29.787c.254 0 .47.193.47.426v19.01H36.381V34.17ZM47.97 67.72a4.011 4.011 0 0 1-4.005-4.003 4.012 4.012 0 0 1 4.004-4.008c2.21 0 4.01 1.8 4.01 4.008a4.01 4.01 0 0 1-4.01 4.003Zm29.309 0c-2.21 0-4.01-1.8-4.01-4.003 0-2.209 1.8-4.008 4.01-4.008 2.213 0 4.01 1.8 4.01 4.008a4.01 4.01 0 0 1-4.01 4.003Zm10.779-6.02H83.71c-.863-2.743-3.404-4.747-6.431-4.747-3.028 0-5.569 2.004-6.432 4.747H54.405c-.866-2.743-3.404-4.747-6.432-4.747-3.025 0-5.563 2.004-6.423 4.747h-4.847a.322.322 0 0 1-.32-.321v-5.447h33.485V39.25c0-.179.145-.315.322-.315h11.22l.623.866h-8.078a2.353 2.353 0 0 0-2.35 2.354v6.22a2.347 2.347 0 0 0 2.35 2.342h14.33c.049.233.086.466.097.654l.006 10.009a.332.332 0 0 1-.33.32Zm-9.372-13.74h-4.323v-5.401h3.05l1.273 5.4Z"
            fill="#2F80ED"/>
        <path
            d="M34.994 67.62c-5.115 0-9.73-5.774-12.461-14.365 2.674-.35 5.52-.548 8.422-.67v-2.75c-3.164.129-6.272.35-9.188.751-1.057-4.13-1.684-8.778-1.789-13.658h10.977v-2.76H19.981c.105-4.887.732-9.534 1.789-13.665 4.152.572 8.613.89 13.224.89 4.615 0 9.078-.316 13.23-.884.63 2.459 1.086 5.114 1.39 7.882h2.79c-.303-2.925-.761-5.719-1.405-8.306 3.95-.676 7.51-1.614 10.522-2.777a31.857 31.857 0 0 1 4.845 11.08h2.876C65.924 12.55 51.831.617 34.994.617 15.697.625 0 16.293 0 35.546c0 19.259 15.697 34.927 34.994 34.927 2.082 0 4.113-.216 6.101-.566a9.174 9.174 0 0 1-2.002-3.587c-1.31.816-2.683 1.3-4.099 1.3Zm24.795-52.6c-2.763.995-5.979 1.81-9.528 2.405-1.703-5.552-4.17-10.049-7.146-12.971A32.332 32.332 0 0 1 59.789 15.02ZM34.994 3.473c5.116 0 9.73 5.774 12.465 14.364-3.911.517-8.115.799-12.465.799s-8.547-.285-12.461-.8c2.734-8.59 7.349-14.363 12.461-14.363Zm-8.117.984c-2.98 2.92-5.446 7.416-7.147 12.968-3.549-.594-6.764-1.41-9.527-2.405A32.239 32.239 0 0 1 26.877 4.457ZM8.468 17.314c3.016 1.16 6.577 2.098 10.524 2.777-1.053 4.252-1.677 9.005-1.774 14.08H2.831c.268-6.237 2.293-12.028 5.637-16.857ZM2.831 36.928h14.387c.097 5.068.72 9.82 1.774 14.073-3.95.683-7.51 1.62-10.527 2.778-3.34-4.83-5.366-10.615-5.634-16.851ZM10.2 56.073c2.766-.995 5.981-1.811 9.533-2.405 1.703 5.557 4.17 10.054 7.152 12.979A32.265 32.265 0 0 1 10.2 56.072Z"
            fill="#2F80ED"/>
    </symbol>

    <symbol id="feature-icon_3" xmlns="http://www.w3.org/2000/svg">
        <path
            d="M109.65 43.585 97.376 29.057a1.831 1.831 0 0 0-1.422-.654H79.188v-6.106a1.875 1.875 0 0 0-1.871-1.867h-5.745C70.618 9.337 61.281.616 49.942.616c-11.34 0-20.695 8.721-21.65 19.814h-8.064c-1.03 0-1.871.84-1.871 1.867v6.05c0 1.027.842 1.868 1.87 1.868 1.03 0 1.872-.84 1.872-1.868v-4.183h6.194c.954 11.093 10.29 19.813 21.63 19.813s20.676-8.739 21.63-19.813h3.874v28.777H53.16c-1.029 0-1.87.84-1.87 1.867 0 1.028.841 1.868 1.87 1.868h22.286v3.137H49.118a8.4 8.4 0 0 0-.486-1.513c-.019-.037-.037-.056-.037-.074-.206-.467-.45-.897-.711-1.326-.075-.112-.15-.206-.225-.318a9.255 9.255 0 0 0-.767-.933c-.112-.112-.225-.206-.337-.318a8.471 8.471 0 0 0-.898-.728 4.77 4.77 0 0 0-.393-.261 9.306 9.306 0 0 0-1.048-.56c-.13-.057-.262-.131-.393-.187a9.45 9.45 0 0 0-1.291-.411c-.093-.019-.168-.056-.262-.075a8.641 8.641 0 0 0-1.703-.187c-.58 0-1.16.075-1.702.187-.094.019-.169.056-.262.075-.45.112-.88.242-1.291.41a3.737 3.737 0 0 0-.393.187c-.356.168-.711.355-1.048.56a2.672 2.672 0 0 0-.375.262 6.805 6.805 0 0 0-.898.747 2.565 2.565 0 0 0-.318.317c-.28.3-.542.617-.786.953-.075.093-.15.187-.224.299-.28.43-.524.877-.73 1.344 0 .019-.019.037-.019.056-.206.486-.374.99-.486 1.531h-9.899v-3.473a1.875 1.875 0 0 0-1.87-1.867c-1.03 0-1.872.84-1.872 1.867v5.34c0 1.028.842 1.868 1.871 1.868h11.789c.86 3.94 4.36 6.89 8.55 6.89 4.192 0 7.691-2.95 8.552-6.89H84.24c.86 3.94 4.36 6.89 8.551 6.89 4.192 0 7.691-2.95 8.552-6.89h6.904c1.029 0 1.871-.84 1.871-1.867V44.836a2.046 2.046 0 0 0-.468-1.25Zm-59.727-3.342c-9.917 0-17.982-8.049-17.982-17.946 0-9.897 8.065-17.946 17.982-17.946S67.905 12.4 67.905 22.297c0 9.897-8.065 17.946-17.982 17.946Zm-9.356 26.46c-2.769 0-5.014-2.259-5.014-5.023a5.01 5.01 0 0 1 5.014-5.004 5.01 5.01 0 0 1 5.015 5.004c0 2.764-2.264 5.024-5.015 5.024Zm52.187 0c-2.77 0-5.015-2.259-5.015-5.023a5.01 5.01 0 0 1 5.015-5.004 5.01 5.01 0 0 1 5.015 5.004c0 2.764-2.246 5.024-5.015 5.024Zm13.603-6.89h-5.033a9.658 9.658 0 0 0-.468-1.475c-.056-.13-.131-.243-.187-.355a11.3 11.3 0 0 0-.561-1.046c-.113-.168-.225-.317-.337-.467-.206-.261-.412-.523-.636-.765a9.4 9.4 0 0 0-.45-.43 7.695 7.695 0 0 0-.748-.616 5.16 5.16 0 0 0-.524-.355 12.59 12.59 0 0 0-.86-.467c-.188-.093-.375-.186-.562-.261a9.702 9.702 0 0 0-1.048-.318c-.168-.037-.337-.112-.524-.13a8.127 8.127 0 0 0-1.665-.168c-.561 0-1.123.056-1.665.168-.169.037-.337.093-.506.13a9.703 9.703 0 0 0-1.047.318c-.188.075-.375.168-.562.261-.3.15-.58.3-.86.467a5.16 5.16 0 0 0-.525.355 7.694 7.694 0 0 0-.748.616c-.15.15-.3.28-.449.43-.225.242-.43.504-.636.765-.112.15-.243.3-.337.467-.225.336-.393.691-.561 1.046-.056.13-.131.243-.188.355a7.968 7.968 0 0 0-.467 1.475h-5.034V32.138h15.886l11.284 13.333v14.342h.018Z"
            fill="#F36"/>
        <path
            d="M92.454 34.454h-7.579c-1.029 0-1.87.84-1.87 1.867v7.414c0 1.027.841 1.867 1.87 1.867h13.847c.73 0 1.385-.43 1.703-1.083a1.899 1.899 0 0 0-.262-1.998l-6.269-7.414a1.903 1.903 0 0 0-1.44-.653Zm-5.689 7.413V38.19h4.828l3.106 3.678h-7.934ZM6.642 35.574h17.102c1.03 0 1.872-.84 1.872-1.867a1.875 1.875 0 0 0-1.872-1.867H6.642c-1.029 0-1.871.84-1.871 1.867 0 1.027.823 1.867 1.871 1.867Zm.001 5.378H1.87c-1.028 0-1.87.84-1.87 1.868 0 1.027.842 1.867 1.871 1.867h4.753c1.029 0 1.871-.84 1.871-1.867a1.859 1.859 0 0 0-1.852-1.868Zm4.453 1.868c0 1.027.842 1.867 1.871 1.867h19.067c1.03 0 1.871-.84 1.871-1.867a1.875 1.875 0 0 0-1.87-1.868H12.966a1.863 1.863 0 0 0-1.871 1.868Zm20.844 8.198a1.875 1.875 0 0 0-1.87-1.868H12.966c-1.029 0-1.871.84-1.871 1.868 0 1.027.842 1.867 1.871 1.867H30.07c1.029 0 1.87-.84 1.87-1.867ZM56.602 20.43h-4.809V11a1.875 1.875 0 0 0-1.87-1.868c-1.03 0-1.872.84-1.872 1.867v11.298c0 1.027.842 1.867 1.871 1.867h6.68c1.03 0 1.871-.84 1.871-1.867a1.863 1.863 0 0 0-1.87-1.867Z"
            fill="#F36"/>
    </symbol>

    <symbol id="feature-icon_4" xmlns="http://www.w3.org/2000/svg">
        <path
            d="M32 33.43a2.84 2.84 0 0 1 .66-2.59c.33-.4.76-.7 1.25-.86v-.48a1.1 1.1 0 0 1 1.87-.77c.2.2.32.48.32.77v.6c.5.17.97.43 1.39.75a1.1 1.1 0 1 1-1.35 1.72s-1.28-.94-1.8-.32c-.3.35-.25.56-.22.63a1.99 1.99 0 0 0 1.28 1.06 4.05 4.05 0 0 1 2.62 2.55 2.84 2.84 0 0 1-.66 2.6c-.33.4-.77.69-1.26.84v.5a1.1 1.1 0 0 1-1.87.76 1.1 1.1 0 0 1-.32-.77v-.6a5.1 5.1 0 0 1-1.38-.74 1.1 1.1 0 1 1 1.34-1.73c.02.02 1.29.95 1.81.33.3-.35.24-.55.22-.63a1.99 1.99 0 0 0-1.28-1.06A4.05 4.05 0 0 1 32 33.43Zm-7.93 1.53a10.9 10.9 0 0 1 13.07-10.7 10.95 10.95 0 0 1 8.6 8.57A10.9 10.9 0 0 1 35 45.88a10.96 10.96 0 0 1-10.94-10.92Zm2.19 0a8.72 8.72 0 0 0 10.46 8.57 8.76 8.76 0 0 0 6.37-11.9 8.74 8.74 0 0 0-14.27-2.84 8.74 8.74 0 0 0-2.56 6.17Zm-4.93 8.65a1.1 1.1 0 0 0 1.2-.23 1.08 1.08 0 0 0 .23-1.19 1.13 1.13 0 0 0-.23-.36 1.1 1.1 0 0 0-1.2-.23c-.13.05-.26.13-.36.23a1.23 1.23 0 0 0-.32.78 1.05 1.05 0 0 0 .68 1Zm-2.05-13.33a1.09 1.09 0 0 0 1.05 1.4 1.1 1.1 0 0 0 1.05-.77 1.1 1.1 0 0 0-.75-1.36 1.1 1.1 0 0 0-1.35.73Zm1.95 8.23a1.1 1.1 0 1 0-2.11.55 1.1 1.1 0 0 0 2.11-.55Zm-2.63-3.85a1.09 1.09 0 0 0 1.07 1.11h.02a1.1 1.1 0 0 0 1.08-1.3 1.1 1.1 0 0 0-2.17.19Zm9.5-12.25a1.1 1.1 0 1 0-.73-.27c.2.17.47.27.73.27Zm-5.49 3.5a1.1 1.1 0 0 0-1.59 1.17c.06.27.21.51.43.68.18.1.38.16.58.16a1.09 1.09 0 0 0 1.03-1.48 1.1 1.1 0 0 0-.45-.53Zm1.35-3.05a1.1 1.1 0 0 0-.08 1.55 1.12 1.12 0 0 0 1.56.06 1.1 1.1 0 1 0-1.48-1.61Zm8.48-1.9c.13-.05.25-.12.36-.22a1.1 1.1 0 0 0 0-1.55c-.1-.1-.23-.18-.36-.23a1.1 1.1 0 0 0-1.2.23 1.1 1.1 0 0 0 0 1.55 1.1 1.1 0 0 0 1.2.23Zm16.6 5.59a1.15 1.15 0 0 0-1.55 0c-.1.1-.17.22-.23.36a.98.98 0 0 0-.09.41 1.09 1.09 0 0 0 1.87.77 1.1 1.1 0 0 0 0-1.54ZM48.64 39a1.09 1.09 0 0 0 .94 1.4 1.1 1.1 0 0 0 .95-1.77 1.1 1.1 0 0 0-1.9.37Zm.93-8.93a1.1 1.1 0 1 0 .93 1.94 1.1 1.1 0 0 0-.93-1.94ZM47.4 44.01c.17.12.38.18.58.18a1.1 1.1 0 0 0 1.03-1.49 1.1 1.1 0 0 0-.45-.53 1.1 1.1 0 0 0-1.7 1.16 1.1 1.1 0 0 0 .54.68Zm-5.98 3.63a1.1 1.1 0 1 0 1 1.94 1.1 1.1 0 1 0-1-1.94Zm3.1-.64a1.1 1.1 0 1 0 1.62-1.47A1.1 1.1 0 0 0 44.5 47Zm6.9-11.73a1.09 1.09 0 0 0-1.85-.81 1.1 1.1 0 0 0 .73 1.88h.02a1.1 1.1 0 0 0 1.1-1.07Zm-14.2 13.92a1.1 1.1 0 1 0 1.55 0 1.15 1.15 0 0 0-1.55 0Zm21.86 4.78a4.18 4.18 0 0 1-2.29 3.74L35.12 68.86a9.51 9.51 0 0 1-9.28-.36l-4.05-2.48a3.28 3.28 0 0 0-1.7-.49h-4.77v2.19a1.1 1.1 0 0 1-1.1 1.09H7.66a1.1 1.1 0 0 1-1.1-1.1v-1.08H1.1a1.1 1.1 0 0 1-.77-1.87c.2-.2.48-.32.77-.32h5.47V46.97H1.1a1.1 1.1 0 0 1-.77-1.86c.2-.2.48-.32.77-.32h5.47v-1.1a1.1 1.1 0 0 1 1.1-1.08h6.56a1.1 1.1 0 0 1 1.1 1.09v2.18h8.47c2.13 0 4.2.7 5.91 1.97l8.05 6.02a4.3 4.3 0 0 1 1.58 2.33l13.84-6.08a4.22 4.22 0 0 1 5.9 3.85ZM13.13 44.8H8.75v21.84h4.38V44.79Zm43.76 9.18a2.02 2.02 0 0 0-2.85-1.85l-14.79 6.5c-.04.13-.07.26-.13.38a4.3 4.3 0 0 1-6.28 1.93l-8.43-5.41a1.1 1.1 0 1 1 1.19-1.84l8.42 5.41a2.12 2.12 0 0 0 3.24-2.11 2.11 2.11 0 0 0-.82-1.36L28.4 49.6a7.72 7.72 0 0 0-4.6-1.52h-8.47v15.28h4.76c1.01 0 2 .28 2.86.81L27 66.64a7.3 7.3 0 0 0 7.13.27L55.8 55.77a2.01 2.01 0 0 0 1.1-1.8Zm13.13-29.92a1.1 1.1 0 0 1-1.1 1.09h-5.47v1.09a1.1 1.1 0 0 1-1.1 1.1H55.8a1.1 1.1 0 0 1-1.09-1.1v-2.18h-8.48c-2.13 0-4.2-.7-5.9-1.97l-8.05-6.02a4.3 4.3 0 0 1-1.58-2.33L16.85 19.8a4.22 4.22 0 0 1-5.68-5.19 4.2 4.2 0 0 1 2.05-2.4L34.9 1.08a9.52 9.52 0 0 1 9.27.35l4.05 2.49c.52.31 1.1.48 1.71.48h4.77V2.21a1.1 1.1 0 0 1 1.1-1.1h6.56a1.1 1.1 0 0 1 1.1 1.1v1.1h5.46a1.1 1.1 0 0 1 .78 1.85 1.1 1.1 0 0 1-.78.32h-5.47v17.47h5.47a1.1 1.1 0 0 1 1.1 1.1Zm-15.32-2.2V6.58h-4.77c-1 0-2-.28-2.86-.81l-4.04-2.49a7.3 7.3 0 0 0-7.13-.27L14.22 14.16a2.01 2.01 0 0 0-.17 3.5 2.03 2.03 0 0 0 1.92.14l14.8-6.5c.04-.12.07-.25.13-.38A4.3 4.3 0 0 1 37.18 9l8.43 5.4a1.1 1.1 0 1 1-1.18 1.85l-8.44-5.42a2.12 2.12 0 0 0-3.24 2.12c.09.54.38 1.03.82 1.36l8.06 6.02a7.72 7.72 0 0 0 4.6 1.53h8.47ZM61.26 3.3H56.9v21.84h4.37V3.3Z"
            fill="#2A9DF4"/>
    </symbol>

    <symbol id="feature-icon_5" xmlns="http://www.w3.org/2000/svg">
        <path
            d="M1.52 45.6h9.3a34.9 34.9 0 0 0 28.26 23.93 35.03 35.03 0 0 0 33.94-14.88l.68 3.17 2.97-.64-1.45-6.79a1.52 1.52 0 0 0-1.49-1.2h-6.77v3.04H71a31.92 31.92 0 0 1-30.57 14.41A31.98 31.98 0 0 1 14.02 45.6h5.76a1.52 1.52 0 0 0 1.52-1.51V25.85a1.52 1.52 0 0 0-1.52-1.52H1.52A1.52 1.52 0 0 0 0 25.85v18.23a1.52 1.52 0 0 0 1.52 1.51Zm10.65-18.23v5.14l-.84-.42a1.52 1.52 0 0 0-1.36 0l-.84.42v-5.14h3.04Zm-9.13 0H6.1v7.6a1.52 1.52 0 0 0 2.2 1.36l2.36-1.19 2.37 1.18a1.52 1.52 0 0 0 2.2-1.36v-7.59h3.04v15.19H3.04V27.37Z"
            fill="#36398E"/>
        <path
            d="m91.15 34.29-3.04-6.08a1.52 1.52 0 0 0-1.37-.84h-7.6v-1.52a1.52 1.52 0 0 0-1.53-1.52h-.16A34.9 34.9 0 0 0 49.17.4a35.04 35.04 0 0 0-33.95 14.88v-2.33h-3.05v6.83a1.52 1.52 0 0 0 1.73 1.5l6.87-.9-.4-3.02-3.14.42a31.91 31.91 0 0 1 30.56-14.5 31.97 31.97 0 0 1 26.46 21.05H62.39a1.52 1.52 0 0 0-1.52 1.52v15.19a1.52 1.52 0 0 0 1.52 1.52h3.33a4.53 4.53 0 0 0 8.57 0h5.12a4.53 4.53 0 0 0 8.57 0h1.8a1.52 1.52 0 0 0 1.52-1.52v-6.12c0-.22-.06-.44-.15-.63ZM85.8 30.4l1.52 3.04h-8.19V30.4h6.67Zm-21.9-3.03h12.2v6.08H63.9v-6.08Zm0 9.11h12.2v3.04h-1.8a4.53 4.53 0 0 0-8.57 0h-1.8v-3.04Zm6.1 6.08a1.52 1.52 0 0 1-1.08-2.6 1.52 1.52 0 0 1 2.16 2.15c-.29.29-.68.45-1.08.45Zm13.7 0a1.52 1.52 0 0 1-1.08-2.6 1.52 1.52 0 0 1 2.15 2.15c-.28.29-.67.45-1.07.45Zm4.28-3.04a4.53 4.53 0 0 0-8.57 0h-.28v-3.04h9.13v3.04h-.28Z"
            fill="#36398E"/>
        <path
            d="M56.3 34.96a12.13 12.13 0 0 0-7.51-11.22 12.2 12.2 0 0 0-16.6 8.85 12.13 12.13 0 0 0 11.94 14.52A12.2 12.2 0 0 0 56.3 34.96Zm-3.04 0a9.11 9.11 0 0 1-7.6 8.98v-2.08a3.98 3.98 0 0 0 .84-7.42l-3.37-1.68a.94.94 0 0 1 0-1.67 2.25 2.25 0 0 1 2 0l1.36.68a1.52 1.52 0 0 0 1.36-2.72l-1.36-.68a5.24 5.24 0 0 0-.84-.3v-2.08a9.14 9.14 0 0 1 7.61 8.97Zm-18.26 0A9.11 9.11 0 0 1 42.6 26v2.08a3.98 3.98 0 0 0-.84 7.42l3.37 1.67a.94.94 0 0 1 0 1.68 2.25 2.25 0 0 1-2 0l-1.36-.68A1.53 1.53 0 0 0 39.65 40c.12.38.4.7.76.88l1.36.68c.27.12.55.23.84.3v2.08A9.14 9.14 0 0 1 35 34.96Z"
            fill="#36398E"/>
    </symbol>

    <symbol id="feature-icon_6" fill="none" xmlns="http://www.w3.org/2000/svg">
        <path
            d="M33.3124 1.1879 62.9307 15.886c.7323.3248 1.0578 1.0557 1.0578 1.7865-.8137 13.1553-4.2312 23.8744-9.5202 32.5634-5.289 8.689-12.5308 15.3479-21.0746 20.3827-.5696.406-1.3019.3248-1.9528 0-8.4624-5.116-15.6229-11.7749-20.9119-20.3827-5.289-8.689-8.7064-19.4081-9.5201-32.5634-.0814-.812.4068-1.4617 1.0578-1.7865L31.685 1.1879c.4882-.2436 1.1391-.1624 1.6274 0Zm-.8137 23.1436c2.1969 0 4.0684.8932 5.5331 2.2737 1.3832 1.3805 2.2783 3.3294 2.2783 5.522 0 1.5429-.4882 3.0046-1.2205 4.2227-.4883.812-1.1392 1.4617-1.8715 2.0301l2.1969 6.4153c.3255.9744-.1627 1.9489-1.1391 2.3549-.2441.0812-.4069.0812-.651.0812H27.3724c-1.0578 0-1.8715-.812-1.8715-1.8677 0-.2436.0814-.5684.1628-.7308l2.1969-6.2529c-.7323-.5684-1.3832-1.2181-1.8715-2.0301-.8136-1.2181-1.2205-2.6798-1.2205-4.2227 0-2.1926.8951-4.0603 2.2783-5.522 1.3833-1.3805 3.2548-2.2737 5.4518-2.2737Zm2.9293 4.8723c-.7324-.7308-1.7902-1.2181-2.9293-1.2181-1.1392 0-2.1156.4873-2.8479 1.2181-.7324.7309-1.2206 1.7865-1.2206 2.9234 0 .8121.2441 1.6241.651 2.1926.4068.6496 1.0578 1.218 1.7901 1.5429.895.406 1.3019 1.3805.9764 2.2737l-1.8715 5.3596h5.1263l-1.8715-5.3596c-.3255-.8932.0814-1.8677.9764-2.2737.7323-.3249 1.3019-.8121 1.7901-1.5429.4069-.6497.651-1.3805.651-2.1926-.0814-1.1369-.4882-2.1925-1.2205-2.9234Zm24.8175-10.5567L32.4987 4.9233 4.7519 18.6471c.895 12.0184 4.0684 21.7631 8.8692 29.64 4.8007 7.7958 11.2289 13.8862 18.8776 18.5961 7.6487-4.7099 14.0768-10.7191 18.8776-18.5961 4.8007-7.8769 7.9741-17.6216 8.8692-29.64Z"
            stroke="#FF6A00" stroke-width="2"/>
    </symbol>

    <symbol id="feature-icon_7" xmlns="http://www.w3.org/2000/svg">
        <path
            d="M24.5 13.78a1.1 1.1 0 0 0-.44.87c.12 4.1.83 8.17 2.1 12.07 2.8 8.53 7.98 14.52 15 17.32.25.1.54.1.8 0 7.02-2.8 12.2-8.79 14.99-17.32 1.28-3.9 2-7.97 2.11-12.07a1.09 1.09 0 0 0-1.4-1.05c-.1.03-10.27 2.95-15.2-3.95a1.13 1.13 0 0 0-1.79 0c-4.94 6.9-15.1 3.98-15.2 3.95a1.1 1.1 0 0 0-.97.18Zm17.06-1.75c4.76 5.33 12.12 4.62 15.25 4.01-.34 4.77-2.42 20.38-15.25 25.81-12.8-5.42-14.9-21.04-15.24-25.8 3.13.6 10.49 1.3 15.24-4.02Z"
            fill="#FF0084"/>
        <path
            d="M41.06 39.2a1.1 1.1 0 0 0 1 0c8.34-4.35 11.15-13.96 12.07-19.3a1.09 1.09 0 0 0-.24-.9c-.22-.25-1.3-.38-1.3-.38-3.7.12-7.34-.96-10.38-3.07a1.1 1.1 0 0 0-1.3 0 17.22 17.22 0 0 1-10.38 3.07s-1.1.13-1.3.38a1.1 1.1 0 0 0-.26.9c.91 5.33 3.7 14.94 12.09 19.3Zm-7.47-11.45h6.88v8.56a20.17 20.17 0 0 1-6.88-8.56Zm9.07 8.55v-8.55h6.84a20.25 20.25 0 0 1-6.84 8.55Zm7.73-10.73h-7.73v-7.14c2.79 1.5 5.9 2.31 9.07 2.36a35.62 35.62 0 0 1-1.34 4.78Zm-9.92-7.14v7.14H32.7c-.56-1.56-1-3.16-1.34-4.78 3.18-.04 6.3-.85 9.1-2.36ZM58 51.34a5.49 5.49 0 0 0-6.9-.68l-9.81 6.52c-4.94-.6-7.75-2.07-9.25-3.23h7.88a3.83 3.83 0 0 0 2.7-6.53 3.83 3.83 0 0 0-2.7-1.11H25.16c-.28 0-.54.1-.74.28L14.35 55.8l-2.64-2.63a1.1 1.1 0 0 0-1.55 0L.32 63a1.1 1.1 0 0 0-.32.78v5.46a1.09 1.09 0 0 0 1.1 1.09h20.77c.3 0 .57-.12.78-.32l2.19-2.18a1.1 1.1 0 0 0 0-1.55l-8.94-8.92 9.68-8.86h14.34a1.64 1.64 0 0 1 1.16 2.8c-.3.3-.72.47-1.16.47H29.53a1.1 1.1 0 0 0-.98 1.58c.1.2 2.58 4.91 12.9 6.06.25.02.5-.04.72-.18l10.14-6.75a3.3 3.3 0 0 1 4.08.36L42.3 65.89l-15.9-2.11a1.1 1.1 0 0 0-1.22 1.36 1.09 1.09 0 0 0 .94.8l16.4 2.19h.15c.27 0 .54-.1.74-.29l15.31-14.19a1.1 1.1 0 0 0 .03-1.57l-.74-.74Zm-36.58 16.8H2.2v-3.92l8.75-8.73 11.58 11.55-1.1 1.1ZM41.56 7a1.1 1.1 0 0 0 1.1-1.08V1.55a1.09 1.09 0 0 0-1.87-.77c-.2.2-.32.48-.32.77v4.37A1.09 1.09 0 0 0 41.57 7ZM68.9 25.57h-4.37a1.1 1.1 0 0 0-.77 1.86c.2.2.48.32.77.32h4.38a1.1 1.1 0 0 0 .77-1.86 1.1 1.1 0 0 0-.77-.32Zm-54.68 2.18h4.37a1.1 1.1 0 0 0 .78-1.86 1.1 1.1 0 0 0-.78-.32h-4.37a1.1 1.1 0 0 0-.77 1.86c.2.2.48.32.77.32ZM60.12 4.4l-3.09 3.1a1.1 1.1 0 1 0 1.55 1.54l3.1-3.1a1.1 1.1 0 1 0-1.56-1.53ZM22.23 42.68c.29 0 .57-.12.77-.32l3.1-3.09a1.09 1.09 0 0 0-1.55-1.54l-3.1 3.09a1.1 1.1 0 0 0 .78 1.86Zm36.35-4.95a1.1 1.1 0 0 0-1.55 1.54l3.1 3.09a1.1 1.1 0 0 0 1.54-1.54l-3.1-3.1ZM24.55 9.04a1.1 1.1 0 1 0 1.54-1.55L23 4.41a1.1 1.1 0 0 0-1.55 1.54l3.1 3.09Z"
            fill="#FF0084"/>
    </symbol>

    <symbol id="feature-icon_8" fill="none" xmlns="http://www.w3.org/2000/svg">
        <path
            d="m34.4216 68.2899-5.9025 2.3806c-4.4981 1.8142-9.6232-.3044-11.5184-4.7615l-2.4869-5.8487a4.208 4.208 0 0 0-2.2322-2.2276l-5.8605-2.482c-4.466-1.8914-6.5889-7.0062-4.771-11.4953l2.3854-5.8906a4.1962 4.1962 0 0 0 0-3.1504L1.65 28.9237c-1.8179-4.4891.305-9.6039 4.771-11.4953l5.8605-2.4819a4.2085 4.2085 0 0 0 2.2322-2.2277l2.4869-5.8487C18.8959 2.413 24.021.2944 28.5191 2.1086l5.9025 2.3806a4.2204 4.2204 0 0 0 3.1568 0l5.9025-2.3806C47.979.2944 53.1041 2.413 54.9993 6.87l2.4869 5.8487a4.2085 4.2085 0 0 0 2.2322 2.2277l5.8605 2.4819c4.466 1.8914 6.5889 7.0062 4.771 11.4953l-2.3854 5.8907a4.1959 4.1959 0 0 0 0 3.1504l2.3854 5.8906c1.8179 4.4891-.305 9.6039-4.771 11.4953l-5.8605 2.482a4.208 4.208 0 0 0-2.2322 2.2276l-2.4869 5.8487c-1.8952 4.4571-7.0203 6.5757-11.5184 4.7615l-5.9025-2.3806a4.22 4.22 0 0 0-3.1568 0Zm4.9105-4.3308 5.9026 2.3807c2.1306.8593 4.5583-.1442 5.456-2.2555l2.487-5.8487a8.8838 8.8838 0 0 1 4.7123-4.7028l5.8605-2.482c2.1155-.896 3.1211-3.3187 2.26-5.4451L63.625 39.715a8.8588 8.8588 0 0 1 0-6.6509l2.3855-5.8907c.8611-2.1264-.1445-4.5491-2.26-5.4451L57.89 19.2464a8.8843 8.8843 0 0 1-4.7123-4.7029l-2.487-5.8487c-.8977-2.1113-3.3254-3.1148-5.456-2.2555L39.3321 8.82a8.9094 8.9094 0 0 1-6.6642 0l-5.9026-2.3807c-2.1306-.8593-4.5583.1442-5.456 2.2555l-2.487 5.8487a8.8843 8.8843 0 0 1-4.7123 4.7029l-5.8605 2.4819c-2.1155.896-3.121 3.3187-2.26 5.4451l2.3855 5.8907a8.8587 8.8587 0 0 1 0 6.6509l-2.3855 5.8907c-.861 2.1264.1445 4.5491 2.26 5.4451l5.8605 2.482a8.8838 8.8838 0 0 1 4.7123 4.7028l2.487 5.8487c.8977 2.1113 3.3254 3.1148 5.456 2.2555l5.9026-2.3807a8.9092 8.9092 0 0 1 6.6642 0Zm-7.8284-21.7279 16.5479-16.5147c1.0967-1.0945 2.8748-1.0945 3.9715 0 1.0967 1.0945 1.0967 2.8691 0 3.9636L33.4894 48.1765c-1.0967 1.0945-2.8748 1.0945-3.9715 0l-8.6049-8.5876c-1.0967-1.0945-1.0967-2.8691 0-3.9635 1.0967-1.0945 2.8748-1.0945 3.9715 0l6.6192 6.6058Z"
            stroke="#E9043F" stroke-width="2"/>
    </symbol>

    <symbol id="feature-icon_9" xmlns="http://www.w3.org/2000/svg">
        <path
            d="m57.54 15.46-.03-.05-.06-.04a27.62 27.62 0 0 0-39.06 0c-.02.02-.05.02-.06.04l-.04.06a27.62 27.62 0 0 0 .02 39.09s0 .02.02.03l.03.02a27.64 27.64 0 0 0 39.12 0l.03-.02.01-.03a27.63 27.63 0 0 0 .02-39.1Zm3.93 20.74h1.7A25.15 25.15 0 0 1 56.63 52l-1.2-1.19a1.2 1.2 0 1 0-1.7 1.7l1.2 1.19a25.2 25.2 0 0 1-15.8 6.55v-1.7a1.2 1.2 0 0 0-2.4 0v1.7a25.2 25.2 0 0 1-15.8-6.55l1.18-1.2a1.2 1.2 0 1 0-1.69-1.69l-1.2 1.2a25.15 25.15 0 0 1-6.55-15.81h1.7a1.2 1.2 0 0 0 0-2.4h-1.7A25.18 25.18 0 0 1 19.22 18l1.2 1.19a1.2 1.2 0 0 0 1.68 0 1.2 1.2 0 0 0 0-1.7l-1.19-1.19a25.18 25.18 0 0 1 15.81-6.55v1.7a1.2 1.2 0 0 0 2.4 0v-1.7a25.18 25.18 0 0 1 15.8 6.55l-1.2 1.2a1.2 1.2 0 1 0 1.7 1.69l1.2-1.2a25.18 25.18 0 0 1 6.56 15.81h-1.7a1.2 1.2 0 0 0 0 2.4Z"
            fill="#36F"/>
        <path
            d="M37.92 67.6A32.64 32.64 0 0 1 5.3 35.02a1.2 1.2 0 0 0-2.4 0A35.05 35.05 0 0 0 37.93 70a1.2 1.2 0 0 0 0-2.4Zm-31.76-36a1.2 1.2 0 0 0 1.7 0 1.2 1.2 0 0 0 0-1.7L4.95 27a1.2 1.2 0 0 0-1.7 0l-2.9 2.9a1.2 1.2 0 1 0 1.7 1.69l2.05-2.06 2.06 2.07ZM37.92 2.4A32.65 32.65 0 0 1 70.53 35a1.2 1.2 0 0 0 2.4 0c0-19.29-15.7-35-35.01-35a1.2 1.2 0 0 0 0 2.4Zm37.56 35.85a1.2 1.2 0 0 0-1.69 0l-2.06 2.06-2.06-2.05a1.2 1.2 0 1 0-1.7 1.7l2.9 2.9a1.2 1.2 0 0 0 1.7 0l2.91-2.92a1.2 1.2 0 0 0 0-1.69ZM46.73 23.5l-7.3 7.81a4 4 0 0 0-5.51 3.7 3.98 3.98 0 0 0 2.8 3.78v7.73a1.2 1.2 0 0 0 2.4 0V38.8a3.98 3.98 0 0 0 2.15-5.94l7.2-7.71a1.2 1.2 0 1 0-1.74-1.64Zm-8.81 13.1a1.6 1.6 0 1 1 0-3.2 1.6 1.6 0 1 1 0 3.2Z"
            fill="#36F"/>
    </symbol>

    <symbol id="ea-icon" viewBox="0 0 18 12" fill="none"  xmlns="http://www.w3.org/2000/svg">
            <path d="M17.8912 5.54375C16.1965 2.23719 12.8415 0 8.99998 0C5.15842 0 1.80248 2.23875 0.108733 5.54406C0.037246 5.68547 0 5.8417 0 6.00016C0 6.15861 0.037246 6.31484 0.108733 6.45625C1.80342 9.76281 5.15842 12 8.99998 12C12.8415 12 16.1975 9.76125 17.8912 6.45594C17.9627 6.31453 18 6.1583 18 5.99984C18 5.84139 17.9627 5.68516 17.8912 5.54375ZM8.99998 10.5C8.10997 10.5 7.23994 10.2361 6.49992 9.74161C5.7599 9.24715 5.18312 8.54434 4.84253 7.72208C4.50193 6.89981 4.41282 5.99501 4.58645 5.12209C4.76008 4.24918 5.18867 3.44736 5.818 2.81802C6.44734 2.18868 7.24916 1.7601 8.12208 1.58647C8.99499 1.41283 9.89979 1.50195 10.7221 1.84254C11.5443 2.18314 12.2471 2.75991 12.7416 3.49993C13.2361 4.23995 13.5 5.10998 13.5 6C13.5003 6.59103 13.3841 7.17632 13.158 7.72242C12.932 8.26851 12.6005 8.7647 12.1826 9.18262C11.7647 9.60054 11.2685 9.932 10.7224 10.158C10.1763 10.3841 9.59101 10.5003 8.99998 10.5ZM8.99998 3C8.73221 3.00374 8.46617 3.04358 8.20905 3.11844C8.42099 3.40646 8.5227 3.7609 8.49572 4.11748C8.46875 4.47406 8.31487 4.80917 8.06201 5.06203C7.80915 5.31489 7.47405 5.46876 7.11747 5.49574C6.76088 5.52271 6.40644 5.42101 6.11842 5.20906C5.95441 5.81331 5.98402 6.45377 6.20307 7.04031C6.42213 7.62685 6.8196 8.12993 7.33955 8.47874C7.8595 8.82754 8.47574 9.00452 9.10153 8.98475C9.72733 8.96498 10.3312 8.74946 10.8281 8.36853C11.325 7.9876 11.6899 7.46044 11.8715 6.86125C12.0531 6.26205 12.0422 5.62099 11.8404 5.0283C11.6386 4.43561 11.256 3.92114 10.7464 3.55728C10.2369 3.19343 9.62609 2.99853 8.99998 3Z" fill="#666666"/>
        </symbol>

</svg>





