<svg style="visibility: hidden; width: 0; height: 0;">

    <symbol id="logo" viewBox="0 0 270 39" fill="none" xmlns="http://www.w3.org/2000/svg">
            <path d="M12.299 39C13.8193 39 15.0517 37.7555 15.0517 36.2204C15.0517 34.6853 13.8193 33.4408 12.299 33.4408C10.7788 33.4408 9.54639 34.6853 9.54639 36.2204C9.54639 37.7555 10.7788 39 12.299 39Z" fill="#EA0535"/>
            <path d="M24.2141 39C25.7343 39 26.9667 37.7555 26.9667 36.2204C26.9667 34.6853 25.7343 33.4408 24.2141 33.4408C22.6938 33.4408 21.4614 34.6853 21.4614 36.2204C21.4614 37.7555 22.6938 39 24.2141 39Z" fill="#EA0535"/>
            <path d="M26.7781 14.864C26.4722 14.4697 26.1338 14.082 25.7629 13.7206C23.8627 11.8544 21.5851 10.849 18.9757 10.7439C18.813 10.7373 18.6438 10.7307 18.4811 10.7307H12.2535V4.52753C12.2535 4.50125 12.247 4.48154 12.247 4.45525C12.2405 4.42897 12.2405 4.39611 12.2405 4.36982L12.234 4.2384H12.2535V0.131409H0.130127C0.162664 1.2288 0.572632 2.19476 1.36654 2.98988C2.18648 3.81785 3.18211 4.2384 4.32742 4.2384H8.19284V20.9686C8.19284 22.3815 8.44663 23.7088 8.9477 24.9179C9.44877 26.127 10.2167 27.2441 11.2253 28.2495C13.2426 30.2537 15.6829 31.2657 18.4811 31.2657C18.878 31.2657 19.2815 31.246 19.698 31.2C21.9886 30.9503 24.0254 29.958 25.7564 28.2495C26.238 27.7698 26.674 27.2573 27.0514 26.725C28.2162 25.0559 28.8084 23.124 28.8084 20.9752C28.8019 18.6622 28.1186 16.6119 26.7781 14.864ZM24.4419 22.2303C24.2207 23.4197 23.6675 24.4777 22.789 25.3976C21.9821 26.2519 21.0385 26.8039 19.9843 27.0667C19.5028 27.185 19.0017 27.2573 18.4681 27.2573C16.7631 27.2573 15.325 26.6396 14.1471 25.3976C13.4118 24.6222 12.9042 23.7548 12.6244 22.7889C12.4617 22.2172 12.3771 21.6061 12.3771 20.9686V19.0367V14.7852V14.7326H18.4616C19.7175 14.7326 20.8238 15.0677 21.7934 15.7314C22.1383 15.968 22.4702 16.244 22.776 16.5659C23.9538 17.7882 24.546 19.2536 24.546 20.9686C24.5525 21.4089 24.5135 21.8295 24.4419 22.2303Z" fill="url(#paint0_linear_24_452)"/>
            <path d="M12.3836 0.0131424V0H0C0 1.19596 0.422983 2.22106 1.27546 3.08189C2.12793 3.93614 3.14309 4.36984 4.32744 4.36984H8.06271V4.4027C8.90868 2.58905 10.2883 1.21567 12.3836 0.0131424Z" fill="url(#paint1_linear_24_452)"/>
            <path d="M18.468 14.7326C19.7239 14.7326 20.8302 15.0677 21.7998 15.7314C21.2662 13.6549 20.3682 11.8873 18.9821 10.6124C18.8194 10.6059 18.6502 10.5993 18.481 10.5993H12.3835V14.7326H18.468Z" fill="url(#paint2_linear_24_452)"/>
            <path d="M21.8064 15.7314C22.1513 15.968 22.4832 16.244 22.789 16.566C23.9669 17.7882 24.5591 19.2536 24.5591 20.9687C24.5591 21.4024 24.52 21.8229 24.4419 22.2304C26.9408 19.9896 27.2336 17.072 26.8822 14.7852C26.5764 14.3844 26.2315 13.9967 25.854 13.6287C23.9213 11.7296 21.6307 10.7242 18.9822 10.6125C20.3683 11.8873 21.2728 13.6484 21.8064 15.7314Z" fill="url(#paint3_linear_24_452)"/>
            <path d="M19.9844 27.0733C19.5029 27.1916 19.0018 27.2639 18.4682 27.2639C16.7632 27.2639 15.3251 26.6462 14.1473 25.4042C13.4119 24.6288 12.9043 23.7614 12.6245 22.7955C12.8848 27.3033 15.9823 30.2143 19.7046 31.3249C22.0343 31.0686 24.0776 30.0763 25.8346 28.3416C26.3292 27.8487 26.7652 27.3362 27.1426 26.7973C24.9171 27.7961 22.3922 28.0327 19.9844 27.0733Z" fill="url(#paint4_linear_24_452)"/>
            <path d="M12.3837 6.97858V4.52753C12.3837 4.46839 12.3707 4.42239 12.3707 4.36325H12.3837V0.0131226C10.2883 1.21565 8.90871 2.58903 8.06274 4.40268V7.40571V11.6704C8.85014 9.83705 10.2362 8.37167 12.3837 6.97858Z" fill="url(#paint5_linear_24_452)"/>
            <path d="M12.6309 22.7954C12.4682 22.2237 12.3836 21.6126 12.3836 20.9752V19.0433V14.7852C10.2232 17.7093 9.18197 21.3629 8.83057 24.9705C9.34465 26.1993 10.1125 27.323 11.1407 28.3415C13.1905 30.3786 15.6373 31.3971 18.4876 31.3971C18.9041 31.3971 19.314 31.3708 19.7175 31.3314C15.9887 30.2077 12.8912 27.3033 12.6309 22.7954Z" fill="url(#paint6_linear_24_452)"/>
            <path d="M26.8823 14.7852C27.2337 17.0719 26.9408 19.9895 24.442 22.2303C24.2207 23.4197 23.6676 24.4777 22.7891 25.3976C21.9822 26.2519 21.0386 26.8039 19.9844 27.0667C22.3921 28.0261 24.917 27.7961 27.1491 26.7907C28.3334 25.0888 28.9321 23.1503 28.9321 20.9686C28.9321 18.6227 28.2488 16.5594 26.8823 14.7852Z" fill="url(#paint7_linear_24_452)"/>
            <path d="M12.3837 14.7326V10.5993V8.82512V7.39917V6.97205C10.2362 8.36514 8.85014 9.83708 8.06274 11.6639V20.9687C8.06274 22.4078 8.31653 23.7351 8.83062 24.964C9.18202 21.3564 10.2297 17.7094 12.3837 14.7786V14.7326Z" fill="url(#paint8_linear_24_452)"/>
            <path d="M40.7367 10.389C43.5544 10.389 45.9817 11.3944 48.012 13.4118C50.0423 15.4291 51.0574 17.8605 51.0574 20.7058C51.0574 23.5511 50.0423 25.9759 48.012 27.9735C45.9817 29.9712 43.5609 30.97 40.7367 30.97C37.9189 30.97 35.4982 29.9712 33.4744 27.9735C31.4505 25.9759 30.4419 23.5511 30.4419 20.7058C30.4419 17.8605 31.4505 15.4291 33.4744 13.4118C35.4982 11.3944 37.9189 10.389 40.7367 10.389ZM40.7367 14.4763C39.0577 14.4763 37.6326 15.0874 36.4678 16.3162C35.303 17.5451 34.7238 19.0039 34.7238 20.6992C34.7238 22.3946 35.303 23.8534 36.4678 25.0559C37.6326 26.265 39.0512 26.8696 40.7367 26.8696C42.4156 26.8696 43.8472 26.265 45.0186 25.0559C46.1899 23.8468 46.7756 22.3946 46.7756 20.6992C46.7756 19.0039 46.1899 17.5385 45.0186 16.3162C43.8472 15.094 42.4221 14.4763 40.7367 14.4763Z" fill="#444B51"/>
            <path d="M69.0373 20.7058C69.0373 19.0236 68.4516 17.5648 67.2803 16.3294C66.1089 15.094 64.6903 14.4763 63.0244 14.4763C61.3455 14.4763 59.9139 15.0874 58.7425 16.3162C57.5712 17.5451 56.9855 19.0039 56.9855 20.6992V26.6396C56.9855 27.8224 56.5625 28.8409 55.7231 29.6886C54.8836 30.5363 53.875 30.9634 52.7036 30.9634V20.7058C52.7036 17.8605 53.7123 15.4291 55.7361 13.4118C57.7599 11.3944 60.1872 10.389 63.0244 10.389C65.8421 10.389 68.2629 11.3944 70.2867 13.4118C72.304 15.4291 73.3192 17.8605 73.3192 20.7058V30.97C72.1478 30.97 71.1392 30.5429 70.2997 29.6952C69.4603 28.8475 69.0373 27.829 69.0373 26.6462V20.7058Z" fill="#444B51"/>
            <path d="M79.5859 30.97C78.4145 30.97 77.4059 30.5429 76.5664 29.6952C75.7269 28.8475 75.304 27.829 75.304 26.6462V10.389C76.4753 10.389 77.4839 10.8162 78.3234 11.6638C79.1629 12.5115 79.5859 13.5301 79.5859 14.7129V30.97Z" fill="#444B51"/>
            <path d="M85.9828 31.0752H81.7009V5.37524C82.8723 5.37524 83.8809 5.80237 84.7204 6.65005C85.5598 7.49774 85.9828 8.51627 85.9828 9.69909V18.9579H91.6378C93.3037 18.9579 94.7223 18.3402 95.8936 17.1048C97.065 15.8694 97.6506 14.4106 97.6506 12.735V10.803H101.933V12.735C101.933 14.3843 101.562 15.9286 100.826 17.3808C100.084 18.833 99.0628 20.0421 97.7548 21.0212C99.0628 22.0003 100.084 23.2094 100.826 24.6617C101.568 26.1139 101.933 27.6516 101.933 29.2812V31.0817H97.6506V29.2812C97.6506 27.599 97.065 26.1402 95.8936 24.9114C94.7223 23.676 93.3037 23.0583 91.6378 23.0583H85.9828V31.0752Z" fill="#444B51"/>
            <path d="M159.393 25.0231C160.239 25.5948 161.163 25.8773 162.159 25.8773C162.927 25.8773 163.727 25.7131 164.553 25.3845C165.465 25.0099 166.115 24.5434 166.506 23.9848L169.551 26.1402C168.816 27.2113 167.723 28.0721 166.278 28.7227C164.911 29.3469 163.538 29.6623 162.159 29.6623C160.714 29.6623 159.335 29.3009 158.02 28.5781C156.673 27.8356 155.645 26.8433 154.929 25.6211C154.552 24.9771 154.265 24.3068 154.083 23.6169C153.901 22.9137 153.803 22.204 153.803 21.4812C153.803 19.2207 154.597 17.2954 156.178 15.692C157.76 14.0952 159.673 13.2935 161.911 13.2935C163.551 13.2935 165.055 13.7601 166.421 14.6932C168.107 15.8366 169.258 17.5451 169.89 19.8253L159.393 25.0231ZM165.172 18.5242C164.41 17.3874 163.324 16.8157 161.918 16.8157C160.506 16.8157 159.354 17.3545 158.463 18.4256C157.63 19.5427 157.343 20.8241 157.617 22.2698L165.172 18.5242Z" fill="#FF6A00"/>
            <path d="M176.95 5.86804V20.7781C176.95 22.2369 177.25 23.3803 177.848 24.2148C178.174 24.6748 178.584 25.0428 179.072 25.3188C179.475 25.5487 179.97 25.667 180.568 25.667C180.731 25.667 180.894 25.6539 181.056 25.6342C181.59 25.5553 182.416 25.253 183.549 24.7142L185 28.3481C183.803 29.1169 182.605 29.5506 181.401 29.6492C180.933 29.6623 180.497 29.6623 180.08 29.6623C179.059 29.6623 178.115 29.4257 177.25 28.9526C176.15 28.3744 175.258 27.5792 174.562 26.587C173.456 25.0428 172.903 23.1043 172.903 20.7846V5.86804H176.95Z" fill="#FF6A00"/>
            <path d="M191.338 5.86804V9.96189H187.284V5.86804H191.338ZM191.338 13.2803V29.6557H187.284V13.2803H191.338Z" fill="#FF6A00"/>
            <path d="M198.62 13.2803L204.203 24.7076L209.787 13.2803H214.296L207.197 27.8158C206.917 28.3941 206.494 28.8541 205.928 29.1826C205.394 29.498 204.822 29.6623 204.203 29.6623C203.585 29.6623 203.006 29.5046 202.479 29.1826C201.913 28.8541 201.49 28.4006 201.21 27.8158L194.11 13.2803H198.62Z" fill="#FF6A00"/>
            <path d="M222.001 25.0231C222.847 25.5948 223.771 25.8773 224.767 25.8773C225.535 25.8773 226.335 25.7131 227.162 25.3845C228.073 25.0099 228.723 24.5434 229.114 23.9848L232.159 26.1402C231.424 27.2113 230.331 28.0721 228.886 28.7227C227.52 29.3469 226.147 29.6623 224.767 29.6623C223.322 29.6623 221.943 29.3009 220.628 28.5781C219.281 27.8356 218.253 26.8433 217.537 25.6211C217.16 24.9771 216.873 24.3068 216.691 23.6169C216.509 22.9137 216.411 22.204 216.411 21.4812C216.411 19.2207 217.205 17.2954 218.787 15.692C220.368 14.0952 222.281 13.2935 224.52 13.2935C226.16 13.2935 227.663 13.7601 229.029 14.6932C230.715 15.8366 231.867 17.5451 232.498 19.8253L222.001 25.0231ZM227.78 18.5242C227.019 17.3874 225.932 16.8157 224.526 16.8157C223.114 16.8157 221.962 17.3545 221.071 18.4256C220.238 19.5427 219.951 20.8241 220.225 22.2698L227.78 18.5242Z" fill="#FF6A00"/>
            <path d="M244.276 17.3742C242.975 17.3742 241.862 17.8407 240.938 18.7738C240.007 19.7201 239.539 20.8438 239.539 22.158V29.6557H235.504V22.158C235.504 19.7004 236.363 17.6107 238.075 15.876C239.793 14.1412 241.855 13.2803 244.276 13.2803C247.022 13.4906 249.105 14.634 250.53 16.7171L247.439 18.7541C246.541 17.8342 245.487 17.3742 244.276 17.3742Z" fill="#FF6A00"/>
            <path d="M261.078 33.0925C262.393 33.0925 263.532 32.6062 264.501 31.6271C265.464 30.6546 265.953 29.5046 265.953 28.1904V26.495C264.911 28.1378 263.33 28.9592 261.215 28.9592C258.794 28.9592 256.725 28.0918 255.014 26.3636C253.296 24.6288 252.443 22.5457 252.443 20.1012V13.2672H256.497V20.1078C256.497 21.4221 256.959 22.5457 257.883 23.4788C258.807 24.4119 259.92 24.8785 261.222 24.8785C262.536 24.8785 263.655 24.4119 264.573 23.4788C265.497 22.5457 265.959 21.4221 265.959 20.1078V13.2672H270.013V28.197C270.013 30.6283 269.135 32.7179 267.378 34.4593C265.621 36.1941 263.525 37.0549 261.091 37.0549C257.194 37.0549 254.285 35.4187 252.365 32.1397L255.703 30.1355C256.849 32.1068 258.645 33.0925 261.078 33.0925Z" fill="#FF6A00"/>
            <path d="M142.832 15.9285C141.498 14.5814 139.884 13.9046 137.997 13.9046H135.647V18.0576V18.8593V20.8832V22.9071V23.7088V27.8618H137.997C139.884 27.8618 141.491 27.185 142.832 25.8379C144.166 24.4908 144.836 22.8546 144.836 20.9423C144.836 20.9226 144.836 20.9029 144.836 20.8898C144.836 20.8701 144.836 20.8503 144.836 20.8372C144.836 18.9118 144.166 17.2822 142.832 15.9285Z" fill="#E24329"/>
            <path d="M151.825 18.8856C150.973 11.7624 145.025 5.94035 137.906 5.78264C131.886 5.65122 125.867 5.73664 119.841 5.73664C119.184 5.73664 118.318 5.59208 118.37 6.66975C118.422 7.70143 119.255 7.54372 119.919 7.54372C123.986 7.55029 128.053 7.55029 132.121 7.55029C133.227 7.55029 134.639 7.35972 134.626 8.95652C134.619 10.573 133.845 10.3168 132.095 10.3168C128.977 10.3168 125.86 10.3233 122.743 10.3168C122.014 10.3168 121.234 10.3825 121.247 11.309C121.26 12.2093 122.041 12.3078 122.769 12.3144C123.244 12.321 123.719 12.3078 124.194 12.321C125.275 12.3538 126.745 12.045 126.752 13.6549C126.758 15.3503 125.236 15.0743 124.103 15.0809C120.615 15.094 117.134 15.094 113.646 15.0809C112.911 15.0809 112.143 15.1334 112.149 16.0665C112.156 16.9799 112.956 17.0522 113.659 17.0917C113.978 17.1114 114.29 17.0982 114.609 17.0982C117.674 17.0982 120.739 17.0982 123.798 17.0982V17.1048C126.55 17.1048 129.303 17.1048 132.049 17.1048V13.2212C132.049 12.413 132.335 11.723 132.914 11.1382C133.481 10.5665 134.164 10.2773 134.964 10.2773H137.997C140.873 10.2773 143.333 11.309 145.37 13.3658C147.406 15.416 148.428 17.8999 148.428 20.8241C148.428 20.8438 148.428 20.8635 148.428 20.8767C148.428 20.8964 148.428 20.9161 148.428 20.9292C148.428 23.8534 147.406 26.3373 145.37 28.3875C143.333 30.4443 140.873 31.476 137.997 31.476H134.964C134.164 31.476 133.481 31.1869 132.914 30.6152C132.335 30.0303 132.049 29.3403 132.049 28.5321V24.6485C129.296 24.6485 126.544 24.6485 123.798 24.6485V24.6551C120.733 24.6551 117.668 24.6551 114.609 24.6551C114.29 24.6551 113.971 24.6419 113.659 24.6617C112.956 24.7011 112.156 24.7734 112.149 25.6868C112.143 26.6199 112.917 26.6724 113.646 26.6724C117.134 26.6659 120.615 26.6659 124.103 26.6724C125.236 26.679 126.758 26.403 126.752 28.0984C126.752 29.7083 125.275 29.3995 124.194 29.4323C123.719 29.4455 123.244 29.4323 122.769 29.4389C122.047 29.4455 121.266 29.5441 121.247 30.4443C121.234 31.3708 122.008 31.4366 122.743 31.4366C125.86 31.43 128.977 31.4366 132.095 31.4366C133.852 31.4366 134.619 31.1803 134.626 32.7968C134.632 34.3936 133.227 34.203 132.121 34.203C128.053 34.203 123.986 34.1965 119.919 34.2096C119.255 34.2096 118.416 34.0519 118.37 35.0836C118.318 36.1678 119.184 36.0167 119.841 36.0167C125.86 36.0232 131.886 36.1021 137.906 35.9707C145.025 35.813 150.973 29.9909 151.825 22.8677C151.903 22.1909 151.949 21.5272 151.955 20.8701C151.942 20.2261 151.903 19.5624 151.825 18.8856Z" fill="#E24329"/>
            <path d="M121.377 21.8886C124.936 21.9346 128.496 21.9215 132.055 21.9149V20.8832V19.8516C128.496 19.845 124.936 19.8318 121.377 19.8778C120.498 19.891 118.963 19.3127 118.989 20.8372C118.989 20.857 118.995 20.8701 118.995 20.8832C118.995 20.903 118.989 20.9161 118.989 20.9292C118.956 22.4538 120.498 21.8755 121.377 21.8886Z" fill="#E24329"/>
            <path d="M106.175 31.0751C107.617 31.0751 108.785 29.8954 108.785 28.4401C108.785 26.9848 107.617 25.8051 106.175 25.8051C104.734 25.8051 103.566 26.9848 103.566 28.4401C103.566 29.8954 104.734 31.0751 106.175 31.0751Z" fill="#444B51"/>

                <linearGradient id="paint0_linear_24_452" x1="14.4657" y1="-1.88956" x2="14.4657" y2="43.2435" gradientUnits="userSpaceOnUse">
                    <stop offset="5.43435e-07" stop-color="#E9043F"/>
                    <stop offset="0.2145" stop-color="#FF3366"/>
                    <stop offset="0.5101" stop-color="#E24329"/>
                    <stop offset="0.7587" stop-color="#FF6A00"/>
                </linearGradient>
                <linearGradient id="paint1_linear_24_452" x1="-0.851368" y1="-0.684324" x2="11.6044" y2="3.27213" gradientUnits="userSpaceOnUse">
                    <stop offset="8.15152e-07" stop-color="#FF3366"/>
                    <stop offset="1" stop-color="#E80042"/>
                </linearGradient>
                <linearGradient id="paint2_linear_24_452" x1="25.3168" y1="7.77284" x2="13.2051" y2="15.5612" gradientUnits="userSpaceOnUse">
                    <stop offset="6.76629e-07" stop-color="#3366FF"/>
                    <stop offset="1" stop-color="#2A9DF4"/>
                </linearGradient>
                <linearGradient id="paint3_linear_24_452" x1="33.2282" y1="22.0994" x2="21.7613" y2="15.9549" gradientUnits="userSpaceOnUse">
                    <stop offset="6.76629e-07" stop-color="#3366FF"/>
                    <stop offset="1" stop-color="#2A9DF4"/>
                </linearGradient>
                <linearGradient id="paint4_linear_24_452" x1="6.10269" y1="23.9256" x2="26.935" y2="29.9751" gradientUnits="userSpaceOnUse">
                    <stop offset="8.15152e-07" stop-color="#E24329"/>
                    <stop offset="1" stop-color="#FF6A00"/>
                </linearGradient>
                <linearGradient id="paint5_linear_24_452" x1="9.81097" y1="-2.97545" x2="10.4488" y2="10.4477" gradientUnits="userSpaceOnUse">
                    <stop offset="8.15152e-07" stop-color="#FF3366"/>
                    <stop offset="1" stop-color="#E80042"/>
                </linearGradient>
                <linearGradient id="paint6_linear_24_452" x1="7.23104" y1="14.3754" x2="16.3523" y2="29.2206" gradientUnits="userSpaceOnUse">
                    <stop offset="8.15152e-07" stop-color="#E24329"/>
                    <stop offset="1" stop-color="#FF6A00"/>
                </linearGradient>
                <linearGradient id="paint7_linear_24_452" x1="32.3637" y1="29.8609" x2="23.9948" y2="21.6514" gradientUnits="userSpaceOnUse">
                    <stop offset="6.76629e-07" stop-color="#3366FF"/>
                    <stop offset="1" stop-color="#2A9DF4"/>
                </linearGradient>
                <linearGradient id="paint8_linear_24_452" x1="9.17395" y1="4.31466" x2="11.0872" y2="22.1564" gradientUnits="userSpaceOnUse">
                    <stop stop-color="#E9043F"/>
                    <stop offset="0.4425" stop-color="#FF3366"/>
                    <stop offset="1" stop-color="#FF6A00"/>
                </linearGradient>
    </symbol>

    <symbol id="call-icon" viewBox="0 0 12 16" xmlns="http://www.w3.org/2000/svg">
        <path
            d="M1.86633 0.46705L3.1574 0.0777966C3.58349 -0.0504663 4.0417 -0.0193459 4.44654 0.165353C4.85138 0.350051 5.17521 0.675714 5.35761 1.08159L6.26276 3.09451C6.41986 3.44372 6.46365 3.83337 6.38798 4.20874C6.31231 4.5841 6.12098 4.92635 5.84085 5.18742L4.46313 6.47116C4.2785 6.64645 4.41847 7.32965 5.093 8.49874C5.7682 9.6685 6.29009 10.1311 6.53071 10.0591L8.33567 9.5072C8.70154 9.39529 9.09325 9.40068 9.45591 9.5226C9.81856 9.64452 10.134 9.87686 10.3579 10.1871L11.6443 11.97C11.9042 12.3301 12.0245 12.7722 11.9829 13.2142C11.9414 13.6563 11.7408 14.0682 11.4184 14.3735L10.4239 15.3153C10.1029 15.6194 9.70695 15.8328 9.27651 15.9338C8.84607 16.0349 8.39653 16.02 7.97375 15.8906C5.89017 15.2527 3.96057 13.3597 2.15893 10.2384C0.353304 7.11236 -0.328557 4.47556 0.14668 2.32134C0.24253 1.88726 0.45241 1.4866 0.754686 1.16066C1.05696 0.834718 1.44069 0.595288 1.86633 0.46705V0.46705Z"
            fill="#E24329"/>
    </symbol>


    <symbol id="earth-icon" viewBox="0 0 54 24" fill="none" xmlns="http://www.w3.org/2000/svg">
        <path
            d="M17.351 14C17.431 13.34 17.491 12.68 17.491 12C17.491 11.32 17.431 10.66 17.351 10H20.731C20.891 10.64 20.991 11.31 20.991 12C20.991 12.69 20.891 13.36 20.731 14H17.351ZM15.581 19.56C16.181 18.45 16.641 17.25 16.961 16H19.911C18.9421 17.6683 17.4051 18.932 15.581 19.56V19.56ZM15.331 14H10.651C10.551 13.34 10.491 12.68 10.491 12C10.491 11.32 10.551 10.65 10.651 10H15.331C15.421 10.65 15.491 11.32 15.491 12C15.491 12.68 15.421 13.34 15.331 14ZM12.991 19.96C12.161 18.76 11.491 17.43 11.081 16H14.901C14.491 17.43 13.821 18.76 12.991 19.96ZM8.99097 8H6.07097C7.02982 6.32721 8.56576 5.06149 10.391 4.44C9.79097 5.55 9.34097 6.75 8.99097 8ZM6.07097 16H8.99097C9.34097 17.25 9.79097 18.45 10.391 19.56C8.56959 18.9317 7.03581 17.6677 6.07097 16V16ZM5.25097 14C5.09097 13.36 4.99097 12.69 4.99097 12C4.99097 11.31 5.09097 10.64 5.25097 10H8.63097C8.55097 10.66 8.49097 11.32 8.49097 12C8.49097 12.68 8.55097 13.34 8.63097 14H5.25097ZM12.991 4.03C13.821 5.23 14.491 6.57 14.901 8H11.081C11.491 6.57 12.161 5.23 12.991 4.03V4.03ZM19.911 8H16.961C16.648 6.76146 16.1845 5.5659 15.581 4.44C17.421 5.07 18.951 6.34 19.911 8ZM12.991 2C7.46097 2 2.99097 6.5 2.99097 12C2.99097 14.6522 4.04454 17.1957 5.9199 19.0711C6.84848 19.9997 7.95088 20.7362 9.16413 21.2388C10.3774 21.7413 11.6777 22 12.991 22C15.6431 22 18.1867 20.9464 20.062 19.0711C21.9374 17.1957 22.991 14.6522 22.991 12C22.991 10.6868 22.7323 9.38642 22.2298 8.17317C21.7272 6.95991 20.9906 5.85752 20.062 4.92893C19.1334 4.00035 18.0311 3.26375 16.8178 2.7612C15.6045 2.25866 14.3042 2 12.991 2V2Z"
            fill="#828282"/>
        <path
            d="M34.399 11.408V8.496H40.751V6.8H32.351V18H40.927V16.304H34.399V13.104H40.095V11.408H34.399ZM44.6021 10.048L49.9781 18H52.1541V6.8H50.1061V14.752L44.7301 6.8H42.5541V18H44.6021V10.048Z"
            fill="#828282"/>
    </symbol>

    <symbol id="feature-icon_1" xmlns="http://www.w3.org/2000/svg">
        <path
            d="M51.89 64.61a33.19 33.19 0 0 1-16.16 4.2c-6.83 0-12.9-1.75-18.08-5.17l2.38-2.93c.05.04.09.1.16.14a29.5 29.5 0 0 0 26.5 2.33.83.83 0 0 0 .45-1.06.83.83 0 0 0-1.06-.47 27.82 27.82 0 0 1-10.33 1.97 27.9 27.9 0 0 1-14.68-4.16l1.91-2.38a1.9 1.9 0 0 0 .26-2 1.9 1.9 0 0 0-1.69-1.13l-10.64-.37c-.6-.03-1.18.24-1.57.71a1.89 1.89 0 0 0-.36 1.69l2.6 10.3a1.9 1.9 0 0 0 1.88 1.45c.57 0 1.12-.25 1.5-.71l1.68-2.08c5.48 3.66 11.9 5.54 19.12 5.54 5.95 0 11.81-1.53 16.98-4.42.4-.22.54-.73.31-1.12a.89.89 0 0 0-1.16-.33Zm-38.25 1.36a.28.28 0 0 1-.28.1.25.25 0 0 1-.2-.2l-2.62-10.3a.26.26 0 0 1 .06-.24c.03-.05.1-.1.2-.1h.02l10.64.37c.15 0 .21.1.25.17.02.05.05.17-.04.28l-8.03 9.92Zm6.44-60.01A33.22 33.22 0 0 1 37 2.3c6.81.35 12.79 2.43 17.77 6.1l-2.53 2.82-.14-.14a29.45 29.45 0 0 0-15.3-5.22c-3.78-.2-7.49.3-11.04 1.52a.83.83 0 0 0-.52 1.04c.14.43.62.66 1.05.52a27.93 27.93 0 0 1 24.87 3.5l-2.04 2.25a1.91 1.91 0 0 0 1.26 3.2l10.61.92.18.01a1.9 1.9 0 0 0 1.88-2.3L61 6.12a1.93 1.93 0 0 0-3.32-.91L55.9 7.19C50.6 3.24 44.3 1.04 37.1.66A34.8 34.8 0 0 0 19.32 4.5c-.4.2-.56.7-.35 1.1a.8.8 0 0 0 1.1.37Zm38.82.35c.1-.11.22-.1.28-.08a.3.3 0 0 1 .2.21l2.06 10.43a.3.3 0 0 1-.06.24.3.3 0 0 1-.23.09l-10.62-.93a.26.26 0 0 1-.23-.17.27.27 0 0 1 .06-.29l8.54-9.5ZM9.39 46.65a.83.83 0 0 0 .46-1.07 27.73 27.73 0 0 1 2.2-24.96l2.38 1.92a1.92 1.92 0 0 0 2.01.25 1.9 1.9 0 0 0 1.13-1.68l.37-10.63a1.9 1.9 0 0 0-.71-1.56 1.9 1.9 0 0 0-1.69-.36L5.2 11.16a1.92 1.92 0 0 0-.74 3.36l2.09 1.68C2.87 21.66 1 28.07 1 35.27c0 5.67 1.4 11.29 4.06 16.27.16.27.43.44.73.44a.8.8 0 0 0 .38-.1.82.82 0 0 0 .34-1.11 33.05 33.05 0 0 1-3.87-15.5c0-6.81 1.76-12.88 5.18-18.04l2.94 2.37c-.04.05-.1.09-.14.16A29.36 29.36 0 0 0 8.3 46.2a.84.84 0 0 0 1.1.45ZM5.4 12.95a.25.25 0 0 1 .2-.2l10.33-2.6c.02-.02.04-.02.06-.02.08 0 .15.04.17.07.04.03.1.1.1.22l-.38 10.62c0 .14-.1.21-.16.24a.28.28 0 0 1-.29-.03l-9.95-8.02a.32.32 0 0 1-.08-.27Zm62.13 6.78a.83.83 0 0 0-1.49.71 32.86 32.86 0 0 1 3.25 16.1c-.35 6.8-2.43 12.77-6.13 17.74l-2.82-2.52c.06-.05.11-.08.16-.14a29.31 29.31 0 0 0 5.22-15.27c.2-3.76-.3-7.47-1.51-11.01a.83.83 0 0 0-1.05-.52.83.83 0 0 0-.52 1.04 27.8 27.8 0 0 1-3.5 24.82l-2.27-2.03a1.92 1.92 0 0 0-3.2 1.26l-.92 10.6c-.06.6.17 1.18.62 1.58a1.94 1.94 0 0 0 1.66.47l10.44-2.06a1.93 1.93 0 0 0 1.49-1.37 1.9 1.9 0 0 0-.57-1.95l-2-1.78c3.95-5.27 6.17-11.57 6.54-18.76a34.56 34.56 0 0 0-3.4-16.9Zm-2.16 38.95a.27.27 0 0 1-.2.2L54.7 60.94a.3.3 0 0 1-.25-.07.28.28 0 0 1-.08-.23l.92-10.59c.01-.14.11-.2.18-.23a.25.25 0 0 1 .29.05l9.51 8.53c.11.1.1.22.1.28Zm-9.39-19.94c.87-.1 1.53-.84 1.53-1.71v-3.14c0-.87-.66-1.61-1.53-1.7l-3.29-.46a17.8 17.8 0 0 0-2.25-5.51l2.01-2.54c.54-.7.48-1.67-.13-2.3l-2.21-2.22a1.74 1.74 0 0 0-2.3-.13l-2.64 1.99a17.97 17.97 0 0 0-5.52-2.32l-.38-3.18a1.73 1.73 0 0 0-1.71-1.53h-3.13c-.88 0-1.62.66-1.72 1.53l-.45 3.25a18 18 0 0 0-5.55 2.25l-2.53-1.99a1.75 1.75 0 0 0-2.3.13l-2.21 2.22c-.62.62-.67 1.6-.13 2.3l2 2.62a18.07 18.07 0 0 0-2.3 5.5l-3.24.4c-.87.09-1.53.83-1.53 1.7v3.14c0 .87.66 1.61 1.53 1.71l3.32.45a18.12 18.12 0 0 0 2.25 5.5l-2.02 2.55c-.54.68-.49 1.67.13 2.3l2.21 2.2c.62.62 1.61.69 2.3.14l2.59-2.03c.36-.29.42-.8.13-1.16a.81.81 0 0 0-1.15-.13l-2.7 2.03-2.22-2.31 2.02-2.56c.45-.58.5-1.38.09-2a15.45 15.45 0 0 1-2.04-4.88 1.74 1.74 0 0 0-1.48-1.35l-3.32-.46.07-3.21 3.24-.39a1.75 1.75 0 0 0 1.48-1.36 14.91 14.91 0 0 1 2.03-4.9c.4-.62.36-1.43-.1-2l-2-2.63 2.32-2.22 2.53 1.99c.57.45 1.39.49 2.01.08a15.2 15.2 0 0 1 4.92-2.03 1.75 1.75 0 0 0 1.37-1.48l.45-3.25 3.21.06.38 3.19c.09.72.64 1.33 1.36 1.48 1.74.37 3.4 1.07 4.92 2.03.63.4 1.44.37 2.02-.08l2.63-2 2.21 2.33-2.01 2.53c-.45.57-.5 1.39-.09 2a14.86 14.86 0 0 1 2.02 4.9c.16.72.76 1.26 1.5 1.34l3.28.46-.06 3.22-3.25.39c-.73.08-1.32.62-1.49 1.35a15.07 15.07 0 0 1-2.02 4.85c-.41.63-.37 1.43.09 2.01l2.03 2.68-2.31 2.22-2.59-2.03a.82.82 0 0 0-1.02 1.29l2.59 2.03a1.7 1.7 0 0 0 2.29-.13l2.2-2.22c.63-.62.68-1.6.14-2.29l-2.04-2.67a17.72 17.72 0 0 0 2.32-5.46l3.24-.38Z"
            fill="#E24329" stroke="#E24329" stroke-width=".5"/>
        <path
            d="M32.03 58.47c.45 0 .83-.37.83-.83v-12.7a.84.84 0 0 0-.3-.64l-4.06-3.34a2.71 2.71 0 1 0-5.2-1.05 2.7 2.7 0 0 0 4.1 2.29l3.8 3.12v12.31c0 .47.37.84.83.84ZM24.95 39.9a1.06 1.06 0 1 1 2.11 0 1.06 1.06 0 0 1-2.1 0Zm1.72-11.2a2.7 2.7 0 1 0 0 5.4c.5 0 .97-.14 1.38-.4l1.8 1.62 1.05 5.07c.07.38.43.66.8.66.05 0 .11 0 .17-.03a.81.81 0 0 0 .63-.97l-1.1-5.33a.8.8 0 0 0-.25-.45l-2.01-1.8a2.7 2.7 0 0 0-2.47-3.77Zm-1.06 2.69a1.06 1.06 0 1 1 2.11 0 1.06 1.06 0 0 1-2.1 0Zm13.52 13.54v12.71a.83.83 0 1 0 1.65 0V45.32l3.79-3.12a2.7 2.7 0 1 0-1.09-1.24l-4.06 3.34a.86.86 0 0 0-.29.63Zm6.85-6.07a1.05 1.05 0 1 1-1.06 1.05c.01-.58.48-1.05 1.06-1.05Zm-5.4-4.14-1.1 5.33c-.09.45.2.87.64.97.06.01.11.03.17.03.38 0 .72-.27.8-.66l1.05-5.07 1.8-1.61c.4.24.87.4 1.38.4a2.7 2.7 0 1 0-2.48-1.63l-2.01 1.79a.86.86 0 0 0-.25.45Zm4.74-4.37a1.05 1.05 0 1 1-1.06 1.05c.01-.58.48-1.05 1.06-1.05ZM36 56.83c.44 0 .82-.37.82-.82V28.7a2.7 2.7 0 0 0 1.88-2.56 2.7 2.7 0 0 0-5.4 0c0 1.2.79 2.2 1.87 2.56V56c0 .46.37.83.82.83Zm0-31.75a1.05 1.05 0 1 1-.01 0Z"
            fill="#E24329" stroke="#E24329" stroke-width=".5"/>
    </symbol>

    <symbol id="feature-icon_2" xmlns="http://www.w3.org/2000/svg">
        <path
            d="m91.136 50.964-.028-.06c-.071-.65-.254-1.398-.47-1.92l-.194-.34.009-.005-.388-.654-.01-.022-4.424-7.48h-.003l-1.456-2.51c-.712-1.432-1.717-1.799-1.717-1.799H69.868V34.17c0-1.754-1.45-3.18-3.23-3.18h-29.79c-1.78 0-3.227 1.427-3.227 3.18v27.213c0 1.7 1.381 3.08 3.081 3.08h4.58c.377 3.378 3.216 6.013 6.691 6.013 3.48 0 6.32-2.638 6.697-6.012h15.913c.376 3.377 3.219 6.012 6.7 6.012 3.48 0 6.323-2.638 6.698-6.012h4.082a3.087 3.087 0 0 0 3.088-3.081l-.014-10.419Zm-7.482-8.405 3.196 5.4h-5.651l-1.273-5.4h3.728ZM36.381 34.17c0-.233.213-.426.467-.426h29.787c.254 0 .47.193.47.426v19.01H36.381V34.17ZM47.97 67.72a4.011 4.011 0 0 1-4.005-4.003 4.012 4.012 0 0 1 4.004-4.008c2.21 0 4.01 1.8 4.01 4.008a4.01 4.01 0 0 1-4.01 4.003Zm29.309 0c-2.21 0-4.01-1.8-4.01-4.003 0-2.209 1.8-4.008 4.01-4.008 2.213 0 4.01 1.8 4.01 4.008a4.01 4.01 0 0 1-4.01 4.003Zm10.779-6.02H83.71c-.863-2.743-3.404-4.747-6.431-4.747-3.028 0-5.569 2.004-6.432 4.747H54.405c-.866-2.743-3.404-4.747-6.432-4.747-3.025 0-5.563 2.004-6.423 4.747h-4.847a.322.322 0 0 1-.32-.321v-5.447h33.485V39.25c0-.179.145-.315.322-.315h11.22l.623.866h-8.078a2.353 2.353 0 0 0-2.35 2.354v6.22a2.347 2.347 0 0 0 2.35 2.342h14.33c.049.233.086.466.097.654l.006 10.009a.332.332 0 0 1-.33.32Zm-9.372-13.74h-4.323v-5.401h3.05l1.273 5.4Z"
            fill="#2F80ED"/>
        <path
            d="M34.994 67.62c-5.115 0-9.73-5.774-12.461-14.365 2.674-.35 5.52-.548 8.422-.67v-2.75c-3.164.129-6.272.35-9.188.751-1.057-4.13-1.684-8.778-1.789-13.658h10.977v-2.76H19.981c.105-4.887.732-9.534 1.789-13.665 4.152.572 8.613.89 13.224.89 4.615 0 9.078-.316 13.23-.884.63 2.459 1.086 5.114 1.39 7.882h2.79c-.303-2.925-.761-5.719-1.405-8.306 3.95-.676 7.51-1.614 10.522-2.777a31.857 31.857 0 0 1 4.845 11.08h2.876C65.924 12.55 51.831.617 34.994.617 15.697.625 0 16.293 0 35.546c0 19.259 15.697 34.927 34.994 34.927 2.082 0 4.113-.216 6.101-.566a9.174 9.174 0 0 1-2.002-3.587c-1.31.816-2.683 1.3-4.099 1.3Zm24.795-52.6c-2.763.995-5.979 1.81-9.528 2.405-1.703-5.552-4.17-10.049-7.146-12.971A32.332 32.332 0 0 1 59.789 15.02ZM34.994 3.473c5.116 0 9.73 5.774 12.465 14.364-3.911.517-8.115.799-12.465.799s-8.547-.285-12.461-.8c2.734-8.59 7.349-14.363 12.461-14.363Zm-8.117.984c-2.98 2.92-5.446 7.416-7.147 12.968-3.549-.594-6.764-1.41-9.527-2.405A32.239 32.239 0 0 1 26.877 4.457ZM8.468 17.314c3.016 1.16 6.577 2.098 10.524 2.777-1.053 4.252-1.677 9.005-1.774 14.08H2.831c.268-6.237 2.293-12.028 5.637-16.857ZM2.831 36.928h14.387c.097 5.068.72 9.82 1.774 14.073-3.95.683-7.51 1.62-10.527 2.778-3.34-4.83-5.366-10.615-5.634-16.851ZM10.2 56.073c2.766-.995 5.981-1.811 9.533-2.405 1.703 5.557 4.17 10.054 7.152 12.979A32.265 32.265 0 0 1 10.2 56.072Z"
            fill="#2F80ED"/>
    </symbol>

    <symbol id="feature-icon_3" xmlns="http://www.w3.org/2000/svg">
        <path
            d="M109.65 43.585 97.376 29.057a1.831 1.831 0 0 0-1.422-.654H79.188v-6.106a1.875 1.875 0 0 0-1.871-1.867h-5.745C70.618 9.337 61.281.616 49.942.616c-11.34 0-20.695 8.721-21.65 19.814h-8.064c-1.03 0-1.871.84-1.871 1.867v6.05c0 1.027.842 1.868 1.87 1.868 1.03 0 1.872-.84 1.872-1.868v-4.183h6.194c.954 11.093 10.29 19.813 21.63 19.813s20.676-8.739 21.63-19.813h3.874v28.777H53.16c-1.029 0-1.87.84-1.87 1.867 0 1.028.841 1.868 1.87 1.868h22.286v3.137H49.118a8.4 8.4 0 0 0-.486-1.513c-.019-.037-.037-.056-.037-.074-.206-.467-.45-.897-.711-1.326-.075-.112-.15-.206-.225-.318a9.255 9.255 0 0 0-.767-.933c-.112-.112-.225-.206-.337-.318a8.471 8.471 0 0 0-.898-.728 4.77 4.77 0 0 0-.393-.261 9.306 9.306 0 0 0-1.048-.56c-.13-.057-.262-.131-.393-.187a9.45 9.45 0 0 0-1.291-.411c-.093-.019-.168-.056-.262-.075a8.641 8.641 0 0 0-1.703-.187c-.58 0-1.16.075-1.702.187-.094.019-.169.056-.262.075-.45.112-.88.242-1.291.41a3.737 3.737 0 0 0-.393.187c-.356.168-.711.355-1.048.56a2.672 2.672 0 0 0-.375.262 6.805 6.805 0 0 0-.898.747 2.565 2.565 0 0 0-.318.317c-.28.3-.542.617-.786.953-.075.093-.15.187-.224.299-.28.43-.524.877-.73 1.344 0 .019-.019.037-.019.056-.206.486-.374.99-.486 1.531h-9.899v-3.473a1.875 1.875 0 0 0-1.87-1.867c-1.03 0-1.872.84-1.872 1.867v5.34c0 1.028.842 1.868 1.871 1.868h11.789c.86 3.94 4.36 6.89 8.55 6.89 4.192 0 7.691-2.95 8.552-6.89H84.24c.86 3.94 4.36 6.89 8.551 6.89 4.192 0 7.691-2.95 8.552-6.89h6.904c1.029 0 1.871-.84 1.871-1.867V44.836a2.046 2.046 0 0 0-.468-1.25Zm-59.727-3.342c-9.917 0-17.982-8.049-17.982-17.946 0-9.897 8.065-17.946 17.982-17.946S67.905 12.4 67.905 22.297c0 9.897-8.065 17.946-17.982 17.946Zm-9.356 26.46c-2.769 0-5.014-2.259-5.014-5.023a5.01 5.01 0 0 1 5.014-5.004 5.01 5.01 0 0 1 5.015 5.004c0 2.764-2.264 5.024-5.015 5.024Zm52.187 0c-2.77 0-5.015-2.259-5.015-5.023a5.01 5.01 0 0 1 5.015-5.004 5.01 5.01 0 0 1 5.015 5.004c0 2.764-2.246 5.024-5.015 5.024Zm13.603-6.89h-5.033a9.658 9.658 0 0 0-.468-1.475c-.056-.13-.131-.243-.187-.355a11.3 11.3 0 0 0-.561-1.046c-.113-.168-.225-.317-.337-.467-.206-.261-.412-.523-.636-.765a9.4 9.4 0 0 0-.45-.43 7.695 7.695 0 0 0-.748-.616 5.16 5.16 0 0 0-.524-.355 12.59 12.59 0 0 0-.86-.467c-.188-.093-.375-.186-.562-.261a9.702 9.702 0 0 0-1.048-.318c-.168-.037-.337-.112-.524-.13a8.127 8.127 0 0 0-1.665-.168c-.561 0-1.123.056-1.665.168-.169.037-.337.093-.506.13a9.703 9.703 0 0 0-1.047.318c-.188.075-.375.168-.562.261-.3.15-.58.3-.86.467a5.16 5.16 0 0 0-.525.355 7.694 7.694 0 0 0-.748.616c-.15.15-.3.28-.449.43-.225.242-.43.504-.636.765-.112.15-.243.3-.337.467-.225.336-.393.691-.561 1.046-.056.13-.131.243-.188.355a7.968 7.968 0 0 0-.467 1.475h-5.034V32.138h15.886l11.284 13.333v14.342h.018Z"
            fill="#F36"/>
        <path
            d="M92.454 34.454h-7.579c-1.029 0-1.87.84-1.87 1.867v7.414c0 1.027.841 1.867 1.87 1.867h13.847c.73 0 1.385-.43 1.703-1.083a1.899 1.899 0 0 0-.262-1.998l-6.269-7.414a1.903 1.903 0 0 0-1.44-.653Zm-5.689 7.413V38.19h4.828l3.106 3.678h-7.934ZM6.642 35.574h17.102c1.03 0 1.872-.84 1.872-1.867a1.875 1.875 0 0 0-1.872-1.867H6.642c-1.029 0-1.871.84-1.871 1.867 0 1.027.823 1.867 1.871 1.867Zm.001 5.378H1.87c-1.028 0-1.87.84-1.87 1.868 0 1.027.842 1.867 1.871 1.867h4.753c1.029 0 1.871-.84 1.871-1.867a1.859 1.859 0 0 0-1.852-1.868Zm4.453 1.868c0 1.027.842 1.867 1.871 1.867h19.067c1.03 0 1.871-.84 1.871-1.867a1.875 1.875 0 0 0-1.87-1.868H12.966a1.863 1.863 0 0 0-1.871 1.868Zm20.844 8.198a1.875 1.875 0 0 0-1.87-1.868H12.966c-1.029 0-1.871.84-1.871 1.868 0 1.027.842 1.867 1.871 1.867H30.07c1.029 0 1.87-.84 1.87-1.867ZM56.602 20.43h-4.809V11a1.875 1.875 0 0 0-1.87-1.868c-1.03 0-1.872.84-1.872 1.867v11.298c0 1.027.842 1.867 1.871 1.867h6.68c1.03 0 1.871-.84 1.871-1.867a1.863 1.863 0 0 0-1.87-1.867Z"
            fill="#F36"/>
    </symbol>

    <symbol id="feature-icon_4" xmlns="http://www.w3.org/2000/svg">
        <path
            d="M32 33.43a2.84 2.84 0 0 1 .66-2.59c.33-.4.76-.7 1.25-.86v-.48a1.1 1.1 0 0 1 1.87-.77c.2.2.32.48.32.77v.6c.5.17.97.43 1.39.75a1.1 1.1 0 1 1-1.35 1.72s-1.28-.94-1.8-.32c-.3.35-.25.56-.22.63a1.99 1.99 0 0 0 1.28 1.06 4.05 4.05 0 0 1 2.62 2.55 2.84 2.84 0 0 1-.66 2.6c-.33.4-.77.69-1.26.84v.5a1.1 1.1 0 0 1-1.87.76 1.1 1.1 0 0 1-.32-.77v-.6a5.1 5.1 0 0 1-1.38-.74 1.1 1.1 0 1 1 1.34-1.73c.02.02 1.29.95 1.81.33.3-.35.24-.55.22-.63a1.99 1.99 0 0 0-1.28-1.06A4.05 4.05 0 0 1 32 33.43Zm-7.93 1.53a10.9 10.9 0 0 1 13.07-10.7 10.95 10.95 0 0 1 8.6 8.57A10.9 10.9 0 0 1 35 45.88a10.96 10.96 0 0 1-10.94-10.92Zm2.19 0a8.72 8.72 0 0 0 10.46 8.57 8.76 8.76 0 0 0 6.37-11.9 8.74 8.74 0 0 0-14.27-2.84 8.74 8.74 0 0 0-2.56 6.17Zm-4.93 8.65a1.1 1.1 0 0 0 1.2-.23 1.08 1.08 0 0 0 .23-1.19 1.13 1.13 0 0 0-.23-.36 1.1 1.1 0 0 0-1.2-.23c-.13.05-.26.13-.36.23a1.23 1.23 0 0 0-.32.78 1.05 1.05 0 0 0 .68 1Zm-2.05-13.33a1.09 1.09 0 0 0 1.05 1.4 1.1 1.1 0 0 0 1.05-.77 1.1 1.1 0 0 0-.75-1.36 1.1 1.1 0 0 0-1.35.73Zm1.95 8.23a1.1 1.1 0 1 0-2.11.55 1.1 1.1 0 0 0 2.11-.55Zm-2.63-3.85a1.09 1.09 0 0 0 1.07 1.11h.02a1.1 1.1 0 0 0 1.08-1.3 1.1 1.1 0 0 0-2.17.19Zm9.5-12.25a1.1 1.1 0 1 0-.73-.27c.2.17.47.27.73.27Zm-5.49 3.5a1.1 1.1 0 0 0-1.59 1.17c.06.27.21.51.43.68.18.1.38.16.58.16a1.09 1.09 0 0 0 1.03-1.48 1.1 1.1 0 0 0-.45-.53Zm1.35-3.05a1.1 1.1 0 0 0-.08 1.55 1.12 1.12 0 0 0 1.56.06 1.1 1.1 0 1 0-1.48-1.61Zm8.48-1.9c.13-.05.25-.12.36-.22a1.1 1.1 0 0 0 0-1.55c-.1-.1-.23-.18-.36-.23a1.1 1.1 0 0 0-1.2.23 1.1 1.1 0 0 0 0 1.55 1.1 1.1 0 0 0 1.2.23Zm16.6 5.59a1.15 1.15 0 0 0-1.55 0c-.1.1-.17.22-.23.36a.98.98 0 0 0-.09.41 1.09 1.09 0 0 0 1.87.77 1.1 1.1 0 0 0 0-1.54ZM48.64 39a1.09 1.09 0 0 0 .94 1.4 1.1 1.1 0 0 0 .95-1.77 1.1 1.1 0 0 0-1.9.37Zm.93-8.93a1.1 1.1 0 1 0 .93 1.94 1.1 1.1 0 0 0-.93-1.94ZM47.4 44.01c.17.12.38.18.58.18a1.1 1.1 0 0 0 1.03-1.49 1.1 1.1 0 0 0-.45-.53 1.1 1.1 0 0 0-1.7 1.16 1.1 1.1 0 0 0 .54.68Zm-5.98 3.63a1.1 1.1 0 1 0 1 1.94 1.1 1.1 0 1 0-1-1.94Zm3.1-.64a1.1 1.1 0 1 0 1.62-1.47A1.1 1.1 0 0 0 44.5 47Zm6.9-11.73a1.09 1.09 0 0 0-1.85-.81 1.1 1.1 0 0 0 .73 1.88h.02a1.1 1.1 0 0 0 1.1-1.07Zm-14.2 13.92a1.1 1.1 0 1 0 1.55 0 1.15 1.15 0 0 0-1.55 0Zm21.86 4.78a4.18 4.18 0 0 1-2.29 3.74L35.12 68.86a9.51 9.51 0 0 1-9.28-.36l-4.05-2.48a3.28 3.28 0 0 0-1.7-.49h-4.77v2.19a1.1 1.1 0 0 1-1.1 1.09H7.66a1.1 1.1 0 0 1-1.1-1.1v-1.08H1.1a1.1 1.1 0 0 1-.77-1.87c.2-.2.48-.32.77-.32h5.47V46.97H1.1a1.1 1.1 0 0 1-.77-1.86c.2-.2.48-.32.77-.32h5.47v-1.1a1.1 1.1 0 0 1 1.1-1.08h6.56a1.1 1.1 0 0 1 1.1 1.09v2.18h8.47c2.13 0 4.2.7 5.91 1.97l8.05 6.02a4.3 4.3 0 0 1 1.58 2.33l13.84-6.08a4.22 4.22 0 0 1 5.9 3.85ZM13.13 44.8H8.75v21.84h4.38V44.79Zm43.76 9.18a2.02 2.02 0 0 0-2.85-1.85l-14.79 6.5c-.04.13-.07.26-.13.38a4.3 4.3 0 0 1-6.28 1.93l-8.43-5.41a1.1 1.1 0 1 1 1.19-1.84l8.42 5.41a2.12 2.12 0 0 0 3.24-2.11 2.11 2.11 0 0 0-.82-1.36L28.4 49.6a7.72 7.72 0 0 0-4.6-1.52h-8.47v15.28h4.76c1.01 0 2 .28 2.86.81L27 66.64a7.3 7.3 0 0 0 7.13.27L55.8 55.77a2.01 2.01 0 0 0 1.1-1.8Zm13.13-29.92a1.1 1.1 0 0 1-1.1 1.09h-5.47v1.09a1.1 1.1 0 0 1-1.1 1.1H55.8a1.1 1.1 0 0 1-1.09-1.1v-2.18h-8.48c-2.13 0-4.2-.7-5.9-1.97l-8.05-6.02a4.3 4.3 0 0 1-1.58-2.33L16.85 19.8a4.22 4.22 0 0 1-5.68-5.19 4.2 4.2 0 0 1 2.05-2.4L34.9 1.08a9.52 9.52 0 0 1 9.27.35l4.05 2.49c.52.31 1.1.48 1.71.48h4.77V2.21a1.1 1.1 0 0 1 1.1-1.1h6.56a1.1 1.1 0 0 1 1.1 1.1v1.1h5.46a1.1 1.1 0 0 1 .78 1.85 1.1 1.1 0 0 1-.78.32h-5.47v17.47h5.47a1.1 1.1 0 0 1 1.1 1.1Zm-15.32-2.2V6.58h-4.77c-1 0-2-.28-2.86-.81l-4.04-2.49a7.3 7.3 0 0 0-7.13-.27L14.22 14.16a2.01 2.01 0 0 0-.17 3.5 2.03 2.03 0 0 0 1.92.14l14.8-6.5c.04-.12.07-.25.13-.38A4.3 4.3 0 0 1 37.18 9l8.43 5.4a1.1 1.1 0 1 1-1.18 1.85l-8.44-5.42a2.12 2.12 0 0 0-3.24 2.12c.09.54.38 1.03.82 1.36l8.06 6.02a7.72 7.72 0 0 0 4.6 1.53h8.47ZM61.26 3.3H56.9v21.84h4.37V3.3Z"
            fill="#2A9DF4"/>
    </symbol>

    <symbol id="feature-icon_5" xmlns="http://www.w3.org/2000/svg">
        <path
            d="M1.52 45.6h9.3a34.9 34.9 0 0 0 28.26 23.93 35.03 35.03 0 0 0 33.94-14.88l.68 3.17 2.97-.64-1.45-6.79a1.52 1.52 0 0 0-1.49-1.2h-6.77v3.04H71a31.92 31.92 0 0 1-30.57 14.41A31.98 31.98 0 0 1 14.02 45.6h5.76a1.52 1.52 0 0 0 1.52-1.51V25.85a1.52 1.52 0 0 0-1.52-1.52H1.52A1.52 1.52 0 0 0 0 25.85v18.23a1.52 1.52 0 0 0 1.52 1.51Zm10.65-18.23v5.14l-.84-.42a1.52 1.52 0 0 0-1.36 0l-.84.42v-5.14h3.04Zm-9.13 0H6.1v7.6a1.52 1.52 0 0 0 2.2 1.36l2.36-1.19 2.37 1.18a1.52 1.52 0 0 0 2.2-1.36v-7.59h3.04v15.19H3.04V27.37Z"
            fill="#36398E"/>
        <path
            d="m91.15 34.29-3.04-6.08a1.52 1.52 0 0 0-1.37-.84h-7.6v-1.52a1.52 1.52 0 0 0-1.53-1.52h-.16A34.9 34.9 0 0 0 49.17.4a35.04 35.04 0 0 0-33.95 14.88v-2.33h-3.05v6.83a1.52 1.52 0 0 0 1.73 1.5l6.87-.9-.4-3.02-3.14.42a31.91 31.91 0 0 1 30.56-14.5 31.97 31.97 0 0 1 26.46 21.05H62.39a1.52 1.52 0 0 0-1.52 1.52v15.19a1.52 1.52 0 0 0 1.52 1.52h3.33a4.53 4.53 0 0 0 8.57 0h5.12a4.53 4.53 0 0 0 8.57 0h1.8a1.52 1.52 0 0 0 1.52-1.52v-6.12c0-.22-.06-.44-.15-.63ZM85.8 30.4l1.52 3.04h-8.19V30.4h6.67Zm-21.9-3.03h12.2v6.08H63.9v-6.08Zm0 9.11h12.2v3.04h-1.8a4.53 4.53 0 0 0-8.57 0h-1.8v-3.04Zm6.1 6.08a1.52 1.52 0 0 1-1.08-2.6 1.52 1.52 0 0 1 2.16 2.15c-.29.29-.68.45-1.08.45Zm13.7 0a1.52 1.52 0 0 1-1.08-2.6 1.52 1.52 0 0 1 2.15 2.15c-.28.29-.67.45-1.07.45Zm4.28-3.04a4.53 4.53 0 0 0-8.57 0h-.28v-3.04h9.13v3.04h-.28Z"
            fill="#36398E"/>
        <path
            d="M56.3 34.96a12.13 12.13 0 0 0-7.51-11.22 12.2 12.2 0 0 0-16.6 8.85 12.13 12.13 0 0 0 11.94 14.52A12.2 12.2 0 0 0 56.3 34.96Zm-3.04 0a9.11 9.11 0 0 1-7.6 8.98v-2.08a3.98 3.98 0 0 0 .84-7.42l-3.37-1.68a.94.94 0 0 1 0-1.67 2.25 2.25 0 0 1 2 0l1.36.68a1.52 1.52 0 0 0 1.36-2.72l-1.36-.68a5.24 5.24 0 0 0-.84-.3v-2.08a9.14 9.14 0 0 1 7.61 8.97Zm-18.26 0A9.11 9.11 0 0 1 42.6 26v2.08a3.98 3.98 0 0 0-.84 7.42l3.37 1.67a.94.94 0 0 1 0 1.68 2.25 2.25 0 0 1-2 0l-1.36-.68A1.53 1.53 0 0 0 39.65 40c.12.38.4.7.76.88l1.36.68c.27.12.55.23.84.3v2.08A9.14 9.14 0 0 1 35 34.96Z"
            fill="#36398E"/>
    </symbol>

    <symbol id="feature-icon_6" fill="none" xmlns="http://www.w3.org/2000/svg">
        <path
            d="M33.3124 1.1879 62.9307 15.886c.7323.3248 1.0578 1.0557 1.0578 1.7865-.8137 13.1553-4.2312 23.8744-9.5202 32.5634-5.289 8.689-12.5308 15.3479-21.0746 20.3827-.5696.406-1.3019.3248-1.9528 0-8.4624-5.116-15.6229-11.7749-20.9119-20.3827-5.289-8.689-8.7064-19.4081-9.5201-32.5634-.0814-.812.4068-1.4617 1.0578-1.7865L31.685 1.1879c.4882-.2436 1.1391-.1624 1.6274 0Zm-.8137 23.1436c2.1969 0 4.0684.8932 5.5331 2.2737 1.3832 1.3805 2.2783 3.3294 2.2783 5.522 0 1.5429-.4882 3.0046-1.2205 4.2227-.4883.812-1.1392 1.4617-1.8715 2.0301l2.1969 6.4153c.3255.9744-.1627 1.9489-1.1391 2.3549-.2441.0812-.4069.0812-.651.0812H27.3724c-1.0578 0-1.8715-.812-1.8715-1.8677 0-.2436.0814-.5684.1628-.7308l2.1969-6.2529c-.7323-.5684-1.3832-1.2181-1.8715-2.0301-.8136-1.2181-1.2205-2.6798-1.2205-4.2227 0-2.1926.8951-4.0603 2.2783-5.522 1.3833-1.3805 3.2548-2.2737 5.4518-2.2737Zm2.9293 4.8723c-.7324-.7308-1.7902-1.2181-2.9293-1.2181-1.1392 0-2.1156.4873-2.8479 1.2181-.7324.7309-1.2206 1.7865-1.2206 2.9234 0 .8121.2441 1.6241.651 2.1926.4068.6496 1.0578 1.218 1.7901 1.5429.895.406 1.3019 1.3805.9764 2.2737l-1.8715 5.3596h5.1263l-1.8715-5.3596c-.3255-.8932.0814-1.8677.9764-2.2737.7323-.3249 1.3019-.8121 1.7901-1.5429.4069-.6497.651-1.3805.651-2.1926-.0814-1.1369-.4882-2.1925-1.2205-2.9234Zm24.8175-10.5567L32.4987 4.9233 4.7519 18.6471c.895 12.0184 4.0684 21.7631 8.8692 29.64 4.8007 7.7958 11.2289 13.8862 18.8776 18.5961 7.6487-4.7099 14.0768-10.7191 18.8776-18.5961 4.8007-7.8769 7.9741-17.6216 8.8692-29.64Z"
            stroke="#FF6A00" stroke-width="2"/>
    </symbol>

    <symbol id="feature-icon_7" xmlns="http://www.w3.org/2000/svg">
        <path
            d="M24.5 13.78a1.1 1.1 0 0 0-.44.87c.12 4.1.83 8.17 2.1 12.07 2.8 8.53 7.98 14.52 15 17.32.25.1.54.1.8 0 7.02-2.8 12.2-8.79 14.99-17.32 1.28-3.9 2-7.97 2.11-12.07a1.09 1.09 0 0 0-1.4-1.05c-.1.03-10.27 2.95-15.2-3.95a1.13 1.13 0 0 0-1.79 0c-4.94 6.9-15.1 3.98-15.2 3.95a1.1 1.1 0 0 0-.97.18Zm17.06-1.75c4.76 5.33 12.12 4.62 15.25 4.01-.34 4.77-2.42 20.38-15.25 25.81-12.8-5.42-14.9-21.04-15.24-25.8 3.13.6 10.49 1.3 15.24-4.02Z"
            fill="#FF0084"/>
        <path
            d="M41.06 39.2a1.1 1.1 0 0 0 1 0c8.34-4.35 11.15-13.96 12.07-19.3a1.09 1.09 0 0 0-.24-.9c-.22-.25-1.3-.38-1.3-.38-3.7.12-7.34-.96-10.38-3.07a1.1 1.1 0 0 0-1.3 0 17.22 17.22 0 0 1-10.38 3.07s-1.1.13-1.3.38a1.1 1.1 0 0 0-.26.9c.91 5.33 3.7 14.94 12.09 19.3Zm-7.47-11.45h6.88v8.56a20.17 20.17 0 0 1-6.88-8.56Zm9.07 8.55v-8.55h6.84a20.25 20.25 0 0 1-6.84 8.55Zm7.73-10.73h-7.73v-7.14c2.79 1.5 5.9 2.31 9.07 2.36a35.62 35.62 0 0 1-1.34 4.78Zm-9.92-7.14v7.14H32.7c-.56-1.56-1-3.16-1.34-4.78 3.18-.04 6.3-.85 9.1-2.36ZM58 51.34a5.49 5.49 0 0 0-6.9-.68l-9.81 6.52c-4.94-.6-7.75-2.07-9.25-3.23h7.88a3.83 3.83 0 0 0 2.7-6.53 3.83 3.83 0 0 0-2.7-1.11H25.16c-.28 0-.54.1-.74.28L14.35 55.8l-2.64-2.63a1.1 1.1 0 0 0-1.55 0L.32 63a1.1 1.1 0 0 0-.32.78v5.46a1.09 1.09 0 0 0 1.1 1.09h20.77c.3 0 .57-.12.78-.32l2.19-2.18a1.1 1.1 0 0 0 0-1.55l-8.94-8.92 9.68-8.86h14.34a1.64 1.64 0 0 1 1.16 2.8c-.3.3-.72.47-1.16.47H29.53a1.1 1.1 0 0 0-.98 1.58c.1.2 2.58 4.91 12.9 6.06.25.02.5-.04.72-.18l10.14-6.75a3.3 3.3 0 0 1 4.08.36L42.3 65.89l-15.9-2.11a1.1 1.1 0 0 0-1.22 1.36 1.09 1.09 0 0 0 .94.8l16.4 2.19h.15c.27 0 .54-.1.74-.29l15.31-14.19a1.1 1.1 0 0 0 .03-1.57l-.74-.74Zm-36.58 16.8H2.2v-3.92l8.75-8.73 11.58 11.55-1.1 1.1ZM41.56 7a1.1 1.1 0 0 0 1.1-1.08V1.55a1.09 1.09 0 0 0-1.87-.77c-.2.2-.32.48-.32.77v4.37A1.09 1.09 0 0 0 41.57 7ZM68.9 25.57h-4.37a1.1 1.1 0 0 0-.77 1.86c.2.2.48.32.77.32h4.38a1.1 1.1 0 0 0 .77-1.86 1.1 1.1 0 0 0-.77-.32Zm-54.68 2.18h4.37a1.1 1.1 0 0 0 .78-1.86 1.1 1.1 0 0 0-.78-.32h-4.37a1.1 1.1 0 0 0-.77 1.86c.2.2.48.32.77.32ZM60.12 4.4l-3.09 3.1a1.1 1.1 0 1 0 1.55 1.54l3.1-3.1a1.1 1.1 0 1 0-1.56-1.53ZM22.23 42.68c.29 0 .57-.12.77-.32l3.1-3.09a1.09 1.09 0 0 0-1.55-1.54l-3.1 3.09a1.1 1.1 0 0 0 .78 1.86Zm36.35-4.95a1.1 1.1 0 0 0-1.55 1.54l3.1 3.09a1.1 1.1 0 0 0 1.54-1.54l-3.1-3.1ZM24.55 9.04a1.1 1.1 0 1 0 1.54-1.55L23 4.41a1.1 1.1 0 0 0-1.55 1.54l3.1 3.09Z"
            fill="#FF0084"/>
    </symbol>

    <symbol id="feature-icon_8" fill="none" xmlns="http://www.w3.org/2000/svg">
        <path
            d="m34.4216 68.2899-5.9025 2.3806c-4.4981 1.8142-9.6232-.3044-11.5184-4.7615l-2.4869-5.8487a4.208 4.208 0 0 0-2.2322-2.2276l-5.8605-2.482c-4.466-1.8914-6.5889-7.0062-4.771-11.4953l2.3854-5.8906a4.1962 4.1962 0 0 0 0-3.1504L1.65 28.9237c-1.8179-4.4891.305-9.6039 4.771-11.4953l5.8605-2.4819a4.2085 4.2085 0 0 0 2.2322-2.2277l2.4869-5.8487C18.8959 2.413 24.021.2944 28.5191 2.1086l5.9025 2.3806a4.2204 4.2204 0 0 0 3.1568 0l5.9025-2.3806C47.979.2944 53.1041 2.413 54.9993 6.87l2.4869 5.8487a4.2085 4.2085 0 0 0 2.2322 2.2277l5.8605 2.4819c4.466 1.8914 6.5889 7.0062 4.771 11.4953l-2.3854 5.8907a4.1959 4.1959 0 0 0 0 3.1504l2.3854 5.8906c1.8179 4.4891-.305 9.6039-4.771 11.4953l-5.8605 2.482a4.208 4.208 0 0 0-2.2322 2.2276l-2.4869 5.8487c-1.8952 4.4571-7.0203 6.5757-11.5184 4.7615l-5.9025-2.3806a4.22 4.22 0 0 0-3.1568 0Zm4.9105-4.3308 5.9026 2.3807c2.1306.8593 4.5583-.1442 5.456-2.2555l2.487-5.8487a8.8838 8.8838 0 0 1 4.7123-4.7028l5.8605-2.482c2.1155-.896 3.1211-3.3187 2.26-5.4451L63.625 39.715a8.8588 8.8588 0 0 1 0-6.6509l2.3855-5.8907c.8611-2.1264-.1445-4.5491-2.26-5.4451L57.89 19.2464a8.8843 8.8843 0 0 1-4.7123-4.7029l-2.487-5.8487c-.8977-2.1113-3.3254-3.1148-5.456-2.2555L39.3321 8.82a8.9094 8.9094 0 0 1-6.6642 0l-5.9026-2.3807c-2.1306-.8593-4.5583.1442-5.456 2.2555l-2.487 5.8487a8.8843 8.8843 0 0 1-4.7123 4.7029l-5.8605 2.4819c-2.1155.896-3.121 3.3187-2.26 5.4451l2.3855 5.8907a8.8587 8.8587 0 0 1 0 6.6509l-2.3855 5.8907c-.861 2.1264.1445 4.5491 2.26 5.4451l5.8605 2.482a8.8838 8.8838 0 0 1 4.7123 4.7028l2.487 5.8487c.8977 2.1113 3.3254 3.1148 5.456 2.2555l5.9026-2.3807a8.9092 8.9092 0 0 1 6.6642 0Zm-7.8284-21.7279 16.5479-16.5147c1.0967-1.0945 2.8748-1.0945 3.9715 0 1.0967 1.0945 1.0967 2.8691 0 3.9636L33.4894 48.1765c-1.0967 1.0945-2.8748 1.0945-3.9715 0l-8.6049-8.5876c-1.0967-1.0945-1.0967-2.8691 0-3.9635 1.0967-1.0945 2.8748-1.0945 3.9715 0l6.6192 6.6058Z"
            stroke="#E9043F" stroke-width="2"/>
    </symbol>

    <symbol id="feature-icon_9" xmlns="http://www.w3.org/2000/svg">
        <path
            d="m57.54 15.46-.03-.05-.06-.04a27.62 27.62 0 0 0-39.06 0c-.02.02-.05.02-.06.04l-.04.06a27.62 27.62 0 0 0 .02 39.09s0 .02.02.03l.03.02a27.64 27.64 0 0 0 39.12 0l.03-.02.01-.03a27.63 27.63 0 0 0 .02-39.1Zm3.93 20.74h1.7A25.15 25.15 0 0 1 56.63 52l-1.2-1.19a1.2 1.2 0 1 0-1.7 1.7l1.2 1.19a25.2 25.2 0 0 1-15.8 6.55v-1.7a1.2 1.2 0 0 0-2.4 0v1.7a25.2 25.2 0 0 1-15.8-6.55l1.18-1.2a1.2 1.2 0 1 0-1.69-1.69l-1.2 1.2a25.15 25.15 0 0 1-6.55-15.81h1.7a1.2 1.2 0 0 0 0-2.4h-1.7A25.18 25.18 0 0 1 19.22 18l1.2 1.19a1.2 1.2 0 0 0 1.68 0 1.2 1.2 0 0 0 0-1.7l-1.19-1.19a25.18 25.18 0 0 1 15.81-6.55v1.7a1.2 1.2 0 0 0 2.4 0v-1.7a25.18 25.18 0 0 1 15.8 6.55l-1.2 1.2a1.2 1.2 0 1 0 1.7 1.69l1.2-1.2a25.18 25.18 0 0 1 6.56 15.81h-1.7a1.2 1.2 0 0 0 0 2.4Z"
            fill="#36F"/>
        <path
            d="M37.92 67.6A32.64 32.64 0 0 1 5.3 35.02a1.2 1.2 0 0 0-2.4 0A35.05 35.05 0 0 0 37.93 70a1.2 1.2 0 0 0 0-2.4Zm-31.76-36a1.2 1.2 0 0 0 1.7 0 1.2 1.2 0 0 0 0-1.7L4.95 27a1.2 1.2 0 0 0-1.7 0l-2.9 2.9a1.2 1.2 0 1 0 1.7 1.69l2.05-2.06 2.06 2.07ZM37.92 2.4A32.65 32.65 0 0 1 70.53 35a1.2 1.2 0 0 0 2.4 0c0-19.29-15.7-35-35.01-35a1.2 1.2 0 0 0 0 2.4Zm37.56 35.85a1.2 1.2 0 0 0-1.69 0l-2.06 2.06-2.06-2.05a1.2 1.2 0 1 0-1.7 1.7l2.9 2.9a1.2 1.2 0 0 0 1.7 0l2.91-2.92a1.2 1.2 0 0 0 0-1.69ZM46.73 23.5l-7.3 7.81a4 4 0 0 0-5.51 3.7 3.98 3.98 0 0 0 2.8 3.78v7.73a1.2 1.2 0 0 0 2.4 0V38.8a3.98 3.98 0 0 0 2.15-5.94l7.2-7.71a1.2 1.2 0 1 0-1.74-1.64Zm-8.81 13.1a1.6 1.6 0 1 1 0-3.2 1.6 1.6 0 1 1 0 3.2Z"
            fill="#36F"/>
    </symbol>

    <symbol id="ea-icon" viewBox="0 0 18 12" fill="none" xmlns="http://www.w3.org/2000/svg">
        <path
            d="M17.8912 5.54375C16.1965 2.23719 12.8415 0 8.99998 0C5.15842 0 1.80248 2.23875 0.108733 5.54406C0.037246 5.68547 0 5.8417 0 6.00016C0 6.15861 0.037246 6.31484 0.108733 6.45625C1.80342 9.76281 5.15842 12 8.99998 12C12.8415 12 16.1975 9.76125 17.8912 6.45594C17.9627 6.31453 18 6.1583 18 5.99984C18 5.84139 17.9627 5.68516 17.8912 5.54375ZM8.99998 10.5C8.10997 10.5 7.23994 10.2361 6.49992 9.74161C5.7599 9.24715 5.18312 8.54434 4.84253 7.72208C4.50193 6.89981 4.41282 5.99501 4.58645 5.12209C4.76008 4.24918 5.18867 3.44736 5.818 2.81802C6.44734 2.18868 7.24916 1.7601 8.12208 1.58647C8.99499 1.41283 9.89979 1.50195 10.7221 1.84254C11.5443 2.18314 12.2471 2.75991 12.7416 3.49993C13.2361 4.23995 13.5 5.10998 13.5 6C13.5003 6.59103 13.3841 7.17632 13.158 7.72242C12.932 8.26851 12.6005 8.7647 12.1826 9.18262C11.7647 9.60054 11.2685 9.932 10.7224 10.158C10.1763 10.3841 9.59101 10.5003 8.99998 10.5ZM8.99998 3C8.73221 3.00374 8.46617 3.04358 8.20905 3.11844C8.42099 3.40646 8.5227 3.7609 8.49572 4.11748C8.46875 4.47406 8.31487 4.80917 8.06201 5.06203C7.80915 5.31489 7.47405 5.46876 7.11747 5.49574C6.76088 5.52271 6.40644 5.42101 6.11842 5.20906C5.95441 5.81331 5.98402 6.45377 6.20307 7.04031C6.42213 7.62685 6.8196 8.12993 7.33955 8.47874C7.8595 8.82754 8.47574 9.00452 9.10153 8.98475C9.72733 8.96498 10.3312 8.74946 10.8281 8.36853C11.325 7.9876 11.6899 7.46044 11.8715 6.86125C12.0531 6.26205 12.0422 5.62099 11.8404 5.0283C11.6386 4.43561 11.256 3.92114 10.7464 3.55728C10.2369 3.19343 9.62609 2.99853 8.99998 3Z"
            fill="#666666"/>
    </symbol>

    <symbol id="line-icon" viewBox="0 0 126 28" fill="none" xmlns="http://www.w3.org/2000/svg">
        <path
            d="M17.406 19h-5.812V7.797h1.312v10.015h4.5V19Zm7.977-3.68h-5.649c.021.89.26 1.578.72 2.063.457.484 1.088.726 1.89.726.9 0 1.729-.297 2.484-.89v1.203c-.703.51-1.633.765-2.789.765-1.13 0-2.018-.361-2.664-1.085-.646-.73-.969-1.753-.969-3.07 0-1.245.352-2.259 1.055-3.04.708-.786 1.586-1.18 2.633-1.18s1.857.339 2.43 1.016c.572.677.859 1.617.859 2.82v.672Zm-1.313-1.086c-.005-.74-.185-1.315-.539-1.726-.349-.412-.836-.617-1.46-.617a2.07 2.07 0 0 0-1.54.648c-.422.432-.682.998-.781 1.695h4.32ZM33.055 19h-1.282v-1.25h-.03c-.558.958-1.378 1.438-2.462 1.438-.797 0-1.422-.211-1.875-.633-.448-.422-.672-.982-.672-1.68 0-1.495.88-2.365 2.641-2.61l2.398-.335c0-1.36-.549-2.04-1.648-2.04-.963 0-1.833.329-2.61.985v-1.313c.787-.5 1.693-.75 2.72-.75 1.88 0 2.82.995 2.82 2.985V19Zm-1.282-4.047-1.93.266c-.593.083-1.04.232-1.343.445-.302.208-.453.58-.453 1.117 0 .39.138.711.414.961.281.245.654.367 1.117.367.636 0 1.159-.221 1.57-.664.417-.448.625-1.013.625-1.695v-.797Zm7.868-2.656c-.224-.172-.547-.258-.97-.258-.546 0-1.004.258-1.374.774-.365.515-.547 1.218-.547 2.109V19h-1.281v-8h1.281v1.648h.031c.183-.562.461-1 .836-1.312a1.897 1.897 0 0 1 1.258-.477c.333 0 .589.037.766.11v1.328ZM47.67 19h-1.28v-4.563c0-1.697-.62-2.546-1.86-2.546-.64 0-1.172.242-1.593.726-.417.48-.626 1.086-.626 1.82V19h-1.28v-8h1.28v1.328h.032c.604-1.01 1.479-1.515 2.625-1.515.875 0 1.544.283 2.008.851.463.563.695 1.378.695 2.445V19Zm18.407 0h-1.305v-7.516c0-.593.037-1.32.11-2.18h-.031c-.125.506-.237.868-.336 1.087L60.687 19h-.64l-3.82-8.547c-.11-.25-.222-.633-.336-1.148h-.032c.042.448.063 1.18.063 2.195V19h-1.266V7.797h1.735l3.437 7.812c.266.6.438 1.047.516 1.344h.047a22.16 22.16 0 0 1 .539-1.375l3.508-7.781h1.64V19Zm6.125.188c-1.182 0-2.127-.373-2.836-1.118-.703-.75-1.055-1.742-1.055-2.976 0-1.344.368-2.393 1.102-3.149.734-.755 1.727-1.133 2.977-1.133 1.192 0 2.122.368 2.789 1.102.672.734 1.007 1.753 1.007 3.055 0 1.276-.361 2.3-1.085 3.07-.72.766-1.685 1.148-2.899 1.148Zm.094-7.297c-.823 0-1.474.28-1.953.843-.48.558-.719 1.329-.719 2.313 0 .948.242 1.695.727 2.242.484.547 1.132.82 1.945.82.828 0 1.463-.268 1.906-.804.448-.537.672-1.3.672-2.29 0-1-.224-1.77-.672-2.312-.443-.541-1.078-.812-1.906-.812Zm10.11.406c-.225-.172-.548-.258-.97-.258-.546 0-1.005.258-1.374.774-.365.515-.547 1.218-.547 2.109V19h-1.282v-8h1.282v1.648h.03c.183-.562.462-1 .837-1.312a1.897 1.897 0 0 1 1.258-.477c.333 0 .588.037.765.11v1.328Zm7.82 3.023h-5.649c.021.89.26 1.578.719 2.063.458.484 1.088.726 1.89.726.901 0 1.73-.297 2.485-.89v1.203c-.703.51-1.633.765-2.79.765-1.13 0-2.017-.361-2.663-1.085-.646-.73-.969-1.753-.969-3.07 0-1.245.352-2.259 1.055-3.04.708-.786 1.586-1.18 2.632-1.18 1.047 0 1.857.339 2.43 1.016.573.677.86 1.617.86 2.82v.672Zm-1.313-1.086c-.005-.74-.185-1.315-.539-1.726-.349-.412-.836-.617-1.46-.617a2.07 2.07 0 0 0-1.54.648c-.422.432-.682.998-.781 1.695h4.32Z"
            fill="#29DBCC"/>
        <path d="M109 14h16m-7-7 7 7-7 7" stroke="#29DBCC" stroke-width="2" stroke-linecap="round"
              stroke-linejoin="round"/>
    </symbol>

    <symbol id="google-icon" viewBox="0 0 120 40" fill="none" xmlns="http://www.w3.org/2000/svg">

        <path
            d="M51.353 21.0502C51.353 26.805 46.9071 31.0457 41.4509 31.0457C35.9948 31.0457 31.5488 26.805 31.5488 21.0502C31.5488 15.2548 35.9948 11.0547 41.4509 11.0547C46.9071 11.0547 51.353 15.2548 51.353 21.0502ZM47.0183 21.0502C47.0183 17.454 44.4416 14.9934 41.4509 14.9934C38.4603 14.9934 35.8835 17.454 35.8835 21.0502C35.8835 24.6103 38.4603 27.107 41.4509 27.107C44.4416 27.107 47.0183 24.6058 47.0183 21.0502Z"
            fill="#EA4335"/>
        <path
            d="M72.7148 21.0502C72.7148 26.805 68.2689 31.0457 62.8127 31.0457C57.3566 31.0457 52.9106 26.805 52.9106 21.0502C52.9106 15.2593 57.3566 11.0547 62.8127 11.0547C68.2689 11.0547 72.7148 15.2548 72.7148 21.0502ZM68.3802 21.0502C68.3802 17.454 65.8034 14.9934 62.8127 14.9934C59.8221 14.9934 57.2453 17.454 57.2453 21.0502C57.2453 24.6103 59.8221 27.107 62.8127 27.107C65.8034 27.107 68.3802 24.6058 68.3802 21.0502Z"
            fill="#FBBC05"/>
        <path
            d="M93.1864 11.6586V29.6036C93.1864 36.9853 88.8874 40.0002 83.805 40.0002C79.0209 40.0002 76.1415 36.76 75.0556 34.1101L78.8295 32.5193C79.5015 34.1462 81.1482 36.066 83.8006 36.066C87.0538 36.066 89.0698 34.0335 89.0698 30.2075V28.7699H88.9185C87.9483 29.9821 86.0792 31.0412 83.7205 31.0412C78.785 31.0412 74.2634 26.6879 74.2634 21.0862C74.2634 15.4441 78.785 11.0547 83.7205 11.0547C86.0747 11.0547 87.9439 12.1137 88.9185 13.2899H89.0698V11.6631H93.1864V11.6586ZM89.3769 21.0862C89.3769 17.5666 87.0583 14.9934 84.1077 14.9934C81.117 14.9934 78.6114 17.5666 78.6114 21.0862C78.6114 24.5698 81.117 27.107 84.1077 27.107C87.0583 27.107 89.3769 24.5698 89.3769 21.0862Z"
            fill="#4285F4"/>
        <path d="M99.9732 1.14014V30.4326H95.7454V1.14014H99.9732Z" fill="#34A853"/>
        <path
            d="M116.449 24.3398L119.813 26.6111C118.727 28.238 116.11 31.041 111.589 31.041C105.981 31.041 101.793 26.6517 101.793 21.0455C101.793 15.1014 106.017 11.05 111.104 11.05C116.226 11.05 118.732 15.178 119.55 17.4088L120 18.5444L106.805 24.0784C107.815 26.0838 109.386 27.1068 111.589 27.1068C113.796 27.1068 115.327 26.0072 116.449 24.3398ZM106.093 20.7436L114.913 17.0347C114.428 15.7864 112.968 14.9167 111.251 14.9167C109.048 14.9167 105.981 16.886 106.093 20.7436Z"
            fill="#EA4335"/>
        <path
            d="M15.5452 18.4497V14.2091H29.6573C29.7953 14.9482 29.8665 15.8224 29.8665 16.7688C29.8665 19.9504 29.0076 23.8846 26.2394 26.6877C23.5469 29.5268 20.1068 31.041 15.5496 31.041C7.1028 31.041 0 24.0739 0 15.5205C0 6.9671 7.1028 0 15.5496 0C20.2225 0 23.5514 1.85669 26.0525 4.2767L23.0975 7.26904C21.304 5.56557 18.8741 4.24065 15.5452 4.24065C9.37695 4.24065 4.55274 9.27445 4.55274 15.5205C4.55274 21.7666 9.37695 26.8004 15.5452 26.8004C19.5461 26.8004 21.8247 25.1735 23.2844 23.6954C24.4682 22.4966 25.247 20.7841 25.5541 18.4452L15.5452 18.4497Z"
            fill="#4285F4"/>
    </symbol>

    <symbol id="microsoft-icon" viewBox="0 0 141 30" fill="none" xmlns="http://www.w3.org/2000/svg">

        <path
            d="m49.5815 17.279-.8373 2.3721h-.0697c-.1396-.5349-.3954-1.3489-.814-2.3256L43.3722 6.04641h-4.3954V24.0232h2.907V12.9301c0-.6976 0-1.4883-.0233-2.4651-.0232-.48836-.0697-.86045-.093-1.13952h.0698c.1395.69772.3023 1.20932.4186 1.53492l5.3953 13.1162h2.0465l5.3489-13.2325c.1163-.3023.2325-.90699.3488-1.41862h.0698c-.0698 1.32562-.1163 2.51162-.1396 3.23252v11.3954h3.0931V5.9999h-4.2326L49.5815 17.279Zm11.7674-6.2093h3.0233v12.8837h-3.0233V11.0697Zm1.5349-5.4419c-.5116 0-.9303.18605-1.2791.51163-.3488.32558-.5349.74419-.5349 1.25582 0 .48837.1861.90697.5349 1.23255.3488.32559.7675.48838 1.2791.48838.5116 0 .9535-.18605 1.2791-.48838.3488-.32558.5348-.74418.5348-1.23255 0-.48838-.186-.90698-.5348-1.25582-.3024-.32558-.7442-.51163-1.2791-.51163Zm12.2093 5.3256c-.5582-.1163-1.1395-.1861-1.6977-.1861-1.3721 0-2.6279.3024-3.6744.907-1.0465.6047-1.8837 1.4419-2.4186 2.4884-.5582 1.0698-.8372 2.3023-.8372 3.7209 0 1.2326.279 2.3256.8139 3.3256.5349.9767 1.2791 1.7674 2.2791 2.3023.9535.5349 2.0698.814 3.3256.814 1.4418 0 2.6744-.3023 3.6511-.8605l.0233-.0232v-2.7907l-.1163.093c-.4418.3256-.9535.6046-1.4651.7674-.5349.1861-1.0232.2791-1.4418.2791-1.2094 0-2.1628-.3488-2.8373-1.1163-.6976-.7442-1.0465-1.7674-1.0465-3.0465 0-1.3256.3489-2.3721 1.0698-3.1395.7209-.7675 1.6744-1.1628 2.8372-1.1628.9767 0 1.9768.3256 2.8837.9767l.1163.093v-2.9534l-.0233-.0233c-.3953-.1628-.8372-.3488-1.4418-.4651Zm9.9767-.093c-.7442 0-1.4418.2325-2.0465.7209-.5116.4186-.8604 1.0232-1.1628 1.7442h-.0232v-2.2558H78.814v12.8837h3.0233V17.372c0-1.1163.2325-2.0465.7442-2.7209.5116-.6977 1.1627-1.0466 1.9534-1.0466.2791 0 .5582.0698.907.1163.3256.0931.5582.1861.721.3024l.1162.093v-3.0233l-.0697-.0232c-.2093-.1396-.6279-.2093-1.1396-.2093Zm8.2326-.0698c-2.1163 0-3.814.6279-5 1.8605-1.2093 1.2325-1.7907 2.9302-1.7907 5.0697 0 2 .6046 3.6279 1.7674 4.814 1.1628 1.1628 2.7442 1.7674 4.721 1.7674 2.0697 0 3.7209-.6279 4.9069-1.8837 1.2093-1.2558 1.7907-2.9302 1.7907-5 0-2.0465-.5581-3.6744-1.6976-4.8605-1.0931-1.186-2.6977-1.7674-4.6977-1.7674Zm2.4186 9.907c-.5581.7209-1.4419 1.0697-2.5349 1.0697s-1.9767-.3488-2.6046-1.1162c-.6279-.721-.9303-1.7675-.9303-3.0931 0-1.3721.3256-2.4186.9303-3.1628.6279-.7441 1.4883-1.1162 2.5814-1.1162 1.0697 0 1.9069.3488 2.5116 1.0697.6046.721.9302 1.7675.9302 3.1396-.0465 1.3953-.3023 2.4883-.8837 3.2093Zm10.721-4.2791c-.954-.3953-1.558-.6977-1.837-.9535-.233-.2325-.349-.5581-.349-.9767 0-.3489.139-.6977.488-.9303.349-.2325.744-.3488 1.326-.3488.511 0 1.046.093 1.558.2326.512.1395.977.3488 1.349.6279l.116.093v-2.8372l-.07-.0233c-.349-.1395-.814-.279-1.372-.3953-.558-.093-1.07-.1396-1.488-.1396-1.442 0-2.628.3489-3.558 1.1163-.931.7209-1.372 1.6977-1.372 2.8372 0 .6047.093 1.1396.302 1.5814.209.4419.512.8605.93 1.2093.419.3256 1.023.6977 1.861 1.0465.697.3024 1.232.5349 1.558.721.325.186.535.3953.697.5581.117.1861.187.4186.187.7209 0 .8605-.652 1.2791-1.977 1.2791-.512 0-1.047-.093-1.675-.3023-.628-.2093-1.209-.5116-1.697-.8605l-.117-.093v2.9535l.07.0232c.442.2093.977.3489 1.628.5117.651.1162 1.233.2093 1.744.2093 1.558 0 2.837-.3489 3.744-1.1163.931-.7442 1.419-1.6977 1.419-2.9302 0-.8605-.233-1.628-.744-2.2093-.675-.5582-1.512-1.1396-2.721-1.6047Zm11.442-5.6279c-2.116 0-3.814.6279-5 1.8605-1.186 1.2325-1.791 2.9302-1.791 5.0697 0 2 .605 3.6279 1.768 4.814 1.162 1.1628 2.744 1.7674 4.72 1.7674 2.07 0 3.721-.6279 4.907-1.8837 1.21-1.2558 1.791-2.9302 1.791-5 0-2.0465-.558-3.6744-1.698-4.8605-1.093-1.186-2.697-1.7674-4.697-1.7674Zm2.395 9.907c-.558.7209-1.442 1.0697-2.535 1.0697-1.116 0-1.976-.3488-2.604-1.1162-.628-.721-.931-1.7675-.931-3.0931 0-1.3721.326-2.4186.931-3.1628.628-.7441 1.488-1.1162 2.581-1.1162 1.047 0 1.907.3488 2.512 1.0697.604.721.93 1.7675.93 3.1396 0 1.3953-.302 2.4883-.884 3.2093Zm20.163-7.1396v-2.4883h-3.047V7.25571l-.093.02326-2.883.86046-.07.02326v2.90701h-4.558V9.44176c0-.74419.186-1.32558.511-1.69768.326-.37209.814-.55814 1.419-.55814.419 0 .86.09303 1.349.30233l.116.06977V4.93013l-.07-.02326c-.418-.13953-.976-.23255-1.697-.23255-.907 0-1.698.2093-2.419.55814-.721.39534-1.256.93023-1.651 1.65116-.395.69767-.605 1.48837-.605 2.39535v1.79073h-2.116v2.4651h2.116v10.4186h3.047V13.558h4.558v6.6279c0 2.721 1.279 4.0931 3.837 4.0931.419 0 .861-.0698 1.279-.1396.442-.093.768-.2093.954-.3023l.023-.0232v-2.4884l-.116.093c-.186.1163-.349.2093-.628.2791-.233.0697-.442.093-.605.093-.605 0-1.023-.1395-1.325-.4884-.28-.3256-.419-.8604-.419-1.6511V13.558h3.093Z"
            fill="#737373"/>
        <path d="M0 0h14.2558v14.2558H0V0Z" fill="#F25022"/>
        <path d="M15.7441 0H30v14.2558H15.7441V0Z" fill="#7FBA00"/>
        <path d="M0 15.7441h14.2558V30H0V15.7441Z" fill="#00A4EF"/>
        <path d="M15.7441 15.7441H30V30H15.7441V15.7441Z" fill="#FFB900"/>
    </symbol>

    <symbol id="flickr-icon" viewBox="0 0 100 30" fill="none" xmlns="http://www.w3.org/2000/svg">
        <path
            d="M3.96682 14.2249H0V9.34085h4.07905V8.10128C4.07905 2.09318 6.81069 0 12.1996 0c1.4595 0 2.5821.23252 3.4425.38788l-.4113 4.80606c-.5612-.19376-1.1226-.31037-2.133-.31037-1.7213 0-2.395 1.24044-2.395 3.21754V9.3412h4.7899v4.8839h-4.7899v15.3095H3.96682V14.2249ZM19.01.46521h6.7358V29.5343H19.01V.46521Zm12.4987.46503h6.736V6.0465h-6.736V.93025Zm0 8.41079h6.736V29.5341h-6.736V9.34103ZM58.49 15.1159c-1.235-.7747-2.4698-1.1238-4.079-1.1238-2.9189 0-5.1641 2.093-5.1641 5.5814 0 3.2172 2.6196 5.3097 5.5383 5.3097 1.5345 0 3.069-.3484 4.1914-.9686l.1496 5.1936C57.4421 29.69 55.4216 30 53.6254 30c-6.437 0-11.339-3.876-11.339-10.5425 0-6.7055 4.902-10.58116 11.3388-10.58116 2.021 0 3.8169.34895 5.3514 1.12396l-.4866 5.1156Zm10.1789 2.7136h.075l5.6131-8.48865h7.372l-6.7732 9.26335 7.3347 10.9301h-8.1581l-5.3886-9.9995h-.0749v9.9995h-6.7356V.46521h6.7356V17.8295Z"
            fill="#0063DB"/>
        <path
            d="M98.7181 14.9221c-.7484-.2321-1.4969-.2321-2.2825-.2321-3.1432 0-4.9024 2.3639-4.9024 6.3176v8.5267h-6.7356V9.34101h6.1368V13.062h.0751c1.1597-2.5584 2.8438-4.18602 5.7629-4.18602.7853 0 1.6087.11626 2.2829.23234l-.3372 5.81378Z"
            fill="#FF0084"/>
    </symbol>

    <symbol id="slack-icon" viewBox="0 0 119 30" fill="none" xmlns="http://www.w3.org/2000/svg">
        <path
            d="m37.9299 23.6226 1.4809-3.4394c1.6003 1.1942 3.7261 1.8152 5.828 1.8152 1.5526 0 2.5319-.5971 2.5319-1.5047-.0239-2.5319-9.2914-.5494-9.3631-6.9029-.0238-3.2245 2.8424-5.7086 6.9029-5.7086 2.4124 0 4.8248.59714 6.5446 1.9586l-1.3854 3.5111c-1.5764-1.0031-3.535-1.7197-5.398-1.7197-1.266 0-2.102.5971-2.102 1.3615.0239 2.484 9.3631 1.1226 9.4586 7.1895 0 3.2961-2.7945 5.613-6.8073 5.613-2.9379 0-5.6369-.6927-7.6911-2.1736Zm56.8233-4.6815c-.7405 1.2898-2.1258 2.1736-3.7261 2.1736-2.3647 0-4.2755-1.9108-4.2755-4.2755 0-2.3646 1.9108-4.2755 4.2755-4.2755 1.6003 0 2.9856.8838 3.7261 2.1736l4.0844-2.2691c-1.5287-2.72294-4.4666-4.586-7.8105-4.586-4.9443 0-8.957 4.0127-8.957 8.957 0 4.9443 4.0127 8.957 8.957 8.957 3.3678 0 6.2818-1.8392 7.8105-4.586l-4.0844-2.2691ZM54.4825.45386h5.1114V25.4618h-5.1114V.45386Zm46.3615 0V25.4618h5.111v-7.5l6.067 7.5h6.545l-7.715-8.9092 7.142-8.31212h-6.258l-5.781 6.90282V.45386h-5.111ZM74.785 18.9889c-.7404 1.2181-2.2691 2.1258-3.9888 2.1258-2.3647 0-4.2755-1.9108-4.2755-4.2755 0-2.3646 1.9108-4.2755 4.2755-4.2755 1.7197 0 3.2484.9554 3.9888 2.1975v4.2277Zm0-10.74842v2.03022c-.836-1.4092-2.914-2.3885-5.0876-2.3885-4.4904 0-8.0254 3.965-8.0254 8.9331 0 4.9682 3.535 8.9809 8.0254 8.9809 2.1736 0 4.2516-.9793 5.0876-2.3885v2.0302h5.1115V8.24048H74.785Z"
            fill="#000"/>
        <path
            d="M6.32966 18.9649c0 1.7436-1.40924 3.1528-3.15287 3.1528S.02393 20.7085.02393 18.9649c0-1.7437 1.40923-3.1529 3.15286-3.1529h3.15287v3.1529Zm1.57643 0c0-1.7437 1.40924-3.1529 3.15291-3.1529 1.7436 0 3.1528 1.4092 3.1528 3.1529v7.8821c0 1.7437-1.4092 3.1529-3.1528 3.1529-1.74367 0-3.15291-1.4092-3.15291-3.1529v-7.8821Z"
            fill="#E01E5A"/>
        <path
            d="M11.0589 6.30573c-1.74361 0-3.15285-1.40923-3.15285-3.15286S9.31529 0 11.0589 0c1.7436 0 3.1529 1.40924 3.1529 3.15287v3.15286h-3.1529Zm0 1.60032c1.7436 0 3.1529 1.40924 3.1529 3.15285 0 1.7436-1.4093 3.1529-3.1529 3.1529H3.15287C1.40924 14.2118 0 12.8025 0 11.0589c0-1.74361 1.40924-3.15285 3.15287-3.15285h7.90603Z"
            fill="#36C5F0"/>
        <path
            d="M23.6942 11.0589c0-1.74361 1.4092-3.15285 3.1528-3.15285 1.7437 0 3.1529 1.40924 3.1529 3.15285 0 1.7436-1.4092 3.1529-3.1529 3.1529h-3.1528v-3.1529Zm-1.5765 0c0 1.7436-1.4092 3.1529-3.1528 3.1529-1.7437 0-3.1529-1.4093-3.1529-3.1529V3.15287C15.812 1.40924 17.2212 0 18.9649 0c1.7436 0 3.1528 1.40924 3.1528 3.15287v7.90603Z"
            fill="#2EB67D"/>
        <path
            d="M18.9649 23.6942c1.7436 0 3.1528 1.4092 3.1528 3.1528 0 1.7437-1.4092 3.1529-3.1528 3.1529-1.7437 0-3.1529-1.4092-3.1529-3.1529v-3.1528h3.1529Zm0-1.5765c-1.7437 0-3.1529-1.4092-3.1529-3.1528 0-1.7437 1.4092-3.1529 3.1529-3.1529h7.906c1.7437 0 3.1529 1.4092 3.1529 3.1529 0 1.7436-1.4092 3.1528-3.1529 3.1528h-7.906Z"
            fill="#ECB22E"/>
    </symbol>

    <symbol id="syngenta-icon" viewBox="0 0 134 40" fill="none" xmlns="http://www.w3.org/2000/svg">
        <path
            d="M103.926 30.8204h-5.1754V20.1251c0-1.5716-.6613-2.4405-2.4419-2.4405-1.3412 0-2.2058.6427-3.1734 1.4157v11.7201h-5.1758V14.1692h5.0298v1.4643c1.6876-1.1337 3.6185-1.8551 5.7126-1.8551 3.3011 0 5.2241 2.0512 5.2241 5.1759v11.8661Zm13.928-13.3319h-4.542v7.5205c0 2.1399 1.128 2.5392 2.588 2.5392.508 0 1.058-.073 1.613-.1474l.341 3.3709c-1.19.2104-2.777.3893-3.809.3893-3.132 0-5.909-1.0921-5.909-4.9311v-8.7414H105.5v-3.3193h2.636v-3.6629l5.176-1.46431v5.12721h4.542v3.3193Z"
            fill="#36398E"/>
        <path
            d="M77.5147 0c-2.618 4.43726-1.4815 8.4537-4.0422 11.0159-2.0569 2.0568-3.9649 1.991-6.2079 1.991-.7801 0-2.2959.0673-2.9315.5282-.3678-1.1723-.5267-2.462-.5267-3.69154 0-2.11271.4738-3.99067 1.9925-5.50793C68.7074 1.42851 73.9763.50384 77.5147 0Z"
            fill="#009F3C"/>
        <path
            d="m32.495 14.1691-8.3005 20.1666c-1.2768 3.0975-3.8375 5.3705-7.3243 5.3705-1.7449 0-2.6695-.2276-3.8089-.4881l.7328-3.3193c.9204.2047 1.6103.292 2.2459.292 2.0812 0 3.1891-1.7706 4.2011-4.1997l.4881-1.1708-6.4455-16.6512h5.5666l3.0273 8.2519c.365.9962.5683 2.0168.7329 2.7339.189-.7229.5582-1.9224.9275-2.8814l3.1247-8.1044h4.8323Zm17.0363 16.6512h-5.1759V20.125c0-1.5716-.6613-2.4405-2.4419-2.4405-1.3369 0-2.2058.6442-3.1734 1.4157v11.7201h-5.1758V14.1691h5.0298v1.4643c1.6876-1.1337 3.62-1.8551 5.7127-1.8551 3.3007 0 5.2245 2.0512 5.2245 5.1759v11.8661Z"
            fill="#36398E"/>
        <path
            d="M133.739 30.8202h-4.884v-1.3183c-1.269 1.1222-2.91 1.659-4.736 1.659-3.099 0-5.225-1.4986-5.225-4.6391 0-5.5194 5.511-6.3753 9.814-6.3968v-.438c0-1.3727-.518-2.3446-2.978-2.3446-1.658 0-3.548.8216-4.786 1.5631l-1.27-3.0775c2.2-1.1923 4.93-2.0497 7.519-2.0497 3.975 0 6.545 1.9009 6.545 5.2245v11.8174h.001Zm-5.031-4.4444v-3.076c-2.396-.0386-4.636.2004-4.636 2.4906 0 1.4156 1.193 1.855 2.098 1.855 1.073 0 1.905-.5367 2.538-1.2696ZM14.2107 25.497c0 3.6242-3.3494 5.6152-7.32436 5.6152-2.58935 0-4.68059-.4322-6.88634-1.3183l1.41563-3.3694c1.31257.531 3.20055 1.1236 4.73642 1.1236 1.20378 0 2.88278-.1474 2.88278-1.6117 0-.6828-.42941-1.0363-1.22239-1.2696-.98908-.292-2.51206-.554-3.51545-.8302-2.10985-.5812-3.85756-1.6891-3.85756-4.7851 0-3.4339 2.93002-5.5666 6.93501-5.5666 2.64516 0 4.32416.3492 5.81136.7815l-1.3197 3.3694c-.6556-.2977-2.49775-.7328-3.80889-.7328-1.42279 0-2.39326.5439-2.39326 1.4156 0 .4323.2691.9791 1.02629 1.221.81302.2605 2.09697.4967 3.17479.7328 2.20427.4838 4.34567 1.7506 4.34567 5.2246Zm71.4785-3.6128c0 .551-.0171 1.1207-.0486 1.709H74.6047c.0472 2.4219 1.2553 3.8562 4.785 3.8562 1.5645 0 3.4439-.71 4.2512-1.2682l1.367 3.076c-2.2816 1.2381-4.7379 1.9037-7.4732 1.9037-5.1716 0-8.395-3.3308-8.395-8.6426 0-5.3992 4.224-8.74 8.7872-8.74 5.684 0 7.7623 3.3208 7.7623 8.1059Zm-5.3218-1.6118c.0887-1.835-.8331-2.9786-2.638-2.9786-1.7435 0-2.7812 1.2796-3.0746 2.9786h5.7126Zm-11.2177 12.599c0 4.8552-4.8409 7.1053-9.6203 7.1282-4.2039.0201-8.2518-1.1894-8.2518-5.2245 0-1.888 1.6718-3.1504 2.6852-3.8089-.564-.322-1.0735-.5739-1.5144-1.0749-.4638-.5268-.8302-1.2954-.8302-2.5879 0-1.6275 1.4357-3.1333 3.1748-4.1009-.9647-.5082-2.2458-1.3255-2.2458-4.0537 0-3.5484 3.3666-5.4192 7.7638-5.4192 3.7373 0 7.3243.8932 7.3243 5.2732 0 4.1839-3.932 5.7126-7.9098 5.7126-.7429 0-1.4042-.1173-2.0526-.2433-.4237.2262-1.2696.7873-1.2696 1.4156 0 1.2797 1.7463 1.4658 2.5393 1.4658h4.1008c3.8046 0 6.1063 1.845 6.1063 5.5179Zm-6.5443-13.6253c0-1.3941-.77-2.5392-2.4905-2.5392-1.5717 0-2.5379 1.3297-2.5379 2.5392 0 1.3971.8689 2.5393 2.4405 2.5393 1.7277 0 2.5879-1.1465 2.5879-2.5393Zm1.367 14.3081c0-1.3584-1.0864-1.8551-2.1971-1.8551h-4.5418c-.6914.3951-1.7592 1.261-1.7592 2.3918 0 1.4629 1.9696 2.442 4.297 2.442 2.4119 0 4.2011-1.1079 4.2011-2.9787Z"
            fill="#36398E"/>
    </symbol>

    <symbol id="merck-icon" viewBox="0 0 138 40" fill="none" xmlns="http://www.w3.org/2000/svg">
        <path
            d="M65.0109 9.9998h6.1965v19.9988h-4.5919V16.5495l-5.8742 13.4486-6.1824-13.4655v13.4655h-4.2842V9.9993h6.1243l4.4158 10.3513 4.1961-10.3508Zm8.4799 0v19.9988h11.5393v-3.3904h-7.066v-5.0883h6.7737v-3.4221h-6.7737v-4.5882h7.066V9.9998H73.4908ZM102.24 20.0027c0 7.4441 7.77 13.4014 15.956 9.4168v-4.2846c-6.299 4.4128-11.783-.0101-11.693-4.9613.062-3.2906 2.273-6.4202 6.551-6.664 2.103-.1194 3.528.4034 5.142 1.9483v-4.4556c-5.915-3.505-15.956.3529-15.956 9.0004Zm17.844 9.9956h4.253V10.1922h-4.253v19.8061Zm9.59-10.7241 6.428-9.0383h-4.968l-6.368 9.0214 7.393 10.741h4.878l-7.363-10.7241Z"
            fill="#231F20"/>
        <path
            d="M87.0183 9.9993V29.998h4.489V19.2539l7.4204 10.7441h4.7853l-5.8746-8.3971c2.7226-1.0295 3.6056-3.3123 3.6056-5.5942 0-2.2796-1.9137-6.0072-6.5501-6.0072l-7.8756-.0002Zm4.489 3.3282h1.9595c3.3128 0 3.4895 2.1655 3.4895 2.9743 0 1.545-1.3109 2.8607-3.0028 2.8607h-2.4462v-5.835Z"
            fill="#231F20"/>
        <path
            d="M9.9994 10.0001C9.9994 4.4769 14.4772 0 19.9995 0c5.5243 0 10.0004 4.4769 10.0004 10.0001H9.9994Zm0 19.9998c0-5.5225 4.4778-10.0004 10.0001-10.0004-5.5223 0-10.0001-4.4759-10.0001-9.9994C4.4769 10.0001 0 14.4772 0 19.9995c0 5.5243 4.4769 10.0004 9.9994 10.0004Zm0 0C9.9994 35.5241 14.4772 40 19.9995 40c5.5243 0 10.0004-4.4759 10.0004-10.0001H9.9994Zm10.0001-10.0004c5.5243 0 10.0004 4.4779 10.0004 10.0004 5.5232 0 10.0011-4.4759 10.0011-10.0004 0-5.5223-4.4779-9.9994-10.0011-9.9994 0 5.5235-4.4759 9.9994-10.0004 9.9994Z"
            fill="#007A73"/>
    </symbol>

    <symbol id="facebook-icon" viewBox="0 0 32 33" fill="none" xmlns="http://www.w3.org/2000/svg">
        <path
            d="M32 16.4242C32 7.5332 24.8369.3262 16.002.3262 7.1631.3282 0 7.5332 0 16.4262c0 8.033 5.8513 14.6921 13.4983 15.9V21.0776H9.4388v-4.6514h4.0635v-3.5496c0-4.0335 2.3897-6.2612 6.0433-6.2612 1.7517 0 3.5815.314 3.5815.314v3.9595h-2.0177c-1.9858 0-2.6057 1.2418-2.6057 2.5156v3.0197h4.4354l-.7079 4.6514h-3.7295v11.2486C26.1487 31.1163 32 24.4572 32 16.4242Z"
            fill="#444B51"/>
    </symbol>

    <symbol id="in-icon" viewBox="0 0 33 33" fill="none" xmlns="http://www.w3.org/2000/svg">
        <path
            d="M16.4285.3262c-8.8367 0-16 7.1633-16 16 0 8.8366 7.1633 16 16 16 8.8366 0 16-7.1634 16-16 0-8.8367-7.1634-16-16-16Zm-3.9167 22.6316h-3.24V12.5312h3.24v10.4266Zm-1.64-11.7066c-1.0233 0-1.685-.725-1.685-1.6217 0-.915.6817-1.6183 1.7267-1.6183s1.685.7033 1.705 1.6183c0 .8967-.66 1.6217-1.7467 1.6217Zm13.4733 11.7066h-3.24v-5.7783c0-1.345-.47-2.2583-1.6416-2.2583-.895 0-1.4267.6183-1.6617 1.2133-.0867.2117-.1083.5117-.1083.81v6.0117h-3.2417v-7.1c0-1.3017-.0417-2.39-.085-3.3267h2.815l.1483 1.4483h.065c.4267-.68 1.4717-1.6833 3.22-1.6833 2.1317 0 3.73 1.4283 3.73 4.4983v6.165Z"
            fill="#444B51"/>
    </symbol>

    <symbol id="mess-icon" viewBox="0 0 33 33" fill="none" xmlns="http://www.w3.org/2000/svg">
        <path
            d="M16.8574.3262c-8.8357 0-16 7.1643-16 16s7.1643 16 16 16 16-7.1643 16-16-7.1643-16-16-16Zm7.6893 12.0607c.0107.1678.0107.3428.0107.5143 0 5.2428-3.9928 11.2821-11.2893 11.2821-2.25 0-4.3357-.6536-6.0928-1.7786.3214.0358.6285.05.9571.05 1.8572 0 3.5643-.6285 4.925-1.6928-1.7428-.0357-3.2071-1.1786-3.7071-2.75.6107.0893 1.1607.0893 1.7893-.0714a3.9646 3.9646 0 0 1-3.175-3.8929v-.05c.525.2964 1.1428.4786 1.7893.5036a3.9689 3.9689 0 0 1-1.768-3.3c0-.7393.193-1.4143.5394-2a11.2583 11.2583 0 0 0 3.6481 2.9434 11.2585 11.2585 0 0 0 4.5305 1.203c-.5608-2.6964 1.4535-4.8786 3.875-4.8786 1.1428 0 2.1714.4786 2.8964 1.25.8964-.1678 1.7536-.5035 2.5178-.9535a3.948 3.948 0 0 1-1.7428 2.1821c.8-.0857 1.5714-.3071 2.2857-.6179-.5393.7929-1.2143 1.4965-1.9893 2.0572Z"
            fill="#444B51"/>
    </symbol>
    <symbol id="p-icon" viewBox="0 0 33 33" fill="none" xmlns="http://www.w3.org/2000/svg">
        <path
            d="M16.2859.3262c-8.8367 0-16 7.1633-16 16 0 8.8366 7.1633 16 16 16s16-7.1634 16-16c0-8.8367-7.1633-16-16-16Zm1.095 19.7916c-1.0267-.0783-1.4567-.5866-2.26-1.0733-.4417 2.3183-.9817 4.5417-2.5817 5.7033-.495-3.5066.7234-6.1366 1.29-8.9316-.965-1.625.115-4.8934 2.1517-4.09 2.505.9933-2.17 6.0416.9683 6.6733 3.2767.6567 4.615-5.6867 2.5834-7.7467-2.9367-2.9783-8.545-.0683-7.855 4.195.1666 1.0417 1.245 1.3584.43 2.7967-1.8784-.4167-2.44-1.8983-2.3667-3.8733.115-3.2334 2.905-5.4984 5.7017-5.81 3.5383-.3934 6.8583 1.2983 7.3183 4.6283.515 3.7567-1.5983 7.8217-5.38 7.5283Z"
            fill="#444B51"/>
    </symbol>
    <symbol id="inst-icon" viewBox="0 0 33 33" fill="none" xmlns="http://www.w3.org/2000/svg">
        <path
            d="M21.7141 16.3262a4.9999 4.9999 0 0 1-8.5355 3.5355 4.9999 4.9999 0 0 1-1.4645-3.5355c0-.285.03-.5634.0817-.8334h-1.7484v6.6617a.838.838 0 0 0 .8384.8383h11.6583a.8382.8382 0 0 0 .8367-.8383v-6.6617h-1.7484c.0517.27.0817.5484.0817.8334Zm-5 3.3333a3.3351 3.3351 0 0 0 2.3574-.9771 3.3353 3.3353 0 0 0 .9759-2.3579 3.3336 3.3336 0 0 0-2.059-3.0798 3.3341 3.3341 0 1 0-1.2743 6.4148Zm4-6.8333h1.9983a.5018.5018 0 0 0 .5017-.5v-1.9984a.5016.5016 0 0 0-.5017-.5016h-1.9983a.5017.5017 0 0 0-.5017.5016v1.9984c.0017.275.2267.5.5017.5Zm-4-12.5A16 16 0 0 0 5.4004 27.6399a15.9998 15.9998 0 0 0 27.3137-11.3137 15.9996 15.9996 0 0 0-16-16Zm8.3333 22.4816c0 1.0184-.8333 1.8517-1.8516 1.8517H10.2324c-1.0183 0-1.8516-.8333-1.8516-1.8517V9.8445c0-1.0183.8333-1.8517 1.8516-1.8517h12.9634c1.0183 0 1.8516.8334 1.8516 1.8517v12.9633Z"
            fill="#444B51"/>
    </symbol>
</svg>





